<svg width="452" height="288" viewBox="0 0 452 288" fill="none" xmlns="http://www.w3.org/2000/svg">
<g clip-path="url(#clip0_1_7493)">
<path d="M0 16C0 7.16345 7.16344 0 16 0H436C444.837 0 452 7.16344 452 16V288H0V16Z" fill="white"/>
<path d="M452 0H0V288H452V0Z" fill="url(#paint0_linear_1_7493)"/>
<path d="M226 265C298.678 265 357.595 207.021 357.595 135.5C357.595 63.9791 298.678 6 226 6C153.322 6 94.4053 63.9791 94.4053 135.5C94.4053 207.021 153.322 265 226 265Z" fill="#57A9FF"/>
<path opacity="0.3" d="M241.365 43.033C239.659 43.2043 238.014 42.9498 236.548 42.3637C234.863 46.539 230.922 50.4976 225.863 51.0058C219.848 51.61 214.243 47.4731 212.28 42.4096C211.179 42.9958 209.926 43.3029 208.601 43.5206C196.655 45.4838 193.438 33.6345 202.119 29.0268C198.871 18.2701 206.238 14.9456 209.772 14.5907C213.825 14.1836 218.835 16.707 220.608 19.8728C222.173 17.7858 224.656 16.3133 227.571 16.0206C232.893 15.486 237.633 19.0807 238.158 24.0497C238.201 24.4532 238.211 24.8527 238.197 25.2477C238.609 25.1544 239.03 25.0824 239.463 25.039C244.785 24.5044 249.525 28.0991 250.05 33.0681C250.575 38.0371 246.687 42.4985 241.365 43.033Z" fill="#363E44"/>
<path opacity="0.3" d="M106.953 38.8542C108.611 38.449 110.28 38.5063 111.827 38.9408C112.808 34.265 116.33 30.3536 121.25 29.1517C127.1 27.7228 133.047 30.5807 135.821 35.7286C136.813 34.9594 137.978 34.3807 139.278 34.0633C144.269 32.8441 149.357 35.9132 150.708 40.9287C151.843 40.1376 153.138 39.5372 154.564 39.189C160.857 37.652 167.274 41.5651 168.899 47.9292C170.523 54.2933 166.738 60.6984 160.445 62.2355C155.854 63.3572 151.197 61.5744 148.383 58.057C147.464 61.245 144.939 63.8506 141.502 64.6899C137.561 65.6527 133.561 64.0139 131.287 60.8663C130.082 63.2977 127.869 65.1926 125.034 65.8852C119.858 67.1494 114.579 63.9308 113.243 58.6963C113.135 58.2713 113.058 57.8463 113.007 57.4229C112.616 57.5762 112.211 57.7079 111.79 57.8105C106.615 59.0747 101.336 55.8561 99.9998 50.6216C98.6641 45.3868 101.777 40.1184 106.953 38.8542Z" fill="#363E44"/>
<path opacity="0.21" d="M243.43 30.5433C245.226 29.7239 247.142 29.4401 249.009 29.6206C249.022 23.9773 252.115 18.6891 257.442 16.2582C263.776 13.3684 271.234 15.4428 275.615 20.8468C276.565 19.744 277.756 18.8264 279.163 18.1844C284.568 15.7186 291.096 18.2193 293.823 23.7679C294.93 22.6098 296.265 21.6396 297.809 20.9351C304.622 17.8264 312.867 21.0293 316.224 28.0888C319.581 35.1484 316.779 43.3915 309.965 46.5002C304.993 48.7687 299.262 47.6734 295.221 44.1739C294.926 48.0742 292.662 51.6344 288.941 53.3321C284.673 55.2794 279.725 54.2133 276.387 51.0307C275.587 54.1111 273.511 56.7797 270.441 58.1803C264.837 60.7373 258.056 58.1028 255.295 52.2962C255.071 51.8248 254.883 51.3466 254.725 50.8649C254.314 51.1254 253.883 51.3635 253.428 51.5712C247.824 54.1283 241.043 51.4938 238.282 45.6872C235.521 39.8804 237.826 33.1003 243.43 30.5433Z" fill="#363E44"/>
<path opacity="0.21" d="M343.402 76.3864C341.847 76.711 340.302 76.618 338.884 76.1876C337.795 80.3829 334.377 83.8256 329.767 84.7884C324.285 85.9331 318.878 83.2071 316.501 78.4928C315.551 79.1623 314.449 79.6558 313.231 79.9102C308.554 80.887 303.952 77.9915 302.89 73.4318C301.808 74.1177 300.583 74.6274 299.247 74.9064C293.35 76.1378 287.546 72.4478 286.283 66.6644C285.021 60.8811 288.777 55.1946 294.673 53.9632C298.976 53.0646 302.82 53.5992 305.296 56.843C306.271 53.9888 309.12 52.8894 312.34 52.2168C316.033 51.4455 319.681 53.0233 321.67 55.92C322.881 53.7556 325.007 52.1003 327.663 51.5455C332.513 50.5327 337.287 53.5678 338.326 58.3247C338.41 58.7109 338.465 59.0964 338.496 59.4796C338.865 59.3509 339.246 59.2422 339.64 59.1599C344.49 58.1471 349.263 61.1822 350.302 65.9391C351.341 70.696 348.252 75.3735 343.402 76.3864Z" fill="#363E44"/>
<path d="M111.156 223.734V80.3163H338.002V112.636V191.413V223.734H111.156Z" fill="white"/>
<path d="M335.342 233.975H115.973C105.756 233.975 97.4438 225.795 97.4438 215.74V87.3183C97.4438 77.2638 105.756 69.0842 115.973 69.0842H335.342C345.559 69.0842 353.871 77.264 353.871 87.3183V215.74C353.871 225.795 345.559 233.975 335.342 233.975ZM115.973 69.7083C106.106 69.7083 98.078 77.6083 98.078 87.3183V215.74C98.078 225.451 106.106 233.35 115.973 233.35H335.342C345.209 233.35 353.236 225.451 353.236 215.74V87.3183C353.236 77.6081 345.209 69.7083 335.342 69.7083H115.973Z" fill="#363E44"/>
<path d="M226 216.387C189.659 216.387 160.094 187.292 160.094 151.53C160.094 115.767 189.659 86.6722 226 86.6722C262.341 86.6722 291.906 115.767 291.906 151.53C291.906 187.292 262.341 216.387 226 216.387ZM226 87.2964C190.009 87.2964 160.728 116.111 160.728 151.53C160.728 186.948 190.009 215.762 226 215.762C261.991 215.762 291.272 186.948 291.272 151.53C291.272 116.111 261.991 87.2964 226 87.2964Z" fill="#57BFFF"/>
<path d="M226 206.442C195.231 206.442 170.199 181.808 170.199 151.53C170.199 121.251 195.231 96.6173 226 96.6173C256.768 96.6173 281.801 121.251 281.801 151.53C281.801 181.808 256.768 206.442 226 206.442ZM226 97.2414C195.581 97.2414 170.833 121.595 170.833 151.529C170.833 181.464 195.581 205.817 226 205.817C256.419 205.817 281.166 181.464 281.166 151.529C281.166 121.595 256.419 97.2414 226 97.2414Z" fill="#57BFFF"/>
<path d="M226 195.507C201.358 195.507 181.311 175.779 181.311 151.53C181.311 127.28 201.358 107.552 226 107.552C250.642 107.552 270.689 127.28 270.689 151.53C270.689 175.779 250.641 195.507 226 195.507ZM226 108.176C201.708 108.176 181.945 127.624 181.945 151.53C181.945 175.435 201.708 194.883 226 194.883C250.292 194.883 270.055 175.435 270.055 151.53C270.055 127.624 250.292 108.176 226 108.176Z" fill="#57BFFF"/>
<path d="M226 184.526C207.511 184.526 192.47 169.724 192.47 151.53C192.47 133.335 207.511 118.533 226 118.533C244.489 118.533 259.53 133.335 259.53 151.53C259.53 169.724 244.489 184.526 226 184.526ZM226 119.157C207.861 119.157 193.104 133.679 193.104 151.53C193.104 169.38 207.861 183.902 226 183.902C244.139 183.902 258.896 169.38 258.896 151.53C258.896 133.679 244.139 119.157 226 119.157Z" fill="#57BFFF"/>
<path d="M226 173.678C213.59 173.678 203.493 163.742 203.493 151.529C203.493 139.317 213.59 129.381 226 129.381C238.41 129.381 248.507 139.317 248.507 151.529C248.507 163.742 238.41 173.678 226 173.678ZM226 130.005C213.939 130.005 204.127 139.661 204.127 151.53C204.127 163.398 213.939 173.054 226 173.054C238.061 173.054 247.872 163.398 247.872 151.53C247.872 139.661 238.06 130.005 226 130.005Z" fill="#57BFFF"/>
<path d="M226 164.797C218.566 164.797 212.517 158.845 212.517 151.53C212.517 144.213 218.565 138.261 226 138.261C233.434 138.261 239.483 144.213 239.483 151.53C239.483 158.845 233.434 164.797 226 164.797ZM226 138.885C218.915 138.885 213.151 144.557 213.151 151.529C213.151 158.501 218.915 164.173 226 164.173C233.085 164.173 238.848 158.501 238.848 151.529C238.848 144.557 233.085 138.885 226 138.885Z" fill="#57BFFF"/>
<path d="M226 216.387C225.825 216.387 225.683 216.247 225.683 216.075V86.9844C225.683 86.8119 225.825 86.6724 226 86.6724C226.175 86.6724 226.317 86.8119 226.317 86.9844V216.075C226.317 216.247 226.175 216.387 226 216.387Z" fill="#57BFFF"/>
<path d="M258.795 207.739C258.685 207.739 258.579 207.683 258.52 207.583L192.931 95.7878C192.843 95.6384 192.895 95.4478 193.047 95.3615C193.198 95.275 193.392 95.3261 193.48 95.4758L259.069 207.271C259.156 207.42 259.105 207.611 258.953 207.697C258.903 207.726 258.848 207.739 258.795 207.739Z" fill="#57BFFF"/>
<path d="M282.802 184.114C282.748 184.114 282.693 184.1 282.643 184.072L169.039 119.527C168.888 119.441 168.836 119.25 168.923 119.101C169.011 118.951 169.204 118.9 169.357 118.987L282.96 183.532C283.112 183.618 283.164 183.809 283.077 183.958C283.018 184.058 282.911 184.114 282.802 184.114Z" fill="#57BFFF"/>
<path d="M291.589 151.842H160.411C160.236 151.842 160.094 151.702 160.094 151.53C160.094 151.357 160.236 151.218 160.411 151.218H291.589C291.764 151.218 291.906 151.357 291.906 151.53C291.906 151.702 291.764 151.842 291.589 151.842Z" fill="#57BFFF"/>
<path d="M169.198 184.114C169.089 184.114 168.982 184.058 168.923 183.958C168.836 183.808 168.888 183.618 169.039 183.532L282.643 118.987C282.795 118.9 282.989 118.952 283.076 119.101C283.164 119.25 283.112 119.441 282.96 119.527L169.356 184.072C169.307 184.101 169.252 184.114 169.198 184.114Z" fill="#57BFFF"/>
<path d="M193.205 207.739C193.151 207.739 193.097 207.725 193.047 207.697C192.895 207.611 192.843 207.42 192.931 207.271L258.52 95.4756C258.607 95.3265 258.801 95.2747 258.953 95.3614C259.105 95.4476 259.156 95.6384 259.069 95.7876L193.48 207.583C193.421 207.683 193.315 207.739 193.205 207.739Z" fill="#57BFFF"/>
<path d="M226 216.387C225.825 216.387 225.683 216.247 225.683 216.075V86.9844C225.683 86.8119 225.825 86.6724 226 86.6724C226.175 86.6724 226.317 86.8119 226.317 86.9844V216.075C226.317 216.247 226.175 216.387 226 216.387Z" fill="#57BFFF"/>
<path d="M244.388 133.177C245.336 129.225 242.849 125.264 238.832 124.33C234.816 123.397 230.791 125.845 229.842 129.797C228.894 133.75 231.381 137.711 235.398 138.644C239.414 139.577 243.439 137.13 244.388 133.177Z" fill="#007FFF"/>
<path d="M198.201 87.3236C198.183 87.3236 198.164 87.322 198.146 87.3188L194.887 86.7477C194.761 86.7257 194.661 86.6308 194.633 86.5076C194.606 86.3841 194.656 86.2567 194.762 86.1845L207.472 77.4572C207.616 77.3594 207.813 77.3938 207.914 77.5346C208.014 77.676 207.978 77.8704 207.835 77.9692L195.752 86.2654L198.128 86.6816L217.263 73.5429C217.407 73.4451 217.604 73.4792 217.704 73.6204C217.804 73.7618 217.769 73.9562 217.625 74.055L198.383 87.2677C198.329 87.3043 198.266 87.3236 198.201 87.3236Z" fill="#363E44"/>
<path d="M285.55 102.627C285.531 102.627 285.513 102.626 285.494 102.623L282.236 102.052C282.153 102.037 282.079 101.991 282.031 101.923L268.605 82.9867C268.505 82.8453 268.54 82.6509 268.684 82.5521C268.828 82.454 269.025 82.4884 269.125 82.6295L282.476 101.46L284.852 101.876L276.421 89.9858C276.321 89.8443 276.356 89.65 276.5 89.5511C276.644 89.453 276.841 89.4874 276.941 89.6286L285.81 102.137C285.883 102.24 285.886 102.377 285.817 102.484C285.758 102.574 285.657 102.627 285.55 102.627Z" fill="#363E44"/>
<path d="M209.075 64.5483L177.66 33.9466L178.547 29.0471L216.092 53.534L209.075 64.5483Z" fill="#85CEFB"/>
<path d="M187.786 37.2899L180.834 36.0717L178.546 29.0471L188.948 30.8695L187.786 37.2899Z" fill="#85CEFB"/>
<path d="M187.057 29.9877C187.038 29.9877 187.019 29.9861 187.001 29.9829L180.685 28.8761C180.512 28.8459 180.397 28.6838 180.428 28.5144L180.879 26.0266C180.909 25.8565 181.074 25.7426 181.246 25.774L187.562 26.8805C187.735 26.9107 187.85 27.0728 187.819 27.2422L187.369 29.7305C187.354 29.8121 187.307 29.8843 187.238 29.9319C187.184 29.9684 187.121 29.9877 187.057 29.9877ZM181.108 28.3162L186.8 29.3135L187.139 27.44L181.447 26.4429L181.108 28.3162Z" fill="#363E44"/>
<path d="M163.182 42.797C163.123 42.797 163.065 42.7811 163.013 42.7494C162.907 42.6836 162.85 42.5623 162.868 42.4401C162.885 42.3225 164.767 30.6692 179.243 28.8382C179.415 28.819 179.576 28.9373 179.598 29.1079C179.62 29.2789 179.498 29.4355 179.324 29.4575C167.44 30.9604 164.339 39.2452 163.662 41.7879L181.435 29.9535C181.58 29.8573 181.777 29.8943 181.875 30.037C181.973 30.1799 181.935 30.3737 181.79 30.4704L163.36 42.7432C163.306 42.779 163.244 42.797 163.182 42.797Z" fill="#363E44"/>
<path d="M189.101 26.9449C188.944 26.9449 188.807 26.83 188.787 26.6728C188.765 26.5017 188.887 26.3452 189.061 26.3232C200.945 24.8203 204.046 16.5354 204.722 13.9931L186.95 25.8274C186.805 25.924 186.608 25.8862 186.51 25.7439C186.412 25.6011 186.449 25.4071 186.594 25.3106L205.025 13.0378C205.129 12.9685 205.265 12.9661 205.371 13.0317C205.478 13.0975 205.535 13.2188 205.517 13.341C205.499 13.4587 203.618 25.1117 189.142 26.9426C189.128 26.9439 189.114 26.9449 189.101 26.9449Z" fill="#363E44"/>
<path d="M184.156 48.6315C182.916 48.6315 181.672 48.5228 180.428 48.3049C175.686 47.4741 171.499 45.1601 168.32 41.6123C168.204 41.4831 168.216 41.286 168.348 41.172C168.479 41.0575 168.679 41.0702 168.795 41.1998C171.879 44.6402 175.94 46.8849 180.539 47.6906C183.471 48.2041 186.406 48.0938 189.263 47.3612C189.434 47.3181 189.606 47.4178 189.65 47.5846C189.694 47.7512 189.593 47.9216 189.423 47.9651C187.689 48.4092 185.928 48.6315 184.156 48.6315Z" fill="#363E44"/>
<path d="M196.006 44.9497C195.906 44.9497 195.808 44.9031 195.746 44.8162C195.646 44.6748 195.681 44.4804 195.825 44.3816C200.304 41.3063 203.298 36.6978 204.256 31.4058C204.871 28.0031 204.587 24.4906 203.435 21.248C203.377 21.0852 203.464 20.9072 203.629 20.8503C203.794 20.794 203.976 20.8796 204.033 21.042C205.222 24.3856 205.515 28.007 204.88 31.5152C203.893 36.9714 200.806 41.7226 196.188 44.8937C196.132 44.9313 196.069 44.9497 196.006 44.9497Z" fill="#363E44"/>
<path d="M198.47 13.413C198.391 13.413 198.312 13.3844 198.251 13.3265C196.345 11.5307 194.138 10.1356 191.693 9.1799C191.53 9.11619 191.45 8.93484 191.515 8.77458C191.58 8.61433 191.763 8.53604 191.927 8.5996C194.449 9.58507 196.724 11.0237 198.69 12.8753C198.816 12.9945 198.821 13.1923 198.699 13.3166C198.637 13.3807 198.554 13.413 198.47 13.413Z" fill="#363E44"/>
<path d="M164.421 34.6578C164.288 34.6578 164.164 34.5753 164.12 34.4448C163.01 31.1805 162.75 27.6523 163.367 24.2416C165.404 12.9783 176.374 5.4465 187.819 7.45155C187.992 7.4817 188.106 7.6438 188.076 7.81326C188.045 7.983 187.879 8.0964 187.708 8.06596C176.607 6.11923 165.967 13.4265 163.991 24.3507C163.392 27.6592 163.645 31.0811 164.721 34.2467C164.777 34.4101 164.687 34.587 164.521 34.6417C164.488 34.6526 164.454 34.6578 164.421 34.6578Z" fill="#363E44"/>
<path d="M279.964 76.9684L320.181 58.9169L321.067 54.0176L277.24 64.2474L279.964 76.9684Z" fill="#85CEFB"/>
<path d="M309.504 58.6155L316.457 59.8337L321.067 54.0176L310.665 52.1952L309.504 58.6155Z" fill="#85CEFB"/>
<path d="M319.176 53.1358C319.157 53.1358 319.139 53.1342 319.12 53.131L312.804 52.0242C312.721 52.0099 312.648 51.9636 312.599 51.8956C312.551 51.8277 312.533 51.7439 312.547 51.6622L312.998 49.1744C313.028 49.0046 313.192 48.8901 313.365 48.9221L319.681 50.0289C319.854 50.0591 319.969 50.2212 319.938 50.3906L319.488 52.8784C319.473 52.9601 319.426 53.0323 319.357 53.0799C319.304 53.1167 319.24 53.1358 319.176 53.1358ZM313.227 51.4643L318.919 52.4616L319.258 50.5884L313.566 49.591L313.227 51.4643Z" fill="#363E44"/>
<path d="M330.774 72.1603C330.673 72.1603 330.577 72.113 330.517 72.0305L317.523 54.2516C317.421 54.1118 317.453 53.9167 317.595 53.8162C317.737 53.7154 317.935 53.7473 318.038 53.8872L330.567 71.0298C330.82 68.4103 330.805 59.5778 320.193 54.1386C320.038 54.0591 319.978 53.8708 320.059 53.7178C320.139 53.5654 320.331 53.505 320.486 53.5852C333.431 60.2202 331.11 71.7968 331.085 71.9129C331.059 72.0339 330.963 72.128 330.84 72.1537C330.818 72.1582 330.796 72.1603 330.774 72.1603Z" fill="#363E44"/>
<path d="M312.007 48.4788C311.958 48.4788 311.908 48.4674 311.861 48.4434C298.917 41.8084 301.238 30.2318 301.263 30.1157C301.289 29.9947 301.385 29.9006 301.508 29.8749C301.631 29.8493 301.757 29.8977 301.83 29.9981L314.824 47.777C314.926 47.9169 314.894 48.1119 314.752 48.2125C314.61 48.313 314.412 48.2814 314.309 48.1415L301.781 30.999C301.527 33.6185 301.543 42.451 312.154 47.8901C312.309 47.9697 312.37 48.1579 312.289 48.311C312.232 48.4174 312.122 48.4788 312.007 48.4788Z" fill="#363E44"/>
<path d="M316.302 71.782C315.057 71.782 313.802 71.6728 312.547 71.4528C309.525 70.9235 306.725 69.7884 304.224 68.0791C304.08 67.9807 304.045 67.7862 304.145 67.6449C304.245 67.5032 304.442 67.4682 304.586 67.5666C307.011 69.2241 309.727 70.3251 312.658 70.8386C317.258 71.6445 321.856 70.9174 325.957 68.7353C326.111 68.6539 326.304 68.7096 326.387 68.8614C326.47 69.0129 326.413 69.2024 326.259 69.2844C323.15 70.9385 319.762 71.782 316.302 71.782Z" fill="#363E44"/>
<path d="M299.213 63.0321C299.112 63.0321 299.014 62.9855 298.952 62.8986C295.73 58.3538 294.499 52.8457 295.486 47.3898C296.121 43.8817 297.666 40.582 299.954 37.848C300.066 37.7147 300.266 37.6962 300.4 37.8056C300.536 37.9151 300.555 38.1116 300.444 38.2448C298.224 40.8962 296.726 44.0963 296.11 47.4993C295.153 52.7913 296.347 58.1333 299.472 62.5417C299.573 62.6831 299.537 62.8775 299.394 62.9763C299.338 63.0138 299.275 63.0321 299.213 63.0321Z" fill="#363E44"/>
<path d="M307.96 32.5962C307.838 32.5962 307.721 32.5261 307.67 32.4088C307.6 32.2509 307.673 32.0669 307.834 31.9979C310.328 30.9281 312.968 30.3509 315.68 30.282C315.849 30.2753 316.001 30.4136 316.005 30.5861C316.01 30.7582 315.872 30.9015 315.697 30.906C313.066 30.9724 310.506 31.5322 308.087 32.5702C308.046 32.5879 308.003 32.5962 307.96 32.5962Z" fill="#363E44"/>
<path d="M332.466 64.1008C332.397 64.1008 332.327 64.0786 332.268 64.0323C332.132 63.9247 332.11 63.7282 332.219 63.5938C334.34 60.9881 335.777 57.8621 336.375 54.5542C338.352 43.6298 330.928 33.1596 319.827 31.2146C319.654 31.1844 319.54 31.0223 319.57 30.8529C319.601 30.6828 319.765 30.5683 319.938 30.6002C331.383 32.6054 339.037 43.4002 336.999 54.6632C336.382 58.0737 334.901 61.2967 332.714 63.9839C332.651 64.0609 332.559 64.1008 332.466 64.1008Z" fill="#363E44"/>
<path d="M284.159 63.4425L209.872 50.4254L206.438 69.4L280.726 82.4171L284.159 63.4425Z" fill="#85CEFB"/>
<path d="M265.737 69.2326L225.131 62.1176L222.311 77.7064L262.916 84.8215L265.737 69.2326Z" fill="#85CEFB"/>
<path d="M219.667 69.5123C219.649 69.5123 219.63 69.5108 219.611 69.5075C219.439 69.4774 219.324 69.3153 219.355 69.1458L221.35 58.1199C221.364 58.0383 221.411 57.9661 221.48 57.9185L224.917 55.5587C225.061 55.4606 225.258 55.495 225.358 55.6361C225.459 55.7775 225.424 55.9719 225.28 56.0706L221.951 58.3564L219.979 69.2548C219.952 69.4063 219.818 69.5123 219.667 69.5123Z" fill="#363E44"/>
<path d="M216.86 69.0206C216.842 69.0206 216.823 69.019 216.804 69.0157C216.632 68.9856 216.517 68.8235 216.548 68.654L218.543 57.6282C218.558 57.5465 218.605 57.4743 218.674 57.4267L222.11 55.0669C222.254 54.9688 222.452 55.0035 222.552 55.1443C222.652 55.2858 222.617 55.4801 222.473 55.579L219.144 57.8647L217.172 68.7633C217.145 68.9145 217.011 69.0206 216.86 69.0206Z" fill="#363E44"/>
<path d="M214.054 68.5285C214.035 68.5285 214.017 68.5269 213.998 68.5236C213.825 68.4935 213.71 68.3314 213.741 68.1619L215.736 57.1361C215.751 57.0544 215.798 56.9822 215.867 56.9346L219.304 54.5751C219.448 54.477 219.645 54.5116 219.745 54.6525C219.845 54.7939 219.81 54.9883 219.667 55.087L216.338 57.3725L214.366 68.2711C214.338 68.4224 214.205 68.5285 214.054 68.5285Z" fill="#363E44"/>
<path d="M275.768 79.3414C275.668 79.3414 275.57 79.2948 275.508 79.2079L273.11 75.826C273.062 75.758 273.043 75.6742 273.058 75.5928L275.053 64.5669C275.084 64.3969 275.249 64.2827 275.421 64.3144C275.593 64.3445 275.708 64.5066 275.677 64.6761L273.706 75.575L276.028 78.8509C276.128 78.9923 276.093 79.1867 275.95 79.2855C275.894 79.3232 275.831 79.3414 275.768 79.3414Z" fill="#363E44"/>
<path d="M272.962 78.8497C272.862 78.8497 272.763 78.8031 272.702 78.7162L270.304 75.3342C270.256 75.2663 270.237 75.1825 270.252 75.1011L272.246 64.0752C272.277 63.9052 272.441 63.7915 272.614 63.8226C272.787 63.8528 272.902 64.0149 272.871 64.1844L270.899 75.0832L273.222 78.3592C273.322 78.5006 273.287 78.695 273.143 78.7936C273.088 78.8314 273.024 78.8497 272.962 78.8497Z" fill="#363E44"/>
<path d="M270.155 78.3581C270.055 78.3581 269.957 78.3115 269.895 78.2246L267.497 74.8424C267.449 74.7744 267.43 74.6906 267.445 74.6092L269.44 63.5836C269.47 63.4136 269.634 63.2991 269.808 63.331C269.98 63.3612 270.095 63.5233 270.064 63.6928L268.092 74.5912L270.415 77.8674C270.515 78.0088 270.48 78.2032 270.336 78.3019C270.281 78.3398 270.218 78.3581 270.155 78.3581Z" fill="#363E44"/>
<path d="M245.272 74.9395C244.779 74.9395 244.282 74.8966 243.786 74.8097C241.584 74.4239 239.667 73.2175 238.387 71.4122C237.107 69.6069 236.618 67.4192 237.01 65.2519C237.402 63.0849 238.628 61.1978 240.462 59.9382C242.297 58.6784 244.52 58.1976 246.722 58.5834C251.268 59.38 254.308 63.6673 253.499 68.1408C253.107 70.3081 251.88 72.1953 250.046 73.4547C248.625 74.4309 246.97 74.9395 245.272 74.9395ZM245.238 59.0778C243.669 59.0778 242.139 59.5479 240.825 60.4503C239.13 61.6144 237.997 63.3587 237.634 65.3613C237.272 67.3644 237.724 69.3866 238.907 71.055C240.09 72.7234 241.862 73.8388 243.898 74.1953C245.934 74.5512 247.988 74.1072 249.683 72.9431C251.379 71.779 252.512 70.0347 252.874 68.0316C253.622 63.8967 250.813 59.9338 246.611 59.1977C246.153 59.1177 245.694 59.0778 245.238 59.0778Z" fill="#363E44"/>
<path d="M249.322 70.7017C251.569 68.49 251.569 64.9042 249.322 62.6926C247.074 60.4809 243.431 60.4809 241.183 62.6926C238.936 64.9042 238.936 68.49 241.183 70.7017C243.431 72.9134 247.074 72.9134 249.322 70.7017Z" fill="#363E44"/>
<path d="M248.246 65.2392C248.116 65.9577 247.418 66.4365 246.688 66.3086C245.958 66.1806 245.472 65.4945 245.602 64.776C245.732 64.0574 246.429 63.5787 247.159 63.7066C247.889 63.8346 248.376 64.5207 248.246 65.2392Z" fill="#F7F1EB"/>
<path d="M352.318 154.968V149.309L351.195 152.897L314.178 144.929V137.718C314.178 132.159 311.179 127.016 306.299 124.207L304.419 123.124L302.539 124.207C297.659 127.017 294.66 132.159 294.66 137.719V144.929L257.643 152.897L256.52 149.309V154.968H294.922C295.405 160.605 296.559 166.173 298.359 171.559L286.165 174.53V176.187H300.684L302.173 178.432H306.666L308.154 176.187H322.673V174.53L310.479 171.559C312.28 166.173 313.433 160.605 313.916 154.968H352.318Z" fill="#57BFFF"/>
<path d="M278.077 148.847C278.079 147.227 276.744 145.912 275.096 145.91C273.448 145.909 272.111 147.22 272.109 148.84C272.107 150.46 273.442 151.775 275.09 151.776C276.738 151.778 278.075 150.466 278.077 148.847Z" fill="#57BFFF"/>
<path d="M283.638 152.897H282.671V157.933H283.638V152.897Z" fill="white"/>
<path d="M282.285 155.843H280.352V160.213H282.285V155.843Z" fill="#363E44"/>
<path d="M285.957 155.843H284.024V160.213H285.957V155.843Z" fill="#363E44"/>
<path d="M333.755 151.77C335.402 151.768 336.737 150.454 336.735 148.834C336.733 147.214 335.396 145.902 333.748 145.904C332.1 145.906 330.766 147.22 330.767 148.84C330.769 150.46 332.107 151.772 333.755 151.77Z" fill="#57BFFF"/>
<path d="M325.2 157.933H326.167V152.898H325.2V157.933Z" fill="white"/>
<path d="M326.553 160.213H328.486V155.843H326.553V160.213Z" fill="#363E44"/>
<path d="M322.88 160.213H324.813V155.843H322.88V160.213Z" fill="#363E44"/>
<path d="M304.902 137.508H303.936V142.543H304.902V137.508Z" fill="white"/>
<path d="M303.549 140.453H301.616V144.823H303.549V140.453Z" fill="#363E44"/>
<path d="M307.222 140.453H305.289V144.823H307.222V140.453Z" fill="#363E44"/>
<path d="M323.136 234.272V228.367L321.964 232.112L283.34 223.798V216.274C283.34 210.473 280.211 205.107 275.119 202.175L273.157 201.046L271.196 202.175C266.103 205.107 262.975 210.473 262.975 216.274V223.798L224.351 232.112L223.179 228.367V234.272H263.248C263.752 240.154 264.955 245.963 266.834 251.583L254.111 254.684V256.412H269.26L270.813 258.755H275.501L277.054 256.412H292.203V254.684L279.48 251.583C281.359 245.963 282.562 240.154 283.066 234.272H323.136Z" fill="#57BFFF"/>
<path d="M245.668 227.879C245.668 229.569 244.274 230.939 242.555 230.939C240.835 230.939 239.441 229.569 239.441 227.879C239.441 226.189 240.835 224.819 242.555 224.819C244.274 224.819 245.668 226.189 245.668 227.879Z" fill="#57BFFF"/>
<path d="M251.474 232.112H250.465V237.366H251.474V232.112Z" fill="white"/>
<path d="M250.062 235.185H248.045V239.745H250.062V235.185Z" fill="#363E44"/>
<path d="M253.894 235.185H251.877V239.745H253.894V235.185Z" fill="#363E44"/>
<path d="M300.646 227.879C300.646 229.569 302.04 230.939 303.759 230.939C305.479 230.939 306.873 229.569 306.873 227.879C306.873 226.189 305.479 224.819 303.759 224.819C302.04 224.819 300.646 226.189 300.646 227.879Z" fill="#57BFFF"/>
<path d="M294.84 237.365H295.849V232.112H294.84V237.365Z" fill="white"/>
<path d="M296.252 239.745H298.269V235.185H296.252V239.745Z" fill="#363E44"/>
<path d="M292.42 239.745H294.437V235.185H292.42V239.745Z" fill="#363E44"/>
<path d="M273.661 216.054H272.653V221.308H273.661V216.054Z" fill="white"/>
<path d="M272.249 219.127H270.232V223.687H272.249V219.127Z" fill="#363E44"/>
<path d="M276.081 219.127H274.064V223.687H276.081V219.127Z" fill="#363E44"/>
<path d="M327.062 217.566C317.805 217.566 310.274 210.156 310.274 201.046C310.274 191.937 317.805 184.526 327.062 184.526C336.318 184.526 343.85 191.937 343.85 201.046C343.85 210.156 336.318 217.566 327.062 217.566ZM327.062 185.15C318.155 185.15 310.908 192.281 310.908 201.046C310.908 209.811 318.155 216.942 327.062 216.942C335.969 216.942 343.215 209.811 343.215 201.046C343.215 192.281 335.969 185.15 327.062 185.15Z" fill="#363E44"/>
<path d="M327.062 213.615C320.019 213.615 314.289 207.977 314.289 201.046C314.289 194.115 320.019 188.477 327.062 188.477C334.104 188.477 339.834 194.115 339.834 201.046C339.834 207.977 334.104 213.615 327.062 213.615ZM327.062 189.101C320.368 189.101 314.923 194.46 314.923 201.046C314.923 207.633 320.368 212.991 327.062 212.991C333.755 212.991 339.2 207.633 339.2 201.046C339.2 194.46 333.755 189.101 327.062 189.101Z" fill="#363E44"/>
<path d="M327.062 197.433C326.887 197.433 326.745 197.294 326.745 197.121V179.306C326.745 179.134 326.887 178.994 327.062 178.994C327.237 178.994 327.379 179.134 327.379 179.306V197.121C327.379 197.294 327.237 197.433 327.062 197.433Z" fill="#363E44"/>
<path d="M349.665 201.358H331.563C331.388 201.358 331.246 201.219 331.246 201.046C331.246 200.874 331.388 200.734 331.563 200.734H349.665C349.841 200.734 349.982 200.874 349.982 201.046C349.982 201.219 349.841 201.358 349.665 201.358Z" fill="#363E44"/>
<path d="M327.062 223.098C326.887 223.098 326.745 222.958 326.745 222.786V204.971C326.745 204.798 326.887 204.659 327.062 204.659C327.237 204.659 327.379 204.798 327.379 204.971V222.786C327.379 222.958 327.237 223.098 327.062 223.098Z" fill="#363E44"/>
<path d="M323.049 201.358H304.946C304.771 201.358 304.629 201.219 304.629 201.046C304.629 200.874 304.771 200.734 304.946 200.734H323.049C323.224 200.734 323.366 200.874 323.366 201.046C323.366 201.219 323.224 201.358 323.049 201.358Z" fill="#363E44"/>
</g>
<defs>
<linearGradient id="paint0_linear_1_7493" x1="226" y1="288" x2="226" y2="0" gradientUnits="userSpaceOnUse">
<stop offset="0.4" stop-color="#F5F9FC"/>
<stop offset="0.89" stop-color="#BEDEFF"/>
</linearGradient>
<clipPath id="clip0_1_7493">
<path d="M0 16C0 7.16345 7.16344 0 16 0H436C444.837 0 452 7.16344 452 16V288H0V16Z" fill="white"/>
</clipPath>
</defs>
</svg>
