<svg width="664" height="435" viewBox="0 0 664 435" fill="none" xmlns="http://www.w3.org/2000/svg">
<path d="M358.942 388.556C358.942 393.45 355.033 397.417 350.211 397.417C345.388 397.417 341.479 393.45 341.479 388.556C341.479 383.661 345.389 379.694 350.211 379.694C355.033 379.694 358.942 383.661 358.942 388.556Z" stroke="#ED725A" stroke-width="1.5" stroke-miterlimit="10"/>
<path d="M328.446 2.72012C332.071 2.72012 335.009 5.70252 335.009 9.3806V141.064C335.009 144.743 332.07 147.724 328.446 147.724H76.615C72.9898 147.724 70.0522 144.742 70.0522 141.064V9.3806C70.0522 5.70252 72.9909 2.72012 76.615 2.72012H328.446ZM328.446 1.12695H76.615C72.1306 1.12695 68.4824 4.82946 68.4824 9.3806V141.064C68.4824 145.615 72.1306 149.318 76.615 149.318H328.446C332.931 149.318 336.579 145.615 336.579 141.064V9.3806C336.58 4.82946 332.931 1.12695 328.446 1.12695Z" fill="white"/>
<path d="M328.446 147.724H76.6145C72.9894 147.724 70.0518 144.742 70.0518 141.064V20.4817H335.01V141.064C335.01 144.743 332.071 147.724 328.446 147.724Z" fill="#AFB9E8"/>
<path d="M85.4641 12.1207C85.4641 14.2258 83.7824 15.9327 81.7081 15.9327C79.6339 15.9327 77.9521 14.2258 77.9521 12.1207C77.9521 10.0156 79.6339 8.30884 81.7081 8.30884C83.7824 8.30884 85.4641 10.0156 85.4641 12.1207Z" stroke="white" stroke-width="1.5" stroke-miterlimit="10"/>
<path d="M100.024 12.1207C100.024 14.2258 98.3419 15.9327 96.2677 15.9327C94.1935 15.9327 92.5117 14.2258 92.5117 12.1207C92.5117 10.0156 94.1935 8.30884 96.2677 8.30884C98.3419 8.30884 100.024 10.0156 100.024 12.1207Z" stroke="white" stroke-width="1.5" stroke-miterlimit="10"/>
<path d="M70.0518 20.4817H335.01" stroke="white" stroke-width="1.5" stroke-miterlimit="10"/>
<path d="M224.688 121.098C224.688 121.098 192.188 92.4927 178.248 87.642C164.308 82.7914 135.665 90.583 135.306 90.583C134.946 90.583 109.665 147.729 109.665 147.729H213.351L224.688 121.098Z" fill="#EF9748"/>
<path d="M286.429 198.763C288.799 201.273 291.263 203.691 293.812 206.014C296.271 208.255 298.965 210.254 301.364 212.547C301.955 213.113 302.495 213.732 303.033 214.351C304.994 216.602 306.972 218.878 308.401 221.511C308.591 221.862 308.776 222.225 309.062 222.5C309.349 222.775 309.764 222.949 310.142 222.835C310.534 222.716 310.784 222.328 310.95 221.948C311.641 220.37 311.469 218.539 311.046 216.866C310.775 215.789 310.405 214.741 310.109 213.672C309.863 212.786 309.504 211.832 309.635 210.914C316.598 213.865 322.262 219.215 328.61 223.353C329.91 224.201 332.774 224.516 333.257 223.35C333.895 221.807 324.632 214.841 320.39 210.237C323.588 211.896 326.981 213.633 329.868 215.815C331.869 217.328 334.053 218.618 336.44 219.388C337.78 219.821 340.855 220.461 340.229 217.978C340.043 217.245 339.499 216.669 338.965 216.142C334.818 212.056 329.813 209.17 325.455 205.316C330.361 207.28 334.863 210.799 340.133 210.984C340.647 211.002 341.202 210.973 341.607 210.652C342.223 210.165 342.429 209.486 342.029 208.805C341.627 208.125 340.935 207.685 340.268 207.271C335.378 204.234 330.282 200.879 325.392 197.842C328.022 198.567 330.454 199.874 332.973 200.928C335.493 201.981 338.211 202.796 340.915 202.454C341.786 202.344 342.867 201.775 342.669 200.909C342.574 200.489 342.197 200.208 341.847 199.965C335.902 195.841 329.958 191.717 324.015 187.594C322.348 186.437 320.679 185.28 318.969 184.188C316.911 182.873 314.534 181.897 312.622 180.417C311.129 179.263 309.326 178.406 307.725 177.407C303.769 174.941 299.937 172.282 296.222 169.455" fill="#FFCAA3"/>
<path d="M309.767 210.891C307.895 210.055 305.995 209.286 304.07 208.585" stroke="black" stroke-miterlimit="10"/>
<path d="M320.669 210.224C318.13 208.461 315.5 206.833 312.793 205.35" stroke="black" stroke-miterlimit="10"/>
<path d="M325.469 205.214C323.383 203.873 321.299 202.531 319.213 201.19" stroke="black" stroke-miterlimit="10"/>
<path d="M327.766 199.156C326.213 198.288 324.718 197.313 323.295 196.24" stroke="black" stroke-miterlimit="10"/>
<path d="M185.731 88.5322C198.569 92.6277 205.012 93.0016 216.496 100.233C228.701 107.918 258.892 140.204 258.892 140.204C258.892 140.204 299.632 169.354 314.901 180.377L287.473 206.909C257.135 188.503 225.995 166.529 202.997 139.288" fill="#EF9748"/>
<path d="M139.15 142.187C139.15 142.187 151.882 135.256 157.486 133.826C165.247 131.845 174.452 131.285 176.92 132.048C178.075 132.405 182.423 134.218 184.698 136.919C187.115 137.991 188.096 138.529 189.531 139.142C190.966 139.754 191.64 141.469 193.143 142.775C194.645 144.081 196.294 147.72 196.294 147.72C196.294 147.72 184.837 147.76 181.618 147.868C178.399 147.976 174.924 154.213 167.723 156.422" fill="#FFCAA3"/>
<path d="M165.382 83.3916C156.55 83.3194 147.948 80.9838 139.133 80.9785C123.123 80.969 113.933 89.4934 106.145 101.309C100.247 110.257 94.6946 121.267 90.5158 131.091C85.639 142.557 80.1761 155.326 78.7529 167.848C78.1019 173.576 78.913 179.492 81.522 184.583C86.3496 194.001 97.0765 195.646 103.334 196.351C109.591 197.057 120.555 194.912 125.925 191.532C154.189 173.746 172.877 155.921 172.877 155.921L142.471 140.103L127.884 145.896L146.305 111.335" fill="#EF9748"/>
<path d="M144.809 114.141L127.885 145.898" stroke="black" stroke-miterlimit="10"/>
<path d="M142.471 140.105C133.752 143.539 125.033 146.972 116.314 150.405C110.361 152.749 104.526 157.388 99.7842 161.7" stroke="black" stroke-miterlimit="10"/>
<path d="M132.024 144.418L163.525 164.091" stroke="black" stroke-miterlimit="10"/>
<path d="M216.694 129.026C212.524 136.023 206.749 147.721 206.749 147.721" stroke="black" stroke-miterlimit="10"/>
<path d="M303.779 172.374L273.22 198.207" stroke="black" stroke-miterlimit="10"/>
<path d="M183.521 140.231C185.737 140.828 187.991 141.28 190.264 141.582C190.966 141.676 191.698 141.765 192.292 142.155" stroke="black" stroke-miterlimit="10"/>
<path d="M185.477 137.524C185.083 137.323 184.669 137.169 184.255 137.015C182.061 136.197 179.803 135.368 177.467 135.43" stroke="black" stroke-miterlimit="10"/>
<path d="M178.358 149.164C179.544 148.297 181.009 147.904 182.462 147.751C185.478 147.433 188.706 148.093 191.601 146.942" stroke="black" stroke-miterlimit="10"/>
<path d="M65.0879 170.068C65.5766 182.172 73.187 193.702 84.0301 198.767" stroke="black" stroke-miterlimit="10"/>
<path d="M56.6465 169.542C56.8935 177.44 60.1063 185.094 65.0878 189.649" stroke="black" stroke-miterlimit="10"/>
<path d="M228.149 92.9282C237.449 100.916 246.087 109.699 253.941 119.152" stroke="black" stroke-miterlimit="10"/>
<path d="M228.355 83.4575C234.841 88.3453 240.785 93.9724 246.039 100.2" stroke="black" stroke-miterlimit="10"/>
<path d="M153.268 99.5006C148.354 97.7088 143.8 95.0429 139.306 92.3441C137.401 91.1992 135.475 90.0266 133.937 88.409C132.398 86.7914 131.267 84.6513 131.311 82.4039C131.352 80.3327 132.373 78.4008 133.642 76.7779C137.603 71.7159 144.003 69.0882 150.345 68.504C156.687 67.9199 163.05 69.1626 169.248 70.6474C178.566 72.8789 188.078 75.8453 195.266 82.2615C197.289 84.0682 199.121 86.1616 200.251 88.6448C201.811 92.0744 201.926 96.0349 201.26 99.7513C200.593 103.468 199.189 106.999 197.794 110.501" fill="#EF9748"/>
<path d="M178.473 62.1418L165.944 65.8465L166.225 72.2393L159.883 83.2204C159.883 83.2204 174.874 89.113 180.511 101.129C186.651 102.055 189.109 97.0034 189.109 97.0034L195.146 82.324" fill="#FFCAA3"/>
<path d="M207.955 74.9022C209.035 68.5985 210.336 61.7788 210.235 56.7592C210.149 52.5097 209.508 46.0925 206.804 42.7638C203.323 38.4772 196.985 38.4081 191.664 37.8059C182.928 36.8182 176.89 44.8498 174.304 52.3525C172.318 58.1166 172.481 63.7426 174.321 69.684C176.726 77.4491 185.253 87.879 196.348 86.5992C202.236 85.9205 206.811 81.5775 207.955 74.9022Z" fill="#FFCAA3"/>
<path d="M197.234 61.1276C197.127 62.0654 196.468 62.759 195.76 62.6761C195.053 62.5933 194.566 61.7659 194.673 60.827C194.78 59.8892 195.44 59.1956 196.146 59.2784C196.854 59.3613 197.34 60.1887 197.234 61.1276Z" fill="black"/>
<path d="M209.325 62.2919C209.218 63.2297 208.557 63.9233 207.851 63.8404C207.144 63.7576 206.657 62.9302 206.764 61.9913C206.87 61.0535 207.531 60.3599 208.237 60.4427C208.945 60.5267 209.431 61.354 209.325 62.2919Z" fill="black"/>
<path d="M203.964 60.2144C203.695 62.3864 203.916 64.5934 203.92 66.7729C203.923 68.1217 203.97 70.4977 202.244 70.8036C201.111 71.0043 198.645 70.3193 198.645 70.3193" stroke="black" stroke-miterlimit="10"/>
<path d="M199.611 74.1713L195.081 70.301C195.081 70.301 191.756 74.713 193.473 76.3115C196.248 78.8956 199.611 74.1713 199.611 74.1713Z" fill="white"/>
<path d="M206.964 44.1062C208.962 47.2787 210.065 49.831 210.149 59.3485C211.106 59.1063 212.075 58.8589 212.934 58.3692C213.793 57.8796 214.545 57.1096 214.797 56.1431C215.265 54.3524 213.95 52.5808 213.878 50.7295C213.826 49.3923 214.429 48.1167 215.145 46.9919C215.695 46.1263 216.34 45.2639 216.472 44.2421C216.658 42.803 215.769 41.435 214.71 40.4589C212.345 38.2805 209.175 37.4128 206.458 35.8143C205.142 35.04 204.442 33.8303 203.219 32.9211C201.839 31.8941 200.363 30.9998 198.819 30.2521C195.255 28.5251 191.345 27.5925 187.404 27.4226C179.767 27.0912 172.221 29.9855 166.896 35.4001C159.857 42.5598 157.032 56.2142 161.448 64.1216C163.938 68.5782 166.224 72.2404 166.224 72.2404C166.506 72.696 172.597 67.1465 172.97 66.3924C173.348 65.6277 173.491 64.7706 173.722 63.9474C174.51 61.1424 177.258 60.6719 179.614 59.7957C183.05 58.519 184.768 55.4145 185.434 51.9106C185.817 49.8968 185.873 47.8342 185.929 45.7843C185.917 46.2432 188.694 47.233 189.109 47.3637C193.205 48.6456 197.834 48.8719 201.992 47.7365C203.219 47.4019 204.528 46.9728 205.498 46.1221C205.763 45.8895 207.405 44.5629 206.964 44.1062Z" fill="#1E1611"/>
<path d="M181.369 80.969C181.588 81.1304 185.937 85.9513 194.257 86.7054" stroke="black" stroke-miterlimit="10"/>
<path d="M189.904 54.4545C190.644 52.9834 192.125 51.9213 193.74 51.7068C195.354 51.4922 197.054 52.1306 198.144 53.3584" stroke="black" stroke-miterlimit="10"/>
<path d="M205.283 54.6553C205.833 53.4095 206.996 52.614 208.013 52.7903C209.029 52.9666 209.796 54.1115 209.859 55.4466" stroke="black" stroke-miterlimit="10"/>
<path d="M201.588 63.5441C200.53 66.7368 197.183 68.433 194.114 67.3326C191.044 66.2323 189.414 62.7507 190.472 59.558C191.53 56.3653 194.877 54.6691 197.946 55.7694C201.016 56.8698 202.646 60.3514 201.588 63.5441Z" stroke="#572A2F" stroke-miterlimit="10"/>
<path d="M212.868 65.0363C212.299 68.3618 210.187 70.7515 208.151 70.3744C206.114 69.9974 204.924 66.9959 205.492 63.6715C206.062 60.346 208.174 57.9563 210.21 58.3333C212.248 58.7104 213.438 61.7108 212.868 65.0363Z" stroke="#572A2F" stroke-miterlimit="10"/>
<path d="M206.031 61.9085L201.896 61.1226" stroke="#572A2F" stroke-miterlimit="10"/>
<path d="M190.706 58.958L178.247 59.9235" stroke="#572A2F" stroke-miterlimit="10"/>
<path d="M181.808 62.2015C181.747 59.1363 177.67 56.7327 174.989 57.7099C168.543 60.0592 170.714 71.7764 176.704 72.9001C178.399 73.2177 180.832 72.5411 181.432 70.5932" fill="#FFCAA3"/>
<path d="M174.521 62.9355L180.062 68.0294" stroke="black" stroke-miterlimit="10"/>
<path d="M178.963 58.4226C180.312 59.2468 181.407 60.5128 182.057 62.0062" stroke="black" stroke-miterlimit="10"/>
<path d="M171.301 67.374C172.132 69.8795 173.828 72.5316 176.514 72.983C178.377 73.2963 180.512 72.4679 181.275 70.5051" stroke="black" stroke-miterlimit="10"/>
<path d="M157.075 50.1252C157.201 46.0021 157.647 41.8482 158.968 37.9471C160.29 34.0459 162.542 30.3891 165.792 27.9112C167.591 26.54 169.647 25.5586 171.728 24.6909C173.48 23.9602 175.269 23.3016 177.122 22.9012C184.066 21.4015 191.258 23.6309 197.762 26.5177" fill="#FFC36C"/>
<path d="M200.872 27.083C199.158 25.4059 196.94 24.3226 194.634 23.7225C193.259 23.3646 191.836 23.1702 190.419 23.2414C189.683 23.2785 188.95 23.3879 188.226 23.5324C183.193 24.5371 178.657 27.2168 174.295 29.956C168.47 33.6139 162.655 37.5512 158.383 42.9849C156.841 44.9466 155.476 47.21 155.338 49.7155C155.261 51.1037 155.57 52.4876 156.018 53.8025C156.774 56.0191 158.55 59.181 160.037 60.977C172.847 48.8148 187.236 39.1932 203.849 33.4769C203.762 31.0627 202.586 28.7601 200.872 27.083Z" fill="#FFC36C"/>
<path d="M157.904 43.6147C157.904 43.6147 168.719 28.3129 188.793 23.2275" stroke="black" stroke-miterlimit="10"/>
<path d="M163.524 45.3438C165.108 48.1222 166.731 50.9506 169.089 53.0908" stroke="black" stroke-miterlimit="10"/>
<path d="M176.162 33.8389C177.802 37.3459 179.838 40.6757 182.219 43.7441" stroke="black" stroke-miterlimit="10"/>
<path d="M189.566 26.5283C192.331 29.4204 194.695 32.7066 196.567 36.2615" stroke="black" stroke-miterlimit="10"/>
<path d="M194.191 24.8735C196.567 27.8432 198.65 31.3694 200.201 34.8085" stroke="black" stroke-miterlimit="10"/>
<path d="M157.237 47.0569C158.014 51.4657 160.556 55.2022 163.8 57.8564" stroke="black" stroke-miterlimit="10"/>
<path d="M149.841 79.1421C155.964 81.4639 162.149 83.8154 167.597 87.4807C173.047 91.145 178.564 96.2941 180.51 102.627" stroke="black" stroke-miterlimit="10"/>
<path d="M184.752 100.699C187.54 99.3412 189.805 96.909 190.982 94.0073" stroke="black" stroke-miterlimit="10"/>
<path d="M131.309 81.7346C134.14 98.2398 155.594 95.0821 165.588 100.199" stroke="black" stroke-miterlimit="10"/>
<path d="M201.626 93.7258C201.234 95.9924 200.462 98.2525 198.98 99.9944C196.753 102.61 193.291 103.694 190.02 104.656" stroke="black" stroke-miterlimit="10"/>
<path d="M192.98 100.699C194.469 111.079 195.975 122.711 195.498 133.189" stroke="black" stroke-miterlimit="10"/>
<path d="M170.247 98.314C171.799 102.627 171.07 114.322 170.901 124.872" stroke="black" stroke-miterlimit="10"/>
<path d="M274.081 400.559H41.0862C37.461 400.559 34.5234 397.577 34.5234 393.899V233.788H280.644V393.899C280.644 397.578 277.705 400.559 274.081 400.559Z" fill="#D4BCDD"/>
<path d="M274.08 212.204C277.706 212.204 280.643 215.186 280.643 218.864V393.899C280.643 397.578 277.705 400.559 274.08 400.559H41.0857C37.4605 400.559 34.5229 397.577 34.5229 393.899V218.864C34.5229 215.185 37.4616 212.204 41.0857 212.204H274.08ZM274.08 210.611H41.0857C36.6013 210.611 32.9531 214.313 32.9531 218.864V393.899C32.9531 398.45 36.6013 402.152 41.0857 402.152H274.079C278.564 402.152 282.212 398.45 282.212 393.899V218.864C282.213 214.313 278.565 210.611 274.08 210.611Z" fill="white"/>
<path d="M53.2528 223.628C53.2528 226.187 51.2089 228.261 48.6889 228.261C46.1678 228.261 44.125 226.187 44.125 223.628C44.125 221.069 46.1689 218.996 48.6889 218.996C51.2089 218.996 53.2528 221.07 53.2528 223.628Z" stroke="white" stroke-width="1.5" stroke-miterlimit="10"/>
<path d="M66.3803 228.26C68.9009 228.26 70.9442 226.186 70.9442 223.628C70.9442 221.07 68.9009 218.996 66.3803 218.996C63.8597 218.996 61.8164 221.07 61.8164 223.628C61.8164 226.186 63.8597 228.26 66.3803 228.26Z" stroke="white" stroke-width="1.5" stroke-miterlimit="10"/>
<path d="M34.5234 233.788H280.644" stroke="white" stroke-width="1.5" stroke-miterlimit="10"/>
<path d="M209.703 317.439C208.307 325.259 208.721 333.344 208.759 341.334C208.796 349.325 209.431 354.553 206.582 361.806C204.011 368.356 198.64 370.581 195.836 376.996C194.409 380.263 188.995 400.544 188.995 400.544H116.29C116.29 400.544 114.251 368.664 125.462 341.458C136.674 314.251 150.689 309.372 150.689 309.372L192.053 298.544L209.703 317.439Z" fill="#735D9D"/>
<path d="M304.954 269.878C307.111 267.237 310.128 265.58 312.711 263.433C315.092 261.454 316.871 258.679 318.846 256.281C321.261 253.349 323.139 250.013 325.234 246.849C327.482 243.453 330.363 240.707 333.216 237.849C333.611 237.451 334.016 237.042 334.241 236.526C334.649 235.594 334.174 234.368 333.12 234.079C331.058 233.515 328.859 234.05 326.859 234.81C325.671 235.261 321.643 236.709 321.398 234.407C321.122 231.806 323.268 228.008 324.09 225.597C325.159 222.461 326.253 219.317 327.121 216.115C327.947 213.064 327.759 207.203 326.161 207.107C324.562 207.011 325.769 207.983 325.352 208.213C326.02 207.32 324.851 205.261 323.892 204.646C322.934 204.031 321.686 206.023 321.399 207.096C321.726 206.048 320.819 204.316 320.051 204.243C318.933 204.138 318.064 205.213 317.398 206.089C316.731 206.966 316.139 207.945 315.196 208.531C315.203 207.779 315.092 207.025 314.867 206.303C314.139 205.884 313.301 206.577 312.775 207.208C302.06 220.048 294.809 235.969 282.923 248.329" fill="#FFCAA3"/>
<path d="M321.651 232.643C321.688 235.804 321.609 238.966 321.413 242.121" stroke="black" stroke-miterlimit="10"/>
<path d="M325.011 207.459C324.075 210.443 322.269 212.964 320.912 215.74C318.75 220.157 316.82 224.683 314.814 229.173" stroke="black" stroke-miterlimit="10"/>
<path d="M321.322 206.873C320.668 208.269 319.922 209.62 319.09 210.914C318.198 212.301 317.21 213.621 316.256 214.963C313.526 218.802 311.066 222.837 308.897 227.028" stroke="black" stroke-miterlimit="10"/>
<path d="M314.825 209.008C314.103 210.571 312.924 211.86 311.812 213.166C308.327 217.257 305.327 221.772 302.896 226.585" stroke="black" stroke-miterlimit="10"/>
<path d="M171.186 302.774C184.194 297.249 192.715 291.448 205.593 285.561C217.206 280.253 233.501 275.9 244.951 270.235C260.785 262.4 275.632 253.747 288.648 241.894L312.293 267.159C312.293 267.159 278.879 301.754 267.213 308.497C239.1 324.748 228.86 327.791 199.636 343.302" fill="#735D9D"/>
<path d="M208.428 338.958C208.593 332.991 209.934 327.06 212.349 321.617" stroke="black" stroke-miterlimit="10"/>
<path d="M280.757 248.537L304.207 275.249" stroke="black" stroke-miterlimit="10"/>
<path d="M167.401 376.014C177.318 376.201 187.193 377.79 195.791 383.092C199.919 385.638 202.219 389.044 203.357 393.772C204.318 397.763 204.628 402.032 204.275 406.126C204.241 406.515 203.945 406.873 203.615 406.953C203.15 407.068 202.213 406.597 202.213 406.597C202.213 406.597 203.059 410.656 202.163 411.5C201.539 412.089 200.362 411.289 199.919 410.799C199.403 410.229 198.699 408.772 198.699 408.772C198.699 408.772 199.29 411.101 198.791 411.502C198.05 412.097 195.908 410.589 195.401 409.063C195.089 409.929 194.581 410.733 193.793 410.521C191.315 409.853 189.375 406.295 187.336 404.531C184.625 402.186 180.99 402.026 177.608 402.078C176.052 402.102 174.492 402.141 172.94 401.985C171.35 401.824 169.918 401.191 168.367 400.873C165.481 400.28 162.47 400.009 159.542 399.836" fill="#FFCAA3"/>
<path d="M185.714 396.978C188.436 398.126 191.32 399.405 192.852 401.772C193.311 402.481 193.626 403.258 193.907 404.04C194.499 405.688 194.952 407.376 195.403 409.062" stroke="black" stroke-miterlimit="10"/>
<path d="M189.62 391.986C191.168 392.985 192.685 394.05 193.998 395.35C195.31 396.65 196.416 398.199 197.014 399.957C197.355 400.963 197.526 402.019 197.697 403.068C198.05 405.23 198.415 407.389 198.791 409.546" stroke="black" stroke-miterlimit="10"/>
<path d="M194.936 388.556C197.513 390.506 199.532 393.209 200.684 396.255C201.703 398.948 202.044 401.849 202.376 404.716C202.482 405.624 202.587 406.532 202.692 407.44" stroke="black" stroke-miterlimit="10"/>
<path d="M156.481 304.706C156.481 304.706 135.958 307.787 128.081 312.379C115.768 319.558 110.355 330.514 102.508 349.095C94.6616 367.676 91.4791 375.829 91.4027 381.985C91.2897 391.048 95.3094 400.547 111.735 400.547C140.995 400.547 164.117 400.547 164.117 400.547L174.685 375.492L133.925 369.019L145.173 342.293" fill="#735D9D"/>
<path d="M174.684 375.492L133.924 369.019L145.172 342.293" stroke="black" stroke-miterlimit="10"/>
<path d="M119.448 372.843C119.762 372.843 125.966 368.919 133.925 369.019" stroke="black" stroke-miterlimit="10"/>
<path d="M163.44 373.706L152.259 400.547" stroke="black" stroke-miterlimit="10"/>
<path d="M188.304 311.087C188.843 308.261 188.824 305.245 188.377 302.213" stroke="black" stroke-miterlimit="10"/>
<path d="M144.866 310.374C147.128 316.105 152.13 320.857 157.595 323.288C164.476 326.348 173.809 326.914 180.385 322.827C183.449 320.922 185.556 318.419 186.885 315.56" stroke="black" stroke-miterlimit="10"/>
<path d="M260.627 321.118C272.881 314.783 284.085 306.363 293.63 296.316" stroke="black" stroke-miterlimit="10"/>
<path d="M283.484 315.106C289.424 310.437 294.994 305.283 300.122 299.71" stroke="black" stroke-miterlimit="10"/>
<path d="M86.9557 366.353C84.3634 374.933 83.4278 384.024 84.219 392.962" stroke="black" stroke-miterlimit="10"/>
<path d="M78.7727 367.633C77.137 372.448 76.2014 377.507 76.0078 382.597" stroke="black" stroke-miterlimit="10"/>
<path d="M163.349 279.091L152.125 286.726L154.548 294.868L151.173 307.142C150.957 307.924 151.088 308.757 151.534 309.431C153.367 312.203 159.057 319.088 170.335 319.078C182.255 319.066 182.087 311.042 182.087 311.042L184.258 293.95" fill="#FFCAA3"/>
<path d="M185.927 278.074C182.841 272.238 181.078 268.627 177.835 264.602C175.09 261.195 170.531 256.38 166.232 255.421C160.696 254.184 155.488 258.237 150.773 261.196C143.032 266.054 143.167 276.513 145.781 284.303C147.79 290.288 151.942 292.572 157.181 296.221C164.028 300.99 178.909 303.147 185.298 297.922C190.078 294.014 189.196 284.256 185.927 278.074Z" fill="#FFCAA3"/>
<path d="M169.382 277.56C169.748 278.465 169.493 279.428 168.811 279.713C168.129 279.998 167.28 279.495 166.913 278.59C166.547 277.686 166.802 276.722 167.485 276.437C168.166 276.153 169.016 276.655 169.382 277.56Z" fill="black"/>
<path d="M180.373 271.414C180.74 272.318 180.484 273.283 179.803 273.567C179.122 273.852 178.272 273.349 177.906 272.445C177.539 271.54 177.795 270.576 178.477 270.292C179.157 270.007 180.007 270.51 180.373 271.414Z" fill="black"/>
<path d="M174.487 275.345C175.718 276.458 177.201 277.207 178.686 277.903C179.606 278.334 182.673 279.163 181.989 280.678C181.549 281.651 179.756 283.188 179.756 283.188" stroke="black" stroke-miterlimit="10"/>
<path d="M152.03 304.024C152.03 304.024 153.431 300.386 153.772 299.085C154.347 296.887 152.525 296.775 151.897 294.839C151.569 293.831 151.838 292.596 152.059 291.598C152.532 289.456 153.619 287.05 152.645 284.887C152.029 283.518 150.704 282.651 149.644 281.598C148.582 280.546 147.719 278.941 148.354 277.58C149.106 275.97 151.325 275.85 152.687 274.725C154.047 273.601 154.366 271.62 154.272 269.842C154.179 268.064 153.775 266.273 154.082 264.52C154.137 264.205 154.223 263.878 154.443 263.647C155.108 262.949 156.216 263.625 157.05 264.101C158.55 264.957 160.363 264.851 161.932 264.206C162.727 263.879 163.457 263.28 163.744 262.459C163.921 261.952 163.919 261.401 164.006 260.87C164.093 260.339 164.299 259.782 164.751 259.501C165.08 259.297 165.486 259.271 165.87 259.288C167.081 259.344 168.273 259.774 169.246 260.509C170.061 261.125 170.519 261.571 171.546 261.532C172.533 261.493 173.483 261.162 174.468 261.453C175.657 261.805 176.452 262.91 177.153 263.946C179.082 266.797 181.012 269.647 182.942 272.498C183.907 271.084 184.887 269.64 185.362 267.989C185.836 266.339 185.726 264.417 184.658 263.082C183.63 261.796 181.874 261.219 181 259.82C180.034 258.273 180.183 256.038 180.079 254.287C179.965 252.375 179.385 250.445 178.309 248.831C177.268 247.269 175.518 246.055 173.665 246.198C172.592 246.281 171.572 246.803 170.497 246.77C169.832 246.75 169.193 246.519 168.583 246.252C165.756 245.021 163.306 243.023 160.49 241.769C157.674 240.515 154.141 240.133 151.711 242.047C150.464 243.029 149.637 244.516 148.281 245.332C144.37 247.688 138.759 243.251 135.032 245.894C132.627 247.6 132.553 251.294 130.528 253.449C127.939 256.204 123.229 255.48 120.292 257.847C117.328 260.236 117.316 264.998 119.094 268.39C119.974 270.066 121.253 271.792 120.875 273.65C120.638 274.808 119.796 275.72 119.08 276.654C118.057 277.99 117.225 279.532 117.021 281.211C116.817 282.891 117.325 284.719 118.599 285.808C119.392 286.486 120.598 286.807 121.198 287.684C121.873 288.672 122.062 290.442 122.195 291.606C122.313 292.629 122.325 293.674 122.63 294.657C123.462 297.338 126.378 298.936 129.148 298.937C130.426 298.937 131.829 298.694 132.879 299.431C133.75 300.041 134.105 301.144 134.632 302.074C136.349 305.099 140.524 306.371 143.598 304.804C144.753 304.216 145.821 303.27 147.113 303.25C148.397 303.232 150.814 304.239 152.03 304.024Z" fill="#2C221D"/>
<path d="M170.079 300.674C173.539 301.549 180.094 301.733 185.063 298.546" stroke="black" stroke-miterlimit="10"/>
<path d="M160.724 277.287C160.713 273.765 163.005 270.387 166.747 271.053" stroke="black" stroke-miterlimit="10"/>
<path d="M173.622 268.513C173.505 267.509 174.248 266.336 175.367 265.759C176.486 265.182 177.877 265.269 178.658 265.916" stroke="black" stroke-miterlimit="10"/>
<path d="M158.096 287.465C156.117 285.007 151.284 285.69 149.713 288.224C145.938 294.318 155.082 302.459 160.671 299.491C162.252 298.652 163.808 296.523 163.072 294.547" fill="#FFCAA3"/>
<path d="M152.62 292.786L160.341 293.346" stroke="black" stroke-miterlimit="10"/>
<path d="M153.399 286.229C155.017 286.026 156.706 286.349 158.176 287.144" stroke="black" stroke-miterlimit="10"/>
<path d="M152.789 298.491C155.043 299.994 158.095 301.056 160.567 299.682C162.282 298.73 163.5 296.67 162.887 294.577" stroke="black" stroke-miterlimit="10"/>
<path d="M175.691 283.767C175.193 285.653 175.808 288.132 177.941 288.522C179.54 288.815 181.271 287.816 181.788 286.245" stroke="black" stroke-miterlimit="10"/>
<path d="M602.577 176.346H369.306C365.681 176.346 362.743 173.364 362.743 169.685V52.656H609.14V169.684C609.14 173.364 606.201 176.346 602.577 176.346Z" fill="#D5D8BC"/>
<path d="M602.577 34.8944C606.203 34.8944 609.14 37.8768 609.14 41.5549V169.684C609.14 173.364 606.202 176.345 602.577 176.345H369.306C365.681 176.345 362.744 173.363 362.744 169.684V41.556C362.744 37.8768 365.682 34.8955 369.306 34.8955L602.577 34.8944ZM602.577 33.3013H369.306C364.822 33.3013 361.174 37.0038 361.174 41.5549V169.684C361.174 174.236 364.822 177.938 369.306 177.938H602.576C607.061 177.938 610.709 174.236 610.709 169.684V41.556C610.71 37.0048 607.062 33.3013 602.577 33.3013Z" fill="white"/>
<path d="M374.4 40.4843C376.474 40.4843 378.156 42.1911 378.156 44.2962C378.156 46.4013 376.474 48.1081 374.4 48.1081C372.326 48.1081 370.644 46.4013 370.644 44.2962C370.644 42.1911 372.326 40.4843 374.4 40.4843ZM374.4 38.8911C371.463 38.8911 369.074 41.3159 369.074 44.2962C369.074 47.2765 371.463 49.7013 374.4 49.7013C377.337 49.7013 379.726 47.2765 379.726 44.2962C379.726 41.3159 377.337 38.8911 374.4 38.8911Z" fill="white"/>
<path d="M388.959 40.4843C391.033 40.4843 392.715 42.1911 392.715 44.2962C392.715 46.4013 391.033 48.1081 388.959 48.1081C386.884 48.1081 385.203 46.4013 385.203 44.2962C385.203 42.1911 386.884 40.4843 388.959 40.4843ZM388.959 38.8911C386.022 38.8911 383.633 41.3159 383.633 44.2962C383.633 47.2765 386.022 49.7013 388.959 49.7013C391.895 49.7013 394.284 47.2765 394.284 44.2962C394.284 41.3159 391.895 38.8911 388.959 38.8911Z" fill="white"/>
<path d="M362.743 52.656H609.14" stroke="white" stroke-width="1.5" stroke-miterlimit="10"/>
<path d="M575.497 154.232C570.884 146.411 565.991 138.295 558.414 133.524C550.838 128.753 539.743 128.573 534.087 135.628C529.073 141.882 530.004 151 531.206 159.018C525.627 151.789 519.092 145.345 511.839 139.921C506.241 135.736 500.068 132.097 493.27 130.785C486.212 129.422 478.16 130.924 472.37 135.354C464.467 141.4 464.588 150.918 465.364 160.1C455.771 141.647 445.11 123.341 430.343 108.591C426.521 104.774 422.029 101.469 416.863 100.006C413.901 99.1682 410.557 99.0046 407.901 100.579C403.863 102.969 402.795 108.366 402.68 113.109C402.54 118.832 403.19 124.574 404.605 130.116C402.028 127.306 398.627 125.225 394.912 124.504C386.364 122.843 377.928 129.404 377.441 138.31C376.934 147.575 382.489 156.419 386.732 164.201C388.348 167.166 390.01 170.121 391.841 172.958C392.198 173.512 393.559 176.262 394.386 176.262C394.39 176.262 587.721 176.262 587.721 176.262C583.647 169.35 579.572 161.141 575.497 154.232Z" fill="#B5AE6B"/>
<mask id="mask0_1_9974" style="mask-type:luminance" maskUnits="userSpaceOnUse" x="362" y="34" width="248" height="143">
<path d="M602.577 176.346H369.306C365.681 176.346 362.743 173.364 362.743 169.686V41.556C362.743 37.8768 365.682 34.8955 369.306 34.8955H602.576C606.201 34.8955 609.139 37.8779 609.139 41.556V169.686C609.14 173.364 606.201 176.346 602.577 176.346Z" fill="white"/>
</mask>
<g mask="url(#mask0_1_9974)">
<path d="M592.413 167.575L527.75 41.8003L509.374 40.7031L494.945 52.6561L457.822 80.0489L499.554 204.17L592.413 167.575Z" fill="white"/>
<path d="M470.925 78.2383C474.533 81.2897 479.559 82.5324 484.146 81.5075" stroke="black" stroke-miterlimit="10"/>
<path d="M488.667 80.049C493.186 78.5068 497.195 75.466 499.933 71.5043C502.671 67.5427 504.122 62.6814 504.011 57.8435" stroke="black" stroke-miterlimit="10"/>
<path d="M574.768 120.813C563.58 99.1584 530.007 30.9158 521.149 34.2764C510.985 38.1318 499.553 48.0731 499.553 48.0731C499.553 48.0731 505.029 65.8624 505.447 67.549C506.969 73.6997 508.536 79.8376 510.148 85.9649C514.16 101.218 517.735 116.696 522.69 131.67C527.723 146.878 533.299 161.909 539.311 176.745C541.722 182.693 543.658 189.664 548.244 194.319C550.844 197.007 554.483 198.882 558.181 198.552C560.735 198.323 563.081 197.092 565.352 195.886C575.343 190.575 603.191 177.912 603.191 177.912C603.191 177.912 588.878 148.125 574.768 120.813Z" fill="#4C4139"/>
<path d="M517.723 204.041C515.004 193.989 510.349 184.739 506.902 174.969C502.393 162.186 498.385 149.226 493.732 136.495C486.635 117.074 476.57 90.2187 468.866 71.0381C468.866 71.0381 454.741 79.262 451.892 81.2556C449.044 83.2502 449.662 87.9946 449.662 87.9946C460.905 130.548 494.957 227.192 494.957 227.192C498.988 225.03 508.987 219.33 513.018 217.167C518.331 214.319 519.251 209.688 517.723 204.041Z" fill="#4C4139"/>
<path d="M454.696 79.467C467.755 99.8266 477.922 116.405 491.532 136.39" stroke="black" stroke-miterlimit="10"/>
<path d="M517.28 39.416C519.99 66.4244 521.641 93.541 522.232 120.682" stroke="black" stroke-miterlimit="10"/>
</g>
<path d="M381.73 183.59C379.006 185.698 376.204 187.702 373.333 189.598C370.563 191.427 367.598 192.98 364.879 194.87C364.208 195.336 363.581 195.864 362.955 196.39C360.675 198.308 358.375 200.247 356.564 202.625C356.323 202.941 356.085 203.271 355.76 203.498C355.436 203.725 354.998 203.831 354.642 203.659C354.273 203.48 354.086 203.058 353.979 202.657C353.536 200.989 353.984 199.207 354.656 197.62C355.088 196.598 355.613 195.622 356.068 194.611C356.446 193.774 356.945 192.888 356.954 191.96C349.626 193.787 343.217 198.185 336.316 201.28C334.903 201.914 332.025 201.778 331.725 200.549C331.328 198.925 341.539 193.493 346.43 189.607C343.019 190.746 339.402 191.93 336.218 193.635C334.011 194.816 331.658 195.749 329.181 196.136C327.793 196.353 324.656 196.506 325.653 194.15C325.947 193.456 326.571 192.971 327.18 192.535C331.899 189.147 337.284 187.079 342.175 183.954C337.029 185.126 332.047 187.899 326.811 187.256C326.301 187.193 325.757 187.079 325.406 186.698C324.871 186.12 324.769 185.417 325.27 184.807C325.77 184.197 326.52 183.871 327.242 183.566C332.536 181.332 338.08 178.814 343.373 176.58C340.665 176.883 338.063 177.795 335.414 178.442C332.764 179.088 329.954 179.468 327.334 178.706C326.491 178.461 325.509 177.73 325.837 176.905C325.995 176.505 326.41 176.287 326.792 176.101C333.292 172.957 339.792 169.813 346.291 166.668C348.114 165.787 349.938 164.904 351.794 164.092C355.822 162.331 359.716 160.318 363.756 158.561C367.997 156.717 372.261 154.93 376.547 153.196" fill="#D16159"/>
<path d="M356.827 191.919C358.803 191.386 360.798 190.924 362.806 190.533" stroke="black" stroke-miterlimit="10"/>
<path d="M346.156 189.553C348.933 188.209 351.779 187.012 354.679 185.97" stroke="black" stroke-miterlimit="10"/>
<path d="M342.177 183.852C344.44 182.854 346.705 181.854 348.969 180.856" stroke="black" stroke-miterlimit="10"/>
<path d="M340.826 177.507C342.492 176.892 344.117 176.163 345.686 175.326" stroke="black" stroke-miterlimit="10"/>
<path d="M451.894 81.2554C447.055 84.5267 442.269 88.1803 439.198 91.5695C434.274 97.0054 405.322 132.618 405.322 132.618C405.322 132.618 375.666 150.769 358.669 160.793L377.253 191.521C377.253 191.521 411.709 178.949 429.281 166.422C445.255 155.034 475.834 117.721 475.834 117.721" fill="#4C4139"/>
<path d="M464.011 132.624L454.697 103.227" stroke="black" stroke-miterlimit="10"/>
<path d="M374.31 151.452L394.929 183.962" stroke="black" stroke-miterlimit="10"/>
<path d="M371.778 182.469L388.884 174.431" stroke="black" stroke-miterlimit="10"/>
<path d="M383.233 174.027C383.319 174.824 382.752 175.54 381.969 175.628C381.184 175.715 380.478 175.141 380.391 174.344C380.306 173.547 380.872 172.832 381.657 172.743C382.44 172.656 383.146 173.231 383.233 174.027Z" stroke="black" stroke-miterlimit="10"/>
<path d="M374.877 177.869C375.666 177.869 376.306 177.22 376.306 176.418C376.306 175.617 375.666 174.968 374.877 174.968C374.087 174.968 373.447 175.617 373.447 176.418C373.447 177.22 374.087 177.869 374.877 177.869Z" stroke="black" stroke-miterlimit="10"/>
<path d="M405.123 133.061C405.099 132.865 405.075 132.67 405.051 132.476C408.999 131.274 412.769 129.467 416.192 127.134" stroke="black" stroke-miterlimit="10"/>
<path d="M419.073 98.4172C424.677 91.5751 431.538 85.7962 439.198 81.467" stroke="black" stroke-miterlimit="10"/>
<path d="M423.588 82.7859C428.892 78.7797 434.691 75.4489 440.806 72.8977" stroke="black" stroke-miterlimit="10"/>
<path d="M480.309 26.8618L484.45 39.3087L499.225 53.8149C499.225 53.8149 499.61 62.4456 491.251 71.4937C482.957 80.4728 473.969 74.4464 473.969 74.4464L463.242 58.4393" fill="#FFCAA3"/>
<path d="M445.72 59.3031C444.02 53.7769 441.877 41.8558 442.041 37.3164C442.18 33.4726 443.313 29.7117 445.808 26.7399C449.019 22.9131 456.571 24.2843 461.394 23.8191C469.312 23.0554 474.259 32.5772 476.491 39.4034C478.205 44.647 479.02 50.0457 477.27 55.3945C474.424 64.091 465.283 72.881 455.612 70.503C450.359 69.2104 447.366 64.6593 445.72 59.3031Z" fill="#FFCAA3"/>
<path d="M487.786 25.3038C486.516 23.9273 484.769 22.8471 484.204 21.05C483.891 20.0538 483.404 17.0724 483.087 16.0783C481.32 10.532 476.737 8.6754 471.529 9.58669C470.974 4.28253 465.43 3.77059 460.878 3.71749C458.981 3.69518 457.053 3.50719 455.354 2.58634C453.558 1.61239 451.93 0.233771 449.833 0.0309085C447.961 -0.14965 446.035 0.475932 444.481 1.51361C439.083 5.11522 437.541 12.0837 430.929 14.1878C428.84 14.8526 426.657 15.0491 424.854 16.4405C423.508 17.4782 422.507 19.031 422.317 20.7367C422.047 23.17 423.632 24.6506 425.267 26.1312C427.175 27.8581 428.288 30.0588 428.134 32.6865C428.041 34.2775 427.621 35.8271 427.37 37.4001C426.656 41.879 428.066 46.1126 431.762 48.8242C432.542 49.3956 433.597 49.9309 436.451 50.5596C438.462 51.0025 443.68 50.2378 443.68 50.2378C443.68 50.2378 442.392 42.6193 442.416 39.6539C442.439 36.833 443.287 34.2042 444.913 31.9504C446.301 30.027 449.335 29.3504 451.595 29.4534C454.981 29.6074 458.214 31.5012 461.58 31.1008C462.978 30.934 464.307 30.336 465.405 29.4449C469.932 32.4199 474.619 36.7937 475.656 42.1265C475.708 42.3973 476.374 45.555 476.139 45.6049C480.021 44.7765 484.911 44.4578 486.656 40.1563C487.258 38.6725 486.954 37.1123 487.409 35.6083C487.786 34.3625 488.884 33.4533 489.396 32.2574C490.384 29.9431 489.484 27.1433 487.786 25.3038Z" fill="#2C221D"/>
<path d="M471.649 41.4744C471.85 38.0469 476.514 35.5382 479.472 36.7501C486.585 39.6645 483.651 52.6796 476.9 53.6716C474.99 53.952 472.297 53.0864 471.71 50.8804" fill="#FFCAA3"/>
<path d="M479.773 42.6184L473.354 48.0734" stroke="black" stroke-miterlimit="10"/>
<path d="M474.996 37.3726C473.45 38.235 472.171 39.6041 471.379 41.245" stroke="black" stroke-miterlimit="10"/>
<path d="M483.185 47.7283C482.148 50.4951 480.135 53.3882 477.111 53.7738C475.011 54.0414 472.659 53.0197 471.89 50.7903" stroke="black" stroke-miterlimit="10"/>
<path d="M469.269 67.4304C469.269 67.4304 472.723 65.2032 474.996 60.2983" stroke="black" stroke-miterlimit="10"/>
<path d="M451.483 46.1169C451.804 49.1737 452.135 52.2294 452.479 55.284C452.526 55.7057 452.587 56.1581 452.875 56.4672C454.011 57.6854 456.615 57.1002 457.824 56.3705" stroke="black" stroke-miterlimit="10"/>
<path d="M460.662 57.6238L455.455 60.7103C455.455 60.7103 457.47 64.6294 459.486 63.8637C463.242 62.4394 460.662 57.6238 460.662 57.6238Z" fill="white"/>
<path d="M454.135 39.5097C454.668 38.3977 455.765 37.651 456.925 37.2708C458.885 36.6282 461.128 36.9437 462.842 38.1035" stroke="black" stroke-miterlimit="10"/>
<path d="M441.971 43.9449C442.158 42.7797 442.817 41.8982 443.588 41.3682C444.888 40.4728 446.564 40.4824 448.007 41.3916" stroke="black" stroke-miterlimit="10"/>
<path d="M461.023 44.0671C461.29 45.2078 460.799 46.3028 459.927 46.5121C459.055 46.7213 458.132 45.9672 457.867 44.8265C457.6 43.6858 458.091 42.5908 458.962 42.3815C459.834 42.1723 460.756 42.9264 461.023 44.0671Z" fill="black"/>
<path d="M449.019 47.6928C449.286 48.8335 448.795 49.9286 447.923 50.1378C447.052 50.3481 446.129 49.5929 445.863 48.4522C445.596 47.3115 446.087 46.2165 446.958 46.0073C447.829 45.798 448.752 46.5521 449.019 47.6928Z" fill="black"/>
<path d="M445.854 30.9309C443.615 32.1523 442.64 34.8225 441.127 36.8957C438.68 40.2467 434.439 42.1553 430.348 41.7442" stroke="#635149" stroke-miterlimit="10"/>
<path d="M465.788 29.1389C467.816 27.2387 469.272 24.7184 469.915 21.9951" stroke="#635149" stroke-miterlimit="10"/>
<path d="M655.869 310.265H480.478C476.853 310.265 473.915 307.283 473.915 303.605V177.143H662.432V303.605C662.431 307.284 659.494 310.265 655.869 310.265Z" fill="#F9D4BB"/>
<path d="M655.868 159.382C659.493 159.382 662.431 162.365 662.431 166.043V303.605C662.431 307.284 659.492 310.265 655.868 310.265H480.477C476.852 310.265 473.915 307.283 473.915 303.605V166.043C473.915 162.364 476.853 159.382 480.477 159.382H655.868ZM655.868 157.789H480.477C475.993 157.789 472.345 161.492 472.345 166.043V303.605C472.345 308.156 475.993 311.858 480.477 311.858H655.868C660.352 311.858 664.001 308.156 664.001 303.605V166.043C664.001 161.492 660.352 157.789 655.868 157.789Z" fill="white"/>
<path d="M489.326 168.783C489.326 170.888 487.645 172.595 485.57 172.595C483.496 172.595 481.814 170.888 481.814 168.783C481.814 166.678 483.496 164.971 485.57 164.971C487.645 164.971 489.326 166.678 489.326 168.783Z" stroke="white" stroke-width="1.5" stroke-miterlimit="10"/>
<path d="M503.885 168.783C503.885 170.888 502.203 172.595 500.129 172.595C498.055 172.595 496.373 170.888 496.373 168.783C496.373 166.678 498.055 164.971 500.129 164.971C502.203 164.971 503.885 166.678 503.885 168.783Z" stroke="white" stroke-width="1.5" stroke-miterlimit="10"/>
<path d="M473.915 177.143H662.431" stroke="white" stroke-width="1.5" stroke-miterlimit="10"/>
<path d="M483.284 242.414C464.554 242.697 445.988 238.677 428.071 233.134C410.153 227.592 377.509 215.423 377.509 215.423L368.188 243.985C368.188 243.985 416.445 275.011 480.663 280.309" fill="#FFCAA3"/>
<path d="M523.399 250.171C510.917 239.423 483.873 240.19 476.119 240.497C468.365 240.804 454.547 238.48 454.547 238.48L449.46 281.511C449.46 281.511 478.174 286.402 494.149 287.586" fill="#2C221D"/>
<path d="M488.222 260.494C490.182 266.104 489.287 274.357 489.309 280.309C489.329 285.619 491.168 288.568 491.94 293.819C492.864 300.095 496.372 304.579 500.073 310.265H579.597L575.408 265.516L564.583 249.639L541.725 243.454L490.124 257.228" fill="#2C221D"/>
<path d="M513.19 249.64C512.397 252.481 511.819 255.669 512.301 258.613C512.865 262.063 515.021 264.235 518.096 265.518" stroke="#6D574E" stroke-miterlimit="10"/>
<path d="M522.007 266.467C536.1 269.03 550.931 258.806 552.347 245.791" stroke="#6D574E" stroke-miterlimit="10"/>
<path d="M628.035 305.107C626.89 301.735 624.739 298.82 622.528 296.049C616.447 288.43 609.641 281.407 602.234 275.11L575.622 299.694L592.091 315.896L572.857 351.276L598.369 358.665C598.369 358.665 617.893 336.782 625.364 324.584C629.031 318.597 630.316 311.827 628.035 305.107Z" fill="#FFCAA3"/>
<path d="M577.947 343.349C577.947 343.349 566.79 359.645 565.663 362.586C564.65 365.229 564.097 368.535 563.699 371.351C562.603 379.111 566.702 387.09 569.792 390.859C570.141 391.284 570.657 391.558 571.175 391.656C572.321 391.873 572.78 391.268 572.755 389.896C573.381 390.76 574.005 391.622 574.631 392.485C574.89 392.842 575.161 393.211 575.531 393.397C576.242 393.754 577.13 393.318 577.676 392.613C578.221 391.908 578.499 390.99 578.764 390.101C579.426 391.074 580.455 392.095 581.447 391.499C582.439 390.903 583.297 388.749 583.075 387.512C583.4 388.599 584.821 388.629 585.598 387.838C586.373 387.046 586.658 385.807 586.889 384.651C587.474 381.725 588.025 378.708 589.437 376.151C590.377 374.447 591.657 373.033 592.773 371.474C596.406 366.397 598.204 359.925 599.378 353.551" fill="#FFCAA3"/>
<path d="M585.267 368.468C584.764 369.597 584.261 370.726 583.759 371.854C583.35 372.77 582.941 373.689 582.613 374.641C581.149 378.882 581.391 383.731 583.27 387.762" stroke="black" stroke-miterlimit="10"/>
<path d="M576.87 368.046C575.846 373.176 575.43 379.345 576.158 383.202C576.63 385.702 577.705 388.077 579.021 390.22" stroke="black" stroke-miterlimit="10"/>
<path d="M569.515 366.117C569.515 366.117 568.861 369.901 568.706 372.04C568.214 378.84 569.101 385.407 572.752 390.448" stroke="black" stroke-miterlimit="10"/>
<path d="M375.229 244.468C373.222 244.27 371.213 244.073 369.206 243.875C367.409 243.699 365.597 243.518 363.878 242.958C362.731 242.585 361.644 242.048 360.562 241.513C356.104 239.31 353.821 238.65 349.556 236.1C347.107 234.636 344.6 233.255 341.988 232.109C339.429 230.986 336.774 230.382 334.411 228.864C334.206 228.733 333.993 228.584 333.899 228.358C333.827 228.183 333.833 227.986 333.86 227.798C334.408 223.885 342.265 224.78 345.321 225.647C346.242 225.908 347.199 226.222 348.136 226.028C348.199 224.784 347.659 223.592 347.062 222.503C345.301 219.3 342.727 216.748 340.402 213.963C338.253 211.386 336.075 208.812 334.094 206.097C332.238 203.555 330.329 198.02 331.785 197.344C333.242 196.669 332.464 198.017 332.933 198.079C331.994 197.492 332.352 195.143 333.027 194.218C333.702 193.294 335.574 194.694 336.223 195.59C335.546 194.732 335.775 192.784 336.466 192.436C337.472 191.928 338.664 192.612 339.598 193.186C340.531 193.759 341.431 194.456 342.52 194.657C342.245 193.959 342.081 193.215 342.033 192.458C342.564 191.802 343.59 192.141 344.306 192.536C358.865 200.586 371.289 212.778 386.769 219.952" fill="#FFCAA3"/>
<path d="M345.07 219.509C346.705 221.888 347.807 224.751 348.662 228.261" stroke="black" stroke-miterlimit="10"/>
<path d="M332.98 197.254C334.913 199.693 337.495 201.383 339.748 203.474C343.335 206.802 346.745 210.315 350.212 213.769" stroke="black" stroke-miterlimit="10"/>
<path d="M336.213 195.355C337.319 196.418 338.495 197.403 339.731 198.306C341.056 199.273 342.447 200.142 343.815 201.045C347.725 203.625 351.455 206.486 354.968 209.602" stroke="black" stroke-miterlimit="10"/>
<path d="M343.03 194.967C344.26 196.16 345.817 196.93 347.319 197.741C352.023 200.281 356.428 203.392 360.407 206.99" stroke="black" stroke-miterlimit="10"/>
<path d="M375.815 245.397C375.815 245.397 367.587 244.265 364.228 243.365" stroke="black" stroke-miterlimit="10"/>
<path d="M557.893 247.866C563.558 248.422 569.225 248.959 574.618 251.025C581.432 253.636 587.354 258.543 592.931 263.559C598.757 268.8 604.702 275.933 610.372 281.401L581.309 307.212L560.73 286.86" fill="#2C221D"/>
<path d="M592.091 315.895C592.091 315.895 596.39 310.31 600.748 307.211" stroke="black" stroke-miterlimit="10"/>
<path d="M572.852 298.848L603.158 273.942" stroke="#6D574E" stroke-miterlimit="10"/>
<path d="M460.572 283.306L464.973 239.897" stroke="#6D574E" stroke-miterlimit="10"/>
<path d="M488.222 275.11C488.222 275.11 490.231 284.374 490.781 288.348" stroke="#6D574E" stroke-miterlimit="10"/>
<path d="M559.702 286.782C566 291.717 581.31 307.212 581.31 307.212" stroke="#6D574E" stroke-miterlimit="10"/>
<path d="M527.371 217.071L540.914 222.641L540.119 231.805L546.946 245.197C546.946 245.197 543.614 257.827 528.663 260.972C516.04 263.627 516.326 255.36 516.326 255.36L510.313 237.749" fill="#FFCAA3"/>
<path d="M498.761 224.126C500.761 217.256 501.843 213.038 504.401 208.051C506.566 203.829 510.349 197.712 514.692 195.734C520.284 193.186 526.679 196.312 532.315 198.388C541.567 201.8 543.696 212.904 542.621 221.738C541.795 228.524 537.895 231.872 533.14 236.909C526.928 243.491 511.639 249.105 503.739 245.002C497.83 241.932 496.643 231.403 498.761 224.126Z" fill="#FFCAA3"/>
<path d="M595.504 265.654C599.145 264.44 600.934 260.092 600.731 257.004C600.405 252.03 598.115 249.465 597.739 246.392C597.494 244.391 598.08 242.366 597.913 240.357C597.638 237.04 595.266 234.153 592.337 232.656C589.408 231.16 586 230.89 582.734 231.186C580.23 231.413 577.713 231.955 575.223 231.595C573.144 231.294 571.196 230.377 569.383 229.298C566.179 227.39 563.255 224.907 561.191 221.772C557.683 216.44 556.935 209.734 554.229 203.94C552.865 201.021 550.972 198.367 548.706 196.101C543.201 190.598 537.96 188.559 530.155 188.296C524.81 188.115 517.372 188.84 513.281 193.9C513.281 193.9 505.375 194.106 501.603 198.147C497.126 202.945 497.447 209.889 501.358 215.423C503.379 212.058 505.099 208.497 508.058 205.91C507.717 206.456 507.88 207.222 508.317 207.691C508.755 208.161 509.405 208.373 510.04 208.425C511.731 208.564 513.33 207.709 514.817 206.88C514.315 208.24 514.102 209.711 514.197 211.161C514.217 211.467 514.259 211.793 514.457 212.024C514.684 212.287 515.055 212.358 515.397 212.388C517.728 212.586 520.125 211.449 521.471 209.507C520.834 211.267 520.277 213.475 521.561 214.823C522.469 215.776 524.004 215.846 525.213 215.347C526.421 214.848 527.381 213.892 528.307 212.958C527.861 213.407 528.447 215.943 528.556 216.528C528.795 217.81 529.182 219.055 529.612 220.281C530.933 224.053 532.56 227.728 534.675 231.113C536.858 234.607 539.978 237.257 542.209 240.662C543.623 242.82 544.818 245.184 546.719 246.915C549.055 249.042 552.275 250.643 555.344 251.277C558.437 251.916 561.635 251.626 564.763 251.522C576.325 251.14 585.091 257.016 595.504 265.654Z" fill="#893D33"/>
<path d="M568.53 189.664C567.864 187.995 566.89 186.466 565.642 185.299C561.134 181.087 551.308 181.36 547.949 187.082C546.103 190.227 547.001 194.273 548.401 197.646L551.162 203.793C555.011 205.916 559.881 206.007 563.805 204.029C567.083 202.377 569.395 199.329 569.559 195.551C569.643 193.625 569.284 191.555 568.53 189.664Z" fill="#893D33"/>
<path d="M528.418 225.327C529.356 222.488 533.844 221.454 536.063 223.156C541.398 227.253 536.009 237.532 530.103 236.808C528.431 236.603 526.359 235.253 526.359 233.26" fill="#FFCAA3"/>
<path d="M534.999 228.165L528.372 231.275" stroke="black" stroke-miterlimit="10"/>
<path d="M532.153 222.646C530.659 223.014 529.275 223.872 528.24 225.07" stroke="black" stroke-miterlimit="10"/>
<path d="M536.727 233.255C535.233 235.345 532.891 237.315 530.258 236.941C528.431 236.682 526.679 235.278 526.531 233.224" stroke="black" stroke-miterlimit="10"/>
<path d="M513.39 246.761C513.39 246.761 519.61 246.46 525.909 242.143" stroke="black" stroke-miterlimit="10"/>
<path d="M506.858 220.667C505.877 222.406 504.853 224.196 503.27 225.395C502.891 225.682 502.48 225.936 502.172 226.299C501.731 226.82 501.542 227.551 501.676 228.225C501.81 228.898 502.263 229.498 502.869 229.805" stroke="black" stroke-miterlimit="10"/>
<path d="M504.063 233.866C505.058 234.704 506.546 235.033 507.723 234.393C509.21 233.583 509.241 231.656 509.291 230.154" stroke="black" stroke-miterlimit="10"/>
<path d="M514.112 216.937C515.2 216.705 516.338 216.655 517.419 216.915C518.501 217.174 519.524 217.757 520.215 218.64C521.092 219.762 521.365 221.237 521.61 222.647" stroke="black" stroke-miterlimit="10"/>
<path d="M502.005 212.742C503.039 211.989 504.489 211.941 505.634 212.503C506.779 213.067 507.614 214.185 507.974 215.423" stroke="black" stroke-miterlimit="10"/>
<path d="M515.938 223.285C515.512 224.186 514.65 224.664 514.009 224.352C513.37 224.041 513.196 223.059 513.621 222.158C514.047 221.257 514.909 220.779 515.55 221.091C516.189 221.402 516.363 222.384 515.938 223.285Z" fill="black"/>
<path d="M504.183 219.359C503.758 220.26 502.895 220.738 502.255 220.427C501.615 220.116 501.441 219.133 501.866 218.233C502.291 217.332 503.155 216.854 503.795 217.165C504.436 217.476 504.609 218.459 504.183 219.359Z" fill="black"/>
<path d="M626.112 342.538C632.49 335.959 637.009 327.544 639.002 318.539" stroke="black" stroke-miterlimit="10"/>
<path d="M640.719 338.873C642.648 335.013 643.878 330.794 644.332 326.49" stroke="black" stroke-miterlimit="10"/>
<path d="M515.884 132.575C515.884 132.575 504.991 137.645 497.678 141.01C493.541 142.913 486.609 148.12 484.24 152.081C481.228 157.121 480.441 163.354 480.785 168.499C481.013 171.905 482.547 175.761 484.795 179.473C486.276 181.918 487.855 184.475 489.234 184.142C490.613 183.811 490.117 180.383 490.117 180.379C490.121 180.586 491.75 183.837 492.126 184.097C492.629 184.444 493.225 184.744 493.745 184.468C494.45 184.092 494.93 183.682 495.271 182.952C495.558 182.333 495.582 181.692 495.641 181.003C495.696 180.377 495.644 178.868 495.613 178.232C495.917 178.918 496.209 181.058 496.787 180.945C497.365 180.832 498.308 180.342 498.826 179.7C499.832 178.455 500.364 176.895 500.879 175.371C500.884 175.74 500.891 176.119 501.028 176.461C501.164 176.803 501.461 177.105 501.824 177.132C502.281 177.166 504.145 175.786 504.416 175.412C505.591 173.794 506.028 171.629 506.877 169.814C507.585 168.3 508.278 167.227 509.299 165.91C510.231 164.709 511.653 163.223 513.01 162.5C515.776 161.026 517.475 160.625 520.305 159.268C522.69 158.124 525.026 156.71 526.674 154.572" fill="#D16159"/>
<path d="M500.634 176.009C500.844 173.59 501.135 171.179 501.507 168.781C501.755 167.183 502.042 165.572 502.671 164.085C503.702 161.649 505.573 159.699 507.406 157.808" stroke="black" stroke-miterlimit="10"/>
<path d="M495.867 178.763C494.94 174.733 495.04 170.543 495.145 166.405C495.174 165.261 495.204 164.107 495.473 162.996C495.939 161.079 497.084 159.416 498.206 157.803" stroke="black" stroke-miterlimit="10"/>
<path d="M490.231 181.182C488.956 177.172 487.673 173.118 487.321 168.918C487.254 168.114 487.22 167.306 487.248 166.499C487.354 163.486 488.32 160.544 489.782 157.92" stroke="black" stroke-miterlimit="10"/>
<path d="M525.152 72.6355L544.32 109.336L501.542 139.066L529.695 161.57C529.695 161.57 577.696 145.712 590.77 137.845C601.035 131.669 605.44 115.628 585.665 89.4636C565.889 63.2996 552.237 47.7833 548.182 43.4201C539.455 34.03 529.071 30.13 519.394 35.0741" fill="#4C4139"/>
<path d="M525.152 72.6355L544.32 109.336L501.543 139.065" stroke="black" stroke-miterlimit="10"/>
<path d="M526.258 151.453C526.258 152.253 525.617 152.903 524.828 152.903C524.039 152.903 523.398 152.254 523.398 151.453C523.398 150.652 524.039 150.002 524.828 150.002C525.618 150.002 526.258 150.652 526.258 151.453Z" stroke="black" stroke-miterlimit="10"/>
<path d="M533.655 148.384C534.445 148.384 535.085 147.734 535.085 146.933C535.085 146.132 534.445 145.482 533.655 145.482C532.866 145.482 532.226 146.132 532.226 146.933C532.226 147.734 532.866 148.384 533.655 148.384Z" stroke="black" stroke-miterlimit="10"/>
<path d="M516.644 151.137C516.801 151.262 535.084 141.909 535.084 141.909" stroke="black" stroke-miterlimit="10"/>
<path d="M517.645 127.876C517.826 127.749 550.515 154.389 550.515 154.389" stroke="black" stroke-miterlimit="10"/>
<path d="M543.276 109.702C547.29 108.111 551.324 106.397 555.613 105.742C560.197 105.043 564.858 105.284 569.468 105.526" stroke="black" stroke-miterlimit="10"/>
<path d="M529.695 161.569L585.101 141.132" stroke="black" stroke-miterlimit="10"/>
<path d="M260.032 51.8774C261.585 48.3704 263.326 44.8537 266.036 42.1676C268.747 39.4816 272.616 37.7291 276.334 38.463C278.256 38.8432 280.073 39.8586 282.031 39.8172C284.725 39.7598 287.031 37.6569 288.242 35.214C289.454 32.7712 289.807 30.0001 290.299 27.3119C291.084 23.0189 292.356 18.6313 295.25 15.4004C298.144 12.1695 303.033 10.4372 306.9 12.3532" stroke="#FFDD99" stroke-width="1.5" stroke-miterlimit="10"/>
<path d="M6.81813 373.576C10.5837 373.576 13.6363 370.478 13.6363 366.657C13.6363 362.835 10.5837 359.737 6.81813 359.737C3.05258 359.737 0 362.835 0 366.657C0 370.478 3.05258 373.576 6.81813 373.576Z" fill="#FFDD99"/>
<path d="M547.594 301.812C551.219 301.812 554.156 304.794 554.156 308.472V426.411C554.156 430.09 551.218 433.072 547.594 433.072H359.364C355.739 433.072 352.801 430.089 352.801 426.411V308.473C352.801 304.794 355.74 301.813 359.364 301.813H547.594M547.594 300.219H359.364C354.88 300.219 351.231 303.921 351.231 308.472V426.411C351.231 430.962 354.88 434.665 359.364 434.665H547.594C552.078 434.665 555.726 430.962 555.726 426.411V308.473C555.727 303.922 552.079 300.219 547.594 300.219Z" fill="white"/>
<path d="M547.593 433.073H359.364C355.738 433.073 352.801 430.09 352.801 426.412V319.574H554.157V426.412C554.157 430.09 551.218 433.073 547.593 433.073Z" fill="#C5B3DD"/>
<path d="M368.213 311.214C368.213 313.319 366.531 315.026 364.457 315.026C362.383 315.026 360.701 313.319 360.701 311.214C360.701 309.109 362.383 307.402 364.457 307.402C366.531 307.402 368.213 309.109 368.213 311.214Z" stroke="white" stroke-width="1.5" stroke-miterlimit="10"/>
<path d="M382.773 311.214C382.773 313.319 381.091 315.026 379.017 315.026C376.943 315.026 375.261 313.319 375.261 311.214C375.261 309.109 376.943 307.402 379.017 307.402C381.091 307.402 382.773 309.109 382.773 311.214Z" stroke="white" stroke-width="1.5" stroke-miterlimit="10"/>
<path d="M352.801 319.574H554.157" stroke="white" stroke-width="1.5" stroke-miterlimit="10"/>
<path d="M525.908 407.562C515.891 396.304 504.253 390.735 498.335 392.093C489.629 394.09 491.212 416.64 491.455 425.694C487.251 420.76 482.04 416.712 476.248 413.884C471.885 411.753 466.918 410.298 462.215 411.461C457.511 412.624 453.367 417.113 453.919 421.994C442.962 405.454 427.837 391.781 410.384 382.643C399.353 376.866 369.361 364.856 364.227 377.32C358.596 390.99 390.543 433.072 390.543 433.072H545.385C545.385 433.072 534.956 417.73 525.908 407.562Z" fill="#A29DCE"/>
<path d="M332.423 287.313C326.738 281.269 321.278 269.589 319.743 263.359C318.395 257.88 317.19 252.271 314.64 247.206C313.952 245.84 310.999 242.688 312.069 241.048C314.229 237.745 319.468 242.096 320.834 244.063C321.323 244.767 323.127 247.734 324.03 247.907C324.933 248.08 325.314 244.528 325.424 243.005C325.847 237.151 325.874 230.769 325.385 224.845C324.882 218.745 325.738 213.392 327.624 213.109C329.536 212.823 329.436 213.971 329.784 214.354C330.089 212.422 331.823 210.131 332.942 210.776C333.623 211.167 333.87 212.033 333.965 212.821C334.06 213.609 334.523 215.109 334.523 215.109C334.523 215.109 335.607 210.996 337.587 213.322C338.587 214.498 340.111 220.747 341.087 222.731C340.99 221.419 340.663 220.688 341.079 219.156C341.305 218.324 341.768 217.64 342.655 218.078C343.178 218.336 343.33 218.861 343.513 219.378C344.506 222.177 346.95 226.682 347.839 229.518C348.764 232.474 349.689 235.432 350.615 238.389C352.354 243.948 354.055 249.798 355.302 255.598C356.457 260.962 360.694 274.182 360.694 274.182" fill="#FFCAA3"/>
<path d="M329.731 214.685C330.236 217.866 331.383 221.922 332.012 225.528C332.913 230.699 333.32 235.486 334.09 240.039" stroke="black" stroke-miterlimit="10"/>
<path d="M334.795 215.208C335.398 217.932 336.443 221.706 337.144 224.806C338.314 229.987 339.174 234.631 340.18 239.182" stroke="black" stroke-miterlimit="10"/>
<path d="M341.074 222.643C342.561 227.593 344.713 233.272 346.418 239.538" stroke="black" stroke-miterlimit="10"/>
<path d="M324.6 247.594C324.218 250.208 324.027 252.987 322.31 255.271" stroke="black" stroke-miterlimit="10"/>
<path d="M524.818 433.073C522.805 427.612 520.651 421.875 517.623 416.869C514.596 411.863 510.639 407.282 505.589 404.145C503.325 402.738 500.872 401.637 498.429 400.542C491.858 397.597 485.288 394.652 478.716 391.706L446.465 378.937C444.469 377.057 442.474 375.177 440.482 373.295C436.63 369.655 432.79 366.005 428.978 362.319C428.832 362.178 428.686 362.037 428.54 361.895C399.346 333.616 377.634 302.019 358.668 265.145L324.601 280.31C324.601 280.31 339.336 331.266 353.335 352.898C371.828 381.473 393.218 407.465 402.884 415.695C404.609 421.574 406.585 427.376 408.823 433.074L524.818 433.073Z" fill="#FCDDD2"/>
<path d="M330.087 297.837L366.629 280.005" stroke="black" stroke-miterlimit="10"/>
<path d="M331.91 277.055L344.231 304.189" stroke="black" stroke-miterlimit="10"/>
<path d="M343.488 282.758C343.488 284.11 342.408 285.207 341.074 285.207C339.742 285.207 338.661 284.111 338.661 282.758C338.661 281.406 339.741 280.308 341.074 280.308C342.407 280.309 343.488 281.406 343.488 282.758Z" stroke="#D8A798" stroke-miterlimit="10"/>
<path d="M475.174 432.347C476.854 430.126 478.533 427.905 480.214 425.685C482.027 423.288 483.844 420.887 485.89 418.693C491.862 412.289 499.921 407.733 508.558 406.782" stroke="#D8A798" stroke-miterlimit="10"/>
<path d="M401.873 412.509C401.873 403.649 404.79 394.854 409.811 387.632C416.137 378.535 425.446 372.003 436.697 371.677" stroke="#D8A798" stroke-miterlimit="10"/>
<path d="M402.736 415.348C401.125 410.479 400.199 405.019 397.649 400.541" stroke="black" stroke-miterlimit="10"/>
<path d="M436.199 375.309L434.073 402.507C434.073 402.507 443.081 411.818 455.466 405.755C467.852 399.691 476.887 388.156 476.887 388.156L472.837 371.298" fill="#FFCAA3"/>
<path d="M485.429 341.421C484.177 337.447 481.83 333.816 478.674 331.193C471.078 324.882 462.722 325.054 454.565 329.919C447.474 334.146 437.743 340.818 432.335 347.201C426.754 353.791 423.019 361.985 428.719 369.689C437.89 382.087 463.611 377.885 475.881 367.717C480.879 363.577 485.594 356.855 486.332 350.235C486.66 347.283 486.325 344.265 485.429 341.421Z" fill="#FFCAA3"/>
<path d="M452.987 333.38C448.899 335.492 444.424 336.052 439.946 336.591C437.794 336.849 434.946 337.582 435.335 340.45C435.586 342.299 437.171 343.892 438.492 345.022" fill="#FFCAA3"/>
<path d="M435.157 361.615C435.157 361.615 435.901 359.917 436.271 359.066C436.985 357.428 434.664 356.324 433.557 355.759C432.755 355.349 432.33 354.984 431.529 355.519C431.324 355.656 430.157 356.801 429.906 356.592C429.893 356.582 427.746 354.045 427.746 354.045C426.078 356.69 425.005 361.711 425.243 364.689C425.481 367.667 426.617 370.629 428.715 372.726C429.558 373.567 430.877 374.781 431.89 375.399C440.335 380.554 450.864 380.162 460.048 376.538C462.884 375.419 465.647 373.925 467.713 371.657C439.596 371.243 435.157 361.615 435.157 361.615Z" fill="#1E1611"/>
<path d="M468.69 359.709C468.564 359.681 468.439 359.657 468.315 359.635C466.439 359.321 464.581 359.6 462.731 358.983C461.241 358.486 459.854 357.546 459.036 356.189C458.069 354.584 459.397 353.649 460.684 352.928C462.589 351.861 464.444 350.663 465.994 349.113C468.541 346.566 469.884 342.913 468.779 339.356C467.581 335.499 463.837 333.233 460.933 330.788C458.135 328.433 454.559 324.764 455.738 320.678C456.922 316.58 460.825 315.085 464.679 315.664C466.748 315.975 468.832 316.563 470.898 316.237C471.948 316.071 472.948 315.674 473.985 315.437C477.169 314.712 480.839 315.747 482.735 318.441C484.101 320.383 484.631 323.135 486.737 324.194C487.75 324.704 488.933 324.693 490.034 324.956C492.272 325.491 494.162 327.218 495.074 329.36C495.984 331.502 495.948 334.007 495.129 336.189C493.66 340.111 491.459 342.073 493.266 346.399C497.459 356.443 499.221 368.775 489.204 375.996C486.569 377.896 483.268 378.878 481.076 381.287C479.708 382.789 478.591 384.932 476.587 385.148C475.24 385.294 473.971 384.449 473.048 383.444C472.22 382.541 471.57 381.489 470.928 380.443C470.04 378.993 469.136 377.477 468.954 375.78C468.692 373.359 469.931 371.065 471.056 368.913C472.116 366.884 474.25 362.678 471.726 361.001C470.856 360.422 469.741 359.942 468.69 359.709Z" fill="#1E1611"/>
<path d="M462.503 337.766C461.873 335.822 460.72 333.89 458.945 334.768C458.501 334.987 458.242 335.483 458.173 335.979C458.102 336.474 458.192 336.977 458.281 337.469C458.7 339.774 459.143 342.141 460.372 344.125C460.62 344.526 460.914 344.921 461.332 345.133C464.116 346.551 462.863 338.877 462.503 337.766Z" fill="#1E1611"/>
<path d="M444.915 350.918L437.039 349.106C437.039 349.106 436.267 355.961 439.614 356.64C442.961 357.32 444.915 350.918 444.915 350.918Z" fill="white"/>
<path d="M436.564 342.873C437.219 343.734 438.107 344.41 439.104 344.806" stroke="black" stroke-miterlimit="10"/>
<path d="M445.265 335.84C448.221 335.402 451.096 334.399 453.691 332.899" stroke="black" stroke-miterlimit="10"/>
<path d="M466.856 359.987C469.76 357.767 475.034 359.895 476.116 363.197C478.719 371.137 466.175 377.764 460.672 372.845C459.115 371.454 457.939 368.613 459.309 366.588" fill="#FFCAA3"/>
<path d="M471.59 367.532L462.719 365.997" stroke="black" stroke-miterlimit="10"/>
<path d="M472.496 359.909C470.725 359.225 468.73 359.117 466.854 359.601" stroke="black" stroke-miterlimit="10"/>
<path d="M459.508 366.673C458.518 368.391 458.812 370.505 459.89 372.103C461.852 375.011 466.597 375.024 469.461 373.78" stroke="black" stroke-miterlimit="10"/>
<path d="M454.255 344.35C453.132 345.174 451.75 345.181 451.169 344.367C450.587 343.551 451.026 342.221 452.149 341.397C453.272 340.573 454.653 340.565 455.234 341.38C455.815 342.196 455.376 343.525 454.255 344.35Z" fill="black"/>
<path d="M481.258 387.268C452.986 390.67 435.678 403.808 435.678 403.808L440.594 426.605C465.882 402.204 490.482 396.7 490.729 396.437L481.258 387.268Z" fill="#FCDDD2"/>
<path d="M434.859 389.244L424.212 396.181C424.212 396.181 422.381 415.569 425.876 425.88L435.679 403.808L434.859 389.244Z" fill="#FCDDD2"/>
<path d="M435.678 403.809L440.594 426.606C465.882 402.205 490.482 396.7 490.729 396.438" stroke="black" stroke-miterlimit="10"/>
<path d="M434.859 389.244L424.212 396.181C424.212 396.181 422.381 415.569 425.876 425.88L435.679 403.808" stroke="black" stroke-miterlimit="10"/>
<path d="M329.937 327.6C332.794 337.909 337.027 347.823 342.485 356.987" stroke="black" stroke-miterlimit="10"/>
<path d="M330.869 345.306C332.664 351.935 334.816 358.463 337.312 364.852" stroke="black" stroke-miterlimit="10"/>
<path d="M505.426 359.202C505.579 363.925 503.77 368.571 500.999 372.37C498.229 376.168 494.543 379.19 490.651 381.784" stroke="black" stroke-miterlimit="10"/>
<path d="M502.259 381.618C506.156 379.373 509.481 376.116 511.829 372.243" stroke="black" stroke-miterlimit="10"/>
</svg>
