<svg width="141" height="54" viewBox="0 0 141 54" fill="none" xmlns="http://www.w3.org/2000/svg">
<path d="M123.979 15.6128L109.899 30.4554C109.899 30.4554 103.21 32.4465 100.34 27.2943C97.4784 22.1561 101.383 19.1097 101.383 19.1097C101.383 19.1097 96.5544 20.4976 93.6928 15.3604C90.8228 10.2082 96.2915 6.025 96.2915 6.025L115.054 2.95497L123.979 15.6128Z" fill="#E69852"/>
<path d="M130.164 9.11328L124.008 15.6007L115.085 2.94515L127.288 0.945181L130.164 9.11328Z" fill="#2D2B55"/>
<path d="M109.815 30.4707L-0.887958 86.7238C-0.887958 86.7238 -5.89247 84.76 -10.7445 76.0433L101.295 19.1121C101.295 19.1121 97.3875 22.1625 100.251 27.307C103.121 32.4647 109.815 30.4707 109.815 30.4707Z" fill="#5C97FB"/>
<path d="M101.308 19.1568L-10.7249 76.0794C-15.5768 67.3638 -14.4828 62.3012 -14.4828 62.3012L96.2145 6.05671C96.2145 6.05671 90.7421 10.2438 93.6138 15.4027C96.476 20.5466 101.308 19.1568 101.308 19.1568Z" fill="#E39327"/>
<path d="M114.972 2.45423C115.174 2.42649 115.374 2.51024 115.487 2.66964L124.416 15.3364C124.549 15.5285 124.53 15.7832 124.365 15.9556L110.297 30.7965C110.234 30.865 110.151 30.9149 110.059 30.9418C109.99 30.9614 102.92 32.992 99.8765 27.5323C97.8349 23.8683 99.0555 21.1589 100.084 19.7683C98.3018 19.8046 95.2655 19.2569 93.2259 15.5916C90.1847 10.1326 95.9001 5.66983 95.9587 5.6243C96.0311 5.5698 96.1146 5.53398 96.2053 5.51843L114.959 2.45611C114.963 2.45553 114.968 2.45481 114.972 2.45423ZM123.301 15.5782L114.792 3.50428L96.5183 6.48824C95.7853 7.09027 91.7152 10.7128 94.1669 15.1137C96.7828 19.8117 101.057 18.6756 101.239 18.6243C101.47 18.5489 101.739 18.6596 101.855 18.8692C101.972 19.0798 101.917 19.3403 101.722 19.4937C101.577 19.6089 98.2005 22.3566 100.818 27.0544C103.263 31.4439 108.664 30.2669 109.613 30.0166L123.301 15.5782Z" fill="#2D2B55"/>
<path d="M127.212 0.446377C127.464 0.411565 127.707 0.551182 127.787 0.781947L130.666 8.95326C130.727 9.12495 130.685 9.3159 130.556 9.45206L124.404 15.9399C124.294 16.0573 124.129 16.1155 123.971 16.1079C123.807 16.0971 123.659 16.0164 123.568 15.8883L114.642 3.22431C114.543 3.08207 114.526 2.90131 114.597 2.74275C114.67 2.58604 114.82 2.47323 114.999 2.44357L127.197 0.448404C127.202 0.447827 127.208 0.446954 127.212 0.446377ZM129.561 9.00144L126.922 1.51333L115.982 3.30241L124.076 14.7854L129.561 9.00144Z" fill="#2D2B55"/>
<path d="M96.1036 5.5472C96.3017 5.51985 96.5046 5.60026 96.6193 5.76678C96.7699 5.98303 96.7206 6.27346 96.507 6.4387C96.298 6.59924 91.4194 10.4293 94.0498 15.1557C96.6673 19.8585 100.945 18.721 101.127 18.6696C101.357 18.5942 101.626 18.7049 101.743 18.9147C101.86 19.1255 101.805 19.3863 101.61 19.5399C101.464 19.6553 98.0858 22.406 100.704 27.1087C103.337 31.8338 109.39 30.1108 109.643 30.0364C109.908 29.9562 110.185 30.0821 110.287 30.3222C110.391 30.5612 110.285 30.8381 110.043 30.9617L-0.597587 87.1735C-0.737219 87.2434 -0.906756 87.2537 -1.05187 87.1957C-1.26352 87.1135 -6.28737 85.0596 -11.1737 76.2815C-16.0603 67.5024 -15.0324 62.3764 -14.9871 62.1625C-14.955 62.0132 -14.8555 61.887 -14.7141 61.8148L95.9267 5.60302C95.9844 5.57278 96.0439 5.55544 96.1036 5.5472ZM99.9711 19.8127C98.1881 19.8492 95.1499 19.3011 93.109 15.632C91.3464 12.4654 92.5263 9.63421 93.8408 7.80254L-13.976 62.5801C-14.1038 63.6442 -14.358 68.3879 -10.2299 75.8038C-6.10434 83.217 -1.84333 85.6689 -0.849107 86.1628L106.968 31.3852C104.644 31.404 101.528 30.7532 99.7636 27.586C97.7208 23.9181 98.9422 21.2048 99.9711 19.8127Z" fill="#2D2B55"/>
<path d="M46.0273 46.6637C46.2433 46.6338 46.4626 46.7323 46.5703 46.9243C46.7058 47.1692 46.6073 47.4748 46.3462 47.6082L-10.5189 76.5205C-10.7728 76.6519 -11.0991 76.5611 -11.237 76.3145C-11.3725 76.0696 -11.274 75.764 -11.0129 75.6306L45.8522 46.7183C45.908 46.6893 45.9665 46.6721 46.0273 46.6637Z" fill="#2D2B55"/>
</svg>
