<svg width="44" height="44" viewBox="0 0 44 44" fill="none" xmlns="http://www.w3.org/2000/svg">
<path d="M12.3748 5.48901V9.61401M31.6248 5.48901V9.61401M5.49609 34.364V13.7335C5.49609 12.6395 5.93069 11.5903 6.70428 10.8167C7.47787 10.0431 8.52708 9.60851 9.62109 9.60851H34.3711C35.4651 9.60851 36.5143 10.0431 37.2879 10.8167C38.0615 11.5903 38.4961 12.6395 38.4961 13.7335V34.3604M38.4961 34.3604C38.4961 35.4544 38.0615 36.5036 37.2879 37.2772C36.5143 38.0508 35.4651 38.4854 34.3711 38.4854H9.62109C8.52708 38.4854 7.47787 38.0508 6.70428 37.2772C5.93069 36.5036 5.49609 35.4544 5.49609 34.3604V20.6103C5.49609 19.5163 5.93069 18.4671 6.70428 17.6935C7.47787 16.9199 8.52708 16.4853 9.62109 16.4853H34.3711C35.4651 16.4853 36.5143 16.9199 37.2879 17.6935C38.0615 18.4671 38.4961 19.5163 38.4961 20.6103V34.3604ZM26.1211 23.3603H30.2461M13.7461 27.4853H21.9961M21.9998 23.3603H22.0089V23.3713H21.9998V23.3603ZM21.9979 31.6104H22.0089V31.6213H21.9979V31.6104ZM17.8729 31.6122H17.8821V31.6232H17.8748V31.6122H17.8729ZM13.7479 31.6122H13.7571V31.6213H13.7461V31.6122H13.7479ZM26.1229 27.4927H26.1321V27.5018H26.1229V27.4927ZM26.1229 31.6122H26.1339V31.6232H26.1229V31.6122ZM30.2479 27.4908H30.2589V27.5H30.2498L30.2479 27.4908Z" stroke="black" stroke-width="1.5" stroke-linecap="round" stroke-linejoin="round"/>
</svg>
