<svg width="28" height="28" viewBox="0 0 28 28" fill="none" xmlns="http://www.w3.org/2000/svg">
<g clip-path="url(#clip0_1_10995)">
<path d="M26.25 2.62202L19.2439 2.62205V0.878174C19.2439 0.394736 18.8523 0.00317383 18.3689 0.00317383C17.8854 0.00317383 17.4939 0.394736 17.4939 0.878174V2.62161H10.4939V0.878174C10.4939 0.394736 10.1023 0.00317383 9.61888 0.00317383C9.13544 0.00317383 8.74388 0.394736 8.74388 0.878174V2.62161H1.75C0.783562 2.62161 0 3.40517 0 4.37161V26.2466C0 27.213 0.783562 27.9966 1.75 27.9966H26.25C27.2164 27.9966 28 27.213 28 26.2466V4.37161C28 3.40558 27.2164 2.62202 26.25 2.62202ZM26.25 26.2466H1.75V4.37161H8.74388V5.25317C8.74388 5.73658 9.13544 6.12817 9.61888 6.12817C10.1023 6.12817 10.4939 5.73658 10.4939 5.25317V4.37205H17.4939V5.25361C17.4939 5.73705 17.8854 6.12861 18.3689 6.12861C18.8523 6.12861 19.2439 5.73705 19.2439 5.25361V4.37205H26.25V26.2466ZM20.125 13.997H21.875C22.358 13.997 22.75 13.605 22.75 13.122V11.372C22.75 10.889 22.358 10.497 21.875 10.497H20.125C19.642 10.497 19.25 10.889 19.25 11.372V13.122C19.25 13.605 19.642 13.997 20.125 13.997ZM20.125 20.9966H21.875C22.358 20.9966 22.75 20.605 22.75 20.1216V18.3716C22.75 17.8886 22.358 17.4966 21.875 17.4966H20.125C19.642 17.4966 19.25 17.8886 19.25 18.3716V20.1216C19.25 20.6055 19.642 20.9966 20.125 20.9966ZM14.875 17.4966H13.125C12.642 17.4966 12.25 17.8886 12.25 18.3716V20.1216C12.25 20.605 12.642 20.9966 13.125 20.9966H14.875C15.358 20.9966 15.75 20.605 15.75 20.1216V18.3716C15.75 17.889 15.358 17.4966 14.875 17.4966ZM14.875 10.497H13.125C12.642 10.497 12.25 10.889 12.25 11.372V13.122C12.25 13.605 12.642 13.997 13.125 13.997H14.875C15.358 13.997 15.75 13.605 15.75 13.122V11.372C15.75 10.8886 15.358 10.497 14.875 10.497ZM7.875 10.497H6.125C5.642 10.497 5.25 10.889 5.25 11.372V13.122C5.25 13.605 5.642 13.997 6.125 13.997H7.875C8.358 13.997 8.75 13.605 8.75 13.122V11.372C8.75 10.8886 8.358 10.497 7.875 10.497ZM7.875 17.4966H6.125C5.642 17.4966 5.25 17.8886 5.25 18.3716V20.1216C5.25 20.605 5.642 20.9966 6.125 20.9966H7.875C8.358 20.9966 8.75 20.605 8.75 20.1216V18.3716C8.75 17.889 8.358 17.4966 7.875 17.4966Z" fill="#3593FF"/>
</g>
<defs>
<clipPath id="clip0_1_10995">
<rect width="28" height="28" fill="white"/>
</clipPath>
</defs>
</svg>
