<svg width="177" height="158" viewBox="0 0 177 158" fill="none" xmlns="http://www.w3.org/2000/svg">
<path d="M117.876 6.39118L175.502 156.476C177.308 161.179 174.913 166.485 170.176 168.278L70.6233 205.951C65.9021 207.738 60.5413 205.366 58.7352 200.663L1.10921 50.5782C-0.69686 45.8752 1.71355 40.5632 6.43572 38.7762L105.988 1.10318C110.725 -0.688816 116.071 1.68918 117.876 6.39118ZM165.625 149.267L161.182 137.695C160.326 135.467 157.803 134.344 155.558 135.194L143.902 139.605C141.657 140.454 140.526 142.959 141.382 145.187L145.826 156.759C146.681 158.987 149.204 160.11 151.448 159.26L163.105 154.849C165.35 154 166.481 151.495 165.625 149.267ZM154.886 121.297L150.443 109.725C149.588 107.497 147.064 106.374 144.82 107.224L133.164 111.635C130.92 112.485 129.788 114.989 130.645 117.218L135.088 128.79C135.944 131.018 138.466 132.141 140.711 131.291L152.368 126.88C154.611 126.03 155.741 123.525 154.886 121.297ZM144.146 93.3272L139.703 81.7552C138.848 79.5272 136.325 78.4042 134.079 79.2542L122.423 83.6652C120.179 84.5142 119.048 87.0192 119.904 89.2482L124.347 100.82C125.202 103.048 127.726 104.171 129.971 103.321L141.627 98.9102C143.871 98.0602 145.003 95.5552 144.146 93.3272ZM133.408 65.3572L128.964 53.7852C128.109 51.5572 125.586 50.4342 123.341 51.2842L111.684 55.6952C109.44 56.5442 108.309 59.0492 109.165 61.2782L113.608 72.8502C114.464 75.0782 116.987 76.2012 119.231 75.3512L130.887 70.9402C133.133 70.0902 134.263 67.5852 133.408 65.3572ZM121.838 39.7952L111.116 11.8712L7.83286 50.9562L18.5544 78.8802L121.838 39.7952ZM137.42 159.94L132.976 148.368C132.121 146.14 129.598 145.017 127.353 145.867L115.696 150.278C113.452 151.127 112.322 153.632 113.177 155.86L117.62 167.432C118.476 169.66 120.999 170.783 123.244 169.933L134.9 165.522C137.146 164.673 138.276 162.168 137.42 159.94ZM126.681 131.97L122.238 120.398C121.383 118.17 118.859 117.047 116.614 117.897L104.958 122.308C102.713 123.157 101.582 125.662 102.439 127.89L106.882 139.462C107.737 141.69 110.26 142.813 112.505 141.963L124.162 137.552C126.406 136.703 127.536 134.198 126.681 131.97ZM115.941 104L111.498 92.4282C110.643 90.2002 108.12 89.0772 105.875 89.9272L94.219 94.3382C91.9748 95.1872 90.8436 97.6922 91.6998 99.9202L96.143 111.492C96.9982 113.72 99.5214 114.842 101.766 113.993L113.422 109.582C115.667 108.733 116.797 106.228 115.941 104ZM105.202 76.0302L100.759 64.4582C99.9042 62.2302 97.3809 61.1072 95.1357 61.9572L83.4793 66.3682C81.2351 67.2172 80.1049 69.7222 80.9601 71.9502L85.4033 83.5222C86.2584 85.7502 88.7817 86.8732 91.0269 86.0232L102.683 81.6122C104.928 80.7632 106.058 78.2582 105.202 76.0302ZM109.277 170.59L104.834 159.018C103.979 156.79 101.455 155.668 99.2111 156.517L87.5548 160.928C85.3106 161.777 84.1794 164.282 85.0355 166.511L89.4787 178.083C90.3349 180.311 92.8572 181.434 95.1024 180.584L106.759 176.173C109.002 175.323 110.133 172.818 109.277 170.59ZM98.5383 142.62L94.0951 131.048C93.2399 128.82 90.7167 127.697 88.4725 128.547L76.8161 132.958C74.5718 133.807 73.4407 136.312 74.2969 138.54L78.74 150.112C79.5952 152.34 82.1184 153.463 84.3637 152.613L96.0201 148.202C98.2633 147.353 99.3935 144.848 98.5383 142.62ZM87.7986 114.65L83.3554 103.078C82.5002 100.85 79.9769 99.7272 77.7327 100.577L66.0764 104.988C63.8321 105.837 62.7009 108.342 63.5571 110.57L68.0003 122.142C68.8555 124.37 71.3787 125.493 73.624 124.643L85.2804 120.232C87.5236 119.383 88.6548 116.878 87.7986 114.65ZM77.0599 86.6802L72.6167 75.1082C71.7615 72.8802 69.2383 71.7572 66.994 72.6072L55.3377 77.0182C53.0934 77.8672 51.9622 80.3722 52.8184 82.6002L57.2616 94.1722C58.1167 96.4002 60.64 97.5222 62.8853 96.6732L74.5416 92.2622C76.7849 91.4132 77.915 88.9082 77.0599 86.6802ZM81.0719 181.263L76.6288 169.691C75.7736 167.463 73.2503 166.34 71.0051 167.19L59.3487 171.601C57.1044 172.45 55.9733 174.955 56.8295 177.184L61.2726 188.756C62.1278 190.984 64.651 192.107 66.8963 191.257L78.5527 186.846C80.7979 185.996 81.9281 183.491 81.0719 181.263ZM70.3332 153.293L65.89 141.721C65.0348 139.493 62.5116 138.37 60.2663 139.22L48.61 143.631C46.3657 144.48 45.2345 146.985 46.0907 149.213L50.5339 160.785C51.3891 163.013 53.9123 164.136 56.1566 163.286L67.813 158.875C70.0582 158.026 71.1884 155.521 70.3332 153.293ZM59.5934 125.323L55.1503 113.751C54.2951 111.523 51.7719 110.4 49.5266 111.25L37.8702 115.661C35.626 116.51 34.4948 119.015 35.351 121.243L39.7941 132.815C40.6493 135.043 43.1726 136.166 45.4178 135.316L57.0742 130.905C59.3195 130.056 60.4496 127.551 59.5934 125.323ZM48.8547 97.3532L44.4116 85.7812C43.5564 83.5532 41.0331 82.4312 38.7879 83.2802L27.1315 87.6912C24.8873 88.5402 23.7561 91.0452 24.6123 93.2732L29.0555 104.845C29.9107 107.073 32.4339 108.196 34.6791 107.346L46.3355 102.935C48.5797 102.086 49.7099 99.5812 48.8547 97.3532Z" fill="#5C97FB"/>
<path d="M161.182 137.695L165.625 149.267C166.48 151.495 165.35 154 163.106 154.849L151.449 159.26C149.205 160.109 146.682 158.987 145.826 156.759L141.383 145.187C140.528 142.959 141.658 140.454 143.903 139.605L155.559 135.194C157.803 134.344 160.326 135.466 161.182 137.695Z" fill="#E39327"/>
<path d="M150.443 109.725L154.887 121.297C155.742 123.525 154.611 126.03 152.367 126.879L140.711 131.29C138.467 132.139 135.943 131.017 135.087 128.789L130.644 117.217C129.789 114.989 130.919 112.484 133.163 111.634L144.82 107.223C147.065 106.374 149.587 107.496 150.443 109.725Z" fill="#39397A"/>
<path d="M139.703 81.7543L144.146 93.3263C145.001 95.5543 143.871 98.0593 141.627 98.9083L129.971 103.319C127.726 104.168 125.203 103.046 124.347 100.818L119.904 89.2463C119.049 87.0183 120.179 84.5133 122.423 83.6633L134.079 79.2523C136.325 78.4043 138.848 79.5263 139.703 81.7543Z" fill="#39397A"/>
<path d="M128.965 53.7841L133.408 65.3561C134.263 67.5841 133.133 70.0891 130.889 70.9381L119.232 75.3491C116.988 76.1981 114.465 75.0761 113.61 72.8481L109.167 61.2761C108.311 59.0481 109.442 56.5431 111.686 55.6931L123.342 51.2821C125.586 50.4341 128.109 51.5561 128.965 53.7841Z" fill="#39397A"/>
<path d="M111.106 11.8457L7.82422 50.9326L18.5465 78.8562L121.828 39.7693L111.106 11.8457Z" fill="#E39327"/>
<path d="M132.976 148.368L137.42 159.94C138.275 162.168 137.145 164.673 134.9 165.522L123.244 169.933C121 170.782 118.477 169.66 117.62 167.432L113.177 155.86C112.322 153.632 113.452 151.127 115.696 150.278L127.353 145.867C129.598 145.017 132.121 146.139 132.976 148.368Z" fill="#39397A"/>
<path d="M122.238 120.398L126.681 131.97C127.537 134.198 126.406 136.703 124.162 137.552L112.506 141.963C110.262 142.812 107.738 141.69 106.882 139.462L102.439 127.89C101.584 125.662 102.714 123.157 104.958 122.308L116.615 117.897C118.86 117.047 121.382 118.169 122.238 120.398Z" fill="#39397A"/>
<path d="M111.498 92.4282L115.941 104C116.796 106.228 115.666 108.733 113.422 109.583L101.766 113.994C99.5213 114.843 96.9981 113.721 96.1429 111.493L91.6997 99.9212C90.8445 97.6932 91.9747 95.1882 94.2189 94.3392L105.875 89.9282C108.12 89.0772 110.643 90.1992 111.498 92.4282Z" fill="#39397A"/>
<path d="M100.76 64.4582L105.203 76.0302C106.058 78.2582 104.928 80.7632 102.684 81.6132L91.0273 86.0243C88.783 86.8733 86.2598 85.7512 85.4036 83.5232L80.9605 71.9513C80.1053 69.7233 81.2354 67.2183 83.4797 66.3693L95.1361 61.9582C97.3813 61.1072 99.9036 62.2292 100.76 64.4582Z" fill="#39397A"/>
<path d="M104.834 159.018L109.277 170.59C110.132 172.818 109.002 175.323 106.758 176.172L95.1016 180.583C92.8573 181.432 90.3341 180.31 89.4779 178.082L85.0347 166.51C84.1795 164.282 85.3097 161.777 87.5539 160.927L99.2103 156.516C101.456 155.667 103.979 156.789 104.834 159.018Z" fill="#39397A"/>
<path d="M94.0951 131.048L98.5383 142.62C99.3935 144.848 98.2633 147.353 96.0191 148.202L84.3627 152.613C82.1185 153.462 79.5952 152.34 78.739 150.112L74.2958 138.54C73.4396 136.312 74.5709 133.807 76.8151 132.958L88.4714 128.547C90.7167 127.697 93.2389 128.819 94.0951 131.048Z" fill="#39397A"/>
<path d="M83.3555 103.078L87.7986 114.65C88.6538 116.878 87.5236 119.383 85.2794 120.232L73.623 124.643C71.3788 125.492 68.8555 124.37 67.9993 122.142L63.5562 110.57C62.701 108.342 63.8311 105.837 66.0754 104.988L77.7318 100.577C79.977 99.7271 82.5003 100.849 83.3555 103.078Z" fill="#39397A"/>
<path d="M72.6172 75.1081L77.0603 86.6801C77.9155 88.9081 76.7853 91.4131 74.5411 92.2621L62.8848 96.6731C60.6405 97.5221 58.1172 96.4001 57.2611 94.1721L52.8179 82.6001C51.9627 80.3721 53.0929 77.8671 55.3372 77.0181L66.9935 72.6071C69.2377 71.7571 71.761 72.8791 72.6172 75.1081Z" fill="#39397A"/>
<path d="M65.8896 141.721L70.3328 153.293C71.188 155.521 70.0578 158.026 67.8135 158.876L56.1571 163.287C53.9129 164.136 51.3897 163.014 50.5345 160.786L46.0913 149.214C45.2361 146.986 46.3664 144.481 48.6106 143.632L60.2669 139.221C62.5111 138.37 65.0334 139.492 65.8896 141.721Z" fill="#39397A"/>
<path d="M55.1503 113.751L59.5935 125.323C60.4487 127.551 59.3185 130.056 57.0743 130.905L45.4179 135.316C43.1737 136.165 40.6504 135.043 39.7942 132.815L35.3511 121.243C34.4959 119.015 35.6261 116.51 37.8703 115.661L49.5267 111.25C51.7719 110.4 54.2951 111.522 55.1503 113.751Z" fill="#39397A"/>
<path d="M44.4121 85.7812L48.8552 97.3532C49.7104 99.5812 48.5802 102.086 46.336 102.935L34.6796 107.346C32.4354 108.195 29.9122 107.073 29.056 104.845L24.6128 93.2732C23.7576 91.0452 24.8878 88.5402 27.132 87.6912L38.7884 83.2802C41.0336 82.4302 43.5559 83.5522 44.4121 85.7812Z" fill="#39397A"/>
<path d="M66.7507 28.7192C63.3813 35.8732 61.2962 43.6492 61.0947 51.5762C60.994 55.2402 61.2881 58.9132 61.9761 62.5072L23.415 77.0992C23.5681 76.7592 23.7152 76.4042 23.8633 76.0492C28.0617 65.6952 29.6612 54.3002 28.4837 43.1992L66.7507 28.7192Z" fill="#9FC6FC"/>
<path d="M18.5539 79.3822C18.3494 79.3822 18.1581 79.2592 18.0805 79.0592L7.35888 51.1362C7.31154 51.0122 7.31559 50.8732 7.37099 50.7512C7.42539 50.6292 7.52611 50.5342 7.65202 50.4872L110.935 11.4022C111.06 11.3522 111.199 11.3582 111.323 11.4142C111.446 11.4682 111.542 11.5682 111.589 11.6932L122.311 39.6172C122.409 39.8762 122.28 40.1672 122.018 40.2662L18.7342 79.3502C18.6758 79.3712 18.6154 79.3822 18.5539 79.3822ZM8.48704 51.2472L18.8471 78.2302L121.184 39.5052L110.824 12.5212L8.48704 51.2472Z" fill="#2D2B55"/>
<path d="M67.3551 207.053C63.4388 207.053 59.74 204.685 58.2633 200.843L0.637286 50.7571C-1.27052 45.7851 1.25071 40.2001 6.25693 38.3061L105.809 0.633081C110.817 -1.26192 116.441 1.24206 118.351 6.21206L175.976 156.296C176.898 158.696 176.82 161.316 175.756 163.673C174.691 166.03 172.774 167.832 170.358 168.747L70.805 206.42C69.6698 206.85 68.5034 207.053 67.3551 207.053ZM106.17 1.57305L6.61758 39.2461C2.13111 40.9421 -0.126275 45.9451 1.5831 50.3991L59.2092 200.485C60.9185 204.937 65.96 207.179 70.4434 205.482L169.996 167.809C172.161 166.991 173.878 165.376 174.831 163.264C175.784 161.152 175.854 158.805 175.028 156.656L117.404 6.57107C115.695 2.11907 110.656 -0.122947 106.17 1.57305ZM18.5539 79.3821C18.3495 79.3821 18.1581 79.2591 18.0805 79.0591L7.3589 51.1361C7.31156 51.0121 7.31561 50.8731 7.37101 50.7511C7.42541 50.6291 7.52613 50.5341 7.65204 50.4871L110.935 11.4021C111.06 11.3521 111.199 11.3581 111.323 11.4141C111.446 11.4681 111.542 11.5681 111.589 11.6931L122.311 39.6171C122.409 39.8761 122.28 40.1671 122.018 40.2661L18.7343 79.3501C18.6758 79.3711 18.6154 79.3821 18.5539 79.3821ZM8.48706 51.2471L18.8471 78.2301L121.184 39.5051L110.824 12.5211L8.48706 51.2471Z" fill="#2D2B55"/>
<path d="M63.1961 156.906L59.5588 158.282L56.8824 151.312C56.5571 150.466 56.278 149.684 56.0453 148.968C55.9255 149.323 55.7552 149.71 55.5357 150.13L54.5032 151.933L51.7725 150.368L54.9121 144.962L58.1416 143.74L63.1961 156.906Z" fill="#B4D3FC"/>
<path d="M93.8653 145.408L84.2416 149.05L83.3421 146.709L85.3325 142.233C85.8885 140.922 86.2421 140.038 86.3912 139.579C86.5403 139.12 86.6229 138.744 86.638 138.449C86.6531 138.155 86.6077 137.869 86.502 137.593C86.371 137.251 86.1555 137.023 85.8553 136.91C85.5551 136.797 85.2025 136.816 84.7976 136.97C84.3806 137.128 84.0039 137.406 83.6685 137.805C83.333 138.203 82.9855 138.736 82.6249 139.401L79.7783 137.859C80.2286 136.994 80.6365 136.343 81.0021 135.906C81.3678 135.469 81.7969 135.077 82.2915 134.732C82.7861 134.387 83.3743 134.085 84.0573 133.826C84.9155 133.501 85.7404 133.361 86.5291 133.406C87.3189 133.451 88.0059 133.681 88.5911 134.095C89.1764 134.51 89.6014 135.062 89.8663 135.752C90.0648 136.268 90.1826 136.77 90.2209 137.258C90.2592 137.745 90.2239 138.252 90.1141 138.778C90.0043 139.304 89.814 139.887 89.544 140.525C89.273 141.164 88.6545 142.416 87.6875 144.28L87.7218 144.37L92.7381 142.472L93.8653 145.408Z" fill="#B4D3FC"/>
<path d="M117.484 124.559C117.797 125.375 117.815 126.171 117.538 126.946C117.261 127.721 116.698 128.421 115.851 129.044L115.872 129.098C118.191 128.537 119.697 129.157 120.388 130.957C120.858 132.182 120.739 133.33 120.033 134.402C119.326 135.474 118.105 136.338 116.369 136.995C115.656 137.265 114.975 137.464 114.329 137.592C113.682 137.72 112.953 137.783 112.142 137.78L111.008 134.826C111.701 134.901 112.376 134.894 113.031 134.808C113.687 134.721 114.269 134.582 114.777 134.39C115.563 134.093 116.093 133.766 116.369 133.411C116.645 133.056 116.693 132.644 116.514 132.176C116.376 131.816 116.175 131.574 115.912 131.449C115.65 131.325 115.291 131.292 114.835 131.351C114.38 131.41 113.817 131.566 113.146 131.82L112.329 132.129L111.303 129.455L112.137 129.139C113.957 128.45 114.689 127.644 114.335 126.719C114.201 126.371 113.967 126.164 113.634 126.097C113.3 126.031 112.906 126.083 112.453 126.255C111.607 126.575 110.838 127.189 110.147 128.097L107.747 126.283C108.264 125.537 108.851 124.923 109.507 124.441C110.164 123.959 110.966 123.538 111.915 123.179C113.288 122.659 114.468 122.522 115.456 122.768C116.444 123.014 117.12 123.61 117.484 124.559Z" fill="#B4D3FC"/>
<path d="M52.7301 125.914L51.2695 126.467L52.2476 129.015L48.71 130.354L47.7319 127.806L42.4437 129.807L41.4414 127.196L43.8831 117.104L47.194 115.851L50.2501 123.811L51.7107 123.258L52.7301 125.914ZM46.7115 125.149L46.1243 123.618C46.0135 123.33 45.8755 122.937 45.7083 122.44C45.5411 121.943 45.4595 121.68 45.4625 121.651L45.3628 121.689C45.3346 122.229 45.2681 122.749 45.1624 123.25L44.5257 125.976L46.7115 125.149Z" fill="#B4D3FC"/>
<path d="M75.472 110.341C76.2335 110.053 76.989 109.968 77.7374 110.087C78.4858 110.206 79.1546 110.522 79.7429 111.035C80.3311 111.548 80.7865 112.225 81.1098 113.065C81.6749 114.536 81.6618 115.833 81.0715 116.957C80.4812 118.081 79.2826 118.985 77.4745 119.669C75.9263 120.255 74.5715 120.496 73.41 120.392L72.2899 117.475C72.9084 117.516 73.5783 117.489 74.3005 117.395C75.0228 117.3 75.6221 117.163 76.1005 116.982C76.7653 116.73 77.2227 116.397 77.4725 115.983C77.7223 115.569 77.7424 115.089 77.5319 114.542C77.3385 114.038 77.0061 113.713 76.5346 113.568C76.0632 113.423 75.4589 113.49 74.7215 113.769C74.1595 113.982 73.5914 114.317 73.0192 114.774L71.4549 114.623L69.2842 107.482L76.8489 104.619L77.9862 107.582L73.4695 109.291L73.9731 111.091C74.4103 110.823 74.7266 110.646 74.923 110.561C75.1194 110.476 75.3027 110.405 75.472 110.341Z" fill="#B4D3FC"/>
<path d="M99.3742 104.813C98.6691 102.976 98.3619 101.389 98.4546 100.051C98.5473 98.713 99.0045 97.579 99.8285 96.649C100.652 95.719 101.82 94.967 103.332 94.395C103.87 94.191 104.518 94.004 105.277 93.834L106.346 96.617C105.697 96.732 105.019 96.923 104.312 97.191C103.114 97.644 102.324 98.243 101.937 98.987C101.551 99.731 101.558 100.705 101.957 101.908L102.066 101.867C102.218 100.64 102.896 99.8 104.099 99.344C105.279 98.898 106.338 98.928 107.277 99.436C108.216 99.943 108.945 100.87 109.461 102.214C110.017 103.661 110.044 104.959 109.543 106.107C109.042 107.256 108.054 108.109 106.578 108.668C105.012 109.261 103.594 109.22 102.324 108.545C101.053 107.87 100.07 106.626 99.3742 104.813ZM105.415 105.879C105.796 105.735 106.052 105.475 106.18 105.099C106.309 104.723 106.255 104.224 106.015 103.599C105.605 102.531 104.983 102.154 104.148 102.47C103.737 102.626 103.456 102.89 103.305 103.263C103.154 103.636 103.155 104.021 103.307 104.417C103.528 104.993 103.834 105.419 104.223 105.694C104.612 105.972 105.009 106.033 105.415 105.879Z" fill="#B4D3FC"/>
<path d="M35.6648 103.255L36.3014 91.329L30.5599 93.502L29.4297 90.558L38.9989 86.937L39.8048 89.035L39.3757 101.851L35.6648 103.255Z" fill="#B4D3FC"/>
<path d="M62.3633 77.8641C63.7604 77.3351 64.954 77.2031 65.9452 77.4681C66.9364 77.7321 67.6294 78.3781 68.0233 79.4041C68.2902 80.1001 68.3426 80.7801 68.1784 81.4441C68.0142 82.1081 67.6113 82.7851 66.9686 83.4751C68.1603 83.6571 69.0628 83.9461 69.6762 84.3431C70.2897 84.7401 70.7177 85.2571 70.9625 85.8931C71.4118 87.0641 71.3332 88.1311 70.7278 89.0961C70.1214 90.0611 69.0537 90.8331 67.5236 91.4121C65.9633 92.0021 64.6488 92.1411 63.5791 91.8271C62.5103 91.5131 61.7489 90.7681 61.2976 89.5911C61.0045 88.8291 60.94 88.1091 61.1021 87.4321C61.2643 86.7551 61.6975 86.0331 62.3996 85.2651C61.5182 85.0621 60.8131 84.7531 60.2832 84.3381C59.7534 83.9231 59.3656 83.3951 59.1188 82.7521C58.732 81.7431 58.8267 80.8091 59.4028 79.9481C59.98 79.0881 60.9662 78.3931 62.3633 77.8641ZM64.5259 88.2041C64.6689 88.5761 64.9168 88.8251 65.2693 88.9491C65.6219 89.0731 66.0339 89.0461 66.5053 88.8681C67.569 88.4651 67.9527 87.8771 67.6556 87.1021C67.5427 86.8081 67.3151 86.5621 66.9726 86.3651C66.6302 86.1681 66.0923 86.0061 65.3569 85.8781C64.9268 86.3641 64.6509 86.7931 64.527 87.1671C64.4041 87.5411 64.404 87.8861 64.5259 88.2041ZM63.3303 80.4371C63.0221 80.5541 62.7954 80.7411 62.6524 80.9981C62.5083 81.2551 62.4912 81.5251 62.599 81.8071C62.7974 82.3231 63.3263 82.6461 64.1855 82.7741C64.5199 82.3651 64.7274 82.0291 64.806 81.7661C64.8845 81.5021 64.8745 81.2411 64.7758 80.9831C64.665 80.6951 64.4705 80.5041 64.1925 80.4101C63.9145 80.3161 63.6275 80.3251 63.3303 80.4371Z" fill="#B4D3FC"/>
<path d="M97.7569 71.556C98.746 74.131 98.9022 76.207 98.2263 77.783C97.5504 79.359 95.981 80.613 93.5202 81.544C92.7094 81.851 92.0818 82.054 91.6356 82.154L90.5537 79.335C91.1108 79.234 91.6497 79.086 92.1694 78.889C93.4517 78.404 94.3391 77.767 94.8327 76.979C95.3263 76.191 95.3857 75.218 95.011 74.06L94.9022 74.101C94.8327 74.622 94.7189 75.023 94.5638 75.302C94.4077 75.581 94.183 75.834 93.8899 76.062C93.5968 76.29 93.2019 76.498 92.7063 76.685C91.557 77.12 90.5134 77.078 89.5736 76.561C88.6338 76.043 87.9066 75.115 87.3929 73.777C86.8328 72.318 86.8127 71.016 87.3315 69.871C87.8512 68.726 88.8393 67.877 90.2969 67.326C91.9176 66.713 93.3772 66.772 94.6766 67.504C95.976 68.236 97.0004 69.587 97.7569 71.556ZM91.4865 70.133C91.0937 70.282 90.8288 70.543 90.6918 70.918C90.5548 71.293 90.6071 71.792 90.8469 72.417C91.0363 72.909 91.2921 73.261 91.6154 73.472C91.9388 73.683 92.3185 73.706 92.7537 73.542C93.1465 73.393 93.4346 73.123 93.6159 72.731C93.7972 72.339 93.8123 71.945 93.6602 71.549C93.4547 71.015 93.1445 70.606 92.7275 70.324C92.3115 70.041 91.8975 69.978 91.4865 70.133Z" fill="#B4D3FC"/>
<path d="M124.315 158.974L120.94 160.251L120.014 157.838L123.388 156.561L122.119 153.256L124.559 152.333L125.828 155.638L129.202 154.361L130.129 156.774L126.754 158.051L128.003 161.302L125.563 162.225L124.315 158.974Z" fill="#B4D3FC"/>
<path d="M139.074 122.262L137.995 119.453L146.455 116.252L147.534 119.062L139.074 122.262Z" fill="#B4D3FC"/>
<path d="M132.711 93.0822L131.234 96.3532L128.86 95.2972L130.336 92.0262L127.086 90.5802L128.154 88.2142L131.404 89.6602L132.881 86.3892L135.255 87.4452L133.778 90.7162L136.976 92.1382L135.909 94.5042L132.711 93.0822Z" fill="#B4D3FC"/>
<path d="M117.477 66.3759L116.398 63.567L124.859 60.366L125.938 63.176L117.477 66.3759Z" fill="#B4D3FC"/>
<path d="M121.458 58.5529C121.812 59.4769 121.346 60.5119 120.414 60.8639C119.484 61.2159 118.441 60.7529 118.086 59.8289C117.732 58.9049 118.198 57.8699 119.13 57.5179C120.061 57.1649 121.103 57.6289 121.458 58.5529Z" fill="#B4D3FC"/>
<path d="M124.486 66.8051C124.841 67.7291 124.374 68.7641 123.444 69.1161C122.513 69.4681 121.47 69.0051 121.116 68.0811C120.761 67.1571 121.228 66.1221 122.158 65.7701C123.089 65.4171 124.132 65.8811 124.486 66.8051Z" fill="#B4D3FC"/>
<path d="M148.582 147.024L147.684 144.685L156.144 141.484L157.042 143.823L148.582 147.024Z" fill="#B4D3FC"/>
<path d="M150.758 152.69L149.859 150.351L158.32 147.15L159.218 149.489L150.758 152.69Z" fill="#B4D3FC"/>
<path d="M111.603 28.207C112.497 30.536 112.759 32.391 112.389 33.772C112.02 35.153 111.024 36.15 109.404 36.764C107.819 37.363 106.408 37.2501 105.169 36.4221C103.93 35.5951 102.883 34.0651 102.024 31.8311C101.126 29.4901 100.859 27.624 101.226 26.234C101.592 24.844 102.585 23.842 104.206 23.229C105.785 22.632 107.196 22.7491 108.44 23.5811C109.685 24.4141 110.738 25.956 111.603 28.207ZM105.589 30.483C106.16 31.972 106.648 32.9601 107.05 33.4471C107.452 33.9341 107.873 34.095 108.315 33.927C108.762 33.758 108.968 33.35 108.931 32.704C108.894 32.058 108.597 31.009 108.039 29.556C107.479 28.097 106.992 27.111 106.58 26.596C106.168 26.082 105.741 25.908 105.3 26.075C104.859 26.242 104.652 26.643 104.682 27.278C104.711 27.914 105.013 28.982 105.589 30.483Z" fill="#B4D3FC"/>
<path d="M98.3478 33.218C99.2423 35.547 99.5042 37.402 99.1345 38.783C98.7648 40.164 97.7696 41.161 96.1489 41.775C94.5645 42.374 93.1532 42.261 91.9142 41.433C90.6753 40.606 89.6277 39.076 88.7695 36.842C87.871 34.501 87.6041 32.635 87.9707 31.245C88.3374 29.855 89.3305 28.853 90.9513 28.24C92.5297 27.643 93.9409 27.76 95.1849 28.592C96.4289 29.425 97.4826 30.967 98.3478 33.218ZM92.3333 35.494C92.9054 36.983 93.392 37.971 93.7939 38.458C94.1958 38.945 94.6168 39.105 95.059 38.938C95.5062 38.769 95.7117 38.361 95.6755 37.715C95.6382 37.069 95.341 36.02 94.784 34.567C94.2239 33.108 93.7374 32.122 93.3254 31.607C92.9135 31.093 92.4864 30.919 92.0452 31.086C91.604 31.253 91.3975 31.654 91.4267 32.29C91.4549 32.925 91.7571 33.993 92.3333 35.494Z" fill="#B4D3FC"/>
<path d="M85.0949 38.2381C85.9894 40.5671 86.2513 42.4221 85.8816 43.8031C85.5119 45.1841 84.5156 46.1811 82.8959 46.7941C81.3115 47.3941 79.9003 47.2801 78.6613 46.4521C77.4223 45.6251 76.3747 44.0941 75.5165 41.8611C74.618 39.5201 74.3511 37.6541 74.7178 36.2641C75.0844 34.8741 76.0776 33.8721 77.6983 33.2591C79.2768 32.6621 80.688 32.7791 81.932 33.6111C83.176 34.4451 84.2306 35.9871 85.0949 38.2381ZM79.0813 40.5141C79.6535 42.0031 80.14 42.9911 80.5419 43.4781C80.9438 43.9651 81.3659 44.1261 81.8071 43.9581C82.2543 43.7891 82.4598 43.3811 82.4235 42.7351C82.3862 42.0891 82.0891 41.0391 81.5321 39.5871C80.972 38.1281 80.4855 37.1421 80.0735 36.6271C79.6615 36.1131 79.2344 35.9391 78.7932 36.1061C78.352 36.2731 78.1456 36.6741 78.1748 37.3091C78.202 37.9451 78.5052 39.0131 79.0813 40.5141Z" fill="#B4D3FC"/>
</svg>
