<svg width="120" height="241" viewBox="0 0 120 241" fill="none" xmlns="http://www.w3.org/2000/svg">
<path d="M249.551 106.794C249.948 110.315 247.67 113.457 244.599 114.409C241.629 115.36 238.658 116.217 235.687 116.882C235.786 118.025 235.786 119.263 235.786 120.499C235.786 133.158 233.508 145.341 229.152 156.669C231.726 158.191 234.302 159.906 236.876 161.715C239.549 163.523 240.638 167.235 238.956 170.376C237.372 173.422 236.084 176.66 234.203 179.515C232.322 182.561 228.755 183.988 225.685 182.943C222.715 181.991 219.843 181.039 216.872 179.992C208.95 191.13 198.849 200.743 187.262 208.357C188.45 211.213 189.441 213.973 190.431 216.828C191.421 219.779 189.937 223.207 186.768 225.015C183.797 226.823 180.429 228.157 177.359 229.679C174.09 231.296 170.229 230.249 168.248 227.68C166.466 225.204 164.682 222.73 162.999 220.256C151.215 224.349 138.538 226.539 125.367 226.539C124.178 226.539 122.89 226.539 121.704 226.444C121.011 229.395 120.121 232.25 119.13 235.105C118.14 238.056 114.772 240.246 111.109 239.769L100.611 238.247C97.0445 237.486 94.5701 234.535 94.5701 231.394C94.5701 228.347 94.6693 225.301 94.7685 222.35C81.1035 218.639 68.5257 212.355 57.5337 204.171C55.1561 206.17 52.6817 207.978 50.1056 209.691C47.4326 211.69 43.6677 211.213 40.9947 208.834C38.2225 206.645 35.7457 204.266 33.4674 201.695C30.9905 199.03 30.5959 195.507 32.5764 192.842C34.4576 190.366 36.3388 187.988 38.3193 185.703C29.8016 175.138 23.2671 163.048 19.4053 149.914C16.3353 150.105 13.1659 150.105 9.99658 150.105C6.72802 150.105 3.75725 147.726 2.86626 144.298L1.28284 134.208C0.786507 130.687 3.06492 127.545 6.23422 126.594C9.20498 125.642 12.1757 124.785 15.1464 124.024C15.0472 122.882 15.0471 121.646 15.0471 120.503C15.0471 107.844 17.3255 95.6589 21.6812 84.3328C19.1075 82.8085 16.5314 81.0957 13.9577 79.2876C11.2848 77.4794 10.0959 73.7676 11.7786 70.626C13.4613 67.5797 14.7494 64.3427 16.6307 61.4873C18.5119 58.4411 22.0781 57.0146 25.1482 58.0618C28.1189 59.0136 30.9905 59.9653 33.9612 61.0125C41.8832 49.8749 51.8851 40.2615 63.4728 32.6471C62.3832 29.7917 61.393 27.0317 60.4027 24.1763C59.4125 21.1301 60.899 17.8 63.9666 15.8941C67.0367 14.0859 70.3052 12.8479 73.4745 11.3259C76.7431 9.70855 80.6048 10.7558 82.486 13.3249C84.3673 15.801 86.1493 18.2747 87.8345 20.8439C99.519 16.655 112.196 14.4676 125.367 14.4676C126.556 14.4676 127.844 14.4676 129.03 14.563C129.822 11.6122 130.713 8.75677 131.703 5.90137C132.694 2.95057 136.061 0.760738 139.625 1.2378L150.223 2.75973C153.787 3.5207 156.264 6.47152 156.264 9.61315C156.264 12.6594 156.164 15.7056 156.065 18.6564C169.732 22.3682 182.308 28.6514 193.3 36.836C195.678 34.837 198.152 33.0288 200.629 31.316C203.401 29.317 207.166 29.7941 209.839 32.077C212.512 34.3622 215.088 36.7405 217.366 39.312C219.843 41.9766 220.238 45.4999 218.257 48.1644C216.376 50.5451 214.495 52.9235 212.514 55.3041C221.032 65.8693 227.567 77.9588 231.428 91.0931C234.498 90.9023 237.568 90.9023 240.738 90.9023C244.105 90.9023 247.076 93.2829 247.868 96.7085L249.551 106.794ZM199.145 97.1809C205.483 93.8484 207.958 86.1386 204.592 80.0485C201.125 73.8607 193.104 71.4823 186.768 74.8125C180.33 78.0495 177.855 85.7593 181.32 91.9448C184.686 98.0373 192.707 100.418 199.145 97.1809ZM204.59 160.954C207.958 154.861 205.481 147.151 199.142 143.821C192.704 140.584 184.683 142.965 181.318 149.057C177.851 155.245 180.327 162.955 186.765 166.19C193.104 169.522 201.125 167.141 204.59 160.954ZM151.709 120.501C151.709 106.508 139.926 95.1818 125.367 95.1818C110.809 95.1818 99.0249 106.508 99.0249 120.501C99.0249 134.494 110.809 145.82 125.367 145.82C139.923 145.82 151.709 134.494 151.709 120.501ZM138.538 47.0195C138.538 39.9753 132.696 34.3599 125.367 34.3599C118.138 34.3599 112.196 39.9753 112.196 47.0195C112.196 53.9683 118.138 59.6791 125.367 59.6791C132.694 59.6791 138.538 53.966 138.538 47.0195ZM138.538 193.985C138.538 187.036 132.696 181.325 125.367 181.325C118.138 181.325 112.196 187.036 112.196 193.985C112.196 201.029 118.138 206.645 125.367 206.645C132.694 206.642 138.538 201.027 138.538 193.985ZM69.5135 91.9448C72.9806 85.757 70.5038 78.0472 64.0659 74.8125C57.6281 71.48 49.7061 73.8607 46.2414 80.0485C42.8735 86.141 45.2511 93.8507 51.689 97.1809C58.1244 100.418 66.1457 98.0373 69.5135 91.9448ZM64.0659 166.19C70.5038 162.953 72.9782 155.243 69.5135 149.057C66.1457 142.965 58.1244 140.587 51.689 143.821C45.2511 147.154 42.876 154.864 46.2414 160.954C49.7061 167.141 57.6305 169.522 64.0659 166.19Z" fill="#A4C9FC"/>
<path d="M112.106 241C111.723 241 111.333 240.977 110.946 240.928L100.428 239.401C96.2931 238.522 93.3538 235.159 93.3538 231.391C93.3538 228.645 93.4337 225.897 93.5208 223.223C80.6306 219.602 68.549 213.703 57.5763 205.674C55.5401 207.34 53.3152 208.976 50.7996 210.652C47.7611 212.914 43.3714 212.544 40.1682 209.693C37.4807 207.573 34.9676 205.188 32.5416 202.453C29.6895 199.384 29.2997 195.239 31.5877 192.163C33.515 189.626 35.1782 187.543 36.764 185.675C28.4086 175.135 22.271 163.52 18.5037 151.135C15.7 151.273 12.8043 151.273 9.99578 151.273C6.12677 151.273 2.71056 148.522 1.68399 144.582L0.0763414 134.382C-0.475682 130.454 2.01806 126.635 5.87255 125.476C8.49224 124.636 11.1869 123.85 13.8696 123.142C13.8284 122.258 13.8285 121.35 13.8285 120.499C13.8285 108.135 15.9713 96.1336 20.201 84.8191C18.0801 83.5322 15.7969 82.0242 13.2402 80.2276C9.91111 77.9773 8.80936 73.6116 10.6979 70.086C11.3443 68.9154 11.923 67.7309 12.5041 66.5488C13.4387 64.6452 14.4047 62.6741 15.6008 60.8589C17.7532 57.3752 21.9564 55.7346 25.5542 56.954C28.2223 57.808 30.8273 58.6691 33.4979 59.5999C41.2601 48.8718 50.8455 39.6587 62.0094 32.1933C61.0434 29.6264 60.1452 27.1224 59.2494 24.5416C58.0969 20.9904 59.7312 17.1274 63.3121 14.9096C65.4427 13.653 67.646 12.6709 69.779 11.7168C70.8346 11.2467 71.8903 10.7766 72.9314 10.274C76.6333 8.44951 81.156 9.47346 83.4827 12.6477C85.2986 15.0353 86.8941 17.2624 88.3371 19.4173C100.017 15.3518 112.469 13.2923 125.369 13.2923C126.257 13.2923 127.194 13.2923 128.109 13.3295C128.819 10.7673 129.62 8.20283 130.553 5.5243C131.761 1.94051 135.831 -0.451787 139.796 0.0718179L150.406 1.59843C154.541 2.47809 157.485 5.8408 157.485 9.60843C157.485 12.3544 157.406 15.1005 157.318 17.779C170.211 21.4 182.292 27.297 193.263 35.3256C195.159 33.7734 197.299 32.1793 199.923 30.3641C203.03 28.1277 207.451 28.4675 210.652 31.1996C213.821 33.906 216.247 36.2401 218.295 38.5486C221.15 41.6158 221.542 45.7605 219.251 48.8393C217.535 51.0128 215.833 53.1631 214.065 55.311C222.421 65.8576 228.561 77.4723 232.333 89.869C235.108 89.7293 237.853 89.7293 240.742 89.7293C244.725 89.7293 248.143 92.494 249.058 96.4501L250.756 106.608C250.758 106.629 250.763 106.648 250.765 106.669C251.203 110.557 248.712 114.364 244.976 115.521C242.035 116.461 239.4 117.21 236.967 117.79C237.006 118.667 237.006 119.584 237.006 120.496C237.006 132.874 234.863 144.873 230.633 156.178C232.759 157.468 235.047 158.973 237.597 160.767C240.887 162.994 241.945 167.358 240.04 170.909C239.519 171.907 239.03 172.938 238.534 173.969C237.546 176.038 236.524 178.172 235.229 180.136C233.084 183.618 228.878 185.265 225.283 184.041C222.615 183.185 220.009 182.326 217.339 181.395C209.627 192.046 200.015 201.253 188.747 208.788C189.837 211.478 190.752 214.054 191.583 216.456C192.754 219.944 190.989 223.961 187.387 226.016C185.372 227.242 183.157 228.264 181.014 229.25C179.966 229.734 178.922 230.214 177.915 230.712C174.276 232.525 169.688 231.515 167.269 228.373C165.584 226.032 164.003 223.837 162.507 221.662C150.641 225.674 138.15 227.703 125.369 227.703C124.492 227.703 123.563 227.703 122.652 227.666C122.066 230.014 121.304 232.522 120.282 235.468C119.178 238.766 115.781 241 112.106 241ZM57.5327 202.998C57.7966 202.998 58.0581 203.079 58.276 203.242C69.4666 211.578 81.8533 217.626 95.0946 221.224C95.6321 221.371 95.9976 221.852 95.9807 222.388C95.8814 225.324 95.7846 228.359 95.7846 231.394C95.7846 234.074 97.9225 236.474 100.871 237.104L111.287 238.612C114.164 238.999 117.117 237.291 117.972 234.747C119.11 231.456 119.919 228.741 120.514 226.188C120.647 225.618 121.151 225.213 121.805 225.278C122.962 225.373 124.25 225.369 125.369 225.369C138.196 225.369 150.718 223.279 162.584 219.155C163.119 218.969 163.71 219.162 164.02 219.616C165.662 222.032 167.398 224.447 169.141 226.86C170.945 229.215 174.208 229.921 176.801 228.638C177.83 228.126 178.893 227.635 179.963 227.142C182.041 226.186 184.191 225.196 186.118 224.026C188.779 222.504 190.094 219.635 189.273 217.186C188.367 214.571 187.355 211.734 186.13 208.79C185.922 208.281 186.106 207.699 186.573 207.389C198.202 199.747 208.056 190.31 215.867 179.331C216.177 178.889 216.763 178.712 217.29 178.893C220.254 179.938 223.111 180.885 226.074 181.835C228.609 182.696 231.583 181.47 233.156 178.921C234.379 177.06 235.369 174.995 236.321 173.001C236.824 171.945 237.33 170.888 237.87 169.855C239.204 167.367 238.456 164.219 236.175 162.673C233.319 160.663 230.817 159.031 228.515 157.67C228.021 157.377 227.808 156.79 228.011 156.269C232.365 144.962 234.57 132.928 234.57 120.501C234.57 119.298 234.57 118.095 234.476 116.982C234.427 116.403 234.824 115.877 235.413 115.747C238.049 115.156 240.931 114.355 244.216 113.301C246.884 112.475 248.649 109.75 248.349 106.95L246.669 96.8899C246.015 94.0787 243.572 92.0681 240.739 92.0681C237.551 92.0681 234.539 92.0681 231.51 92.2566C230.866 92.3148 230.413 91.9378 230.258 91.4072C226.515 78.6778 220.222 66.7698 211.555 56.0138C211.213 55.5879 211.216 54.9899 211.567 54.5663C213.54 52.195 215.416 49.8236 217.293 47.45C218.908 45.2764 218.588 42.3745 216.462 40.0846C214.47 37.8389 212.114 35.5769 209.034 32.9449C206.671 30.9273 203.592 30.648 201.359 32.2468C198.427 34.276 196.132 36.0074 194.105 37.7109C193.665 38.0762 193.013 38.0972 192.558 37.7551C181.37 29.424 168.981 23.3734 155.735 19.7757C155.197 19.629 154.829 19.1497 154.849 18.6121C154.95 15.6752 155.047 12.6384 155.047 9.60843C155.047 6.92757 152.905 4.52595 149.958 3.89762L139.445 2.38965C136.625 1.99869 133.717 3.71145 132.86 6.25501C131.833 9.21978 130.964 12.0286 130.209 14.8491C130.061 15.3983 129.55 15.7707 128.928 15.7218C127.771 15.6311 126.574 15.6404 125.366 15.631C112.416 15.631 99.9321 17.7511 88.2597 21.9353C87.7174 22.1214 87.112 21.9329 86.8046 21.4628C85.2574 19.1031 83.5239 16.6666 81.5022 14.009C79.8825 11.7959 76.6042 11.0838 74.0305 12.3591C72.9531 12.878 71.8756 13.3574 70.7982 13.8368C68.7281 14.7584 66.5904 15.7125 64.6026 16.8854C61.9756 18.512 60.7432 21.3069 61.5615 23.8202C62.5397 26.643 63.5299 29.3937 64.6122 32.2375C64.801 32.7401 64.6146 33.3033 64.157 33.6058C52.6517 41.1667 42.8291 50.6079 34.9651 61.6641C34.6504 62.1039 34.0596 62.2877 33.5415 62.1016C30.578 61.059 27.7211 60.1095 24.7624 59.1624C22.2202 58.299 19.2543 59.5254 17.6733 62.076C16.5426 63.7981 15.6492 65.6179 14.705 67.5424C14.1093 68.7572 13.5113 69.9766 12.8504 71.1658C11.3928 73.8908 12.6227 76.9487 14.6565 78.324C17.5207 80.337 20.017 81.9683 22.3147 83.3297C22.8086 83.6229 23.0217 84.2094 22.8183 84.7306C18.4675 96.0475 16.2593 108.079 16.2593 120.494C16.2593 121.602 16.2593 122.81 16.3586 123.917C16.407 124.483 16.0293 125.002 15.4579 125.148C12.5016 125.907 9.52845 126.763 6.61822 127.696C3.8581 128.525 2.09315 131.25 2.48538 134.047L4.06643 144.119C4.7952 146.905 7.24047 148.927 9.99091 148.927C13.09 148.927 16.2932 148.927 19.3197 148.741C19.9758 148.694 20.4164 149.057 20.5714 149.59C24.3145 162.317 30.607 174.223 39.2796 184.979C39.6282 185.412 39.6162 186.021 39.2506 186.443C37.5074 188.453 35.6963 190.704 33.5536 193.524C31.9242 195.714 32.2413 198.616 34.3671 200.906C36.7205 203.556 39.1319 205.842 41.7637 207.92C44.1243 210.021 47.2235 210.345 49.3517 208.758C52.1627 206.884 54.5547 205.106 56.7241 203.279C56.9589 203.096 57.247 202.998 57.5327 202.998ZM125.369 207.813C117.435 207.813 110.98 201.609 110.98 193.983C110.98 186.357 117.435 180.152 125.369 180.152C133.3 180.152 139.755 186.357 139.755 193.983C139.755 201.737 133.436 207.813 125.369 207.813ZM125.369 182.494C118.778 182.494 113.413 187.65 113.413 193.985C113.413 200.319 118.778 205.476 125.369 205.476C132.07 205.476 137.322 200.429 137.322 193.985C137.322 187.648 131.959 182.494 125.369 182.494ZM192.902 168.873C190.573 168.873 188.273 168.312 186.183 167.216C182.796 165.512 180.295 162.617 179.164 159.071C178.034 155.522 178.416 151.768 180.249 148.499C183.946 141.818 192.672 139.246 199.71 142.783C206.683 146.446 209.347 154.84 205.666 161.5C205.666 161.503 205.664 161.503 205.664 161.507C203.809 164.819 200.727 167.23 196.984 168.296C195.636 168.682 194.265 168.873 192.902 168.873ZM192.996 143.53C188.696 143.53 184.532 145.739 182.394 149.604C180.874 152.325 180.554 155.438 181.491 158.387C182.433 161.328 184.506 163.732 187.331 165.154C190.089 166.602 193.26 166.913 196.294 166.055C199.408 165.166 201.976 163.157 203.521 160.4C206.577 154.866 204.352 147.889 198.563 144.845C196.786 143.954 194.878 143.53 192.996 143.53ZM57.925 168.852C52.7849 168.852 47.7877 166.185 45.1704 161.51C41.4636 154.801 44.1317 146.407 51.1119 142.793C58.155 139.244 66.8929 141.815 70.59 148.51C72.418 151.768 72.8031 155.524 71.67 159.073C70.5393 162.617 68.0429 165.512 64.6388 167.228C62.5033 168.328 60.1985 168.852 57.925 168.852ZM57.8427 143.533C55.9542 143.533 54.0366 143.959 52.2546 144.854C46.4584 147.854 44.2406 154.836 47.3179 160.404C48.8408 163.127 51.3589 165.121 54.3999 166.024C57.4481 166.923 60.673 166.618 63.4937 165.159C63.4961 165.156 63.5034 165.152 63.5058 165.152C66.3313 163.73 68.4038 161.326 69.3432 158.382C70.2851 155.436 69.9655 152.318 68.4474 149.606C66.3047 145.741 62.1451 143.533 57.8427 143.533ZM125.369 146.991C110.171 146.991 97.8087 135.106 97.8087 120.501C97.8087 105.894 110.174 94.0136 125.369 94.0136C140.564 94.0136 152.926 105.894 152.926 120.501C152.926 135.106 140.566 146.991 125.369 146.991ZM125.369 96.3523C111.512 96.3523 100.242 107.185 100.242 120.501C100.242 133.819 111.512 144.652 125.369 144.652C139.223 144.652 150.493 133.819 150.493 120.501C150.493 107.185 139.223 96.3523 125.369 96.3523ZM192.999 99.8058C187.823 99.8058 182.818 97.1459 180.244 92.4939C178.416 89.2336 178.031 85.4776 179.164 81.9288C180.295 78.3845 182.796 75.4896 186.203 73.7745C189.491 72.0501 193.326 71.6615 196.984 72.7063C200.727 73.7722 203.809 76.1831 205.664 79.4923C209.347 86.1595 206.683 94.5511 199.73 98.2048C199.722 98.2117 199.718 98.214 199.71 98.2164C197.57 99.2938 195.265 99.8058 192.999 99.8058ZM192.905 74.4703C190.975 74.4703 189.077 74.9311 187.35 75.8386C184.506 77.2698 182.433 79.6738 181.491 82.6153C180.554 85.5637 180.874 88.6798 182.392 91.3932C185.469 96.9551 192.716 99.0844 198.575 96.1522C204.357 93.106 206.577 86.1292 203.521 80.5976C201.979 77.847 199.413 75.8386 196.297 74.9497C195.173 74.6285 194.035 74.4703 192.905 74.4703ZM57.8354 99.8058C55.5691 99.8058 53.2691 99.2985 51.124 98.2187C44.1317 94.5977 41.4635 86.2014 45.1679 79.4992C48.9521 72.7436 57.6805 70.1814 64.6462 73.7838C68.0406 75.4919 70.5393 78.3869 71.67 81.9334C72.8006 85.4823 72.418 89.2336 70.59 92.4963C68.0163 97.1482 63.0142 99.8058 57.8354 99.8058ZM57.9178 74.4936C53.6469 74.4936 49.4922 76.7113 47.3131 80.6023C44.2407 86.1688 46.4608 93.1479 52.2667 96.1522C58.109 99.0891 65.3701 96.9574 68.4425 91.3979C68.4425 91.3956 68.4449 91.3932 68.4449 91.3909C69.963 88.6798 70.2825 85.5638 69.3407 82.6176C68.4037 79.6738 66.3312 77.2698 63.5033 75.848C61.7262 74.9287 59.8112 74.4936 57.9178 74.4936ZM125.369 60.8472C117.435 60.8472 110.98 54.6431 110.98 47.0171C110.98 39.3934 117.435 33.1893 125.369 33.1893C133.436 33.1893 139.755 39.2631 139.755 47.0171C139.755 54.6431 133.3 60.8472 125.369 60.8472ZM125.369 35.528C118.778 35.528 113.413 40.6826 113.413 47.0171C113.413 53.3539 118.778 58.5085 125.369 58.5085C131.959 58.5085 137.322 53.3539 137.322 47.0171C137.322 40.5756 132.07 35.528 125.369 35.528Z" fill="#2D2B55"/>
</svg>
