<svg width="155" height="134" viewBox="0 0 155 134" fill="none" xmlns="http://www.w3.org/2000/svg">
<path d="M153.968 42.9976C154.212 45.3637 152.81 47.4722 150.919 48.1117C149.089 48.7512 147.26 49.3254 145.43 49.7728C145.49 50.539 145.49 51.3706 145.49 52.2022C145.49 60.704 144.086 68.887 141.404 76.4938C142.989 77.5175 144.576 78.6678 146.161 79.8814C147.808 81.095 148.479 83.5899 147.441 85.6984C146.465 87.7436 145.673 89.9176 144.513 91.8362C143.355 93.8814 141.158 94.8418 139.267 94.1368C137.436 93.4973 135.668 92.8578 133.838 92.1549C128.958 99.6351 122.737 106.092 115.6 111.206C116.331 113.124 116.941 114.978 117.551 116.896C118.161 118.878 117.247 121.179 115.294 122.394C113.463 123.61 111.391 124.503 109.5 125.527C107.486 126.614 105.107 125.911 103.889 124.184C102.791 122.523 101.694 120.86 100.657 119.199C93.3985 121.947 85.5906 123.418 77.4787 123.418C76.7456 123.418 75.9541 123.418 75.2211 123.355C74.7941 125.337 74.2444 127.255 73.6341 129.172C73.0239 131.154 70.9496 132.625 68.6941 132.304L62.2295 131.28C60.0343 130.77 58.5078 128.788 58.5078 126.677C58.5078 124.632 58.5682 122.586 58.6306 120.605C50.2125 118.112 42.4671 113.893 35.6964 108.394C34.2323 109.737 32.7078 110.95 31.1208 112.103C29.4735 113.445 27.1555 113.126 25.5101 111.529C23.8023 110.058 22.2778 108.46 20.8741 106.733C19.3496 104.943 19.1059 102.577 20.3243 100.788C21.4843 99.1264 22.6423 97.5265 23.8627 95.9921C18.6166 88.896 14.5908 80.7784 12.2124 71.9558C10.3213 72.0846 8.36984 72.0846 6.41838 72.0846C4.4065 72.0846 2.57587 70.4869 2.02607 68.1841L1.04933 61.4089C0.745233 59.0429 2.14689 56.9343 4.09835 56.2948C5.92899 55.6552 7.7576 55.0812 9.58823 54.5683C9.52781 53.8 9.52781 52.9705 9.52781 52.2022C9.52781 43.7005 10.9315 35.5174 13.614 27.9106C12.0291 26.8869 10.4421 25.7366 8.8572 24.5229C7.20984 23.3072 6.47879 20.8145 7.51595 18.706C8.5531 16.6608 9.34657 14.4867 10.5046 12.5681C11.6646 10.5229 13.8597 9.56257 15.7507 10.2675C17.5814 10.9071 19.3496 11.5466 21.1802 12.2494C26.0599 4.76925 32.2204 -1.68727 39.3577 -6.80141C38.687 -8.72 38.0768 -10.5731 37.4666 -12.4917C36.8564 -14.537 37.7707 -16.7743 39.6618 -18.0533C41.5528 -19.267 43.5647 -20.0986 45.5182 -21.1223C47.53 -22.2093 49.9105 -21.5064 51.0685 -19.7799C52.2265 -18.1166 53.326 -16.4555 54.3611 -14.729C61.5588 -17.5425 69.3667 -19.0116 77.4787 -19.0116C78.2097 -19.0116 79.0032 -19.0116 79.7362 -18.9483C80.2236 -20.9302 80.7734 -22.8488 81.3836 -24.7652C81.9938 -26.7471 84.0681 -28.2162 86.2633 -27.8975L92.7903 -26.8738C94.9855 -26.363 96.512 -24.3811 96.512 -22.2704C96.512 -20.2252 96.4516 -18.18 96.3892 -16.1981C104.807 -13.7054 112.553 -9.48616 119.323 -3.98788C120.788 -5.33026 122.312 -6.54387 123.837 -7.69629C125.544 -9.03867 127.862 -8.71995 129.51 -7.1855C131.157 -5.65105 132.742 -4.05334 134.146 -2.32682C135.67 -0.536974 135.914 1.82911 134.693 3.61896C133.535 5.21673 132.375 6.81451 131.155 8.41439C136.401 15.5104 140.427 23.628 142.805 32.4506C144.697 32.3219 146.588 32.3219 148.539 32.3219C150.613 32.3219 152.442 33.9196 152.931 36.2224L153.968 42.9976ZM122.922 36.5411C126.825 34.3038 128.352 29.1263 126.277 25.0337C124.143 20.8778 119.203 19.2801 115.298 21.5174C111.332 23.6914 109.808 28.8688 111.942 33.0247C114.017 37.1173 118.957 38.715 122.922 36.5411ZM126.277 79.3727C128.352 75.2823 126.827 70.1027 122.922 67.8654C118.957 65.6914 114.017 67.2913 111.942 71.3818C109.808 75.5377 111.332 80.7151 115.298 82.8891C119.201 85.1264 124.143 83.5265 126.277 79.3727ZM93.7046 52.2043C93.7046 42.8077 86.4466 35.1987 77.4807 35.1987C68.5148 35.1987 61.2568 42.8055 61.2568 52.2043C61.2568 61.601 68.5148 69.2078 77.4807 69.2078C86.4466 69.2078 93.7046 61.601 93.7046 52.2043ZM85.5926 2.85277C85.5926 -1.87722 81.9938 -5.64895 77.4807 -5.64895C73.028 -5.64895 69.3687 -1.87722 69.3687 2.85277C69.3687 7.51945 73.028 11.3546 77.4807 11.3546C81.9938 11.3546 85.5926 7.51945 85.5926 2.85277ZM85.5926 101.554C85.5926 96.887 81.9938 93.052 77.4807 93.052C73.028 93.052 69.3687 96.887 69.3687 101.554C69.3687 106.284 73.028 110.055 77.4807 110.055C81.9938 110.058 85.5926 106.286 85.5926 101.554ZM43.0793 33.0247C45.2141 28.8688 43.6895 23.6914 39.7241 21.5174C35.7588 19.2801 30.8791 20.8778 28.7444 25.0337C26.6701 29.1242 28.1342 34.3038 32.0996 36.5411C36.0649 38.715 41.005 37.1173 43.0793 33.0247ZM39.7241 82.8891C43.6895 80.7151 45.2141 75.5377 43.0793 71.3818C41.005 67.2913 36.0649 65.6935 32.0996 67.8654C28.1342 70.1027 26.6721 75.2802 28.7444 79.3727C30.8791 83.5265 35.7588 85.1264 39.7241 82.8891Z" fill="#A4C9FC"/>
<path d="M69.3095 133.408C69.0618 133.408 68.8121 133.389 68.5624 133.355L62.0796 132.327C59.3971 131.707 57.498 129.332 57.498 126.675C57.498 124.902 57.5424 123.125 57.5947 121.394C49.7627 118.967 42.416 115.058 35.7359 109.756C34.5135 110.836 33.1863 111.894 31.7021 112.975C29.7405 114.574 26.8949 114.313 24.8246 112.303C23.1652 110.874 21.6064 109.264 20.106 107.419C18.2714 105.264 18.0217 102.343 19.5039 100.169C20.676 98.4891 21.6446 97.1636 22.573 95.9668C17.5141 88.9636 13.7824 81.2661 11.4664 73.0598C9.79689 73.1421 8.08307 73.1421 6.41959 73.1421C3.91632 73.1421 1.70507 71.2088 1.04652 68.4396L0.0516518 61.5652C-0.310849 58.7474 1.26603 56.1133 3.7975 55.2817C5.38243 54.7287 6.97544 54.2179 8.53419 53.7684C8.51808 53.2428 8.51809 52.7067 8.51809 52.2023C8.51809 43.9369 9.81905 35.9206 12.3868 28.356C11.1341 27.5223 9.80296 26.5598 8.26233 25.3778C6.10746 23.7927 5.39252 20.709 6.61697 18.2184C7.01572 17.4312 7.3742 16.6376 7.72864 15.8482C8.30663 14.5628 8.90475 13.2351 9.64989 12.0025C11.0355 9.55415 13.7522 8.39751 16.0883 9.265C17.6652 9.81799 19.2119 10.3731 20.7908 10.9726C25.5315 3.8723 31.3617 -2.23599 38.1364 -7.20871C37.5665 -8.86558 37.0348 -10.4844 36.5031 -12.154C35.756 -14.6657 36.8053 -17.3863 39.1132 -18.9461C40.4383 -19.7946 41.7957 -20.4574 43.1087 -21.0948C43.7612 -21.4114 44.4157 -21.73 45.0622 -22.0699C47.4446 -23.3553 50.383 -22.6355 51.8934 -20.3898C52.9708 -18.8427 53.9194 -17.4011 54.7753 -16.0165C61.9367 -18.7076 69.5693 -20.0711 77.4758 -20.0711C77.9592 -20.0711 78.4647 -20.0711 78.9641 -20.0542C79.385 -21.6942 79.8643 -23.3552 80.4181 -25.0987C81.2096 -27.6673 83.7895 -29.3243 86.3975 -28.9465L92.9346 -27.9206C95.6191 -27.298 97.5162 -24.9256 97.5162 -22.2683C97.5162 -20.4954 97.4718 -18.7181 97.4195 -16.9874C105.252 -14.5601 112.6 -10.6512 119.278 -5.34919C120.414 -6.35387 121.691 -7.38812 123.238 -8.55531C125.245 -10.1299 128.109 -9.8998 130.175 -7.97277C132.147 -6.13649 133.649 -4.56192 134.908 -3.0127C136.745 -0.857712 136.993 2.06344 135.51 4.23742C134.467 5.67479 133.466 7.05518 132.431 8.425C137.494 15.4324 141.23 23.1342 143.548 31.3468C145.193 31.2645 146.82 31.2644 148.532 31.2644C151.11 31.2644 153.321 33.2084 153.911 35.9944L154.958 42.8309C154.96 42.8499 154.965 42.8668 154.967 42.8858C155.253 45.6676 153.678 48.2912 151.221 49.1228C149.442 49.7433 147.912 50.2203 146.476 50.6003C146.494 51.1216 146.494 51.664 146.494 52.2044C146.494 60.4655 145.191 68.486 142.623 76.0506C143.884 76.8927 145.241 77.8742 146.75 79.0288C148.879 80.597 149.565 83.6807 148.333 86.1881C148.017 86.8509 147.715 87.5389 147.412 88.2249C146.8 89.6243 146.166 91.0701 145.358 92.404C143.977 94.8482 141.26 96.009 138.92 95.1416C137.343 94.5886 135.798 94.0335 134.217 93.4341C129.511 100.477 123.665 106.586 116.827 111.605C117.46 113.321 118.006 114.994 118.505 116.561C119.264 119.03 118.126 121.863 115.804 123.308C114.562 124.134 113.196 124.82 111.875 125.482C111.227 125.807 110.582 126.135 109.958 126.472C107.596 127.745 104.637 127.036 103.068 124.82C102.102 123.355 101.151 121.917 100.241 120.478C92.9627 123.135 85.3059 124.48 77.4698 124.48C76.9945 124.48 76.4971 124.48 76.0037 124.463C75.6432 125.991 75.1861 127.618 74.5879 129.507C73.8831 131.829 71.6859 133.408 69.3095 133.408ZM35.6976 107.333C35.9171 107.333 36.1346 107.407 36.3159 107.554C43.1792 113.129 50.7797 117.179 58.9058 119.583C59.3528 119.716 59.6569 120.153 59.6428 120.638C59.5824 122.608 59.522 124.644 59.522 126.677C59.522 128.349 60.7525 129.847 62.4502 130.244L68.8464 131.255C70.7012 131.538 72.2458 130.236 72.6727 128.847C73.3696 126.654 73.865 124.837 74.2355 123.121C74.3483 122.603 74.8357 122.268 75.3049 122.297C76.0098 122.361 76.775 122.354 77.4779 122.359C85.3502 122.359 93.0312 120.961 100.313 118.205C100.753 118.027 101.246 118.207 101.504 118.623C102.535 120.275 103.628 121.928 104.722 123.587C105.685 124.946 107.545 125.379 109.038 124.59C109.676 124.241 110.341 123.908 111.007 123.572C112.274 122.935 113.587 122.274 114.753 121.5C116.296 120.541 117.059 118.749 116.59 117.223C115.99 115.336 115.385 113.5 114.662 111.605C114.485 111.142 114.64 110.615 115.031 110.334C122.168 105.218 128.216 98.9007 133.005 91.5598C133.267 91.1567 133.756 90.9962 134.189 91.1651C136.01 91.8637 137.77 92.499 139.59 93.1364C141.032 93.6662 142.738 92.8979 143.644 91.296C144.396 90.0528 144.974 88.7357 145.586 87.3405C145.896 86.6313 146.208 85.9201 146.538 85.2278C147.304 83.6722 146.881 81.7114 145.58 80.7532C143.818 79.4045 142.283 78.3111 140.873 77.3993C140.464 77.1334 140.287 76.6015 140.456 76.1287C143.127 68.5599 144.482 60.5119 144.482 52.2044C144.482 51.4044 144.484 50.6024 144.424 49.8658C144.382 49.3402 144.712 48.8632 145.203 48.745C146.816 48.3503 148.532 47.8311 150.604 47.1092C152.127 46.5921 153.138 44.8888 152.969 43.1391L151.938 36.3913C151.565 34.6479 150.167 33.3857 148.546 33.3857C146.587 33.3857 144.736 33.3857 142.877 33.5102C142.414 33.5672 141.969 33.2232 141.838 32.7398C139.542 24.2254 135.681 16.2597 130.361 9.06448C130.075 8.67823 130.079 8.13372 130.371 7.75169C131.571 6.17925 132.713 4.6047 133.855 3.03014C134.809 1.635 134.62 -0.180182 133.394 -1.61965C132.183 -3.11189 130.741 -4.62315 128.842 -6.38977C127.481 -7.65828 125.713 -7.84615 124.448 -6.84781C122.646 -5.48643 121.236 -4.32977 119.993 -3.1879C119.627 -2.85653 119.087 -2.8396 118.706 -3.14565C111.843 -8.71991 104.243 -12.7703 96.1165 -15.1743C95.6694 -15.3073 95.3653 -15.7442 95.3794 -16.2297C95.4398 -18.1989 95.5002 -20.2357 95.5002 -22.2683C95.5002 -23.94 94.2697 -25.4385 92.572 -25.8353L86.1155 -26.8463C84.5064 -27.0785 82.8369 -26.0231 82.3495 -24.438C81.7111 -22.4329 81.1794 -20.5523 80.7203 -18.6823C80.5974 -18.1799 80.1161 -17.8486 79.6569 -17.8887C78.9541 -17.952 78.221 -17.9245 77.4819 -17.9499C69.5331 -17.9499 61.8742 -16.5294 54.7189 -13.7307C54.2778 -13.5618 53.7663 -13.7328 53.5085 -14.1591C52.568 -15.7252 51.5026 -17.361 50.254 -19.1529C49.3276 -20.5291 47.4587 -20.9702 45.9826 -20.1787C45.3079 -19.822 44.6353 -19.497 43.9647 -19.1677C42.6435 -18.5261 41.3969 -17.9182 40.1926 -17.1478C38.6802 -16.122 37.9652 -14.3744 38.4325 -12.8062C39.0326 -10.9172 39.6408 -9.07456 40.3074 -7.16652C40.4665 -6.71062 40.3115 -6.19981 39.9288 -5.92542C32.8661 -0.861942 26.8405 5.45314 22.0152 12.8489C21.7534 13.2499 21.266 13.4104 20.831 13.2436C19.0105 12.545 17.2503 11.9097 15.4318 11.2723C13.9798 10.7446 12.2841 11.5107 11.3758 13.1127C10.683 14.2588 10.1373 15.4725 9.55927 16.7558C9.18871 17.5768 8.81816 18.4 8.40934 19.2041C7.5776 20.8969 8.27842 22.8007 9.44044 23.6576C11.2429 25.038 12.7332 26.0997 14.1469 27.0115C14.5578 27.2774 14.733 27.8072 14.5658 28.2821C11.8954 35.8488 10.542 43.8968 10.542 52.2064C10.542 52.9473 10.54 53.7472 10.5984 54.4817C10.6387 54.9946 10.3245 55.4632 9.85126 55.5941C8.08105 56.088 6.25245 56.6642 4.4198 57.3016C2.8389 57.8208 1.82993 59.5262 2.05347 61.2718L3.02821 68.0301C3.44308 69.7503 4.84473 71.0251 6.41959 71.0251C8.32273 71.0251 10.2903 71.0251 12.1491 70.9006C12.6385 70.8372 13.0574 71.1877 13.1883 71.671C15.4842 80.1833 19.3448 88.151 24.6655 95.3463C24.9575 95.7389 24.9475 96.294 24.6434 96.6739C23.582 98.0079 22.5026 99.4684 21.1452 101.414C20.2168 102.774 20.4081 104.589 21.6326 106.028C23.0685 107.797 24.5427 109.321 26.1538 110.708C27.5273 112.042 29.2975 112.248 30.5038 111.269C32.2297 110.013 33.6958 108.825 35.031 107.599C35.2223 107.421 35.46 107.333 35.6976 107.333ZM77.4799 111.117C72.4492 111.117 68.357 106.826 68.357 101.554C68.357 96.2813 72.4512 91.9903 77.4799 91.9903C82.5106 91.9903 86.6049 96.2792 86.6049 101.554C86.6029 106.828 82.5106 111.117 77.4799 111.117ZM77.4799 94.1137C73.5649 94.1137 70.3809 97.4528 70.3809 101.556C70.3809 105.657 73.5669 108.998 77.4799 108.998C81.4614 108.998 84.5809 105.731 84.5809 101.556C84.5789 97.4528 81.3949 94.1137 77.4799 94.1137ZM119.077 84.964C117.599 84.964 116.139 84.5777 114.811 83.8179C112.667 82.6444 111.084 80.6413 110.365 78.1908C109.646 75.7361 109.89 73.1379 111.052 70.8795C113.392 66.2572 118.924 64.4757 123.391 66.9262C127.815 69.4611 129.503 75.2654 127.171 79.8709C127.171 79.873 127.169 79.873 127.169 79.8773C125.993 82.1652 124.041 83.8305 121.669 84.5671C120.811 84.831 119.941 84.964 119.077 84.964ZM119.133 67.9457C116.58 67.9457 114.107 69.3746 112.838 71.88C111.932 73.6424 111.744 75.6622 112.302 77.5703C112.86 79.4741 114.088 81.0297 115.766 81.9478C117.403 82.887 119.286 83.0876 121.093 82.5325C122.942 81.9584 124.466 80.6561 125.384 78.8726C127.201 75.2865 125.878 70.7676 122.436 68.7963C121.383 68.2201 120.249 67.9457 119.133 67.9457ZM35.9151 84.964C35.0229 84.964 34.1268 84.8225 33.2507 84.5418C30.9307 83.7925 29.0155 82.1378 27.8535 79.8773C25.4993 75.2359 27.1909 69.4337 31.6174 66.9326C36.0883 64.48 41.6265 66.2592 43.9707 70.8858C45.1287 73.14 45.3723 75.7361 44.6554 78.1929C43.9385 80.6413 42.3556 82.6422 40.1967 83.8263C38.8554 84.5798 37.3913 84.964 35.9151 84.964ZM35.8909 67.9478C34.7692 67.9478 33.6294 68.2243 32.568 68.8047C29.1283 70.7465 27.8092 75.2676 29.6378 78.8768C30.544 80.6392 32.0384 81.9309 33.8448 82.5156C35.6513 83.096 37.5726 82.8976 39.2441 81.9542C39.2481 81.9521 39.2502 81.9478 39.2542 81.9478C40.9318 81.0275 42.1622 79.472 42.7201 77.5661C43.2779 75.6581 43.0886 73.6402 42.1884 71.8841C40.9177 69.3788 38.4446 67.9478 35.8909 67.9478ZM77.4799 70.2695C67.9763 70.2695 60.245 62.1646 60.245 52.2044C60.245 42.2442 67.9763 34.1392 77.4799 34.1392C86.9835 34.1392 94.7168 42.2442 94.7168 52.2044C94.7168 62.1646 86.9835 70.2695 77.4799 70.2695ZM77.4799 36.2604C69.092 36.2604 62.2689 43.4114 62.2689 52.2044C62.2689 60.9974 69.092 68.1483 77.4799 68.1483C85.8678 68.1483 92.6928 60.9974 92.6928 52.2044C92.6908 43.4114 85.8678 36.2604 77.4799 36.2604ZM119.133 38.58C115.853 38.58 112.679 36.7395 111.05 33.5229C109.892 31.2687 109.648 28.6726 110.365 26.2157C111.084 23.7653 112.667 21.7623 114.828 20.5803C116.912 19.3836 119.343 19.1218 121.669 19.8394C124.039 20.5761 125.993 22.2414 127.169 24.5294C129.503 29.1412 127.815 34.9433 123.409 37.4698C123.403 37.4719 123.397 37.4761 123.393 37.4782C122.031 38.2254 120.573 38.58 119.133 38.58ZM119.079 21.5681C117.933 21.5681 116.805 21.8636 115.78 22.4525C114.086 23.3811 112.858 24.9367 112.3 26.8384C111.742 28.7465 111.93 30.7663 112.832 32.5224C114.656 36.1211 118.966 37.4994 122.442 35.6082C125.878 33.6326 127.195 29.1137 125.382 25.5319C124.466 23.7505 122.942 22.4524 121.091 21.8741C120.426 21.6694 119.752 21.5681 119.079 21.5681ZM35.8849 38.58C34.447 38.58 32.9889 38.2254 31.6296 37.4804C27.1929 34.9771 25.5013 29.1707 27.8515 24.5357C29.0155 22.2688 30.9307 20.614 33.2507 19.8648C35.5788 19.1155 38.0498 19.3667 40.2027 20.5866C42.3515 21.7623 43.9364 23.7653 44.6554 26.2157C45.3744 28.6704 45.1307 31.2687 43.9687 33.5271C42.3374 36.7438 39.1656 38.58 35.8849 38.58ZM35.9091 21.5681C35.2163 21.5681 34.5235 21.6757 33.8448 21.8931C32.0384 22.4756 30.5441 23.7695 29.6358 25.5361C27.8112 29.1411 29.1283 33.6601 32.5781 35.6082C36.046 37.512 40.3578 36.1274 42.1844 32.5287C42.1844 32.5266 42.1864 32.5266 42.1864 32.5224C43.0886 30.7663 43.2779 28.7485 42.718 26.8405C42.1602 24.9346 40.9297 23.379 39.2522 22.4588C38.2029 21.8678 37.061 21.5681 35.9091 21.5681ZM77.4799 12.4162C72.4492 12.4162 68.357 8.12737 68.357 2.85282C68.357 -2.41962 72.4512 -6.71061 77.4799 -6.71061C82.5106 -6.71061 86.6049 -2.41962 86.6049 2.85282C86.6029 8.12525 82.5106 12.4162 77.4799 12.4162ZM77.4799 -4.58938C73.5649 -4.58938 70.3809 -1.25031 70.3809 2.85282C70.3809 6.95594 73.5669 10.295 77.4799 10.295C81.3949 10.295 84.5809 6.95594 84.5809 2.85282C84.5789 -1.32207 81.4594 -4.58938 77.4799 -4.58938Z" fill="#2D2B55"/>
</svg>
