<svg width="70" height="77" viewBox="0 0 70 77" fill="none" xmlns="http://www.w3.org/2000/svg">
<path d="M77.0102 34.1114C77.1321 35.2324 76.431 36.2313 75.4852 36.5343C74.5695 36.8373 73.6549 37.1094 72.7393 37.3214C72.7695 37.6844 72.7695 38.0784 72.7695 38.4724C72.7695 42.5004 72.0674 46.3774 70.7257 49.9814C71.5184 50.4664 72.3122 51.0113 73.1049 51.5863C73.9289 52.1613 74.2643 53.3434 73.7455 54.3424C73.257 55.3114 72.8612 56.3413 72.281 57.2503C71.7018 58.2193 70.6028 58.6743 69.657 58.3403C68.7413 58.0373 67.8569 57.7343 66.9413 57.4013C64.5007 60.9453 61.3891 64.0043 57.8193 66.4273C58.185 67.3363 58.4902 68.2144 58.7954 69.1234C59.1006 70.0624 58.6433 71.1523 57.6662 71.7283C56.7506 72.3043 55.7141 72.7273 54.7682 73.2123C53.7609 73.7273 52.5713 73.3944 51.9619 72.5764C51.4129 71.7894 50.864 71.0014 50.3452 70.2144C46.7149 71.5164 42.8097 72.2134 38.7523 72.2134C38.3857 72.2134 37.9898 72.2134 37.6231 72.1834C37.4096 73.1224 37.1346 74.0313 36.8294 74.9393C36.5242 75.8783 35.4867 76.5753 34.3585 76.4233L31.1251 75.9384C30.0272 75.6964 29.2637 74.7574 29.2637 73.7574C29.2637 72.7884 29.2939 71.8194 29.3251 70.8803C25.1146 69.6993 21.2406 67.7003 17.8541 65.0953C17.1218 65.7313 16.3593 66.3064 15.5655 66.8524C14.7416 67.4884 13.5822 67.3374 12.7592 66.5804C11.905 65.8834 11.1425 65.1264 10.4404 64.3084C9.67791 63.4604 9.55602 62.3393 10.1654 61.4913C10.7456 60.7043 11.3248 59.9463 11.9353 59.2193C9.31126 55.8573 7.29769 52.0113 6.10808 47.8313C5.16223 47.8923 4.18617 47.8923 3.21011 47.8923C2.20382 47.8923 1.2882 47.1353 1.01321 46.0443L0.524673 42.8344C0.372572 41.7134 1.07364 40.7144 2.0497 40.4114C2.96533 40.1084 3.87994 39.8364 4.79557 39.5934C4.76535 39.2294 4.76535 38.8364 4.76535 38.4724C4.76535 34.4444 5.46744 30.5674 6.80915 26.9634C6.01641 26.4784 5.22267 25.9333 4.42993 25.3583C3.60597 24.7823 3.24032 23.6014 3.75908 22.6024C4.27783 21.6334 4.6747 20.6033 5.25389 19.6943C5.83409 18.7253 6.93203 18.2703 7.87787 18.6043C8.7935 18.9073 9.67792 19.2103 10.5935 19.5433C13.0342 15.9993 16.1155 12.9403 19.6853 10.5173C19.3499 9.60834 19.0447 8.73036 18.7395 7.82136C18.4343 6.85236 18.8916 5.79235 19.8374 5.18635C20.7833 4.61135 21.7896 4.21734 22.7666 3.73234C23.7729 3.21734 24.9635 3.55036 25.5427 4.36836C26.1219 5.15636 26.6719 5.94336 27.1896 6.76136C30.7897 5.42836 34.6949 4.73234 38.7523 4.73234C39.118 4.73234 39.5148 4.73234 39.8815 4.76234C40.1252 3.82334 40.4002 2.91436 40.7054 2.00636C41.0106 1.06736 42.0482 0.371348 43.1461 0.522348L46.4107 1.00736C47.5087 1.24936 48.2722 2.18836 48.2722 3.18836C48.2722 4.15736 48.242 5.12635 48.2108 6.06535C52.4212 7.24635 56.2953 9.24535 59.6818 11.8504C60.4141 11.2144 61.1766 10.6394 61.9391 10.0934C62.7933 9.45736 63.9527 9.60837 64.7766 10.3354C65.6006 11.0624 66.3933 11.8193 67.0954 12.6373C67.8579 13.4853 67.9798 14.6064 67.3694 15.4544C66.7902 16.2114 66.21 16.9684 65.5996 17.7264C68.2236 21.0884 70.2372 24.9344 71.4268 29.1144C72.3726 29.0534 73.3185 29.0534 74.2945 29.0534C75.332 29.0534 76.2467 29.8103 76.4914 30.9013L77.0102 34.1114ZM61.4818 31.0523C63.4339 29.9923 64.1975 27.5394 63.16 25.6004C62.0922 23.6314 59.6213 22.8744 57.6682 23.9344C55.6848 24.9644 54.9223 27.4174 55.9901 29.3864C57.0276 31.3254 59.4985 32.0823 61.4818 31.0523ZM63.16 51.3453C64.1975 49.4073 63.4349 46.9534 61.4818 45.8933C59.4985 44.8633 57.0276 45.6214 55.9901 47.5594C54.9223 49.5284 55.6848 51.9814 57.6682 53.0114C59.6203 54.0714 62.0922 53.3133 63.16 51.3453ZM46.868 38.4734C46.868 34.0214 43.2378 30.4164 38.7533 30.4164C34.2689 30.4164 30.6386 34.0204 30.6386 38.4734C30.6386 42.9254 34.2689 46.5294 38.7533 46.5294C43.2378 46.5294 46.868 42.9254 46.868 38.4734ZM42.8107 15.0913C42.8107 12.8503 41.0107 11.0634 38.7533 11.0634C36.5262 11.0634 34.6959 12.8503 34.6959 15.0913C34.6959 17.3023 36.5262 19.1194 38.7533 19.1194C41.0107 19.1194 42.8107 17.3023 42.8107 15.0913ZM42.8107 61.8543C42.8107 59.6433 41.0107 57.8264 38.7533 57.8264C36.5262 57.8264 34.6959 59.6433 34.6959 61.8543C34.6959 64.0953 36.5262 65.8824 38.7533 65.8824C41.0107 65.8834 42.8107 64.0963 42.8107 61.8543ZM21.5468 29.3864C22.6145 27.4174 21.852 24.9644 19.8686 23.9344C17.8853 22.8744 15.4446 23.6314 14.3769 25.6004C13.3394 27.5384 14.0717 29.9923 16.0551 31.0523C18.0384 32.0823 20.5093 31.3254 21.5468 29.3864ZM19.8686 53.0114C21.852 51.9814 22.6145 49.5284 21.5468 47.5594C20.5093 45.6214 18.0384 44.8643 16.0551 45.8933C14.0717 46.9534 13.3404 49.4063 14.3769 51.3453C15.4446 53.3133 17.8853 54.0714 19.8686 53.0114Z" fill="#A4C9FC"/>
<path d="M34.6665 76.9464C34.5426 76.9464 34.4177 76.9374 34.2928 76.9214L31.0504 76.4344C29.7086 76.1404 28.7588 75.0154 28.7588 73.7564C28.7588 72.9164 28.7809 72.0744 28.8071 71.2544C24.8898 70.1044 21.2152 68.2524 17.874 65.7404C17.2626 66.2524 16.5988 66.7534 15.8564 67.2654C14.8753 68.0234 13.452 67.8994 12.4165 66.9474C11.5865 66.2704 10.8068 65.5074 10.0564 64.6334C9.13878 63.6124 9.01389 62.2284 9.75526 61.1984C10.3415 60.4024 10.826 59.7744 11.2904 59.2074C8.76004 55.8894 6.89353 52.2424 5.73515 48.3544C4.90011 48.3934 4.04291 48.3934 3.21089 48.3934C1.95883 48.3934 0.852823 47.4774 0.523439 46.1654L0.0258347 42.9084C-0.155477 41.5734 0.633231 40.3254 1.89939 39.9314C2.69213 39.6694 3.4889 39.4274 4.26854 39.2144C4.26049 38.9654 4.26049 38.7114 4.26049 38.4724C4.26049 34.5564 4.91119 30.7584 6.19548 27.1744C5.56895 26.7794 4.90314 26.3234 4.13257 25.7634C3.05477 25.0124 2.69718 23.5514 3.30961 22.3714C3.50905 21.9984 3.68835 21.6224 3.86563 21.2484C4.15473 20.6394 4.45389 20.0104 4.82658 19.4264C5.5196 18.2664 6.87842 17.7184 8.04688 18.1294C8.83559 18.3914 9.60921 18.6544 10.3989 18.9384C12.7701 15.5744 15.6862 12.6804 19.0747 10.3244C18.7896 9.53938 18.5237 8.7724 18.2578 7.98139C17.8841 6.79139 18.4089 5.50238 19.5632 4.76338C20.226 4.36138 20.9049 4.04737 21.5617 3.74537C21.888 3.59537 22.2154 3.4444 22.5387 3.2834C23.7304 2.6744 25.2 3.01539 25.9555 4.07939C26.4944 4.81239 26.9688 5.49538 27.3969 6.15138C30.9789 4.87638 34.7965 4.23039 38.7511 4.23039C38.9928 4.23039 39.2457 4.23038 39.4955 4.23838C39.706 3.46138 39.9457 2.6744 40.2227 1.8484C40.6186 0.631399 41.9089 -0.15363 43.2134 0.0253704L46.4831 0.511393C47.8258 0.806393 48.7746 1.93037 48.7746 3.18937C48.7746 4.02937 48.7525 4.87139 48.7263 5.69139C52.6436 6.84139 56.3192 8.69339 59.6594 11.2054C60.2275 10.7294 60.8661 10.2394 61.6397 9.68638C62.644 8.94038 64.0763 9.04938 65.1098 9.96238C66.096 10.8324 66.8474 11.5784 67.477 12.3124C68.3956 13.3334 68.5195 14.7174 67.7782 15.7474C67.2564 16.4284 66.7558 17.0824 66.238 17.7314C68.7703 21.0514 70.6389 24.7004 71.7982 28.5914C72.6212 28.5524 73.4351 28.5524 74.2913 28.5524C75.5806 28.5524 76.6866 29.4734 76.9818 30.7934L77.5055 34.0324C77.5065 34.0414 77.5086 34.0494 77.5096 34.0584C77.6526 35.3764 76.8649 36.6194 75.636 37.0134C74.7466 37.3074 73.981 37.5334 73.2629 37.7134C73.2719 37.9604 73.2719 38.2174 73.2719 38.4734C73.2719 42.3874 72.6202 46.1874 71.3359 49.7714C71.9664 50.1704 72.6454 50.6354 73.3998 51.1824C74.4645 51.9254 74.808 53.3864 74.1916 54.5744C74.0334 54.8884 73.8823 55.2144 73.7312 55.5394C73.425 56.2024 73.1077 56.8874 72.7038 57.5194C72.0128 58.6774 70.654 59.2274 69.4835 58.8164C68.6948 58.5544 67.9222 58.2914 67.1315 58.0074C64.7774 61.3444 61.8533 64.2384 58.4335 66.6164C58.7498 67.4294 59.0228 68.2224 59.2726 68.9644C59.6523 70.1344 59.0832 71.4764 57.9218 72.1614C57.3003 72.5524 56.6174 72.8774 55.9566 73.1914C55.6323 73.3454 55.3099 73.5004 54.9976 73.6604C53.8161 74.2634 52.3364 73.9274 51.5517 72.8774C51.0682 72.1834 50.5928 71.5024 50.1375 70.8204C46.4971 72.0794 42.6674 72.7164 38.7481 72.7164C38.5103 72.7164 38.2615 72.7164 38.0148 72.7084C37.8344 73.4324 37.6058 74.2034 37.3066 75.0984C36.9541 76.1984 35.8551 76.9464 34.6665 76.9464ZM17.8549 64.5924C17.9647 64.5924 18.0734 64.6274 18.1641 64.6974C21.5969 67.3384 25.3985 69.2574 29.4629 70.3964C29.6865 70.4594 29.8386 70.6664 29.8315 70.8964C29.8013 71.8294 29.7711 72.7944 29.7711 73.7574C29.7711 74.5494 30.3865 75.2594 31.2357 75.4474L34.4349 75.9264C35.3626 76.0604 36.1352 75.4434 36.3487 74.7854C36.6972 73.7464 36.945 72.8854 37.1304 72.0724C37.1868 71.8274 37.4305 71.6684 37.6652 71.6824C38.0178 71.7124 38.4005 71.7094 38.7521 71.7114C42.6896 71.7114 46.5314 71.0494 50.1738 69.7434C50.3933 69.6594 50.6401 69.7444 50.769 69.9414C51.2848 70.7244 51.8318 71.5074 52.3787 72.2934C52.8602 72.9374 53.7909 73.1424 54.5373 72.7684C54.8567 72.6034 55.1891 72.4454 55.5225 72.2864C56.1561 71.9844 56.8128 71.6714 57.396 71.3044C58.1676 70.8504 58.5494 70.0014 58.3147 69.2784C58.0145 68.3844 57.7123 67.5144 57.3507 66.6164C57.2621 66.3974 57.3396 66.1474 57.535 66.0144C61.1049 63.5904 64.1297 60.5974 66.5251 57.1194C66.656 56.9284 66.9008 56.8524 67.1174 56.9324C68.028 57.2634 68.9083 57.5644 69.8189 57.8664C70.5401 58.1174 71.3933 57.7534 71.8466 56.9944C72.2223 56.4054 72.5114 55.7814 72.8176 55.1204C72.9727 54.7844 73.1289 54.4474 73.2941 54.1194C73.6768 53.3824 73.4653 52.4534 72.8146 51.9994C71.9332 51.3604 71.1657 50.8424 70.4606 50.4104C70.2561 50.2844 70.1674 50.0324 70.2521 49.8084C71.5877 46.2224 72.2656 42.4094 72.2656 38.4734C72.2656 38.0944 72.2666 37.7144 72.2364 37.3654C72.2153 37.1164 72.3804 36.8904 72.6262 36.8344C73.4331 36.6474 74.2913 36.4014 75.3278 36.0594C76.0893 35.8144 76.595 35.0074 76.5104 34.1784L75.9946 30.9814C75.8083 30.1554 75.1092 29.5574 74.2983 29.5574C73.3182 29.5574 72.3925 29.5574 71.4628 29.6164C71.2311 29.6434 71.0085 29.4804 70.9431 29.2514C69.7947 25.2174 67.8638 21.4434 65.2025 18.0344C65.0595 17.8514 65.0615 17.5934 65.2076 17.4124C65.8079 16.6674 66.379 15.9214 66.9502 15.1754C67.4276 14.5144 67.3329 13.6544 66.7195 12.9724C66.1141 12.2654 65.3929 11.5494 64.443 10.7124C63.7621 10.1114 62.8777 10.0224 62.2451 10.4954C61.3436 11.1404 60.6385 11.6884 60.017 12.2294C59.8336 12.3864 59.5637 12.3944 59.3733 12.2494C55.9405 9.6084 52.139 7.68939 48.0746 6.5504C47.8509 6.48739 47.6988 6.2804 47.7059 6.0504C47.7361 5.11739 47.7663 4.15237 47.7663 3.18937C47.7663 2.39737 47.1509 1.6874 46.3017 1.4994L43.0724 1.0204C42.2675 0.910396 41.4325 1.41039 41.1887 2.16139C40.8694 3.11139 40.6035 4.00238 40.3738 4.88838C40.3124 5.12638 40.0716 5.28338 39.842 5.26438C39.4904 5.23438 39.1238 5.24739 38.7541 5.23539C34.7783 5.23539 30.9476 5.90839 27.3687 7.23439C27.1481 7.31439 26.8923 7.23338 26.7633 7.03138C26.2929 6.28938 25.7601 5.51439 25.1355 4.66539C24.6722 4.01339 23.7374 3.80439 22.9991 4.17939C22.6616 4.34839 22.3252 4.5024 21.9898 4.6584C21.329 4.9624 20.7055 5.2504 20.1031 5.6154C19.3466 6.1014 18.9891 6.92937 19.2228 7.67237C19.5229 8.56737 19.8271 9.44037 20.1605 10.3444C20.2401 10.5604 20.1626 10.8024 19.9712 10.9324C16.4386 13.3314 13.4248 16.3234 11.0113 19.8274C10.8804 20.0174 10.6366 20.0934 10.4191 20.0144C9.50847 19.6834 8.6281 19.3824 7.71851 19.0804C6.99226 18.8304 6.14411 19.1934 5.68982 19.9524C5.34332 20.4954 5.07035 21.0704 4.78126 21.6784C4.59592 22.0674 4.41057 22.4574 4.2061 22.8384C3.79008 23.6404 4.14061 24.5424 4.72182 24.9484C5.62334 25.6024 6.36874 26.1054 7.07586 26.5374C7.28135 26.6634 7.36898 26.9144 7.28537 27.1394C5.94971 30.7244 5.27281 34.5374 5.27281 38.4744C5.27281 38.8254 5.2718 39.2044 5.30101 39.5524C5.32116 39.7954 5.16402 40.0174 4.9273 40.0794C4.0419 40.3134 3.12729 40.5864 2.21065 40.8884C1.41993 41.1344 0.915275 41.9424 1.02708 42.7694L1.51462 45.9714C1.72212 46.7864 2.42319 47.3904 3.21089 47.3904C4.16278 47.3904 5.1469 47.3904 6.07663 47.3314C6.3214 47.3014 6.53092 47.4674 6.59639 47.6964C7.7447 51.7294 9.67567 55.5044 12.3369 58.9134C12.483 59.0994 12.478 59.3624 12.3259 59.5424C11.795 60.1744 11.2551 60.8664 10.5762 61.7884C10.1118 62.4324 10.2075 63.2924 10.82 63.9744C11.5382 64.8124 12.2755 65.5344 13.0813 66.1914C13.7683 66.8234 14.6537 66.9214 15.2571 66.4574C16.1203 65.8624 16.8536 65.2994 17.5215 64.7184C17.6171 64.6344 17.736 64.5924 17.8549 64.5924ZM38.7531 66.3854C36.2369 66.3854 34.1901 64.3524 34.1901 61.8544C34.1901 59.3564 36.2379 57.3234 38.7531 57.3234C41.2693 57.3234 43.3171 59.3554 43.3171 61.8544C43.3161 64.3534 41.2693 66.3854 38.7531 66.3854ZM38.7531 58.3294C36.7949 58.3294 35.2024 59.9114 35.2024 61.8554C35.2024 63.7984 36.7959 65.3814 38.7531 65.3814C40.7445 65.3814 42.3048 63.8334 42.3048 61.8554C42.3038 59.9114 40.7113 58.3294 38.7531 58.3294ZM59.5587 53.9944C58.8193 53.9944 58.089 53.8114 57.4252 53.4514C56.3525 52.8954 55.5607 51.9464 55.2011 50.7854C54.8415 49.6224 54.9634 48.3914 55.5446 47.3214C56.7151 45.1314 59.4821 44.2874 61.7163 45.4484C63.9293 46.6494 64.7734 49.3994 63.607 51.5814C63.607 51.5824 63.606 51.5824 63.606 51.5844C63.0177 52.6684 62.0416 53.4574 60.855 53.8064C60.4259 53.9314 59.9908 53.9944 59.5587 53.9944ZM59.5869 45.9314C58.3096 45.9314 57.0727 46.6084 56.4381 47.7954C55.9848 48.6304 55.8911 49.5874 56.1701 50.4914C56.4491 51.3934 57.0636 52.1304 57.9027 52.5654C58.7216 53.0104 59.6634 53.1054 60.567 52.8424C61.4917 52.5704 62.2542 51.9534 62.7135 51.1084C63.6221 49.4094 62.9603 47.2684 61.2388 46.3344C60.712 46.0614 60.1449 45.9314 59.5869 45.9314ZM17.9636 53.9944C17.5174 53.9944 17.0692 53.9274 16.631 53.7944C15.4706 53.4394 14.5127 52.6554 13.9315 51.5844C12.754 49.3854 13.6001 46.6364 15.8141 45.4514C18.0503 44.2894 20.8203 45.1324 21.9928 47.3244C22.572 48.3924 22.6939 49.6224 22.3353 50.7864C21.9767 51.9464 21.185 52.8944 20.1052 53.4554C19.4343 53.8124 18.702 53.9944 17.9636 53.9944ZM17.9516 45.9324C17.3905 45.9324 16.8204 46.0634 16.2895 46.3384C14.5691 47.2584 13.9093 49.4004 14.8239 51.1104C15.2772 51.9454 16.0246 52.5574 16.9282 52.8344C17.8317 53.1094 18.7927 53.0154 19.6287 52.5684C19.6307 52.5674 19.6317 52.5654 19.6338 52.5654C20.4728 52.1294 21.0883 51.3924 21.3673 50.4894C21.6463 49.5854 21.5516 48.6294 21.1014 47.7974C20.4658 46.6104 19.2288 45.9324 17.9516 45.9324ZM38.7531 47.0324C33.9997 47.0324 30.1327 43.1924 30.1327 38.4734C30.1327 33.7544 33.9997 29.9144 38.7531 29.9144C43.5065 29.9144 47.3745 33.7544 47.3745 38.4734C47.3745 43.1924 43.5065 47.0324 38.7531 47.0324ZM38.7531 30.9194C34.5577 30.9194 31.145 34.3074 31.145 38.4734C31.145 42.6394 34.5577 46.0274 38.7531 46.0274C42.9485 46.0274 46.3622 42.6394 46.3622 38.4734C46.3611 34.3074 42.9485 30.9194 38.7531 30.9194ZM59.5869 32.0184C57.946 32.0184 56.3585 31.1464 55.5436 29.6224C54.9644 28.5544 54.8425 27.3244 55.2011 26.1604C55.5607 24.9994 56.3525 24.0504 57.4333 23.4904C58.4758 22.9234 59.6916 22.7994 60.855 23.1394C62.0406 23.4884 63.0177 24.2774 63.606 25.3614C64.7734 27.5464 63.9293 30.2954 61.7253 31.4924C61.7223 31.4934 61.7193 31.4954 61.7173 31.4964C61.0364 31.8504 60.3071 32.0184 59.5869 32.0184ZM59.5597 23.9584C58.9865 23.9584 58.4224 24.0984 57.9097 24.3774C57.0626 24.8174 56.4482 25.5544 56.1691 26.4554C55.8901 27.3594 55.9838 28.3164 56.435 29.1484C57.3476 30.8534 59.5033 31.5064 61.2418 30.6104C62.9603 29.6744 63.6191 27.5334 62.7125 25.8364C62.2542 24.9924 61.4917 24.3774 60.566 24.1034C60.2335 24.0064 59.8961 23.9584 59.5597 23.9584ZM17.9486 32.0184C17.2293 32.0184 16.5001 31.8504 15.8201 31.4974C13.6011 30.3114 12.755 27.5604 13.9305 25.3644C14.5127 24.2904 15.4706 23.5064 16.631 23.1514C17.7954 22.7964 19.0314 22.9154 20.1082 23.4934C21.1829 24.0504 21.9757 24.9994 22.3353 26.1604C22.6949 27.3234 22.573 28.5544 21.9918 29.6244C21.1759 31.1484 19.5894 32.0184 17.9486 32.0184ZM17.9606 23.9584C17.6141 23.9584 17.2676 24.0094 16.9282 24.1124C16.0246 24.3884 15.2772 25.0014 14.8229 25.8384C13.9103 27.5464 14.5691 29.6874 16.2946 30.6104C18.0291 31.5124 20.1857 30.8564 21.0993 29.1514C21.0993 29.1504 21.1004 29.1504 21.1004 29.1484C21.5516 28.3164 21.6463 27.3604 21.3663 26.4564C21.0872 25.5534 20.4718 24.8164 19.6327 24.3804C19.1079 24.1004 18.5368 23.9584 17.9606 23.9584ZM38.7531 19.6224C36.2369 19.6224 34.1901 17.5904 34.1901 15.0914C34.1901 12.5934 36.2379 10.5604 38.7531 10.5604C41.2693 10.5604 43.3171 12.5934 43.3171 15.0914C43.3161 17.5894 41.2693 19.6224 38.7531 19.6224ZM38.7531 11.5654C36.7949 11.5654 35.2024 13.1474 35.2024 15.0914C35.2024 17.0354 36.7959 18.6174 38.7531 18.6174C40.7113 18.6174 42.3048 17.0354 42.3048 15.0914C42.3038 13.1134 40.7435 11.5654 38.7531 11.5654Z" fill="#2D2B55"/>
</svg>
