<svg width="40" height="40" viewBox="0 0 40 40" fill="none" xmlns="http://www.w3.org/2000/svg">
<path d="M31.5498 33.3332C28.7409 33.3332 25.8609 32.6298 22.9098 31.2232C19.9587 29.8165 17.2121 27.8415 14.6698 25.2982C12.1476 22.7559 10.1832 20.0143 8.7765 17.0732C7.36984 14.1321 6.6665 11.2576 6.6665 8.44984C6.6665 7.94984 6.83317 7.52761 7.1665 7.18317C7.49984 6.83873 7.9165 6.6665 8.4165 6.6665H12.5382C12.9915 6.6665 13.3871 6.80928 13.7248 7.09484C14.0626 7.38039 14.2909 7.7465 14.4098 8.19317L15.2365 12.1665C15.3143 12.6332 15.3004 13.0404 15.1948 13.3882C15.0893 13.7359 14.9043 14.0209 14.6398 14.2432L10.9832 17.6532C11.6676 18.8943 12.4237 20.0476 13.2515 21.1132C14.0793 22.1787 14.9626 23.1882 15.9015 24.1415C16.8682 25.1082 17.9093 26.0082 19.0248 26.8415C20.1404 27.6737 21.3648 28.4593 22.6982 29.1982L26.2632 25.5698C26.5343 25.2776 26.8393 25.0848 27.1782 24.9915C27.5159 24.8993 27.8904 24.8809 28.3015 24.9365L31.8065 25.6532C32.2598 25.7643 32.6276 25.9926 32.9098 26.3382C33.1921 26.6837 33.3332 27.0793 33.3332 27.5248V31.5832C33.3332 32.0832 33.1609 32.4998 32.8165 32.8332C32.4721 33.1665 32.0498 33.3332 31.5498 33.3332Z" fill="white" stroke="white" stroke-width="0.1"/>
</svg>
