<svg width="28" height="28" viewBox="0 0 28 28" fill="none" xmlns="http://www.w3.org/2000/svg">
<path d="M11.6667 10.5117L11.6783 10.4988M16.3333 10.5117L16.345 10.4988M11.6667 15.1783L11.6783 15.1655M16.3333 15.1783L16.345 15.1655M11.6667 19.845L11.6783 19.8322M16.3333 19.845L16.345 19.8322M7 23.8V6.53333C7 6.34768 7.07375 6.16963 7.20503 6.03836C7.3363 5.90708 7.51435 5.83333 7.7 5.83333H14V4.2C14 4.01435 14.0737 3.8363 14.205 3.70503C14.3363 3.57375 14.5143 3.5 14.7 3.5H20.3C20.4857 3.5 20.6637 3.57375 20.795 3.70503C20.9263 3.8363 21 4.01435 21 4.2V23.8C21 23.9857 20.9263 24.1637 20.795 24.295C20.6637 24.4263 20.4857 24.5 20.3 24.5H7.7C7.51435 24.5 7.3363 24.4263 7.20503 24.295C7.07375 24.1637 7 23.9857 7 23.8Z" stroke="#3A3434" stroke-linecap="round" stroke-linejoin="round"/>
</svg>
