<svg width="28" height="28" viewBox="0 0 28 28" fill="none" xmlns="http://www.w3.org/2000/svg">
<path d="M9.625 3.5V5.25M5.25 9.625H3.5M24.5 9.625H22.75M5.25 14H3.5M24.5 14H22.75M5.25 18.375H3.5M24.5 18.375H22.75M9.625 22.75V24.5M14 3.5V5.25M14 22.75V24.5M18.375 3.5V5.25M18.375 22.75V24.5M7.875 22.75H20.125C20.8212 22.75 21.4889 22.4734 21.9812 21.9812C22.4734 21.4889 22.75 20.8212 22.75 20.125V7.875C22.75 7.17881 22.4734 6.51113 21.9812 6.01884C21.4889 5.52656 20.8212 5.25 20.125 5.25H7.875C7.17881 5.25 6.51113 5.52656 6.01884 6.01884C5.52656 6.51113 5.25 7.17881 5.25 7.875V20.125C5.25 20.8212 5.52656 21.4889 6.01884 21.9812C6.51113 22.4734 7.17881 22.75 7.875 22.75ZM8.75 8.75H19.25V19.25H8.75V8.75Z" stroke="#3A3434" stroke-linecap="round" stroke-linejoin="round"/>
</svg>
