<svg width="28" height="28" viewBox="0 0 28 28" fill="none" xmlns="http://www.w3.org/2000/svg">
<path d="M24.5 9.17C24.5 8.66833 24.4347 8.1795 24.3122 7.71633C24.2048 7.30917 23.7032 7.21233 23.4068 7.50983L21.3967 9.52C21.2052 9.71151 20.9778 9.86342 20.7276 9.96707C20.4774 10.0707 20.2092 10.1241 19.9383 10.1241C19.6675 10.1241 19.3993 10.0707 19.1491 9.96707C18.8989 9.86342 18.6715 9.71151 18.48 9.52C18.2885 9.32849 18.1366 9.10113 18.0329 8.85091C17.9293 8.60069 17.8759 8.3325 17.8759 8.06167C17.8759 7.79083 17.9293 7.52264 18.0329 7.27242C18.1366 7.0222 18.2885 6.79484 18.48 6.60333L20.4902 4.59433C20.7877 4.29683 20.6908 3.79517 20.2837 3.68783C19.2854 3.42232 18.2337 3.43454 17.2419 3.72316C16.2501 4.01178 15.356 4.56584 14.6561 5.32552C13.9563 6.0852 13.4772 7.02163 13.2707 8.03369C13.0642 9.04576 13.138 10.095 13.4843 11.0682C13.5672 11.3015 13.5205 11.5628 13.3467 11.7367L3.85 21.2333C3.38333 21.7 3.38333 22.4572 3.85 22.9227L5.07733 24.15C5.544 24.6167 6.29883 24.6167 6.7655 24.15L16.2622 14.6533C16.4372 14.4783 16.6985 14.4317 16.9307 14.5145C17.7863 14.8187 18.7025 14.9129 19.6021 14.7893C20.5018 14.6656 21.3586 14.3277 22.1004 13.8039C22.8422 13.2801 23.4474 12.5858 23.865 11.7794C24.2825 10.973 24.5003 10.0781 24.5 9.17Z" stroke="#3A3434" stroke-linecap="round" stroke-linejoin="round"/>
</svg>
