<svg width="60" height="60" viewBox="0 0 60 60" fill="none" xmlns="http://www.w3.org/2000/svg">
<path d="M29.9998 22.1892C25.699 22.1892 22.1892 25.699 22.1892 29.9998C22.1892 34.3006 25.699 37.8103 29.9998 37.8103C34.3006 37.8103 37.8103 34.3006 37.8103 29.9998C37.8103 25.699 34.3006 22.1892 29.9998 22.1892ZM53.4256 29.9998C53.4256 26.7654 53.4549 23.5603 53.2732 20.3318C53.0916 16.5818 52.2361 13.2537 49.4939 10.5115C46.7459 7.76346 43.4236 6.91385 39.6736 6.73221C36.4392 6.55057 33.2342 6.57987 30.0056 6.57987C26.7713 6.57987 23.5662 6.55057 20.3377 6.73221C16.5877 6.91385 13.2596 7.76932 10.5174 10.5115C7.76932 13.2596 6.91971 16.5818 6.73807 20.3318C6.55643 23.5662 6.58573 26.7713 6.58573 29.9998C6.58573 33.2283 6.55643 36.4392 6.73807 39.6678C6.91971 43.4178 7.77518 46.7459 10.5174 49.4881C13.2654 52.2361 16.5877 53.0857 20.3377 53.2674C23.5721 53.449 26.7771 53.4197 30.0056 53.4197C33.24 53.4197 36.4451 53.449 39.6736 53.2674C43.4236 53.0857 46.7517 52.2303 49.4939 49.4881C52.242 46.74 53.0916 43.4178 53.2732 39.6678C53.4607 36.4392 53.4256 33.2342 53.4256 29.9998ZM29.9998 42.0174C23.3494 42.0174 17.9822 36.6502 17.9822 29.9998C17.9822 23.3494 23.3494 17.9822 29.9998 17.9822C36.6502 17.9822 42.0174 23.3494 42.0174 29.9998C42.0174 36.6502 36.6502 42.0174 29.9998 42.0174ZM42.5096 20.2967C40.9568 20.2967 39.7029 19.0428 39.7029 17.49C39.7029 15.9373 40.9568 14.6834 42.5096 14.6834C44.0623 14.6834 45.3162 15.9373 45.3162 17.49C45.3167 17.8587 45.2444 18.2239 45.1035 18.5646C44.9626 18.9054 44.7559 19.2149 44.4952 19.4757C44.2345 19.7364 43.9249 19.9431 43.5842 20.084C43.2434 20.2248 42.8783 20.2971 42.5096 20.2967Z" fill="white" stroke="white" stroke-width="0.351562"/>
</svg>
