<svg width="60" height="60" viewBox="0 0 60 60" fill="none" xmlns="http://www.w3.org/2000/svg">
<path fill-rule="evenodd" clip-rule="evenodd" d="M12.5 2.5C9.84784 2.5 7.3043 3.55357 5.42893 5.42893C3.55357 7.3043 2.5 9.84784 2.5 12.5V47.5C2.5 50.1522 3.55357 52.6957 5.42893 54.5711C7.3043 56.4464 9.84784 57.5 12.5 57.5H47.5C50.1522 57.5 52.6957 56.4464 54.5711 54.5711C56.4464 52.6957 57.5 50.1522 57.5 47.5V12.5C57.5 9.84784 56.4464 7.3043 54.5711 5.42893C52.6957 3.55357 50.1522 2.5 47.5 2.5H12.5ZM11.665 11.25C11.3913 11.3517 11.1452 11.5159 10.9462 11.7295C10.7472 11.9432 10.6008 12.2003 10.5188 12.4805C10.4367 12.7607 10.4212 13.0562 10.4735 13.3434C10.5258 13.6307 10.6444 13.9017 10.82 14.135L24.855 32.76L10.0675 48.6225L9.9575 48.75H15.075L27.15 35.8025L36.43 48.1225C36.6453 48.4077 36.9376 48.6254 37.2725 48.75H48.3275C48.6008 48.6478 48.8464 48.4832 49.0448 48.2693C49.2433 48.0554 49.3891 47.7982 49.4707 47.5181C49.5522 47.2379 49.5673 46.9426 49.5147 46.6557C49.462 46.3687 49.3432 46.098 49.1675 45.865L35.1325 27.24L50.0425 11.25H44.9175L32.8425 24.2L23.5575 11.88C23.3425 11.5939 23.0502 11.3753 22.715 11.25H11.665ZM38.865 45.12L16.0775 14.88H21.125L43.91 45.1175L38.865 45.12Z" fill="white" stroke="white" stroke-width="0.1"/>
</svg>
