<svg width="40" height="40" viewBox="0 0 40 40" fill="none" xmlns="http://www.w3.org/2000/svg">
<path d="M7.69333 31.6668C6.92556 31.6668 6.285 31.4102 5.77167 30.8968C5.25833 30.3835 5.00111 29.7424 5 28.9735V11.0268C5 10.2591 5.25722 9.6185 5.77167 9.10516C6.28611 8.59183 6.92611 8.33461 7.69167 8.3335H32.3083C33.075 8.3335 33.715 8.59072 34.2283 9.10516C34.7417 9.61961 34.9989 10.2602 35 11.0268V28.9752C35 29.7418 34.7428 30.3824 34.2283 30.8968C33.7139 31.4113 33.0739 31.6679 32.3083 31.6668H7.69333ZM20 20.1935L33.3333 11.4752L32.82 10.0002L20 18.3335L7.18 10.0002L6.66667 11.4752L20 20.1935Z" fill="white" stroke="white" stroke-width="0.1"/>
</svg>
