<svg width="201" height="200" viewBox="0 0 201 200" fill="none" xmlns="http://www.w3.org/2000/svg">
<circle cx="100" cy="100" r="100" fill="#DCD3F6"/>
<path d="M201 43.1826C194.667 43.2654 188.334 43.2654 181.885 43.2654C181.885 44.6333 181.885 45.8776 181.885 47.0527C181.716 47.151 181.665 47.2043 181.61 47.2091C179.985 47.3506 179.985 47.3499 179.985 48.9823C179.985 53.3044 179.877 57.6302 180.029 61.9469C180.107 64.153 180.432 66.4056 181.041 68.5233C181.769 71.0582 180.57 73.4136 178.664 74.252C178.72 74.9161 178.858 75.5242 178.764 76.0944C178.738 76.2541 178.032 76.3089 177.635 76.3972C177.514 76.4239 177.373 76.3709 177.259 76.4073C176.965 76.5008 176.68 76.624 176.392 76.7353C176.625 77.006 176.806 77.3982 177.102 77.5268C178.546 78.155 179.268 79.2421 179.214 80.8613C179.16 82.4894 178.355 83.5802 176.881 84.0224C175.096 84.558 173.53 83.3619 173.264 81.2229C173.865 81.0742 174.346 80.9432 174.598 81.817C174.849 82.6867 175.617 83.0159 176.493 82.8127C177.342 82.6158 177.837 82.0381 177.899 81.1354C178.011 79.508 177.658 78.9609 176.059 78.6178C175.282 78.4509 174.987 78.0754 175.052 77.3223C175.073 77.0749 175.033 76.8223 175.016 76.4586C174.321 76.4259 173.644 76.3942 172.776 76.3534C172.817 75.6846 172.857 75.0447 172.897 74.4048C172.999 74.3978 173.102 74.3908 173.204 74.3838C172.699 74.0215 172.139 73.7142 171.697 73.286C170.562 72.1861 170.219 70.788 170.586 69.2927C171.4 65.9744 171.787 62.6354 171.675 59.2076C171.556 55.5835 171.629 51.9523 171.664 48.3246C171.671 47.5493 171.543 47.094 170.648 47.2476C169.939 47.3693 169.689 47.0577 169.742 46.3508C169.796 45.6292 169.712 44.8973 169.766 44.1757C169.818 43.4719 169.579 43.2489 168.863 43.2585C166.055 43.2962 163.246 43.2455 160.438 43.2919C159.596 43.3058 159.296 43.105 159.314 42.2013C159.373 39.2054 159.374 36.2069 159.314 33.211C159.296 32.2726 159.605 32.0778 160.49 32.0807C170.02 32.112 179.551 32.0879 189.081 32.1202C189.988 32.1233 190.328 31.8867 190.231 30.9671C190.159 30.2809 190.202 29.5799 190.227 28.8867C190.252 28.2398 190.499 27.7809 191.268 27.9287C192.126 28.0936 192.651 27.745 192.888 26.9179C193.148 26.0133 193.75 25.7824 194.67 25.8161C196.718 25.8912 198.771 25.8405 200.911 25.8434C201 28.3744 201 30.9029 200.943 33.5466C199.707 34.8318 198.509 35.9843 197.368 37.1906C197.197 37.3719 197.141 37.9417 197.286 38.099C198.49 39.4102 199.754 40.6669 201 41.94C201 42.3266 201 42.7131 201 43.1826ZM179.403 49.801C179.403 49.2961 179.367 48.7882 179.411 48.2871C179.478 47.5209 179.21 47.2112 178.399 47.235C176.696 47.2849 174.99 47.2805 173.287 47.2342C172.574 47.2149 172.375 47.4465 172.381 48.1503C172.411 52.1892 172.395 56.2285 172.395 60.2676C172.395 60.6678 172.395 61.068 172.395 61.6068C174.76 60.1646 177.032 60.0634 179.403 61.6766C179.403 57.6672 179.403 53.8283 179.403 49.801ZM180.343 37.8691C180.343 36.4698 180.343 35.0705 180.343 33.7486C178.868 35.1034 177.44 36.4139 176.188 37.5634C177.563 39.0032 178.903 40.4074 180.343 41.9165C180.343 40.5587 180.343 39.3085 180.343 37.8691ZM172.49 40.2311C173.326 39.4741 174.162 38.7171 174.851 38.0935C173.261 36.5082 171.859 35.1095 170.562 33.816C170.562 36.3894 170.562 39.1719 170.562 42.2509C171.284 41.4928 171.84 40.9094 172.49 40.2311ZM173.078 42.6903C175.228 42.6903 177.377 42.6903 179.636 42.6903C178.104 41.1803 176.726 39.8218 175.582 38.6941C174.246 39.9722 172.845 41.3134 171.407 42.6902C171.898 42.6902 172.396 42.6902 173.078 42.6903ZM198.447 40.422C197.786 39.6742 197.125 38.9264 196.68 38.4228C195.055 39.943 193.637 41.2688 192.208 42.6055C194.941 42.6055 197.647 42.6055 200.353 42.6055C200.442 42.4884 200.531 42.3713 200.62 42.2542C199.927 41.6752 199.234 41.0962 198.447 40.422ZM186.442 38.7806C186.114 38.3324 185.798 38.2763 185.377 38.7127C184.33 39.7993 183.245 40.8495 182.189 41.928C182.037 42.0827 181.963 42.3126 181.791 42.6172C184.658 42.6172 187.355 42.6172 190.052 42.6172C190.104 42.5404 190.156 42.4637 190.207 42.3869C188.978 41.2209 187.75 40.0549 186.442 38.7806ZM160.985 42.6294C163.664 42.6294 166.344 42.6294 169.203 42.6294C167.858 41.2209 166.623 39.9395 165.404 38.6444C165.021 38.2379 164.716 38.3322 164.383 38.6982C163.687 39.4634 162.974 40.2137 162.276 40.9766C161.814 41.4806 161.365 41.9961 160.985 42.6294ZM191.807 41.7435C193.119 40.4456 194.43 39.1477 195.928 37.6654C194.379 36.2882 192.931 35.0004 191.463 33.6957C191.439 33.7655 191.364 33.8773 191.367 33.9874C191.422 36.5568 191.486 39.126 191.554 41.695C191.555 41.7305 191.641 41.7637 191.807 41.7435ZM190.772 39.3816C190.772 37.4492 190.772 35.5167 190.772 33.3801C189.33 34.8099 188.032 36.0722 186.78 37.3787C186.667 37.4967 186.759 37.9789 186.913 38.1557C187.694 39.0548 188.519 39.9161 189.344 40.7761C189.76 41.2098 190.208 41.6128 190.772 42.1551C190.772 41.1392 190.772 40.3544 190.772 39.3816ZM161.884 35.1284C161.354 34.5715 160.824 34.0146 160.175 33.3332C160.175 36.3873 160.175 39.1758 160.175 41.6251C160.651 41.2431 161.289 40.7747 161.875 40.2492C162.461 39.7242 162.995 39.1422 163.552 38.5849C164.447 37.6886 164.447 37.6881 163.585 36.8252C163.05 36.2903 162.514 35.757 161.884 35.1284ZM198.721 34.8327C199.299 34.2517 199.878 33.6707 200.648 32.8977C197.627 32.8977 194.946 32.8977 192.03 32.8977C193.45 34.3115 194.719 35.599 196.031 36.8401C196.153 36.9554 196.637 36.8696 196.811 36.7164C197.448 36.1569 198.026 35.5293 198.721 34.8327ZM167.723 32.8463C165.42 32.8463 163.117 32.8463 160.542 32.8463C162.01 34.3073 163.264 35.5761 164.554 36.8069C164.687 36.9339 165.142 36.9451 165.268 36.8237C166.568 35.5755 167.831 34.2888 169.271 32.8463C168.636 32.8463 168.267 32.8463 167.723 32.8463ZM188.779 34.3599C189.196 33.9295 189.612 33.4991 190.195 32.8972C187.209 32.8972 184.53 32.8972 181.621 32.8972C183.041 34.3123 184.309 35.6033 185.628 36.8408C185.749 36.9546 186.273 36.8183 186.469 36.6415C187.238 35.9468 187.951 35.1894 188.779 34.3599ZM175.152 37.0031C175.404 36.9278 175.695 36.9063 175.9 36.7632C176.148 36.5899 176.318 36.3067 176.534 36.0833C177.525 35.0601 178.52 34.0412 179.616 32.9163C176.709 32.9163 173.988 32.9163 171.267 32.9163C171.149 33.0585 171.031 33.2007 170.913 33.3429C172.295 34.533 173.676 35.7231 175.152 37.0031ZM184.526 38.6265C185.446 37.6787 185.447 37.6777 184.477 36.7019C183.788 36.008 183.097 35.3151 182.402 34.6265C182.021 34.2491 181.631 33.8815 181.174 33.441C181.174 36.348 181.174 39.0685 181.174 42.0371C182.364 40.8258 183.398 39.7738 184.526 38.6265ZM168.522 34.5552C167.527 35.5858 166.531 36.6164 165.505 37.6779C166.923 39.1017 168.276 40.46 169.651 41.8405C169.651 39.0701 169.651 36.374 169.651 33.6779C169.525 33.5876 169.399 33.4972 169.273 33.4069C169.055 33.7577 168.837 34.1084 168.522 34.5552ZM174.45 72.1484C174.727 72.3426 175.003 72.6945 175.282 72.698C175.867 72.7055 176.586 72.6995 177 72.3776C177.37 72.0896 177.62 71.3368 177.545 70.8476C177.344 69.5517 176.4 69.065 175.178 69.4473C174.175 69.7613 173.85 70.8006 174.45 72.1484Z" fill="#FEE0AE"/>
<path d="M201 41.8512C199.754 40.6669 198.49 39.4102 197.286 38.099C197.141 37.9417 197.197 37.3719 197.368 37.1906C198.509 35.9843 199.707 34.8318 200.943 33.6353C201 36.3268 201 39.0446 201 41.8512Z" fill="#FEFEF1"/>
<path d="M95.6234 51.3518C93.8007 51.4108 91.9781 51.5204 90.1555 51.5212C63.9307 51.5323 37.7059 51.5314 11.4811 51.5192C10.4193 51.5187 9.35763 51.3778 8 51.2812C10.2549 49.1726 12.7161 47.9102 15.4371 47.2236C18.1608 46.5364 20.9425 46.4015 23.7232 47.1765C24.2185 45.7022 24.6251 44.251 25.1887 42.8634C26.429 39.8096 27.9869 36.9463 30.7317 34.9446C33.1731 33.1642 35.9422 32.7473 38.8836 33.0841C41.7565 33.413 44.3879 34.3573 46.6749 36.1422C47.4367 36.7368 48.0936 37.4652 48.8002 38.1307C48.9249 38.2482 49.0579 38.3569 49.2037 38.4844C49.624 37.4761 49.9603 36.5052 50.4192 35.5962C52.6454 31.1861 57.8691 30.753 60.8716 34.8024C61.3135 33.5288 61.7048 32.2979 62.165 31.0933C63.5749 27.4024 65.6625 24.1878 68.6799 21.5716C70.6532 19.8608 72.7979 18.4013 75.2428 17.6009C77.4831 16.8675 79.859 16.4806 82.2049 16.1553C84.8001 15.7954 87.3857 16.0726 89.9072 16.8675C92.3062 17.6238 94.5006 18.7763 96.3049 20.5049C97.7943 21.9317 99.2795 23.4421 100.399 25.1554C101.793 27.2883 102.935 29.6137 103.949 31.9581C104.725 33.7518 105.134 35.7042 105.675 37.7197C101.536 40.5299 99.0059 44.3761 97.419 48.9273C97.3248 49.1975 97.1478 49.6064 96.95 49.6448C95.9703 49.8347 95.7311 50.5257 95.6234 51.3518Z" fill="white"/>
<path d="M91.1427 62.9344C90.9466 60.9084 90.639 58.8852 90.5867 56.8554C90.5369 54.9254 90.6513 52.9761 90.884 51.0584C91.0946 49.323 91.5623 47.6187 91.9892 45.819C94.7725 46.0605 97.4773 46.4483 100.195 46.6917C104.325 47.0616 108.432 46.7122 112.494 45.9474C114.743 45.5241 116.959 44.929 119.189 44.4955C118.834 49.1393 119.043 53.6616 120.02 58.368C120.616 57.4054 121.047 56.6177 121.565 55.892C122.433 54.6763 123.431 53.587 124.897 53.0677C127.541 52.1311 129.503 53.4896 129.427 56.2551C129.359 58.7098 128.211 60.7119 126.592 62.47C125.219 63.9614 123.545 64.9854 121.483 64.966C120.538 64.957 120.138 65.2739 119.843 66.0604C119.496 66.9882 118.708 67.9127 118.759 68.8009C119.006 73.037 119.472 77.2603 119.829 81.5526C118.765 83.3353 117.732 85.0536 116.65 86.7938C116.573 86.8817 116.547 86.9476 116.52 87.0082C116.519 87.0028 116.529 86.9981 116.468 87.019C113.849 90.1821 111.095 93.1146 107.528 95.1482C105.293 96.4224 102.923 97.1775 100.305 96.8622C98.4072 96.6336 97.0845 95.5624 96.8339 93.684C96.6628 92.4015 96.7633 91.0491 96.9588 89.7608C97.1594 88.4393 97.6235 87.1577 97.966 85.8612C97.9598 85.8637 97.96 85.8772 98.0257 85.8637C98.1045 85.7214 98.1176 85.5927 98.1641 85.4073C98.6375 84.5948 99.1381 83.8661 99.4948 83.0727C99.7073 82.6001 99.6936 82.0259 99.8052 81.4134C99.8604 80.5716 99.8919 79.8138 99.9921 79.0586C102.104 79.9221 104.248 80.0289 106.432 80.0143C109.195 79.9958 111.471 78.9384 113.472 77.1017C115.635 75.1151 116.943 72.6032 118.018 69.9371C118.096 69.7446 118.103 69.5238 118.115 69.4625C116.786 70.8385 115.491 72.32 114.049 73.6421C111.462 76.0146 108.398 77.4478 104.845 77.2937C103.223 77.2234 101.625 76.5929 99.9805 76.1654C96.5237 74.1592 94.2279 71.2264 92.738 67.6479C92.102 66.1201 91.6683 64.5082 91.1427 62.9344ZM108.031 48.3793C108.032 49.3467 108.494 49.7861 109.356 49.4535C111.662 48.5627 113.535 49.2543 115.214 50.8704C115.63 51.2709 116.076 51.6395 116.598 52.1019C116.644 51.8031 116.699 51.6764 116.675 51.5665C116.296 49.8027 115.414 48.3661 113.683 47.7107C111.773 46.9877 109.865 47.0638 108.031 48.3793ZM99.599 49.5991C100.17 49.0948 100.225 48.5218 99.5716 48.1219C96.8394 46.449 93.3041 46.6729 91.847 50.6203C91.7839 50.7913 91.8141 50.9968 91.7898 51.3441C92.5304 50.7976 93.1323 50.3579 93.7294 49.9119C95.2291 48.7916 96.7933 48.5681 98.4822 49.4997C98.757 49.6514 99.1351 49.616 99.599 49.5991ZM111.778 55.4955C111.705 54.8497 111.631 54.2039 111.559 53.5691C112.265 53.3465 112.933 53.1357 113.601 52.9248C113.582 52.8391 113.563 52.7534 113.544 52.6678C112.578 52.5913 111.613 52.4702 110.647 52.4681C110.389 52.4676 110.005 52.7765 109.892 53.0361C109.136 54.7673 109.209 56.5241 109.932 58.2465C110.034 58.4878 110.413 58.8007 110.611 58.7674C110.883 58.7216 111.25 58.4171 111.322 58.1539C111.544 57.3439 111.644 56.5008 111.778 55.4955ZM99.0918 54.2594C98.6366 52.4667 97.4721 51.9985 95.1194 52.8005C95.8787 53.0542 96.4907 53.2587 97.0614 53.4493C97.0614 54.8554 96.9964 56.2651 97.0997 57.6624C97.132 58.1005 97.6171 58.5052 97.8949 58.9252C98.1862 58.5459 98.6529 58.2008 98.7348 57.7807C98.9491 56.6807 98.9955 55.5481 99.0918 54.2594ZM102.154 64.0196C102.743 64.4637 103.438 64.4819 103.865 63.9613C104.545 63.1321 105.061 62.1658 105.616 61.2395C105.67 61.1497 105.513 60.9338 105.454 60.7765C105.299 60.8909 105.086 60.9725 104.998 61.1256C104.653 61.7229 104.421 62.4017 104 62.9334C103.728 63.2766 103.2 63.4166 102.786 63.6476C102.566 63.2195 102.142 62.7822 102.161 62.365C102.247 60.4568 102.436 58.552 102.636 56.651C102.705 55.9936 102.913 55.3508 103.057 54.7013C102.941 54.6522 102.826 54.6031 102.71 54.5541C102.541 54.8585 102.277 55.1461 102.219 55.4703C101.912 57.1974 101.588 58.9267 101.406 60.6694C101.289 61.781 101.243 62.9511 102.154 64.0196ZM105.062 68.689C106.725 68.2424 108.102 67.3822 109.104 65.8299C105.306 68.9119 101.631 69.6684 98.0663 65.4982C97.9891 66.3047 98.5061 66.7965 99.0033 67.2337C100.706 68.7316 102.723 69.0943 105.062 68.689ZM124.079 59.022C124.114 59.6976 124.148 60.3733 124.183 61.0489C125.262 59.855 124.632 58.7525 124.119 57.5603C125.001 57.3201 125.781 57.1078 126.65 56.8715C125.082 55.8669 121.212 58.1262 120.96 60.27C121.359 59.9642 121.646 59.7859 121.88 59.5536C122.19 59.2454 122.428 58.8607 122.752 58.5703C123.288 58.0895 123.765 58.0926 124.079 59.022ZM93.3626 62.1257C93.7054 61.9654 94.0482 61.8051 94.4477 61.6182C93.5441 60.8241 92.1432 60.9831 91.1809 62.1075C91.9922 62.1337 92.6009 62.1534 93.3626 62.1257ZM117.313 61.4465C116.586 61.3102 115.831 60.9771 115.169 61.6883C116.084 62.5209 117.358 62.6535 118.223 61.986C117.951 61.803 117.705 61.6378 117.313 61.4465ZM117.859 59.4011C116.808 58.985 115.909 59.2993 114.795 59.9982C115.913 60.4574 116.766 60.432 117.604 60.0369C117.772 59.9576 117.848 59.6817 117.859 59.4011ZM93.82 59.3961C93.2397 59.2647 92.6642 59.0863 92.0767 59.0261C91.8555 59.0034 91.6061 59.2546 91.3696 59.3809C91.5305 59.5815 91.6661 59.9225 91.857 59.9569C92.4895 60.0707 93.1419 60.0899 93.7867 60.0907C93.8411 60.0908 93.8961 59.6837 93.82 59.3961Z" fill="#F5B7AC"/>
<path d="M88.0827 33.8827C88.1846 32.9803 88.4237 32.2892 89.4034 32.0993C89.6012 32.061 89.7782 31.6521 89.8725 31.3818C91.4593 26.8307 93.9892 22.9844 98.1295 20.2544C100.321 19.3756 102.482 18.5505 104.706 17.7963C104.25 18.3054 103.715 18.7255 103.216 19.1845C100.409 21.7636 98.7045 25.0268 97.4973 28.5738C97.3447 29.022 97.3709 29.7438 97.6387 30.0831C98.4899 31.1619 99.7236 31.4103 101.033 31.1305C102.099 30.9031 102.726 30.1876 103.142 29.1793C103.891 27.364 104.61 25.5191 105.559 23.8074C106.946 21.3063 109.077 19.6163 111.809 18.6508C113.492 18.0558 115.205 18.08 116.934 18.0713C125.127 19.5862 131.292 26.2952 132.069 34.5541C132.158 35.4912 132.201 36.4325 132.231 37.5143C131.02 38.147 129.884 38.821 128.66 39.0891C126.136 39.6418 123.567 39.9959 121.007 40.3705C120.791 40.402 120.403 40.023 120.276 39.7504C119.84 38.8154 119.486 37.8428 119.1 36.8845C118.997 36.9097 118.895 36.9348 118.792 36.96C118.921 38.4935 119.05 40.0271 119.178 41.6312C119.167 41.7632 119.18 41.8472 119.145 41.8827C118.068 42.9679 115.849 43.2093 114.568 42.3534C114.401 42.2421 114.353 41.9536 114.251 41.6624C114.359 40.2663 114.466 38.9548 114.573 37.6434C114.459 37.6245 114.345 37.6057 114.231 37.5869C113.914 38.3506 113.55 39.0993 113.294 39.8831C113.105 40.4608 112.811 40.6537 112.206 40.6303C109.784 40.5368 107.357 40.5587 104.94 40.4122C101.906 40.2283 98.865 40.0291 95.8539 39.6331C93.4092 39.3117 90.9385 38.9326 88.7411 37.6317C88.4156 37.4391 87.9577 37.4701 87.561 37.3977C87.7369 36.2515 87.9128 35.1053 88.0827 33.8827ZM126.375 32.6C126.438 33.7568 126.483 34.9153 126.585 36.0685C126.603 36.264 126.864 36.5881 127.027 36.5969C128.559 36.6794 129.07 36.0552 128.751 34.5709C128.705 34.3575 128.682 34.1392 128.648 33.9234C128.099 30.5192 127.116 27.2765 125.015 24.4742C124.472 23.7496 123.826 23.1019 123.227 22.4188C123.534 23.5602 124.129 24.5226 124.456 25.5686C125.166 27.833 125.738 30.1402 126.375 32.6Z" fill="#FFBE01"/>
<path d="M119.861 81.4882C119.472 77.2603 119.006 73.037 118.759 68.8009C118.708 67.9127 119.496 66.9882 119.843 66.0604C120.138 65.2739 120.538 64.957 121.483 64.966C123.545 64.9854 125.219 63.9614 126.592 62.47C128.211 60.7119 129.359 58.7098 129.427 56.2551C129.503 53.4896 127.541 52.1311 124.897 53.0677C123.431 53.587 122.433 54.6763 121.565 55.892C121.047 56.6177 120.615 57.4054 120.02 58.368C119.043 53.6616 118.834 49.1393 119.251 44.4603C121.756 43.9101 124.185 43.3675 126.643 43.0842C128.54 42.8656 130.474 42.9723 132.391 42.9343C133.157 48.3157 132.083 53.499 130.877 58.7092C129.403 65.0831 129.88 71.3385 132.78 77.3044C132.97 77.696 133.19 78.0732 133.443 78.544C130.29 79.8946 127.087 80.9498 123.681 81.791C123.174 81.7247 122.787 81.6276 122.338 81.4961C121.47 81.3319 120.654 80.3986 119.861 81.4882Z" fill="#293242"/>
<path d="M148.367 97.0343C148.762 97.0981 149.17 97.2606 149.55 97.2095C151.964 96.8841 154.374 96.5289 156.78 96.1468C157.847 95.9773 157.92 96.0631 158.02 97.1218C158.278 99.8583 158.605 102.588 158.902 105.321C159.111 107.247 159.316 109.174 159.521 111.101C159.587 111.722 159.649 112.344 159.632 113.05C157.014 113.452 154.477 113.771 151.929 114.011C151.74 112.409 151.551 110.885 151.383 109.36C151.219 107.87 151.077 106.378 150.912 104.756C150.021 104.868 149.191 104.959 148.366 105.078C145.141 105.546 141.917 106.029 138.691 106.495C135.341 106.979 131.991 107.462 128.638 107.921C126.372 108.232 124.1 108.501 121.831 108.706C121.804 108.378 121.788 108.13 121.748 107.885C121.392 105.716 121.033 103.548 120.742 101.343C123.612 100.887 126.415 100.468 129.297 100.059C131.186 99.8172 132.994 99.569 134.802 99.3111C139.104 98.6974 143.405 98.0843 147.704 97.4487C147.94 97.4138 148.147 97.1771 148.367 97.0343Z" fill="#D4D9E5"/>
<path d="M40.3584 101.405C50.77 101.401 61.1816 101.399 71.5933 101.389C71.9964 101.388 72.3995 101.314 72.9141 101.313C74.7082 101.355 76.3909 101.358 78.1602 101.374C78.9459 101.401 79.6451 101.416 80.3451 101.513C80.536 103.914 80.7259 106.233 80.8281 108.565C67.5479 108.449 54.3553 108.321 41.1443 108.158C41.1259 108.122 41.0941 108.049 41.1094 107.967C40.8692 105.725 40.6138 103.565 40.3584 101.405Z" fill="#FFFFFE"/>
<path d="M18.2019 113.322C18.0226 111.837 17.8187 110.354 17.6694 108.866C17.4036 106.215 17.1557 103.563 16.9301 100.908C16.7978 99.3523 16.7233 97.7914 16.6138 96.0933C17.6677 96.2958 18.7005 96.4642 19.7192 96.6947C26.4813 98.2251 33.2403 99.7687 40.0001 101.309C40.0299 101.316 40.0564 101.337 40.1466 101.468C40.3287 103.728 40.4485 105.87 40.4915 108.013C34.895 107.02 29.3753 106.026 23.765 105.016C24.0147 108.243 24.2561 111.361 24.4157 114.477C24.0573 114.435 23.7782 114.408 23.5042 114.355C21.7362 114.014 19.9693 113.667 18.2019 113.322Z" fill="#D5D9E5"/>
<path d="M132.468 42.9142C130.474 42.9722 128.54 42.8656 126.644 43.0842C124.185 43.3675 121.756 43.91 119.252 44.3762C116.959 44.929 114.743 45.5241 112.494 45.9474C108.432 46.7122 104.325 47.0616 100.195 46.6917C97.4774 46.4483 94.7726 46.0605 91.987 45.7423C90.3033 45.2429 88.6937 44.7406 87.0865 44.2309C86.9089 44.1746 86.741 44.0831 86.5751 43.9956C85.3365 43.3428 84.0572 42.6774 84.0407 41.0321C84.0244 39.4127 85.2348 38.6593 86.5452 37.9981C86.7925 38.1445 86.9339 38.2708 87.0989 38.3444C89.5206 39.4264 92.0332 40.1674 94.6818 40.4543C98.446 40.8621 102.197 41.434 105.97 41.7103C108.716 41.9114 111.489 41.748 114.25 41.7471C114.353 41.9536 114.401 42.2421 114.568 42.3534C115.849 43.2093 118.068 42.9679 119.145 41.8827C119.18 41.8472 119.167 41.7632 119.263 41.6315C122.758 41.3083 126.142 40.8838 129.43 39.9249C130.711 39.5514 131.941 39.0022 133.194 38.533C133.596 39.1622 134.095 39.7505 134.378 40.4292C134.969 41.8464 134.437 42.5114 132.468 42.9142Z" fill="#FEAB02"/>
<path d="M45.5111 182.429C42.6208 181.736 39.733 181.033 36.8396 180.353C34.7329 179.859 32.6232 179.375 30.5052 178.932C29.9192 178.809 29.6978 178.532 29.5581 177.964C28.3977 173.245 27.1989 168.537 26.001 163.751C25.993 163.645 25.9958 163.613 26.0829 163.538C28.1988 163.868 30.2302 164.242 32.2939 164.628C32.3261 164.641 32.3931 164.661 32.4017 164.737C33.1505 167.797 33.8657 170.786 34.6673 173.752C34.7514 174.063 35.3182 174.373 35.7075 174.451C38.0129 174.909 40.3316 175.301 42.6467 175.711C45.3626 176.192 48.0794 176.667 50.8221 177.181C50.8903 177.261 50.9373 177.298 50.9899 177.405C51.6227 179.636 52.2551 181.791 52.8098 183.946C52.5175 183.91 52.3016 183.88 52.0891 183.835C49.8961 183.368 47.7037 182.898 45.5111 182.429Z" fill="#D5D9E5"/>
<path d="M129.217 100.048C126.414 100.468 123.612 100.887 120.683 101.336C120.479 101.38 120.402 101.394 120.235 101.403C118.307 101.386 116.469 101.375 114.665 101.302C115.251 99.1963 115.805 97.1536 116.434 95.1252C119.545 95.5821 122.592 95.952 125.607 96.5027C126.805 96.7217 127.236 96.3626 127.565 95.2833C128.017 93.8 128.655 92.3732 129.263 90.793C125.612 90.3321 122.109 89.89 118.607 89.3744C118.964 88.4077 119.258 87.4835 119.688 86.6278C120.553 84.9089 121.492 83.2274 122.4 81.5305C122.787 81.6276 123.174 81.7247 123.625 81.8364C127.541 83.179 131.405 84.474 135.234 85.8633C135.988 86.1366 136.609 86.7739 137.237 87.3013C135.254 86.9066 134.174 87.2336 133.428 88.6146C131.477 92.2217 130.024 96.0175 129.217 100.048Z" fill="#FE720F"/>
<path d="M159.855 114.046C160.692 120.129 161.53 126.212 162.362 132.439C162.167 132.917 161.979 133.251 161.792 133.584C161.794 133.583 161.796 133.578 161.743 133.618C161.475 134.225 161.051 134.814 161.107 135.354C161.155 135.827 161.743 136.244 162.118 136.72C161.768 137.007 161.31 137.382 160.773 137.757C158.86 137.998 157.025 138.239 155.182 138.402C154.798 135.908 154.377 133.498 154.057 131.076C153.35 125.734 152.694 120.386 152.092 115.033C154.73 114.699 157.292 114.373 159.855 114.046Z" fill="#D5D9E5"/>
<path d="M129.297 100.059C130.024 96.0175 131.478 92.2217 133.428 88.6145C134.175 87.2335 135.254 86.9066 137.259 87.3584C140.058 88.4449 142.775 89.6139 144.734 91.8635C146.081 93.4104 147.115 95.2302 148.328 96.9812C148.147 97.1771 147.94 97.4138 147.704 97.4487C143.405 98.0842 139.103 98.6974 134.802 99.3111C132.994 99.569 131.186 99.8172 129.297 100.059Z" fill="#14397F"/>
<path d="M165.742 152.253C166.172 154.57 166.567 156.82 166.976 159.069C167.122 159.869 167.301 160.664 167.386 161.538C166.262 161.78 165.22 161.96 164.173 162.107C162.634 162.322 161.092 162.514 159.539 162.642C159.084 160.323 158.607 158.085 158.205 155.833C157.228 150.373 156.286 144.907 155.345 139.403C155.359 139.362 155.384 139.28 155.466 139.277C156.999 139.087 158.45 138.901 159.893 138.777C159.698 139.169 159.512 139.497 159.328 139.828C159.33 139.83 159.331 139.825 159.273 139.825C159.128 139.892 159.04 139.957 158.953 140.021C158.954 140.021 158.956 140.019 158.909 140.052C158.824 140.19 158.785 140.295 158.7 140.423C158.504 140.684 158.354 140.923 158.176 141.223C158.226 141.559 158.304 141.834 158.384 142.106C158.386 142.102 158.379 142.102 158.396 142.147C158.467 142.228 158.521 142.263 158.574 142.295C158.573 142.292 158.567 142.295 158.584 142.367C159.197 142.543 159.793 142.647 160.406 142.753C160.179 143.093 159.94 143.451 159.644 143.84C159.403 144.161 159.209 144.445 159.036 144.742C158.531 145.61 158.639 145.97 159.596 146.447C159.812 146.459 159.963 146.469 160.12 146.48C159.971 146.88 159.838 147.237 159.708 147.594C159.712 147.594 159.712 147.587 159.672 147.607C159.585 147.663 159.553 147.711 159.54 147.835C159.847 148.177 160.152 148.454 160.508 148.781C161.464 148.644 162.388 148.522 163.268 148.254C164.809 147.784 164.798 147.746 165.207 149.314C165.375 150.271 165.544 151.228 165.742 152.253Z" fill="#D4D9E5"/>
<path d="M25.8286 162.572C25.1261 159.173 24.4093 155.777 23.7264 152.374C23.2779 150.138 22.8783 147.893 22.428 145.503C22.2695 144.312 22.1399 143.271 21.9927 142.088C22.9719 142.088 23.8137 142.088 24.7188 142.067C25.3888 141.734 25.9165 141.386 25.4275 140.52C25.2081 140.152 24.9957 139.853 24.7481 139.503C24.9443 139.481 25.0953 139.463 25.32 139.457C26.1002 139.588 26.8065 139.708 27.5502 139.852C27.6307 139.92 27.6673 139.968 27.6958 140.101C27.7528 140.554 27.8056 140.926 27.8716 141.296C28.8017 146.517 29.7159 151.74 30.6734 156.956C31.0869 159.208 31.5907 161.444 31.9747 163.687C29.8734 163.316 27.851 162.944 25.8286 162.572Z" fill="#D5D9E5"/>
<path d="M80.3439 101.43C79.6447 101.416 78.9456 101.401 78.1729 101.309C78.3752 100.631 78.6221 100.017 78.9316 99.4353C81.1008 95.3617 83.2828 91.295 85.4607 87.2261C86.0298 86.7684 86.5358 86.1755 87.1785 85.8755C90.6166 84.2707 94.0816 82.7198 97.8765 81.9243C97.8281 82.243 97.7173 82.4986 97.5811 82.7397C96.3794 84.8665 95.1731 86.9908 93.8895 89.1072C91.0855 89.5242 88.3643 89.9802 85.6318 90.3526C85.0021 90.4384 84.6724 90.7289 84.4207 91.2246C83.7378 92.569 83.0577 93.9149 82.3844 95.2642C82.2691 95.4952 82.1927 95.7455 82.0439 96.1262C82.5512 96.065 82.8881 96.0283 83.2238 95.9833C85.7401 95.6458 88.2561 95.3067 90.7713 95.0426C90.6891 95.4167 90.631 95.725 90.5225 96.0145C89.8536 97.7998 89.1734 99.5809 88.4089 101.377C85.73 101.403 83.1391 101.417 80.497 101.422C80.412 101.419 80.3779 101.425 80.3439 101.43Z" fill="#FE720F"/>
<path d="M19.7321 127.115C19.4318 124.724 19.1174 122.334 18.836 119.94C18.6128 118.042 18.4301 116.138 18.3042 114.169C20.4634 114.541 22.5478 114.983 24.6502 115.463C24.6682 115.502 24.6972 115.583 24.6869 115.666C25.0456 119.114 25.3795 122.483 25.7921 125.842C26.3346 130.258 26.9389 134.667 27.5127 139.073C27.5088 139.069 27.4973 139.065 27.4254 139.065C26.8981 138.94 26.4427 138.816 25.9811 138.625C25.5365 138.036 25.0982 137.512 24.6319 136.932C24.2336 136.562 23.8634 136.249 23.6123 136.037C24.1415 135.733 24.6919 135.416 25.2391 135.098C25.2358 135.098 25.2369 135.104 25.304 135.09C25.3839 134.709 25.3967 134.341 25.3866 133.915C25.0723 133.64 24.781 133.423 24.4567 133.157C24.315 133.075 24.2061 133.041 24.098 133.011C24.0987 133.014 24.1057 133.012 24.0965 132.948C22.8567 132.044 21.626 131.204 20.3932 130.363C21.6244 129.344 21.4394 128.222 19.9324 127.52C19.9325 127.524 19.9398 127.522 19.9355 127.462C19.8648 127.307 19.7984 127.211 19.7321 127.115Z" fill="#D4D9E5"/>
<path d="M99.9232 79.0561C99.8917 79.8138 99.8602 80.5716 99.7468 81.4055C99.5476 81.4892 99.4303 81.4967 99.3131 81.5042C99.0431 81.372 98.785 81.2013 98.5013 81.1133C94.1257 79.7562 90.4262 77.3871 87.5232 73.8179C87.3448 73.5985 87.1663 73.3787 86.9964 73.1527C86.941 73.0789 86.9128 72.9847 87.1162 72.9926C88.4331 69.6786 89.75 66.3645 91.1047 62.9925C91.6681 64.5081 92.1018 66.1201 92.7379 67.6479C94.2277 71.2264 96.5235 74.1592 99.9591 76.247C99.9567 77.2719 99.9399 78.164 99.9232 79.0561Z" fill="#293242"/>
<path d="M116.904 18.0136C115.205 18.08 113.492 18.0558 111.808 18.6508C109.077 19.6163 106.946 21.3064 105.559 23.8074C104.61 25.5192 103.891 27.364 103.142 29.1793C102.726 30.1876 102.098 30.9031 101.033 31.1305C99.7233 31.4103 98.4896 31.162 97.6385 30.0831C97.3707 29.7438 97.3445 29.022 97.4971 28.5738C98.7043 25.0268 100.409 21.7636 103.215 19.1845C103.715 18.7256 104.25 18.3054 104.779 17.8037C105.969 17.3226 107.122 16.7936 108.333 16.5112C110.761 15.9452 113.201 15.933 115.537 16.9586C116.033 17.1764 116.431 17.6177 116.904 18.0136Z" fill="#FEAB02"/>
<path d="M19.9321 127.517C21.4392 128.222 21.6241 129.344 20.393 130.363C21.6257 131.204 22.8564 132.044 24.0242 132.949C23.2194 133.106 22.936 133.675 23.0126 134.26C23.0545 134.581 23.5451 134.959 23.912 135.089C24.3075 135.228 24.7949 135.107 25.2422 135.099C24.6917 135.416 24.1412 135.733 23.6121 136.037C23.8631 136.249 24.2334 136.562 24.566 136.938C24.2058 137.431 23.8833 137.86 23.5607 138.289C23.9988 138.605 24.4309 138.93 24.8798 139.229C24.9715 139.291 25.1261 139.257 25.25 139.312C25.2482 139.357 25.2463 139.446 25.2463 139.446C25.0953 139.463 24.9444 139.481 24.7482 139.503C24.9958 139.853 25.2081 140.152 25.3676 140.491C25.0148 140.361 24.7313 140.132 24.4094 140.046C24.1587 139.978 23.7449 139.985 23.6023 140.141C22.9312 140.874 23.1405 141.52 24.0716 141.813C24.2749 141.877 24.4613 141.995 24.6555 142.088C23.8137 142.088 22.9719 142.088 21.9927 142.088C22.14 143.271 22.2696 144.312 22.3978 145.437C21.6023 144.7 20.8214 143.867 20.0106 143.063C19.1993 142.259 18.3581 141.486 17.551 140.6C17.5152 140.233 17.4555 139.965 17.4019 139.695C17.19 138.629 17.6893 138.103 18.7455 138.309C19.6498 138.486 20.5476 138.696 21.4482 138.891C21.0099 138.534 20.4956 138.401 20.0357 138.163C18.9719 137.613 17.9345 137.012 16.8864 136.431C16.8864 136.431 16.8985 136.422 16.8976 136.381C16.8276 136.313 16.7585 136.285 16.6894 136.257C15.8109 134.889 15.9164 134.165 17.178 133.066C16.5151 132.215 16.3224 131.305 16.7478 130.252C16.846 130.009 16.6192 129.553 16.4195 129.288C15.9206 128.623 15.7818 127.917 16.0612 127.16C16.5524 125.828 17.95 125.522 18.999 126.49C19.2069 126.682 19.413 126.875 19.6759 127.092C19.7982 127.211 19.8645 127.307 19.8618 127.455C19.5192 127.451 19.2425 127.335 18.973 127.35C18.3744 127.383 17.6442 128.31 17.8961 128.857C18.0547 129.201 18.5996 129.474 19.0167 129.561C19.3855 129.638 20.0785 128.006 19.9321 127.517ZM22.0203 139.038C22.0968 139.021 22.1733 139.003 22.2499 138.985C22.2329 138.963 22.2132 138.919 22.1995 138.921C22.1218 138.931 22.0456 138.953 22.0203 139.038Z" fill="#F5B7AC"/>
<path d="M165.259 149.274C164.798 147.746 164.809 147.784 163.268 148.254C162.389 148.522 161.464 148.644 160.583 148.78C160.728 148.705 160.879 148.721 160.968 148.653C161.315 148.391 161.844 148.146 161.918 147.81C161.985 147.505 161.61 146.868 161.314 146.784C160.994 146.693 160.534 147.06 160.147 147.253C159.984 147.334 159.852 147.479 159.705 147.594C159.838 147.237 159.971 146.88 160.12 146.48C159.963 146.469 159.812 146.459 159.635 146.398C160.067 145.923 160.525 145.499 160.983 145.074C160.556 144.652 160.128 144.231 159.701 143.809C159.94 143.451 160.179 143.093 160.406 142.753C159.794 142.647 159.197 142.543 158.662 142.365C159.263 142.09 159.853 141.961 160.32 141.649C160.499 141.529 160.545 140.893 160.392 140.666C160.152 140.308 159.692 140.098 159.325 139.825C159.512 139.497 159.698 139.169 159.948 138.748C160.292 138.356 160.572 138.056 160.853 137.757C161.31 137.382 161.768 137.007 162.119 136.72C161.743 136.244 161.156 135.827 161.107 135.354C161.051 134.814 161.475 134.225 161.743 133.691C162.221 134.293 162.639 134.866 163.081 135.419C163.124 135.474 163.319 135.429 163.435 135.399C164.201 135.2 164.449 134.543 164.02 133.875C163.391 132.898 162.587 133.272 161.791 133.584C161.979 133.251 162.168 132.917 162.365 132.52C163.636 131.212 164.686 131.189 165.596 132.385C166.171 133.139 165.976 133.903 165.672 134.697C165.569 134.965 165.5 135.41 165.644 135.579C166.391 136.452 166.245 137.366 165.906 138.351C166.858 138.736 167.486 139.367 167.285 140.577C166.631 141.931 165.934 143.08 164.705 143.83C164.155 144.165 163.647 144.57 163.078 144.963C162.982 145.02 162.947 145.07 162.874 145.136C162.729 145.2 162.641 145.261 162.508 145.324C162.411 145.348 162.359 145.369 162.307 145.391C162.323 145.414 162.339 145.437 162.355 145.461C162.421 145.414 162.486 145.367 162.607 145.316C162.753 145.252 162.841 145.192 162.972 145.112C163.068 145.055 163.103 145.005 163.191 144.942C163.823 144.671 164.394 144.42 164.942 144.125C166.668 143.197 167.266 143.548 167.289 145.522C167.29 145.585 167.294 145.647 167.296 145.71C167.296 145.71 167.287 145.702 167.24 145.738C167.165 145.897 167.136 146.02 167.108 146.143C166.509 147.173 165.91 148.203 165.259 149.274Z" fill="#F5B7AC"/>
<path d="M85.3915 87.2267C83.2832 91.295 81.1011 95.3617 78.932 99.4352C78.6225 100.017 78.3755 100.631 78.0866 101.296C76.3909 101.358 74.7083 101.355 72.9844 101.279C73.4502 99.7257 73.8594 98.2025 74.4822 96.7724C76.5219 92.0891 80.2087 89.1819 84.8802 87.3884C85.0265 87.3322 85.1746 87.2808 85.3915 87.2267Z" fill="#153A80"/>
<path d="M99.2438 81.5264C99.4306 81.4967 99.5478 81.4892 99.7233 81.4896C99.6936 82.0259 99.7073 82.6001 99.4948 83.0727C99.1381 83.8661 98.6375 84.5948 98.1136 85.4418C98.0064 85.6476 97.9833 85.7624 97.9601 85.8772C97.9601 85.8772 97.9598 85.8638 97.9007 85.8744C94.9195 90.8335 92.3787 95.9654 90.3051 101.376C89.6457 101.381 89.0714 101.372 88.4971 101.363C89.1735 99.5809 89.8538 97.7998 90.5227 96.0145C90.6311 95.725 90.6892 95.4167 90.8351 95.0253C91.0605 94.715 91.2557 94.514 91.377 94.2754C92.2492 92.5598 93.1064 90.8365 93.9684 89.1157C95.1733 86.9908 96.3795 84.8665 97.5812 82.7397C97.7175 82.4986 97.8283 82.243 97.9537 81.9243C98.3624 81.7524 98.7684 81.6505 99.2438 81.5264Z" fill="#F1630D"/>
<path d="M114.251 41.6624C111.489 41.748 108.716 41.9114 105.97 41.7103C102.197 41.434 98.4461 40.8621 94.6819 40.4543C92.0333 40.1674 89.5207 39.4264 87.0989 38.3444C86.934 38.2708 86.7926 38.1445 86.6094 37.9796C86.8674 37.7604 87.1562 37.6043 87.5031 37.4229C87.9577 37.4701 88.4156 37.4391 88.7411 37.6317C90.9385 38.9326 93.4092 39.3117 95.8539 39.6331C98.865 40.0291 101.906 40.2283 104.94 40.4122C107.357 40.5587 109.784 40.5368 112.206 40.6303C112.811 40.6537 113.105 40.4608 113.294 39.8831C113.55 39.0993 113.914 38.3506 114.231 37.5869C114.345 37.6057 114.459 37.6245 114.573 37.6434C114.466 38.9548 114.359 40.2663 114.251 41.6624Z" fill="#FE9901"/>
<path d="M133.177 38.4729C131.941 39.0022 130.711 39.5514 129.43 39.9249C126.142 40.8838 122.758 41.3083 119.265 41.5609C119.05 40.0271 118.921 38.4935 118.792 36.96C118.895 36.9348 118.997 36.9097 119.1 36.8845C119.485 37.8428 119.84 38.8154 120.276 39.7504C120.403 40.023 120.791 40.402 121.007 40.3705C123.567 39.9959 126.136 39.6418 128.66 39.0891C129.884 38.821 131.02 38.147 132.232 37.5994C132.565 37.8324 132.862 38.1226 133.177 38.4729Z" fill="#FE9901"/>
<path d="M159.864 113.977C157.292 114.373 154.73 114.7 152.072 115.029C151.976 115.033 151.934 115.024 151.941 114.95C151.94 114.679 151.931 114.482 151.926 114.236C151.933 114.154 151.936 114.122 151.939 114.089C154.477 113.771 157.014 113.452 159.632 113.132C159.765 113.39 159.819 113.65 159.864 113.977Z" fill="#AFB3BF"/>
<path d="M24.6318 115.425C22.5474 114.983 20.463 114.541 18.3059 114.088C18.2237 113.875 18.2142 113.674 18.2031 113.398C19.969 113.667 21.7359 114.014 23.5039 114.355C23.7779 114.408 24.0569 114.435 24.4342 114.513C24.5661 114.598 24.6087 114.63 24.6576 114.725C24.6459 115.01 24.6388 115.217 24.6318 115.425Z" fill="#AFB3BF"/>
<path d="M25.8237 162.639C27.8511 162.944 29.8735 163.316 31.9953 163.727C32.1286 163.818 32.1746 163.855 32.233 163.95C32.2427 164.221 32.2523 164.418 32.2618 164.615C30.2303 164.242 28.1989 163.868 26.09 163.491C25.9479 163.227 25.8834 162.966 25.8237 162.639Z" fill="#AFB3BF"/>
<path d="M167.362 145.68C167.294 145.647 167.289 145.585 167.289 145.522C167.266 143.548 166.668 143.197 164.941 144.125C164.394 144.42 163.823 144.671 163.191 144.942C163.647 144.57 164.154 144.165 164.704 143.83C165.934 143.08 166.631 141.931 167.238 140.625C167.259 140.833 167.282 141.103 167.183 141.319C166.781 142.201 166.502 142.964 167.396 143.831C167.705 144.13 167.435 145.026 167.362 145.68Z" fill="#EC9E92"/>
<path d="M16.8969 136.498C17.9344 137.012 18.9718 137.613 20.0356 138.163C20.4955 138.401 21.0097 138.534 21.4481 138.891C20.5474 138.696 19.6497 138.486 18.7454 138.309C17.6892 138.103 17.1899 138.629 17.4018 139.695C17.4554 139.965 17.5151 140.233 17.5247 140.542C16.9743 139.991 16.6525 139.281 17.0819 138.598C17.5785 137.808 17.4131 137.204 16.8969 136.498Z" fill="#EC9E92"/>
<path d="M40.5681 108.013C40.4483 105.87 40.3285 103.728 40.2144 101.501C40.22 101.417 40.289 101.408 40.3236 101.406C40.6136 103.565 40.8691 105.725 41.0578 107.967C40.9224 108.049 40.8538 108.05 40.7311 108.04C40.6408 108.024 40.6045 108.018 40.5681 108.013Z" fill="#AFB3BF"/>
<path d="M167.155 146.1C167.136 146.02 167.164 145.897 167.246 145.738C167.267 145.821 167.235 145.939 167.155 146.1Z" fill="#EC9E92"/>
<path d="M16.7129 136.298C16.758 136.285 16.8263 136.313 16.8924 136.387C16.8247 136.425 16.7733 136.393 16.7129 136.298Z" fill="#EC9E92"/>
<path d="M179.402 49.8952C179.402 53.8283 179.402 57.6672 179.402 61.6766C177.032 60.0634 174.76 60.1646 172.395 61.6067C172.395 61.068 172.395 60.6678 172.395 60.2676C172.395 56.2285 172.411 52.1892 172.38 48.1503C172.375 47.4465 172.573 47.2149 173.286 47.2342C174.99 47.2805 176.696 47.2849 178.399 47.2349C179.21 47.2112 179.477 47.5209 179.411 48.287C179.367 48.7882 179.402 49.2961 179.402 49.8952Z" fill="#FFFEF2"/>
<path d="M180.343 37.9638C180.343 39.3086 180.343 40.5587 180.343 41.9165C178.903 40.4074 177.562 39.0032 176.188 37.5635C177.44 36.4139 178.868 35.1034 180.343 33.7486C180.343 35.0705 180.343 36.4698 180.343 37.9638Z" fill="#FEFDEF"/>
<path d="M172.443 40.2785C171.84 40.9094 171.284 41.4928 170.562 42.2509C170.562 39.1719 170.562 36.3894 170.562 33.816C171.859 35.1095 173.261 36.5082 174.851 38.0935C174.162 38.7171 173.326 39.4741 172.443 40.2785Z" fill="#FEFEF0"/>
<path d="M172.986 42.6902C172.396 42.6902 171.897 42.6902 171.407 42.6902C172.845 41.3134 174.246 39.9721 175.582 38.694C176.726 39.8218 178.104 41.1803 179.636 42.6902C177.377 42.6902 175.228 42.6902 172.986 42.6902Z" fill="#FEFDEF"/>
<path d="M198.493 40.4696C199.233 41.0962 199.927 41.6752 200.62 42.2542C200.531 42.3713 200.442 42.4884 200.353 42.6055C197.647 42.6055 194.941 42.6055 192.208 42.6055C193.637 41.2688 195.055 39.943 196.68 38.4228C197.125 38.9264 197.786 39.6742 198.493 40.4696Z" fill="#FEFEF0"/>
<path d="M186.481 38.8347C187.749 40.0549 188.978 41.2209 190.207 42.3869C190.155 42.4636 190.103 42.5404 190.052 42.6172C187.355 42.6172 184.658 42.6172 181.791 42.6172C181.963 42.3126 182.037 42.0827 182.189 41.9279C183.245 40.8495 184.33 39.7993 185.377 38.7127C185.798 38.2762 186.114 38.3324 186.481 38.8347Z" fill="#FEFEF0"/>
<path d="M160.947 42.5679C161.365 41.9961 161.814 41.4806 162.275 40.9766C162.974 40.2137 163.686 39.4634 164.382 38.6982C164.715 38.3322 165.02 38.2379 165.403 38.6444C166.623 39.9395 167.857 41.2209 169.203 42.6294C166.343 42.6294 163.664 42.6294 160.947 42.5679Z" fill="#FEFEF0"/>
<path d="M191.747 41.7707C191.64 41.7637 191.555 41.7305 191.554 41.695C191.485 39.126 191.422 36.5567 191.366 33.9873C191.364 33.8772 191.439 33.7655 191.463 33.6956C192.93 35.0004 194.379 36.2882 195.928 37.6654C194.43 39.1476 193.118 40.4456 191.747 41.7707Z" fill="#FEFEF0"/>
<path d="M190.772 39.4756C190.772 40.3544 190.772 41.1392 190.772 42.1551C190.208 41.6128 189.76 41.2099 189.344 40.7761C188.519 39.9161 187.694 39.0549 186.913 38.1557C186.759 37.9789 186.667 37.4967 186.78 37.3787C188.032 36.0722 189.33 34.8099 190.772 33.3801C190.772 35.5167 190.772 37.4492 190.772 39.4756Z" fill="#FEFEF1"/>
<path d="M161.931 35.1757C162.514 35.757 163.05 36.2903 163.585 36.8252C164.447 37.6881 164.447 37.6886 163.552 38.5849C162.995 39.1422 162.46 39.7242 161.875 40.2492C161.289 40.7747 160.651 41.243 160.175 41.6251C160.175 39.1758 160.175 36.3873 160.175 33.3332C160.823 34.0146 161.354 34.5715 161.931 35.1757Z" fill="#FFFEF2"/>
<path d="M198.673 34.8801C198.026 35.5293 197.448 36.1569 196.811 36.7164C196.636 36.8696 196.153 36.9554 196.031 36.8401C194.718 35.599 193.45 34.3115 192.03 32.8977C194.946 32.8977 197.627 32.8977 200.648 32.8977C199.878 33.6707 199.299 34.2517 198.673 34.8801Z" fill="#FEFEF1"/>
<path d="M167.811 32.8463C168.267 32.8463 168.635 32.8463 169.271 32.8463C167.831 34.2888 166.568 35.5755 165.268 36.8236C165.141 36.9451 164.686 36.9339 164.553 36.8069C163.264 35.576 162.01 34.3073 160.542 32.8463C163.117 32.8463 165.42 32.8463 167.811 32.8463Z" fill="#FEFEF1"/>
<path d="M188.732 34.4076C187.951 35.1894 187.238 35.9468 186.469 36.6415C186.273 36.8183 185.749 36.9546 185.628 36.8408C184.309 35.6033 183.041 34.3123 181.621 32.8972C184.53 32.8972 187.209 32.8972 190.195 32.8972C189.612 33.4991 189.196 33.9295 188.732 34.4076Z" fill="#FEFEF1"/>
<path d="M175.105 36.9581C173.676 35.7231 172.294 34.533 170.913 33.3429C171.031 33.2007 171.149 33.0585 171.267 32.9163C173.988 32.9163 176.709 32.9163 179.615 32.9163C178.52 34.0412 177.525 35.0601 176.534 36.0832C176.317 36.3067 176.148 36.5899 175.899 36.7632C175.694 36.9063 175.404 36.9278 175.105 36.9581Z" fill="#FEFEF1"/>
<path d="M184.478 38.6741C183.397 39.7738 182.364 40.8258 181.173 42.0371C181.173 39.0685 181.173 36.348 181.173 33.441C181.631 33.8815 182.021 34.2491 182.402 34.6265C183.097 35.3151 183.787 36.008 184.477 36.7019C185.447 37.6776 185.446 37.6787 184.478 38.6741Z" fill="#FEFEF1"/>
<path d="M168.57 34.5072C168.836 34.1084 169.054 33.7577 169.272 33.4069C169.398 33.4972 169.524 33.5876 169.65 33.6779C169.65 36.374 169.65 39.0701 169.65 41.8405C168.275 40.46 166.923 39.1017 165.504 37.6779C166.53 36.6164 167.526 35.5858 168.57 34.5072Z" fill="#FEFEF1"/>
<path d="M174.413 72.0837C173.85 70.8006 174.174 69.7613 175.178 69.4473C176.4 69.065 177.344 69.5517 177.544 70.8476C177.62 71.3368 177.37 72.0896 177 72.3776C176.586 72.6995 175.867 72.7055 175.282 72.698C175.003 72.6945 174.727 72.3425 174.413 72.0837Z" fill="#FEFEF0"/>
<path d="M136.639 196.251C132.999 197.84 129.305 199.026 125.423 199.555C122.524 199.951 119.616 200.213 116.609 199.766C116.465 199.011 116.384 198.358 116.341 197.703C116.203 195.639 116.088 193.574 115.948 191.511C115.771 188.918 115.578 186.326 115.47 183.713C116.743 183.663 117.938 183.618 119.133 183.608C124.013 183.568 128.892 183.539 133.85 183.52C134.708 183.446 135.488 183.361 136.265 183.266C138.878 182.946 141.489 182.622 144.101 182.3C144.57 184.579 145.011 186.864 145.526 189.132C145.672 189.773 145.531 190.165 145.063 190.6C142.57 192.918 139.731 194.709 136.639 196.251Z" fill="#FF720F"/>
<path d="M144.185 182.281C141.489 182.622 138.878 182.946 136.265 183.266C135.487 183.361 134.708 183.446 133.847 183.451C133.777 183.228 133.788 183.089 133.844 182.897C133.663 181.137 133.437 179.43 133.21 177.717C133.208 177.71 133.198 177.703 133.28 177.703C133.551 177.695 133.742 177.703 133.929 177.678C136.788 177.304 139.647 176.922 142.507 176.548C145.026 176.218 147.546 175.902 150.063 175.568C153.699 175.085 157.329 174.552 160.972 174.132C161.81 174.036 161.911 173.702 161.77 173.057C161.087 169.932 160.396 166.81 159.719 163.645C159.73 163.603 159.754 163.521 159.835 163.516C160.29 163.476 160.666 163.451 161.038 163.403C163.24 163.114 165.441 162.82 167.642 162.527C168.344 165.932 169.039 169.339 169.752 172.741C170.092 174.368 170.477 175.984 170.818 177.611C170.891 177.964 170.859 178.34 170.879 178.774C168.252 179.117 165.713 179.453 163.172 179.78C160.967 180.063 158.759 180.327 156.555 180.615C153.917 180.959 151.28 181.32 148.643 181.674C147.185 181.87 145.727 182.066 144.185 182.281Z" fill="#D5D9E5"/>
<path d="M167.646 162.461C165.441 162.82 163.24 163.114 161.038 163.403C160.666 163.451 160.29 163.476 159.82 163.451C159.66 163.232 159.597 163.073 159.537 162.865C159.543 162.782 159.547 162.749 159.551 162.716C161.092 162.514 162.634 162.322 164.173 162.107C165.219 161.96 166.262 161.78 167.383 161.615C167.523 161.874 167.586 162.134 167.646 162.461Z" fill="#AFB3BF"/>
<path d="M90.3901 101.363C92.3786 95.9653 94.9194 90.8335 97.9068 85.8719C97.6234 87.1577 97.1594 88.4393 96.9588 89.7608C96.7632 91.0491 96.6628 92.4015 96.8339 93.684C97.0845 95.5624 98.4072 96.6336 100.305 96.8622C102.923 97.1775 105.293 96.4224 107.528 95.1482C111.095 93.1146 113.849 90.1821 116.497 87.0876C114.464 91.7157 112.82 96.463 111.534 101.378C104.426 101.382 97.4082 101.372 90.3901 101.363Z" fill="#15397F"/>
<path d="M111.624 101.366C112.821 96.463 114.464 91.7157 116.558 87.0667C116.529 86.9981 116.519 87.0028 116.585 87.0099C116.668 86.9353 116.684 86.8536 116.7 86.7719C117.733 85.0536 118.765 83.3353 119.829 81.5526C120.654 80.3986 121.47 81.3319 122.338 81.4961C121.492 83.2274 120.553 84.9089 119.689 86.6278C119.258 87.4835 118.964 88.4077 118.556 89.4186C117.789 91.3945 117.074 93.2527 116.359 95.1108C115.805 97.1536 115.251 99.1963 114.577 101.314C113.512 101.382 112.568 101.374 111.624 101.366Z" fill="#F1630D"/>
<path d="M99.9922 79.0586C99.9402 78.164 99.957 77.2719 99.9951 76.2981C101.625 76.5929 103.223 77.2234 104.845 77.2937C108.398 77.4478 111.462 76.0146 114.049 73.6421C115.491 72.32 116.786 70.8385 118.115 69.4625C118.103 69.5238 118.096 69.7446 118.018 69.9371C116.943 72.6033 115.635 75.1151 113.472 77.1017C111.471 78.9384 109.195 79.9958 106.432 80.0143C104.248 80.0289 102.104 79.9221 99.9922 79.0586Z" fill="#EC9E92"/>
<path d="M108.066 48.3129C109.865 47.0638 111.773 46.9877 113.683 47.7107C115.414 48.3661 116.296 49.8027 116.675 51.5665C116.699 51.6764 116.644 51.8031 116.598 52.1019C116.076 51.6395 115.63 51.2709 115.214 50.8704C113.535 49.2543 111.662 48.5627 109.356 49.4535C108.494 49.7861 108.032 49.3467 108.066 48.3129Z" fill="#2E3544"/>
<path d="M99.5324 49.6331C99.1353 49.616 98.7572 49.6514 98.4824 49.4998C96.7935 48.5681 95.2293 48.7916 93.7296 49.9119C93.1325 50.3579 92.5306 50.7976 91.79 51.3442C91.8144 50.9968 91.7841 50.7913 91.8472 50.6203C93.3043 46.6729 96.8396 46.449 99.5718 48.1219C100.225 48.5218 100.171 49.0948 99.5324 49.6331Z" fill="#2E3544"/>
<path d="M111.785 55.5831C111.644 56.5008 111.544 57.3439 111.322 58.1539C111.25 58.4171 110.883 58.7216 110.611 58.7674C110.413 58.8007 110.034 58.4878 109.932 58.2465C109.209 56.5241 109.136 54.7673 109.892 53.0361C110.006 52.7765 110.389 52.4676 110.647 52.4681C111.613 52.4702 112.578 52.5913 113.544 52.6678C113.563 52.7534 113.582 52.8391 113.601 52.9248C112.933 53.1357 112.265 53.3465 111.559 53.5691C111.632 54.2039 111.705 54.8497 111.785 55.5831Z" fill="#2E3544"/>
<path d="M99.1005 54.3439C98.9957 55.5481 98.9493 56.6807 98.735 57.7807C98.6531 58.2008 98.1864 58.5459 97.8951 58.9252C97.6173 58.5052 97.1322 58.1005 97.0999 57.6624C96.9966 56.2651 97.0616 54.8554 97.0616 53.4493C96.4909 53.2587 95.8789 53.0542 95.1196 52.8005C97.4723 51.9985 98.6368 52.4667 99.1005 54.3439Z" fill="#2E3544"/>
<path d="M102.101 63.9668C101.243 62.9511 101.289 61.781 101.406 60.6694C101.588 58.9267 101.912 57.1974 102.219 55.4703C102.277 55.1461 102.541 54.8585 102.71 54.5541C102.826 54.6032 102.941 54.6522 103.057 54.7013C102.913 55.3508 102.705 55.9936 102.636 56.651C102.436 58.552 102.247 60.4568 102.161 62.365C102.142 62.7823 102.566 63.2196 102.786 63.6476C103.2 63.4166 103.728 63.2766 104 62.9334C104.421 62.4017 104.653 61.7229 104.998 61.1256C105.086 60.9725 105.299 60.8909 105.454 60.7765C105.513 60.9338 105.67 61.1497 105.616 61.2395C105.061 62.1658 104.545 63.1321 103.865 63.9614C103.438 64.4819 102.743 64.4637 102.101 63.9668Z" fill="#E6897A"/>
<path d="M104.987 68.7179C102.723 69.0944 100.706 68.7316 99.0033 67.2337C98.5061 66.7965 97.9891 66.3047 98.0663 65.4982C101.631 69.6684 105.306 68.9119 109.104 65.8299C108.102 67.3822 106.725 68.2424 104.987 68.7179Z" fill="#E6897A"/>
<path d="M124.056 58.9459C123.765 58.0926 123.288 58.0895 122.752 58.5703C122.428 58.8607 122.19 59.2454 121.88 59.5536C121.646 59.7859 121.359 59.9642 120.96 60.27C121.212 58.1261 125.082 55.8669 126.65 56.8715C125.781 57.1078 125.001 57.3201 124.119 57.5603C124.632 58.7525 125.262 59.855 124.183 61.0489C124.148 60.3732 124.114 59.6976 124.056 58.9459Z" fill="#E6897A"/>
<path d="M93.286 62.1494C92.6007 62.1534 91.992 62.1337 91.1807 62.1075C92.143 60.9831 93.5439 60.8241 94.4475 61.6182C94.048 61.8051 93.7052 61.9654 93.286 62.1494Z" fill="#E6897A"/>
<path d="M117.386 61.4595C117.705 61.6378 117.951 61.803 118.223 61.986C117.357 62.6535 116.084 62.5209 115.169 61.6883C115.831 60.9771 116.586 61.3102 117.386 61.4595Z" fill="#E6897A"/>
<path d="M117.912 59.4488C117.848 59.6818 117.772 59.9576 117.604 60.0369C116.766 60.432 115.913 60.4574 114.795 59.9982C115.909 59.2993 116.808 58.985 117.912 59.4488Z" fill="#E6897A"/>
<path d="M93.8854 59.4309C93.8961 59.6837 93.8411 60.0908 93.7867 60.0907C93.1418 60.0899 92.4895 60.0706 91.8569 59.9569C91.6661 59.9225 91.5305 59.5815 91.3696 59.3809C91.6061 59.2546 91.8554 59.0034 92.0766 59.0261C92.6642 59.0863 93.2397 59.2647 93.8854 59.4309Z" fill="#E6897A"/>
<path d="M98.0256 85.8637C97.9831 85.7624 98.0062 85.6476 98.08 85.4984C98.1175 85.5927 98.1043 85.7215 98.0256 85.8637Z" fill="#15397F"/>
<path d="M116.65 86.7938C116.684 86.8536 116.668 86.9353 116.586 87.0153C116.547 86.9476 116.573 86.8817 116.65 86.7938Z" fill="#15397F"/>
<path d="M126.37 32.515C125.738 30.1402 125.165 27.833 124.456 25.5686C124.128 24.5226 123.534 23.5602 123.227 22.4188C123.826 23.1019 124.472 23.7496 125.015 24.4742C127.116 27.2765 128.098 30.5192 128.647 33.9234C128.682 34.1392 128.704 34.3575 128.75 34.5709C129.07 36.0552 128.559 36.6794 127.027 36.5969C126.864 36.5881 126.602 36.264 126.585 36.0685C126.482 34.9153 126.438 33.7568 126.37 32.515Z" fill="#FED801"/>
<path d="M151.929 114.011C151.936 114.122 151.933 114.154 151.847 114.23C151.299 114.335 150.834 114.396 150.369 114.457C147.764 114.796 145.157 115.12 142.554 115.478C139.641 115.878 136.735 116.323 133.823 116.724C130.817 117.137 127.803 117.49 124.801 117.93C123.361 118.14 123.348 118.122 123.142 116.738C122.755 114.141 122.273 111.558 121.832 108.924C121.833 108.879 121.831 108.788 121.831 108.788C124.1 108.501 126.372 108.232 128.638 107.921C131.991 107.462 135.341 106.979 138.691 106.495C141.917 106.029 145.14 105.546 148.366 105.078C149.191 104.959 150.02 104.868 150.912 104.755C151.077 106.378 151.219 107.87 151.383 109.36C151.55 110.885 151.74 112.409 151.929 114.011Z" fill="#8998B9"/>
<path d="M121.831 108.706C121.831 108.788 121.833 108.879 121.758 108.921C121.485 108.969 121.288 108.974 121.087 108.897C120.83 106.346 120.578 103.878 120.325 101.409C120.402 101.394 120.479 101.38 120.615 101.372C121.033 103.548 121.392 105.716 121.748 107.885C121.788 108.13 121.803 108.378 121.831 108.706Z" fill="#AFB3BF"/>
<path d="M41.1626 108.193C54.3552 108.321 67.5478 108.449 80.8296 108.585C80.9188 108.592 80.9226 108.632 80.9231 108.709C81.2417 111.908 81.5598 115.03 81.8873 118.244C68.6227 118.244 55.5476 118.244 42.4693 118.163C42.0316 114.785 41.5971 111.489 41.1626 108.193Z" fill="#A8B4CE"/>
<path d="M41.1441 108.158C41.597 111.489 42.0315 114.785 42.4676 118.235C42.525 118.657 42.5809 118.925 42.6412 119.256C42.6467 119.403 42.6478 119.487 42.6088 119.604C42.6494 119.748 42.7301 119.86 42.8167 120.049C42.8264 120.383 42.8303 120.64 42.7902 120.936C42.8325 121.145 42.9186 121.315 43.0103 121.562C43.0216 121.896 43.0274 122.153 42.9874 122.449C43.0275 122.657 43.1135 122.827 43.1984 123.058C43.1571 123.315 43.117 123.512 43.066 123.777C43.1656 124.004 43.2761 124.164 43.3912 124.397C43.3994 124.668 43.4029 124.865 43.3593 125.105C43.402 125.377 43.4916 125.606 43.5847 125.905C43.5894 126.112 43.5906 126.25 43.5471 126.426C43.5901 126.635 43.6776 126.805 43.77 127.048C43.7757 127.319 43.7766 127.516 43.732 127.757C43.7775 128.03 43.8686 128.258 43.9629 128.556C43.9666 128.763 43.967 128.901 43.9217 129.083C43.9674 129.355 44.0589 129.583 44.1532 129.88C44.157 130.088 44.1579 130.226 44.1126 130.408C44.1577 130.68 44.2491 130.908 44.3433 131.206C44.347 131.413 44.3479 131.551 44.3022 131.733C44.3478 132.005 44.4399 132.233 44.5353 132.53C44.5401 132.737 44.5416 132.876 44.4956 133.057C44.5386 133.329 44.629 133.558 44.7217 133.848C44.7247 133.989 44.7255 134.07 44.6789 134.198C44.7245 134.534 44.8174 134.823 44.9129 135.172C44.9161 135.314 44.9168 135.395 44.8697 135.523C44.9153 135.858 45.0087 136.147 45.1044 136.497C45.1071 136.639 45.1076 136.72 45.0578 136.853C45.1652 137.569 45.3226 138.233 45.4821 138.959C45.4838 139.101 45.4835 139.182 45.4358 139.31C45.4832 139.645 45.5779 139.933 45.6754 140.282C45.6788 140.423 45.6795 140.504 45.6286 140.637C45.6423 141.398 45.6712 142.113 45.7791 142.816C46.2442 145.844 46.7191 148.87 47.2261 151.892C47.307 152.374 47.5699 152.825 47.7527 153.35C47.7568 153.492 47.7567 153.572 47.7076 153.705C47.8157 154.357 47.9729 154.959 48.1324 155.621C48.1353 155.763 48.1358 155.844 48.0901 155.969C48.135 156.241 48.2262 156.469 48.3199 156.759C48.323 156.9 48.3235 156.981 48.2799 157.101C48.3239 157.309 48.4121 157.479 48.505 157.717C48.5105 157.923 48.5113 158.06 48.4682 158.237C48.5138 158.445 48.6032 158.614 48.6972 158.851C48.704 159.058 48.7063 159.195 48.6633 159.372C48.7062 159.58 48.7943 159.749 48.886 159.987C48.8915 160.194 48.8934 160.332 48.8489 160.513C48.8932 160.785 48.984 161.014 49.0775 161.303C49.0808 161.444 49.0814 161.525 49.0381 161.645C49.0824 161.853 49.1708 162.022 49.2636 162.26C49.2711 162.466 49.2743 162.604 49.2325 162.78C49.2758 162.988 49.3639 163.157 49.4554 163.395C49.4626 163.601 49.4666 163.739 49.4297 163.91C49.4727 164.053 49.5565 164.163 49.6438 164.343C49.6476 164.549 49.6477 164.687 49.6092 164.858C49.6524 165.003 49.7342 165.115 49.823 165.3C49.8364 165.569 49.8427 165.764 49.8085 165.992C49.8491 166.137 49.9303 166.248 50.0175 166.434C50.0313 166.703 50.0392 166.899 50.046 167.172C50.1098 167.576 50.1747 167.904 50.2499 168.307C50.3136 168.628 50.373 168.872 50.4197 169.118C50.9402 171.862 51.4587 174.606 51.9777 177.35C51.9777 177.35 51.9487 177.332 51.8786 177.336C51.5356 177.337 51.2626 177.333 50.9896 177.329C50.9374 177.298 50.8904 177.261 50.8236 177.104C50.1149 174.125 49.4472 171.255 48.7228 168.399C48.649 168.108 48.2674 167.741 47.9742 167.683C42.7856 166.65 37.5884 165.66 32.3932 164.661C32.3932 164.661 32.3262 164.641 32.294 164.628C32.2522 164.418 32.2427 164.221 32.315 163.95C35.9373 164.536 39.4783 165.194 43.018 165.859C44.7592 166.186 46.498 166.526 48.3628 166.884C48.3101 166.409 48.2915 166.073 48.2335 165.744C47.4512 161.303 46.6417 156.866 45.8852 152.421C45.4284 149.736 45.0178 147.043 44.6609 144.343C44.5607 143.586 44.1759 143.373 43.5404 143.252C42.0937 142.976 40.6537 142.665 39.2105 142.37C35.373 141.586 31.5353 140.803 27.6977 140.02C27.6674 139.968 27.6307 139.92 27.5525 139.776C27.5106 139.471 27.5038 139.268 27.4971 139.065C27.4971 139.065 27.5085 139.069 27.5864 139.081C29.8722 139.556 32.0806 140.016 34.2879 140.481C37.3848 141.133 40.4805 141.791 43.5778 142.442C44.0357 142.538 44.432 142.503 44.3493 141.868C44.2685 141.248 44.1593 140.632 44.0785 140.011C43.7913 137.808 43.4982 135.605 43.2321 133.4C43.0109 131.565 42.833 129.726 42.6209 127.89C42.3264 125.341 41.9259 122.8 41.7608 120.243C41.6946 119.218 41.3376 118.965 40.4436 118.792C37.2143 118.165 34.0038 117.442 30.7817 116.776C28.7575 116.359 26.7254 115.979 24.6969 115.583C24.6969 115.583 24.668 115.502 24.6499 115.463C24.639 115.217 24.646 115.01 24.7353 114.727C30.3445 115.83 35.8714 117.009 41.501 118.21C41.4249 117.071 41.3584 116.02 41.2837 114.97C41.1197 112.664 40.9516 110.358 40.7851 108.051C40.8538 108.05 40.9224 108.049 41.0425 108.048C41.0939 108.049 41.1257 108.122 41.1441 108.158Z" fill="#727FA1"/>
<path d="M80.3452 101.513C80.3783 101.424 80.4124 101.419 80.5069 101.496C80.8772 103.911 81.187 106.243 81.4246 108.579C81.2091 108.6 81.0659 108.616 80.9227 108.632C80.9227 108.632 80.919 108.592 80.9174 108.572C80.726 106.233 80.5361 103.914 80.3452 101.513Z" fill="#D5D9E5"/>
<path d="M40.731 108.04C40.9514 110.358 41.1196 112.664 41.2836 114.97C41.3583 116.021 41.4248 117.072 41.5008 118.21C35.8713 117.009 30.3443 115.83 24.7399 114.649C24.6087 114.63 24.5661 114.598 24.5159 114.516C24.2558 111.361 24.0144 108.243 23.7646 105.016C29.3749 106.026 34.8947 107.02 40.4912 108.013C40.6043 108.018 40.6407 108.024 40.731 108.04Z" fill="#8998B9"/>
<path d="M32.4019 164.737C37.5885 165.66 42.7856 166.65 47.9743 167.683C48.2675 167.741 48.649 168.108 48.7228 168.399C49.4472 171.255 50.115 174.125 50.7974 177.068C48.0795 176.667 45.3627 176.192 42.6468 175.711C40.3317 175.301 38.013 174.909 35.7076 174.451C35.3184 174.373 34.7515 174.063 34.6675 173.752C33.8659 170.786 33.1506 167.797 32.4019 164.737Z" fill="#8998B9"/>
<path d="M50.9902 177.405C51.2629 177.333 51.5359 177.337 51.891 177.348C52.361 179.398 52.7526 181.439 53.1281 183.482C53.1542 183.625 53.0605 183.789 52.9553 183.945C52.2555 181.791 51.6231 179.636 50.9902 177.405Z" fill="#A8B4CE"/>
<path d="M81.4965 108.575C81.1867 106.243 80.8769 103.911 80.5576 101.505C83.1391 101.417 85.73 101.403 88.409 101.377C89.0713 101.372 89.6456 101.381 90.305 101.376C97.4081 101.372 104.426 101.382 111.534 101.378C112.568 101.374 113.512 101.382 114.544 101.377C116.469 101.375 118.307 101.386 120.235 101.403C120.577 103.878 120.83 106.346 121.083 108.896C121.084 108.977 121.085 108.983 120.995 108.978C116.248 108.913 111.59 108.839 106.932 108.797C98.4487 108.721 89.9649 108.664 81.4865 108.594C81.4917 108.589 81.4965 108.575 81.4965 108.575Z" fill="white"/>
<path d="M116.435 95.1252C117.074 93.2526 117.789 91.3945 118.556 89.4921C122.109 89.89 125.612 90.3321 129.263 90.793C128.655 92.3732 128.017 93.8 127.565 95.2833C127.236 96.3626 126.806 96.7217 125.607 96.5027C122.593 95.952 119.545 95.582 116.435 95.1252Z" fill="#FFAB53"/>
<path d="M151.997 115.036C152.694 120.386 153.35 125.734 154.057 131.076C154.377 133.498 154.799 135.908 155.176 138.452C155.176 138.616 155.175 138.65 155.087 138.686C153.014 138.941 151.026 139.184 149.041 139.448C145.225 139.957 141.408 140.463 137.596 140.998C134.223 141.472 130.855 141.984 127.408 142.49C127.173 141 126.958 139.583 126.726 138.169C125.722 132.056 124.737 125.939 123.675 119.836C123.526 118.975 123.833 118.882 124.499 118.804C126.488 118.569 128.474 118.31 130.458 118.031C133.898 117.548 137.333 117.034 140.773 116.552C144.491 116.031 148.213 115.533 151.934 115.024C151.934 115.024 151.976 115.033 151.997 115.036Z" fill="#8998B9"/>
<path d="M155.173 138.684C155.175 138.65 155.177 138.616 155.185 138.531C157.026 138.239 158.86 137.998 160.774 137.757C160.572 138.056 160.292 138.356 159.957 138.684C158.45 138.901 156.999 139.087 155.454 139.212C155.297 138.995 155.235 138.84 155.173 138.684Z" fill="#AFB3BF"/>
<path d="M159.539 162.642C159.547 162.749 159.543 162.782 159.45 162.869C158.459 163.023 157.553 163.1 156.655 163.228C153.897 163.623 151.142 164.039 148.386 164.445C145.599 164.856 142.81 165.257 140.024 165.675C137.361 166.075 134.703 166.503 132.037 166.873C131.818 166.904 131.375 166.618 131.335 166.419C131.086 165.193 130.933 163.949 130.73 162.714C130.127 159.039 129.511 155.366 128.909 151.691C128.455 148.917 128.016 146.141 127.56 143.306C129.388 143.044 131.149 142.789 132.91 142.54C135.297 142.202 137.685 141.872 140.073 141.534C142.955 141.127 145.836 140.706 148.72 140.309C150.921 140.005 153.127 139.731 155.33 139.443C156.286 144.907 157.228 150.373 158.205 155.833C158.607 158.085 159.084 160.323 159.539 162.642Z" fill="#8998B9"/>
<path d="M155.345 139.403C153.127 139.73 150.921 140.005 148.72 140.308C145.836 140.706 142.955 141.127 140.073 141.534C137.686 141.872 135.298 142.202 132.91 142.54C131.149 142.789 129.388 143.044 127.56 143.306C128.016 146.141 128.455 148.917 128.909 151.691C129.511 155.366 130.127 159.039 130.73 162.714C130.933 163.949 131.086 165.193 131.335 166.419C131.375 166.618 131.818 166.904 132.037 166.873C134.703 166.503 137.362 166.075 140.024 165.675C142.81 165.257 145.599 164.856 148.386 164.445C151.143 164.039 153.897 163.623 156.655 163.228C157.554 163.1 158.459 163.023 159.448 162.919C159.597 163.073 159.661 163.232 159.739 163.456C159.754 163.521 159.73 163.603 159.636 163.645C156.23 164.146 152.916 164.59 149.607 165.071C146.854 165.471 144.109 165.921 141.359 166.336C138.393 166.784 135.428 167.243 132.454 167.637C131.749 167.731 131.606 168.068 131.693 168.641C131.838 169.598 132.014 170.551 132.172 171.506C132.516 173.571 132.856 175.637 133.198 177.703C133.198 177.703 133.208 177.71 133.131 177.711C132.845 177.711 132.636 177.711 132.427 177.709C132.428 177.707 132.424 177.711 132.42 177.637C131.661 174.393 130.908 171.224 130.133 167.992C130.011 167.651 129.911 167.373 129.809 167.013C129.641 165.975 129.485 165.016 129.308 164.062C128.583 160.147 127.836 156.237 127.127 152.32C126.601 149.422 126.121 146.516 125.621 143.541C125.56 143.203 125.499 142.936 125.438 142.588C125.026 139.597 124.605 136.69 124.204 133.781C123.781 130.716 123.379 127.648 122.964 124.582C122.713 122.725 122.455 120.868 122.203 118.933C122.198 118.644 122.191 118.435 122.18 118.15C122.127 117.861 122.058 117.651 122.034 117.435C121.714 114.618 121.4 111.801 121.085 108.983C121.085 108.983 121.084 108.977 121.088 108.978C121.288 108.974 121.485 108.969 121.756 108.966C122.273 111.558 122.755 114.141 123.142 116.738C123.348 118.122 123.361 118.14 124.801 117.93C127.803 117.49 130.817 117.137 133.823 116.724C136.735 116.323 139.642 115.878 142.554 115.478C145.157 115.12 147.764 114.796 150.37 114.457C150.834 114.396 151.299 114.335 151.843 114.279C151.931 114.482 151.94 114.679 151.941 114.95C148.214 115.533 144.492 116.031 140.773 116.552C137.333 117.034 133.898 117.549 130.458 118.031C128.475 118.31 126.488 118.569 124.499 118.804C123.834 118.882 123.526 118.975 123.676 119.836C124.737 125.939 125.722 132.056 126.726 138.169C126.959 139.583 127.173 141 127.408 142.49C130.855 141.984 134.223 141.472 137.596 140.998C141.409 140.463 145.225 139.957 149.041 139.448C151.026 139.184 153.015 138.941 155.087 138.686C155.235 138.84 155.297 138.995 155.372 139.216C155.384 139.28 155.359 139.362 155.345 139.403Z" fill="#727FA1"/>
<path d="M159.328 139.828C159.692 140.098 160.152 140.308 160.392 140.666C160.545 140.893 160.499 141.529 160.32 141.649C159.853 141.961 159.263 142.09 158.645 142.293C158.568 142.295 158.573 142.292 158.554 142.25C158.483 142.173 158.431 142.138 158.379 142.102C158.379 142.102 158.386 142.102 158.385 142.032C158.324 141.696 158.264 141.429 158.205 141.162C158.354 140.923 158.504 140.684 158.75 140.393C158.883 140.233 158.919 140.126 158.956 140.019C158.956 140.019 158.954 140.021 159.01 140.017C159.155 139.951 159.243 139.888 159.331 139.825C159.331 139.825 159.33 139.83 159.328 139.828Z" fill="#FBD7D0"/>
<path d="M159.644 143.84C160.128 144.231 160.556 144.652 160.983 145.074C160.525 145.499 160.068 145.923 159.571 146.396C158.639 145.97 158.531 145.61 159.036 144.742C159.209 144.445 159.403 144.161 159.644 143.84Z" fill="#FBD7D0"/>
<path d="M159.708 147.594C159.851 147.479 159.983 147.334 160.147 147.253C160.534 147.06 160.994 146.693 161.313 146.784C161.609 146.868 161.984 147.505 161.918 147.81C161.844 148.146 161.315 148.391 160.967 148.653C160.879 148.721 160.727 148.705 160.53 148.729C160.151 148.454 159.847 148.177 159.578 147.815C159.661 147.692 159.693 147.644 159.711 147.587C159.711 147.587 159.711 147.594 159.708 147.594Z" fill="#FBD7D0"/>
<path d="M158.176 141.223C158.264 141.429 158.324 141.696 158.383 142.036C158.304 141.834 158.226 141.559 158.176 141.223Z" fill="#F5B7AC"/>
<path d="M159.273 139.825C159.242 139.888 159.154 139.951 159.009 140.018C159.04 139.957 159.128 139.892 159.273 139.825Z" fill="#F5B7AC"/>
<path d="M158.909 140.052C158.919 140.126 158.883 140.233 158.796 140.371C158.785 140.295 158.824 140.19 158.909 140.052Z" fill="#F5B7AC"/>
<path d="M158.396 142.147C158.431 142.138 158.482 142.173 158.553 142.252C158.519 142.261 158.467 142.227 158.396 142.147Z" fill="#F5B7AC"/>
<path d="M159.671 147.607C159.691 147.644 159.659 147.691 159.576 147.748C159.553 147.709 159.585 147.662 159.671 147.607Z" fill="#F5B7AC"/>
<path d="M27.6958 140.101C31.5352 140.803 35.373 141.586 39.2105 142.37C40.6537 142.665 42.0936 142.976 43.5404 143.252C44.1759 143.373 44.5607 143.586 44.6608 144.343C45.0178 147.043 45.4284 149.736 45.8852 152.421C46.6417 156.866 47.4512 161.303 48.2335 165.744C48.2914 166.073 48.3101 166.409 48.3628 166.884C46.498 166.526 44.7592 166.186 43.018 165.859C39.4783 165.194 35.9373 164.536 32.3147 163.875C32.1745 163.855 32.1285 163.818 32.0741 163.727C31.5908 161.444 31.0869 159.208 30.6734 156.956C29.7159 151.74 28.8018 146.517 27.8716 141.296C27.8056 140.926 27.7529 140.554 27.6958 140.101Z" fill="#8998B9"/>
<path d="M24.719 142.067C24.4614 141.995 24.275 141.877 24.0717 141.813C23.1406 141.52 22.9313 140.874 23.6024 140.141C23.7451 139.985 24.1588 139.979 24.4096 140.046C24.7315 140.132 25.0149 140.361 25.3748 140.559C25.9167 141.386 25.389 141.734 24.719 142.067Z" fill="#FBD7D0"/>
<path d="M27.4251 139.065C27.5038 139.268 27.5105 139.471 27.515 139.751C26.8065 139.708 26.1001 139.588 25.32 139.457C25.2462 139.446 25.2481 139.357 25.3037 139.287C25.5685 139.042 25.7778 138.867 25.987 138.691C26.4424 138.816 26.8978 138.94 27.4251 139.065Z" fill="#AFB3BF"/>
<path d="M93.8896 89.1071C93.1063 90.8365 92.249 92.5598 91.3768 94.2754C91.2555 94.514 91.0603 94.715 90.8358 94.9508C88.2561 95.3067 85.7401 95.6458 83.2238 95.9832C82.8881 96.0283 82.5513 96.065 82.0439 96.1262C82.1927 95.7455 82.2691 95.4951 82.3844 95.2642C83.0577 93.9149 83.7379 92.569 84.4207 91.2245C84.6724 90.7289 85.0021 90.4384 85.6318 90.3526C88.3644 89.9801 91.0855 89.5242 93.8896 89.1071Z" fill="#FFAB53"/>
<path d="M24.6865 115.666C26.7253 115.979 28.7575 116.359 30.7816 116.777C34.0037 117.442 37.2142 118.165 40.4435 118.792C41.3375 118.965 41.6945 119.218 41.7607 120.243C41.9258 122.8 42.3263 125.341 42.6208 127.89C42.8329 129.726 43.0108 131.565 43.232 133.4C43.4981 135.605 43.7912 137.808 44.0784 140.011C44.1592 140.632 44.2684 141.248 44.3492 141.868C44.4319 142.503 44.0356 142.538 43.5777 142.442C40.4804 141.791 37.3847 141.133 34.2878 140.481C32.0805 140.016 29.8721 139.556 27.5902 139.086C26.9386 134.666 26.3342 130.258 25.7918 125.842C25.3791 122.483 25.0452 119.114 24.6865 115.666Z" fill="#8998B9"/>
<path d="M25.2388 135.098C24.7948 135.107 24.3074 135.228 23.9119 135.089C23.545 134.96 23.0544 134.581 23.0125 134.26C22.9359 133.675 23.2193 133.106 24.0333 133.013C24.1054 133.012 24.0984 133.014 24.13 133.059C24.2708 133.138 24.3801 133.172 24.4893 133.206C24.7806 133.423 25.072 133.64 25.3362 133.965C25.2849 134.416 25.2607 134.76 25.2365 135.104C25.2365 135.104 25.2355 135.098 25.2388 135.098Z" fill="#FBD7D0"/>
<path d="M25.9807 138.625C25.7777 138.867 25.5684 139.042 25.3054 139.243C25.126 139.257 24.9713 139.291 24.8796 139.229C24.4307 138.93 23.9986 138.605 23.5605 138.289C23.8831 137.86 24.2056 137.431 24.5938 136.995C25.0978 137.512 25.5361 138.036 25.9807 138.625Z" fill="#FBD7D0"/>
<path d="M25.3039 135.09C25.261 134.76 25.2851 134.416 25.3594 134.023C25.3966 134.341 25.3839 134.709 25.3039 135.09Z" fill="#F5B7AC"/>
<path d="M24.4565 133.157C24.3802 133.172 24.2709 133.138 24.1294 133.056C24.2059 133.041 24.3147 133.075 24.4565 133.157Z" fill="#F5B7AC"/>
<path d="M19.9324 127.52C20.0788 128.006 19.3857 129.638 19.0169 129.561C18.5998 129.474 18.0549 129.201 17.8963 128.857C17.6444 128.31 18.3746 127.383 18.9732 127.35C19.2427 127.335 19.5194 127.451 19.8663 127.514C19.9397 127.522 19.9325 127.524 19.9324 127.52Z" fill="#FBD7D0"/>
<path d="M21.9946 139.004C22.0457 138.953 22.1219 138.931 22.1995 138.921C22.2132 138.919 22.233 138.963 22.2499 138.985C22.1734 139.003 22.0969 139.021 21.9946 139.004Z" fill="#EC9E92"/>
<path d="M161.792 133.584C162.587 133.272 163.391 132.898 164.02 133.875C164.449 134.543 164.2 135.2 163.435 135.399C163.319 135.429 163.124 135.474 163.08 135.419C162.638 134.866 162.22 134.293 161.796 133.652C161.796 133.578 161.795 133.583 161.792 133.584Z" fill="#FBD7D0"/>
<path d="M162.93 145.131C162.841 145.192 162.752 145.252 162.607 145.317C162.552 145.321 162.553 145.323 162.553 145.323C162.641 145.261 162.729 145.2 162.874 145.135C162.93 145.132 162.93 145.131 162.93 145.131Z" fill="#EC9E92"/>
<path d="M162.551 145.321C162.486 145.367 162.421 145.414 162.355 145.461C162.339 145.437 162.323 145.414 162.307 145.391C162.359 145.369 162.411 145.348 162.508 145.324C162.553 145.323 162.552 145.321 162.551 145.321Z" fill="#EC9E92"/>
<path d="M163.076 144.963C163.1 145.004 163.066 145.054 162.971 145.11C162.93 145.129 162.93 145.13 162.93 145.13C162.947 145.068 162.982 145.019 163.076 144.963Z" fill="#EC9E92"/>
<path d="M79.2707 199.299C75.7555 198.547 72.4975 197.346 69.4876 195.499C67.0393 193.997 67.0465 194.013 67.5562 191.202C67.9321 189.129 68.2597 187.047 68.6121 184.969C68.664 184.663 68.7343 184.359 68.8213 183.931C73.764 183.931 78.6747 183.931 83.6731 184.034C83.6976 187.614 83.6269 191.091 83.5749 194.568C83.5532 196.018 83.5461 197.47 83.5832 198.92C83.5985 199.52 83.3564 199.717 82.8084 199.665C81.6558 199.541 80.5033 199.417 79.2707 199.299Z" fill="#FF720F"/>
<path d="M86.3276 183.926C87.6172 183.905 88.9068 183.884 90.3244 183.884C90.5051 183.874 90.5578 183.844 90.6106 183.813C90.6106 183.813 90.6212 183.81 90.6628 183.823C90.7044 183.836 90.7559 183.779 90.8454 183.782C97.1438 183.766 103.353 183.746 109.561 183.728C110.125 183.726 110.689 183.732 111.252 183.82C111.303 185.119 111.355 186.332 111.407 187.545C107.269 188.186 103.104 188.392 98.922 188.3C94.7441 188.207 90.6164 187.685 86.4374 186.738C86.342 185.728 86.3348 184.827 86.3276 183.926Z" fill="#14397F"/>
<path d="M111.423 187.627C111.355 186.332 111.302 185.119 111.336 183.8C112.746 183.706 114.069 183.72 115.392 183.734C115.578 186.326 115.771 188.918 115.948 191.511C116.088 193.574 116.203 195.639 116.341 197.703C116.384 198.358 116.465 199.011 116.529 199.747C115.437 199.706 114.347 199.554 113.251 199.468C112.422 199.403 112.066 199.039 112.031 198.184C111.923 195.54 111.752 192.898 111.602 190.256C111.553 189.407 111.493 188.558 111.423 187.627Z" fill="#F1630D"/>
<path d="M86.2476 183.908C86.3348 184.827 86.342 185.728 86.3652 186.717C86.3812 191.12 86.3812 195.434 86.3812 199.738C85.1918 199.738 84.0687 199.738 82.877 199.701C83.3563 199.717 83.5985 199.52 83.5831 198.92C83.5461 197.47 83.5532 196.018 83.5749 194.568C83.6269 191.091 83.6975 187.614 83.7605 184.05C84.5628 183.938 85.3651 183.913 86.2476 183.908Z" fill="#F1630D"/>
<path d="M130.154 168.054C130.908 171.224 131.661 174.393 132.332 177.638C118.58 177.657 104.911 177.608 91.2423 177.522C90.3365 177.516 90.0381 177.797 90.1961 178.644C90.2362 178.86 90.3035 179.074 90.3125 179.291C90.3497 180.182 90.3694 181.074 90.3954 181.966C90.1321 180.555 89.8687 179.144 89.6656 177.625C89.8214 177.18 90.0268 176.832 89.9945 176.508C89.8138 174.702 89.5741 172.902 89.3574 171.099C89.24 170.121 89.1281 169.143 89.0083 168.119C89.3764 168.079 89.5594 168.041 89.7424 168.041C103.213 168.043 116.684 168.049 130.154 168.054Z" fill="#A8B4CE"/>
<path d="M52.0552 177.352C51.4586 174.606 50.9401 171.862 50.4196 169.118C50.3729 168.872 50.3136 168.628 50.3215 168.274C50.7539 168.123 51.1247 168.043 51.4956 168.043C63.261 168.037 75.0265 168.038 86.7919 168.038C86.9811 168.038 87.2155 167.968 87.3502 168.054C87.6283 168.231 88.03 168.463 88.073 168.723C88.5582 171.655 88.9849 174.597 89.4274 177.536C77.4007 177.522 65.3741 177.51 53.3474 177.488C52.9424 177.488 52.5376 177.401 52.0552 177.352Z" fill="#A8B4CE"/>
<path d="M89.4623 177.55C88.985 174.597 88.5582 171.655 88.073 168.723C88.03 168.463 87.6283 168.231 87.3502 168.054C87.2155 167.968 86.9812 168.038 86.7919 168.038C75.0265 168.038 63.2611 168.037 51.4957 168.043C51.1248 168.043 50.7539 168.123 50.3113 168.199C50.1747 167.904 50.1097 167.576 50.1347 167.171C51.5815 167.095 52.9385 167.097 54.2955 167.097C65.1197 167.097 75.944 167.098 86.7683 167.096C87.7795 167.096 87.8489 166.985 87.667 166.002C87.5362 165.295 87.4591 164.578 87.3578 163.865C86.9879 161.262 86.5986 158.661 86.2534 156.054C85.9038 153.415 85.6058 150.769 85.2697 148.128C85.0811 146.646 84.8611 145.167 84.6538 143.677C71.8198 143.677 59.0877 143.677 46.2894 143.677C46.5116 145.104 46.7272 146.458 46.9324 147.814C47.2086 149.638 47.4769 151.465 47.7486 153.29C47.5699 152.825 47.3069 152.374 47.2261 151.892C46.7191 148.87 46.2442 145.844 45.7791 142.816C45.6712 142.113 45.6423 141.398 45.6851 140.687C45.9135 141.322 46.0337 141.96 46.1562 142.609C58.9516 142.609 71.6774 142.609 84.4583 142.609C84.4583 142.18 84.4953 141.808 84.4521 141.446C84.2333 139.613 83.9716 137.785 83.7666 135.95C83.4814 133.398 83.2425 130.841 82.9665 128.288C82.6739 125.58 82.3148 122.879 82.0862 120.166C82.0206 119.387 81.83 119.17 81.0548 119.171C68.2488 119.195 55.4428 119.191 42.6368 119.193C42.5809 118.925 42.525 118.657 42.4707 118.316C55.5474 118.244 68.6225 118.244 81.8871 118.244C81.5596 115.03 81.2415 111.908 80.9229 108.709C81.0656 108.616 81.2088 108.6 81.4243 108.579C81.4966 108.575 81.4917 108.589 81.4892 108.675C81.8478 111.521 82.2765 114.276 82.5354 117.046C82.6336 118.097 82.9949 118.288 83.9635 118.272C87.526 118.21 91.0903 118.249 94.6538 118.247C103.831 118.241 113.007 118.233 122.184 118.225C122.191 118.435 122.198 118.644 122.115 118.931C108.982 119.083 95.9386 119.158 82.8567 119.234C82.8567 119.49 82.8394 119.646 82.8593 119.797C83.0931 121.565 83.3479 123.331 83.5666 125.101C83.9083 127.867 84.209 130.639 84.5597 133.404C84.9023 136.105 85.3604 138.795 85.6121 141.504C85.7034 142.488 86.0072 142.69 86.9109 142.688C99.7532 142.664 112.596 142.671 125.438 142.67C125.499 142.937 125.559 143.203 125.532 143.541C112.278 143.612 99.1121 143.612 85.9136 143.612C86.0532 144.843 86.1633 145.901 86.2947 146.957C86.581 149.256 86.8775 151.553 87.1708 153.851C87.464 156.149 87.761 158.446 88.0512 160.745C88.2671 162.453 88.5155 164.159 88.6691 165.874C88.7466 166.737 88.9773 167.122 89.9627 167.12C103.246 167.085 116.528 167.096 129.811 167.095C129.911 167.373 130.011 167.651 130.132 167.992C116.683 168.049 103.213 168.043 89.7422 168.041C89.5592 168.041 89.3762 168.079 89.008 168.119C89.1278 169.143 89.2397 170.121 89.3572 171.099C89.5738 172.902 89.8135 174.702 89.9942 176.508C90.0266 176.832 89.8211 177.18 89.648 177.549C89.5705 177.582 89.4971 177.565 89.4623 177.55Z" fill="#8D98B4"/>
<path d="M90.3934 182.003C90.3693 181.074 90.3497 180.182 90.3124 179.291C90.3034 179.074 90.2361 178.86 90.196 178.644C90.038 177.797 90.3364 177.516 91.2422 177.522C104.911 177.608 118.58 177.657 132.337 177.712C132.424 177.711 132.428 177.707 132.44 177.78C132.901 179.553 133.351 181.252 133.8 182.951C133.788 183.089 133.777 183.228 133.768 183.436C128.892 183.539 124.013 183.568 119.133 183.608C117.938 183.618 116.743 183.663 115.47 183.713C114.069 183.72 112.746 183.706 111.338 183.713C110.689 183.732 110.125 183.726 109.561 183.728C103.353 183.746 97.1438 183.766 90.8511 183.698C90.6386 183.137 90.5102 182.662 90.3817 182.187C90.3866 182.138 90.3898 182.088 90.3934 182.003Z" fill="#FEFEFE"/>
<path d="M90.3892 182.271C90.51 182.662 90.6385 183.137 90.7614 183.695C90.7557 183.779 90.7043 183.836 90.6682 183.823C90.5537 183.325 90.4753 182.84 90.3892 182.271Z" fill="#A8B4CE"/>
<path d="M90.5677 183.791C90.556 183.843 90.5039 183.873 90.4115 183.876C90.4065 183.789 90.4586 183.763 90.5677 183.791Z" fill="#A8B4CE"/>
<path d="M133.28 177.703C132.856 175.637 132.516 173.571 132.172 171.506C132.014 170.551 131.838 169.598 131.693 168.641C131.606 168.068 131.749 167.731 132.454 167.637C135.428 167.243 138.393 166.784 141.359 166.336C144.109 165.921 146.854 165.471 149.607 165.071C152.916 164.59 156.23 164.146 159.625 163.686C160.396 166.81 161.088 169.932 161.77 173.057C161.911 173.702 161.81 174.036 160.972 174.132C157.329 174.552 153.699 175.085 150.064 175.568C147.546 175.902 145.026 176.218 142.508 176.548C139.648 176.922 136.789 177.304 133.929 177.678C133.742 177.703 133.551 177.695 133.28 177.703Z" fill="#8998B9"/>
<path d="M133.844 182.897C133.351 181.252 132.901 179.553 132.439 177.782C132.635 177.711 132.845 177.711 133.133 177.717C133.437 179.43 133.663 181.137 133.844 182.897Z" fill="#AFB3BF"/>
<path d="M42.6411 119.256C55.4427 119.191 68.2487 119.195 81.0547 119.171C81.8299 119.17 82.0205 119.387 82.0862 120.166C82.3148 122.879 82.6739 125.58 82.9665 128.288C83.2424 130.841 83.4813 133.398 83.7665 135.95C83.9716 137.785 84.2332 139.613 84.452 141.446C84.4952 141.808 84.4582 142.18 84.4582 142.609C71.6773 142.609 58.9515 142.609 46.1561 142.609C46.0337 141.96 45.9134 141.322 45.7366 140.635C45.6794 140.504 45.6787 140.424 45.6821 140.207C45.6185 139.802 45.5507 139.533 45.483 139.263C45.4833 139.182 45.4837 139.101 45.4898 138.877C45.3664 138.09 45.2371 137.446 45.1078 136.801C45.1074 136.72 45.107 136.639 45.1119 136.422C45.0506 136.016 44.984 135.746 44.9173 135.476C44.9166 135.395 44.9159 135.314 44.921 135.097C44.8598 134.691 44.793 134.421 44.7261 134.151C44.7253 134.07 44.7246 133.989 44.7302 133.777C44.672 133.435 44.6075 133.225 44.5429 133.014C44.5414 132.876 44.5399 132.737 44.5433 132.459C44.4817 132.109 44.4152 131.899 44.3486 131.689C44.3478 131.551 44.3469 131.413 44.352 131.134C44.2915 130.784 44.2251 130.574 44.1587 130.364C44.1578 130.226 44.1569 130.088 44.1618 129.809C44.1009 129.459 44.0341 129.249 43.9673 129.039C43.9669 128.901 43.9665 128.763 43.9719 128.484C43.911 128.134 43.8442 127.924 43.7774 127.713C43.7765 127.516 43.7756 127.319 43.7795 126.982C43.72 126.69 43.6558 126.539 43.5916 126.388C43.5904 126.25 43.5893 126.112 43.5938 125.834C43.535 125.483 43.4706 125.272 43.4062 125.062C43.4027 124.865 43.3993 124.668 43.4004 124.33C43.2956 124.03 43.1862 123.869 43.0768 123.709C43.1169 123.512 43.1569 123.316 43.2073 122.992C43.1562 122.714 43.0947 122.562 43.0332 122.411C43.0273 122.153 43.0215 121.896 43.0207 121.495C42.9618 121.2 42.8979 121.048 42.834 120.897C42.8301 120.64 42.8263 120.383 42.8251 119.99C42.7681 119.76 42.7084 119.665 42.6487 119.571C42.6477 119.487 42.6466 119.403 42.6411 119.256Z" fill="#A8B4CE"/>
<path d="M47.7528 153.351C47.4771 151.465 47.2088 149.638 46.9325 147.814C46.7273 146.458 46.5118 145.104 46.2896 143.677C59.0878 143.677 71.82 143.677 84.654 143.677C84.8612 145.167 85.0812 146.646 85.2699 148.128C85.606 150.769 85.904 153.415 86.2535 156.054C86.5987 158.661 86.988 161.262 87.358 163.865C87.4592 164.578 87.5363 165.295 87.6672 166.002C87.849 166.985 87.7796 167.096 86.7684 167.096C75.9441 167.098 65.1199 167.097 54.2956 167.097C52.9386 167.097 51.5816 167.095 50.1359 167.095C50.0393 166.899 50.0314 166.703 50.0248 166.375C49.9671 166.148 49.9081 166.054 49.8492 165.96C49.8428 165.764 49.8365 165.569 49.8321 165.24C49.7721 165.013 49.71 164.919 49.6479 164.825C49.6477 164.687 49.6477 164.549 49.6496 164.284C49.5914 164.063 49.531 163.97 49.4707 163.877C49.4667 163.739 49.4627 163.602 49.4642 163.329C49.4057 163.043 49.3416 162.892 49.2776 162.741C49.2744 162.604 49.2712 162.466 49.2733 162.194C49.2131 161.908 49.1476 161.757 49.0821 161.606C49.0815 161.525 49.0809 161.444 49.0866 161.232C49.027 160.89 48.9612 160.68 48.8953 160.47C48.8935 160.332 48.8916 160.194 48.8953 159.921C48.8367 159.635 48.7727 159.484 48.7086 159.333C48.7063 159.196 48.7041 159.058 48.7059 158.785C48.6441 158.499 48.5781 158.348 48.5122 158.198C48.5114 158.06 48.5106 157.923 48.515 157.65C48.4549 157.364 48.3895 157.213 48.3241 157.061C48.3236 156.981 48.3231 156.9 48.3289 156.687C48.2689 156.345 48.2026 156.135 48.1364 155.925C48.1359 155.844 48.1354 155.763 48.1407 155.542C48.0166 154.819 47.8867 154.236 47.7567 153.653C47.7568 153.572 47.7568 153.492 47.7528 153.351Z" fill="#A8B4CE"/>
<path d="M45.0581 136.853C45.2375 137.446 45.3667 138.09 45.4881 138.816C45.3229 138.233 45.1654 137.569 45.0581 136.853Z" fill="#8D98B4"/>
<path d="M47.7075 153.705C47.8865 154.236 48.0165 154.819 48.1382 155.481C47.9728 154.959 47.8156 154.358 47.7075 153.705Z" fill="#8D98B4"/>
<path d="M44.8696 135.523C44.9841 135.746 45.0507 136.016 45.1097 136.361C45.0086 136.147 44.9152 135.859 44.8696 135.523Z" fill="#8D98B4"/>
<path d="M45.436 139.31C45.5511 139.533 45.6188 139.802 45.6797 140.147C45.5782 139.933 45.4834 139.646 45.436 139.31Z" fill="#8D98B4"/>
<path d="M44.6787 134.198C44.7929 134.421 44.8598 134.691 44.9184 135.037C44.8173 134.823 44.7243 134.534 44.6787 134.198Z" fill="#8D98B4"/>
<path d="M48.8491 160.513C48.9613 160.68 49.0272 160.89 49.084 161.171C48.9842 161.014 48.8935 160.785 48.8491 160.513Z" fill="#8D98B4"/>
<path d="M43.3594 125.105C43.4708 125.272 43.5352 125.483 43.5904 125.765C43.4916 125.606 43.402 125.377 43.3594 125.105Z" fill="#8D98B4"/>
<path d="M44.1128 130.408C44.2254 130.574 44.2918 130.784 44.3494 131.065C44.2492 130.908 44.1579 130.68 44.1128 130.408Z" fill="#8D98B4"/>
<path d="M44.4956 133.057C44.6076 133.225 44.6722 133.435 44.7281 133.716C44.629 133.558 44.5386 133.329 44.4956 133.057Z" fill="#8D98B4"/>
<path d="M44.3022 131.733C44.4154 131.899 44.4819 132.109 44.5402 132.39C44.44 132.233 44.3478 132.005 44.3022 131.733Z" fill="#8D98B4"/>
<path d="M43.7319 127.757C43.8442 127.924 43.911 128.134 43.9687 128.415C43.8685 128.258 43.7774 128.03 43.7319 127.757Z" fill="#8D98B4"/>
<path d="M43.9219 129.083C44.0344 129.249 44.1012 129.459 44.1592 129.74C44.059 129.583 43.9676 129.355 43.9219 129.083Z" fill="#8D98B4"/>
<path d="M48.0903 155.969C48.2028 156.135 48.269 156.345 48.3264 156.627C48.2264 156.47 48.1353 156.241 48.0903 155.969Z" fill="#8D98B4"/>
<path d="M43.5474 126.426C43.6562 126.539 43.7204 126.69 43.775 126.908C43.6779 126.805 43.5903 126.635 43.5474 126.426Z" fill="#8D98B4"/>
<path d="M49.0381 161.645C49.1475 161.757 49.213 161.908 49.2688 162.125C49.1708 162.022 49.0825 161.853 49.0381 161.645Z" fill="#8D98B4"/>
<path d="M49.2324 162.78C49.3414 162.892 49.4055 163.043 49.4607 163.26C49.3638 163.157 49.2756 162.988 49.2324 162.78Z" fill="#8D98B4"/>
<path d="M43.0659 123.777C43.1863 123.87 43.2956 124.03 43.3958 124.257C43.276 124.164 43.1655 124.004 43.0659 123.777Z" fill="#8D98B4"/>
<path d="M42.9873 122.449C43.0947 122.562 43.1562 122.714 43.2086 122.931C43.1135 122.827 43.0274 122.657 42.9873 122.449Z" fill="#8D98B4"/>
<path d="M42.79 120.936C42.8978 121.049 42.9618 121.2 43.0151 121.419C42.9184 121.315 42.8323 121.145 42.79 120.936Z" fill="#8D98B4"/>
<path d="M48.6636 159.372C48.7728 159.484 48.8369 159.635 48.8918 159.852C48.7946 159.749 48.7065 159.58 48.6636 159.372Z" fill="#8D98B4"/>
<path d="M48.4683 158.237C48.5781 158.348 48.644 158.499 48.7013 158.716C48.6032 158.614 48.5138 158.445 48.4683 158.237Z" fill="#8D98B4"/>
<path d="M48.2798 157.101C48.3893 157.213 48.4547 157.364 48.5102 157.581C48.412 157.479 48.3238 157.309 48.2798 157.101Z" fill="#8D98B4"/>
<path d="M42.6089 119.604C42.7087 119.665 42.7683 119.76 42.8194 119.913C42.7302 119.86 42.6495 119.748 42.6089 119.604Z" fill="#8D98B4"/>
<path d="M49.8086 165.992C49.9082 166.054 49.9671 166.148 50.0189 166.301C49.9305 166.248 49.8492 166.137 49.8086 165.992Z" fill="#8D98B4"/>
<path d="M49.6094 164.858C49.7101 164.919 49.7722 165.013 49.8253 165.167C49.7344 165.115 49.6526 165.003 49.6094 164.858Z" fill="#8D98B4"/>
<path d="M49.4297 163.91C49.5309 163.97 49.5913 164.063 49.6459 164.215C49.5564 164.163 49.4726 164.053 49.4297 163.91Z" fill="#8D98B4"/>
<path d="M122.18 118.15C113.007 118.233 103.831 118.241 94.6537 118.247C91.0902 118.249 87.5259 118.21 83.9634 118.272C82.9948 118.288 82.6335 118.097 82.5353 117.046C82.2764 114.276 81.8477 111.521 81.4839 108.68C89.9649 108.664 98.4486 108.721 106.932 108.797C111.59 108.839 116.248 108.913 120.995 108.978C121.4 111.801 121.714 114.618 122.033 117.435C122.058 117.651 122.127 117.861 122.18 118.15Z" fill="#A8B4CE"/>
<path d="M129.809 167.013C116.528 167.096 103.245 167.085 89.9626 167.12C88.9772 167.122 88.7465 166.737 88.6691 165.874C88.5155 164.159 88.267 162.453 88.0512 160.745C87.7609 158.446 87.464 156.149 87.1707 153.851C86.8775 151.553 86.5809 149.256 86.2946 146.957C86.1633 145.901 86.0531 144.843 85.9136 143.612C99.1121 143.612 112.278 143.612 125.532 143.613C126.121 146.516 126.601 149.422 127.126 152.32C127.836 156.237 128.583 160.147 129.308 164.062C129.485 165.016 129.641 165.975 129.809 167.013Z" fill="#A8B4CE"/>
<path d="M125.438 142.588C112.595 142.671 99.7531 142.664 86.9107 142.688C86.007 142.69 85.7033 142.487 85.6119 141.504C85.3602 138.795 84.9022 136.105 84.5595 133.404C84.2088 130.639 83.9081 127.867 83.5664 125.101C83.3478 123.331 83.0929 121.565 82.8592 119.796C82.8393 119.646 82.8566 119.49 82.8566 119.234C95.9385 119.158 108.981 119.083 122.112 119.01C122.455 120.868 122.712 122.724 122.964 124.582C123.378 127.648 123.781 130.716 124.204 133.781C124.605 136.69 125.025 139.597 125.438 142.588Z" fill="#A8B4CE"/>
</svg>
