<svg width="201" height="229" viewBox="0 0 201 229" fill="none" xmlns="http://www.w3.org/2000/svg">
<path d="M200.414 240.596C200.469 235.582 190.919 230.911 185.751 231.117C174.659 231.56 171.723 228.038 161.418 225.427C152.766 223.236 154.099 208.767 140.969 208.143C133.974 207.81 120.787 189.134 113.888 194.717C109.323 198.412 100.534 188.493 97.4689 188.456C90.3922 188.373 96.1142 192.499 91.4902 187.325C88.447 183.92 80.0917 191.085 78.3285 193.113C74.912 197.044 60.0192 191.143 57.6959 185.501C56.8732 183.503 61.637 175.468 58.0909 169.747C56.7282 167.548 46.8642 169.161 45.3364 167.699C43.2794 165.73 50.6215 158.495 49.794 156.988C46.3503 150.717 35.0462 166.443 30.1181 153.789C26.1115 143.501 31.3327 139.638 32.3639 129.721C32.8494 125.054 40.9376 122.771 44.8569 124.462C51.1441 127.175 50.3008 124.647 55.0677 124.135C58.8307 123.732 62.8302 127.921 66.4588 128.538C70.7415 129.267 67.8088 141.067 71.8486 143.893C74.194 145.534 74.139 128.019 74.2907 127.598C76.8537 120.497 88.0552 121.142 89.8432 115.183C94.2507 100.498 104.385 101.597 116.645 96.4129C122.49 93.9413 136.943 91.0741 140.598 85.4475C147.415 74.9555 129.501 59.2999 124.825 51.9047C124.769 51.8158 120.681 56.4293 119.739 56.4673C116.267 56.6077 113.044 37.3883 106.392 48.4227C105.125 50.5254 100.259 51.151 102.975 54.2544C108.278 60.3142 98.0014 61.7634 94.8009 60.9034C91.5542 60.0307 75.6008 50.9571 81.2066 45.8972C92.6415 35.5769 95.2361 40.9192 107.109 40.8699C120.716 40.8133 121.207 53.372 132.46 39.939C135.574 36.2228 115.24 25.5976 119.253 20.89C133.455 4.2275 141.27 41.2349 146.594 47.6547C154.378 57.039 159.389 52.0893 158.769 41.7306C158.478 36.8507 169.052 32.3095 169.775 27.0401C169.923 25.9669 162.959 16.2556 161.927 15.6032C158.256 13.2841 157.41 10.8416 155.526 8.53177C153.151 5.62113 149.424 9.97778 147.306 7.379C146.325 6.1758 128.476 6.84878 126.576 6.86972C117.197 6.51869 106.701 6.82589 97.2485 6.96475C93.3706 6.81697 72.8478 16.6698 72.3032 8.60587C72.0334 4.60801 76.9133 -2.40949 68.201 0.829681C65.4113 1.86648 63.6486 0.339421 64.2122 0.226936C58.1976 1.43052 46.9507 5.55482 42.1305 9.8017C39.4608 12.1538 45.857 13.2402 46.2935 15.2599C47.1348 19.1515 37.1478 26.3951 34.9158 28.9202C26.9713 37.9077 27.3292 49.8679 16.627 58.6103C4.26791 68.7064 3.58066 83.474 3.46138 97.3794C3.40371 104.133 -2.49009 106.976 1.23174 114.612C4.40851 121.13 10.3114 124.254 11.2945 132.166C11.9403 137.362 7.79422 142.186 9.79792 147.247C12.2637 153.473 16.9517 158.999 22.6922 161.957C34.9415 168.27 42.9552 173.004 50.8072 184.57C60.5425 198.911 77.8921 192.65 72.208 207.126C69.8133 213.225 63.7133 216.124 61.2155 222.638C58.2208 230.447 63.9748 236.092 67.6726 242.427C71.3987 248.811 72.7772 256.47 79.3037 260.819C83.9794 263.935 92.4938 266.52 93.6973 272.851C95.6117 282.924 86.9524 295.509 87.8735 304.73C88.4936 310.936 88.6093 317.315 94.1054 321.363C104.007 328.654 101.659 318.489 107.807 313.686C113.576 309.179 120.379 310.512 126.967 308.717C133.011 307.072 125.811 304.891 128.257 303.541C133.445 300.677 136.525 304.975 141.47 300.613C145.976 296.639 152.07 295.505 154.169 289.295C157.602 279.136 173.192 282.855 179.69 274.96C183.697 270.093 185.434 264.915 187.228 259.021C189.435 251.764 200.329 248.442 200.414 240.596C200.472 235.353 200.357 245.839 200.414 240.596Z" fill="#1188FF"/>
</svg>
