<svg width="32" height="32" viewBox="0 0 32 32" fill="none" xmlns="http://www.w3.org/2000/svg">
<path d="M6.66602 9.33333H10.666V6.66667L13.3327 4H17.3327L19.9993 6.66667V9.33333H23.9993C25.0602 9.33333 26.0776 9.75476 26.8278 10.5049C27.5779 11.2551 27.9993 12.2725 27.9993 13.3333V24C27.9993 25.0609 27.5779 26.0783 26.8278 26.8284C26.0776 27.5786 25.0602 28 23.9993 28H6.66602C5.60515 28 4.58773 27.5786 3.83759 26.8284C3.08744 26.0783 2.66602 25.0609 2.66602 24V13.3333C2.66602 12.2725 3.08744 11.2551 3.83759 10.5049C4.58773 9.75476 5.60515 9.33333 6.66602 9.33333ZM13.8793 5.33333L11.9993 7.21333V9.33333H18.666V7.21333L16.786 5.33333H13.8793ZM6.66602 10.6667C5.95877 10.6667 5.28049 10.9476 4.7804 11.4477C4.2803 11.9478 3.99935 12.6261 3.99935 13.3333V24C3.99935 24.7072 4.2803 25.3855 4.7804 25.8856C5.28049 26.3857 5.95877 26.6667 6.66602 26.6667H23.9993C24.7066 26.6667 25.3849 26.3857 25.885 25.8856C26.3851 25.3855 26.666 24.7072 26.666 24V13.3333C26.666 12.6261 26.3851 11.9478 25.885 11.4477C25.3849 10.9476 24.7066 10.6667 23.9993 10.6667H6.66602Z" fill="black"/>
</svg>
