<svg width="747" height="466" viewBox="0 0 747 466" fill="none" xmlns="http://www.w3.org/2000/svg">
<path d="M567.986 203.054C573.843 171.419 579.212 141.134 579.212 141.134C579.212 141.134 562.538 143.795 555.359 150.099C548.18 156.402 547.454 196.541 545.061 207.887C544.591 210.115 544.168 213.712 543.803 218.093C542.442 234.412 544.136 258.85 545.418 265.701C545.334 266.359 544.803 269.593 541.977 275.797C541.977 275.797 540.514 280.56 550.086 287.704C556.187 292.257 561.623 237.441 567.986 203.054Z" fill="#FF7955"/>
<path d="M579.209 141.134C579.209 141.134 576.115 158.588 572.062 180.835C570.778 187.895 569.396 195.434 567.983 203.054C562.245 214.905 557.321 222.963 555.8 221.447C552.698 218.359 547.249 217.978 543.801 218.093C544.165 213.711 544.588 210.114 545.058 207.887C545.247 206.99 545.425 205.914 545.598 204.69C547.605 190.413 548.744 155.904 555.356 150.098C562.536 143.795 579.209 141.134 579.209 141.134Z" fill="#00A3FE"/>
<path d="M572.064 180.835C570.78 187.896 569.398 195.434 567.985 203.055C562.247 214.905 557.323 222.963 555.802 221.447C552.699 218.36 547.251 217.979 543.803 218.093C544.167 213.712 544.59 210.115 545.06 207.887C545.249 206.991 545.427 205.915 545.6 204.691L562.804 160.933L572.064 180.835Z" fill="#0984FF"/>
<path d="M603.021 140.688C603.148 134.581 603.052 127.287 602.269 121.126L579.131 125.11C579.131 125.11 579.131 132.549 579.232 140.805C579.218 140.807 579.21 140.808 579.21 140.808C579.21 140.808 578.579 148.466 587.53 149.587C596.482 150.707 603.263 146.598 603.021 140.688Z" fill="#FF7955"/>
<path d="M579.066 126.613C579.066 126.613 584.517 138.38 590.765 138.38C597.014 138.38 602.863 127.314 602.863 127.314L579.066 126.613Z" fill="#EF6343"/>
<path d="M594.488 464.063C594.488 464.063 595.33 456.966 597.28 452.857C599.23 448.748 611.638 451.363 611.638 451.363C611.638 451.363 614.119 453.604 614.651 464.063H594.488Z" fill="#131F2D"/>
<path d="M552.214 464.007C555.129 462.132 553.47 448.144 553.47 448.144C553.47 448.144 539.884 436.692 538.017 445.46C536.149 454.227 525.11 458.164 518.827 459.238C514.489 459.979 513.146 462.51 512.73 464.007H552.214Z" fill="#131F2D"/>
<path d="M605.225 114.095C605.225 114.095 620.671 88.4351 591.012 86.7367C591.012 86.7367 579.888 88.1168 577.369 85.4629C577.369 85.4629 568.74 99.281 576.799 114.095C584.858 128.909 605.225 114.095 605.225 114.095Z" fill="#131F2D"/>
<path d="M579.819 127.486C582.067 129.35 588.659 131.2 590.565 131.417C590.565 131.417 600.34 129.12 602.117 127.991C604.869 126.233 604.692 122.676 604.833 117.73C605.002 111.875 605.562 107.277 604.942 103.902C604.204 99.8645 601.775 97.5672 594.973 96.943C582.487 95.8008 577.285 99.0957 577.067 103.507C577.011 104.692 576.958 105.821 576.922 106.891C576.422 120.646 577.453 125.524 579.819 127.486Z" fill="#FF7955"/>
<path d="M580.353 359.837C579.8 363.047 579.449 365.681 579.356 367.569C578.093 393.526 558.619 452.875 555.136 454.258C549.746 456.401 541.259 451.846 536.819 450.356C534.979 449.737 533.737 447.781 534.147 445.798C543.79 399.084 547.335 331.818 548.624 291.994C549.275 271.935 552.543 258.078 552.543 258.078C552.543 258.078 600.039 244.726 600.321 261.616C600.571 276.563 584.589 335.18 580.353 359.837Z" fill="#364154"/>
<path d="M580.353 359.837L548.625 291.994C549.276 271.935 552.544 258.078 552.544 258.078C552.544 258.078 600.04 244.726 600.322 261.616C600.572 276.563 584.589 335.18 580.353 359.837Z" fill="#131F2D"/>
<path d="M569.787 261.676L594.895 453.418C594.895 453.418 605.922 456.22 614.498 453.978C614.498 453.978 621.849 352.001 621.236 327.347C620.623 302.693 626.511 261.377 619.892 256.821C613.272 252.265 569.787 261.676 569.787 261.676Z" fill="#364154"/>
<path d="M623.501 256.82C623.584 259.042 621.914 260.893 619.808 260.927L580.242 261.563L551.18 262.031C549.819 262.056 554.121 250.584 554.208 175.782C554.23 159.09 578.755 141.129 579.207 141.129L579.212 141.134C579.212 143.538 582.807 147.976 588.346 148.357C594.918 148.811 602.982 145.365 602.982 141.375C602.982 141.331 603.746 142.202 604.974 144.084C608.255 149.122 614.865 161.403 619.085 182.785C622.417 199.67 621.135 222.246 623.533 251.374C623.709 253.478 623.45 255.347 623.501 256.82Z" fill="#131F2D"/>
<path d="M622.04 261.159C622.04 261.159 616.781 263.642 606.943 265.791C599.628 267.39 589.785 268.808 577.693 268.886C558.461 269.015 551.178 262.031 551.178 262.031C549.817 262.056 554.119 250.583 554.206 175.781C554.228 159.09 578.753 141.128 579.205 141.128L579.21 141.134C579.21 141.134 578.581 163.361 584.962 169.898C584.962 169.898 593.912 162.614 605.523 141.882C608.804 146.919 614.864 161.404 619.083 182.785C619.939 187.136 620.492 191.862 620.881 196.981C622 211.734 621.75 229.748 623.531 251.374C623.707 253.478 623.449 255.346 623.5 256.82C623.582 259.042 624.149 261.126 622.04 261.159Z" fill="#00A3FE"/>
<path d="M622.039 261.159C622.039 261.159 616.78 263.642 606.942 265.79C603.847 260.818 599.947 251.841 599.407 237.696C598.493 213.776 620.058 182.972 620.058 182.972L620.881 196.98C622 211.733 621.75 229.747 623.531 251.373C623.707 253.477 623.449 255.345 623.5 256.819C623.582 259.042 624.148 261.126 622.039 261.159Z" fill="#0984FF"/>
<path d="M603.326 180.155L566.568 202.517L595.68 255.644L632.438 233.282L603.326 180.155Z" fill="#364154"/>
<path d="M626.263 149.167C621.761 145.58 611.187 143.037 605.983 141.955C604.149 141.575 602.981 141.375 602.981 141.375C603.524 144.012 604.744 148.147 606.34 153.111C613.024 173.918 626.273 209.3 623.604 210.053C621.432 210.666 618.653 211.207 615.595 211.678C603.974 213.471 588.336 214.264 586.7 214.344C586.572 214.217 581.002 208.746 578.833 208.746C576.639 208.746 570.315 211.174 569.67 213.042C569.025 214.91 568.766 218.271 570.573 219.019C572.38 219.766 579.866 221.634 581.802 221.82C582.067 221.846 582.386 221.846 582.734 221.812C596.638 226.119 608.608 228.233 617.832 229.232C630.701 230.625 638.228 229.852 638.228 229.852C647.55 208.711 632.352 154.016 626.263 149.167Z" fill="#FF7955"/>
<path d="M638.227 229.852C638.227 229.852 630.7 230.625 617.831 229.233C618.541 225.549 619.2 218.354 615.595 211.678C618.653 211.207 621.432 210.667 623.604 210.053C626.273 209.299 613.024 173.918 606.34 153.111C605.805 146.384 605.523 141.882 605.523 141.882L605.983 141.955C611.187 143.036 621.761 145.58 626.263 149.166C632.352 154.016 647.55 208.711 638.227 229.852Z" fill="#00A3FE"/>
<path d="M584.961 169.897C584.961 169.897 602.864 161.586 603.13 160.932C603.396 160.278 602.244 155.235 601.003 153.741C601.003 153.741 609.6 154.582 610.132 153.461C610.664 152.341 611.063 143.121 611.063 143.121C611.063 143.121 607.484 139.217 603.053 138.844C603.053 138.844 599.162 149.03 597.724 152.061C593.912 160.092 584.961 169.897 584.961 169.897Z" fill="#0984FF"/>
<path d="M580.707 153.462C580.707 153.462 581.859 163.174 584.961 169.898C584.961 169.898 575.611 163.034 574.813 160.793C574.015 158.552 577.073 154.209 577.073 154.209C577.073 154.209 571.49 154.069 571.356 152.108C571.223 150.146 573.085 142.442 573.085 142.442C573.085 142.442 577.887 138.747 579.217 138.888L580.707 153.462Z" fill="#0984FF"/>
<path d="M611.015 99.8006L571.256 100.248C571.256 100.248 570.673 87.6161 577.563 79.5616C577.878 79.1888 578.211 78.8284 578.563 78.4777C580.05 76.9897 581.84 75.7051 583.994 74.7588C591.941 71.2654 598.533 74.489 602.652 77.7914C603.058 78.1141 603.44 78.4399 603.794 78.7626C606.034 80.7674 607.284 82.5565 607.284 82.5565C607.284 82.5565 611.144 88.1054 611.015 99.8006Z" fill="#00A3FE"/>
<path d="M599.847 99.9265C599.738 98.2254 599.036 83.7388 603.865 78.827C603.51 78.5044 603.612 78.5697 603.206 78.2471C598.057 83.8942 597.647 98.1515 597.668 99.9508L584.959 100.094C584.582 89.8338 579.207 79.6174 578.563 78.4774C578.21 78.8281 578.144 78.8972 577.829 79.27C578.762 80.9986 582.271 90.8901 582.607 100.12L571.256 100.248C571.256 100.248 581.845 103.132 589.821 103.028C597.796 102.924 611.015 99.8003 611.015 99.8003L599.847 99.9265Z" fill="#0984FF"/>
<path d="M653.521 218.416H660.035C663.063 216.968 679.373 209.524 695.051 209.433C706.363 209.368 719.252 218.272 720.028 218.368C721.994 218.612 713.475 218.693 713.475 218.693C713.475 218.693 700.709 212.741 694.973 212.6C689.506 212.467 677.368 216.654 672.519 218.415H709.026C712.079 218.415 714.577 221.047 714.577 224.264V268.127C714.577 271.343 712.079 273.975 709.026 273.975H653.521C650.468 273.975 647.971 271.343 647.971 268.127V224.264C647.971 221.048 650.468 218.416 653.521 218.416Z" fill="#00A3FE"/>
<path d="M671.56 218.417H727.065C730.118 218.417 732.615 221.048 732.615 224.265V268.128C732.615 271.344 730.118 273.976 727.065 273.976H671.56C668.508 273.976 666.01 271.344 666.01 268.128V224.265C666.01 221.048 668.508 218.417 671.56 218.417Z" fill="#0984FF"/>
<path d="M376.075 0H80.752V219.454H376.075V0Z" fill="#B8C1C9"/>
<path d="M365.85 11.4062H90.9766V208.048H365.85V11.4062Z" fill="#657285"/>
<path d="M308.733 454.926H302.25L261.74 440.174C244.494 433.893 232.924 416.782 232.924 397.556V216.076C232.924 213.516 231.057 211.314 228.631 211.193C226.041 211.065 223.902 213.24 223.902 215.941V397.552C223.902 416.779 212.333 433.891 195.086 440.171L154.569 454.926H147.191C144.762 454.926 142.673 456.893 142.558 459.45C142.436 462.179 144.5 464.433 147.064 464.433H155.296C155.307 464.433 155.316 464.434 155.327 464.434C155.336 464.434 155.346 464.433 155.355 464.433H173.415C175.801 464.433 177.859 462.53 178.028 460.023C178.11 458.797 177.747 457.667 177.098 456.78L206.866 445.939C220.823 440.856 235.995 440.856 249.952 445.939L279.025 456.527C278.284 457.405 277.843 458.572 277.886 459.851C277.973 462.431 280.072 464.432 282.521 464.432H301.463C301.472 464.432 301.482 464.433 301.491 464.433C301.502 464.433 301.511 464.432 301.522 464.432H308.859C311.423 464.432 313.487 462.179 313.365 459.449C313.251 456.893 311.161 454.926 308.733 454.926Z" fill="#B8C1C9"/>
<path d="M379.984 0H376.074V219.454H379.984V0Z" fill="#35488B"/>
<path d="M232.926 219.454H223.904V228.275H232.926V219.454Z" fill="#35488B"/>
<path d="M339.586 185.61H327.312V159.353H339.586V185.61ZM327.663 185.241H339.235V159.722H327.663V185.241Z" fill="white"/>
<path d="M331.071 185.611H163.749C163.652 185.611 163.573 185.528 163.573 185.426C163.573 185.323 163.651 185.241 163.749 185.241H330.72V134.749H316.839V76.2988H303.309V107.963H292.072V119.615H272.15V112.848H263.629V85.9869H240.825V40.4591L223.144 34.2854V64.4909H218.682V41.8386L201.001 48.8896V75.613H184.31V56.1585H167.183V75.613H163.924V86.9273H149.998V125.526C149.998 125.628 149.919 125.711 149.822 125.711C149.725 125.711 149.646 125.629 149.646 125.526V86.5577H163.572V75.2435H166.832V55.789H184.66V75.2435H200.65V48.6344L219.032 41.304V64.1218H222.793V33.7739L241.175 40.1926V85.6173H263.979V112.479H272.5V119.246H291.721V107.594H302.958V75.9297H317.189V134.38H331.07L331.071 185.611Z" fill="white"/>
<path d="M238.481 47.5052H225.967V42.4424H238.481V47.5052ZM226.318 47.1356H238.13V42.812H226.318V47.1356Z" fill="white"/>
<path d="M238.481 56.3236H225.967V51.2603H238.481V56.3236ZM226.318 55.9541H238.13V51.6298H226.318V55.9541Z" fill="white"/>
<path d="M238.481 64.2552H225.967V59.1924H238.481V64.2552ZM226.318 63.8857H238.13V59.562H226.318V63.8857Z" fill="white"/>
<path d="M317.189 104.875H305.588V97.2612H317.189V104.875ZM305.939 104.506H316.839V97.6308H305.939V104.506Z" fill="white"/>
<path d="M317.189 127.114H302.836V119.5H317.189V127.114ZM303.186 126.744H316.838V119.869H303.186V126.744Z" fill="white"/>
<path d="M317.189 138.058H302.836V130.443H317.189V138.058ZM303.186 137.687H316.838V130.812H303.186V137.687Z" fill="white"/>
<path d="M317.418 149.507H303.064V141.893H317.418V149.507ZM303.415 149.137H317.067V142.262H303.415V149.137Z" fill="white"/>
<path d="M317.418 160.72H303.064V153.105H317.418V160.72ZM303.415 160.35H317.067V153.474H303.415V160.35Z" fill="white"/>
<path d="M317.418 172.169H303.064V164.555H317.418V172.169ZM303.415 171.8H317.067V164.925H303.415V171.8Z" fill="white"/>
<path d="M216.658 64.2552H203.514V59.1924H216.658V64.2552ZM203.865 63.8857H216.307V59.562H203.865V63.8857Z" fill="white"/>
<path d="M216.658 56.3949H203.514V51.332H216.658V56.3949ZM203.865 56.0253H216.307V51.7016H203.865V56.0253Z" fill="white"/>
<path d="M238.791 71.9467H203.514V66.8833H238.791V71.9467ZM203.864 71.5771H238.44V67.2534H203.864V71.5771Z" fill="white"/>
<path d="M238.791 79.0033H203.514V73.9404H238.791V79.0033ZM203.864 78.6337H238.44V74.31H203.864V78.6337Z" fill="white"/>
<path d="M238.791 85.8338H203.514V80.9507H238.791V85.8338ZM203.864 85.4638H238.44V81.3197H203.864V85.4638Z" fill="white"/>
<path d="M317.189 116.169H302.836V108.555H317.189V116.169ZM303.186 115.799H316.838V108.924H303.186V115.799Z" fill="white"/>
<path d="M260.49 94.9282H257.082V90.0186H260.49V94.9282ZM257.433 94.5586H260.139V90.3887H257.433V94.5586Z" fill="white"/>
<path d="M254.773 94.9282H251.365V90.0186H254.773V94.9282ZM251.716 94.5586H254.422V90.3887H251.716V94.5586Z" fill="white"/>
<path d="M249.183 94.9282H245.775V90.0186H249.183V94.9282ZM246.126 94.5586H248.832V90.3887H246.126V94.5586Z" fill="white"/>
<path d="M243.884 94.9282H240.477V90.0186H243.884V94.9282ZM240.828 94.5586H243.533V90.3887H240.828V94.5586Z" fill="white"/>
<path d="M238.486 94.9282H235.078V90.0186H238.486V94.9282ZM235.429 94.5586H238.134V90.3887H235.429V94.5586Z" fill="white"/>
<path d="M233.023 94.9282H229.615V90.0186H233.023V94.9282ZM229.966 94.5586H232.672V90.3887H229.966V94.5586Z" fill="white"/>
<path d="M227.308 94.9282H223.9V90.0186H227.308V94.9282ZM224.252 94.5586H226.957V90.3887H224.252V94.5586Z" fill="white"/>
<path d="M221.718 94.9282H218.311V90.0186H221.718V94.9282ZM218.661 94.5586H221.367V90.3887H218.661V94.5586Z" fill="white"/>
<path d="M216.419 94.9282H213.012V90.0186H216.419V94.9282ZM213.363 94.5586H216.069V90.3887H213.363V94.5586Z" fill="white"/>
<path d="M211.021 94.9282H207.613V90.0186H211.021V94.9282ZM207.964 94.5586H210.67V90.3887H207.964V94.5586Z" fill="white"/>
<path d="M205.392 94.9282H201.984V90.0186H205.392V94.9282ZM202.335 94.5586H205.041V90.3887H202.335V94.5586Z" fill="white"/>
<path d="M199.677 94.9282H196.27V90.0186H199.677V94.9282ZM196.621 94.5586H199.326V90.3887H196.621V94.5586Z" fill="white"/>
<path d="M194.089 94.9282H190.682V90.0186H194.089V94.9282ZM191.032 94.5586H193.738V90.3887H191.032V94.5586Z" fill="white"/>
<path d="M188.79 94.9282H185.383V90.0186H188.79V94.9282ZM185.734 94.5586H188.44V90.3887H185.734V94.5586Z" fill="white"/>
<path d="M183.39 94.9282H179.982V90.0186H183.39V94.9282ZM180.333 94.5586H183.039V90.3887H180.333V94.5586Z" fill="white"/>
<path d="M177.927 94.9282H174.52V90.0186H177.927V94.9282ZM174.87 94.5586H177.576V90.3887H174.87V94.5586Z" fill="white"/>
<path d="M172.21 94.9282H168.803V90.0186H172.21V94.9282ZM169.154 94.5586H171.86V90.3887H169.154V94.5586Z" fill="white"/>
<path d="M166.622 94.9282H163.215V90.0186H166.622V94.9282ZM163.566 94.5586H166.271V90.3887H163.566V94.5586Z" fill="white"/>
<path d="M161.326 94.9282H157.918V90.0186H161.326V94.9282ZM158.269 94.5586H160.975V90.3887H158.269V94.5586Z" fill="white"/>
<path d="M155.925 94.9282H152.518V90.0186H155.925V94.9282ZM152.868 94.5586H155.574V90.3887H152.868V94.5586Z" fill="white"/>
<path d="M260.49 102.939H257.082V98.0303H260.49V102.939ZM257.433 102.57H260.139V98.3998H257.433V102.57Z" fill="white"/>
<path d="M254.773 102.939H251.365V98.0303H254.773V102.939ZM251.716 102.57H254.422V98.3998H251.716V102.57Z" fill="white"/>
<path d="M249.183 102.939H245.775V98.0303H249.183V102.939ZM246.126 102.57H248.832V98.3998H246.126V102.57Z" fill="white"/>
<path d="M243.884 102.939H240.477V98.0303H243.884V102.939ZM240.828 102.57H243.533V98.3998H240.828V102.57Z" fill="white"/>
<path d="M238.486 102.939H235.078V98.0303H238.486V102.939ZM235.429 102.57H238.134V98.3998H235.429V102.57Z" fill="white"/>
<path d="M233.023 102.939H229.615V98.0303H233.023V102.939ZM229.966 102.57H232.672V98.3998H229.966V102.57Z" fill="white"/>
<path d="M227.308 102.939H223.9V98.0303H227.308V102.939ZM224.252 102.57H226.957V98.3998H224.252V102.57Z" fill="white"/>
<path d="M221.718 102.939H218.311V98.0303H221.718V102.939ZM218.661 102.57H221.367V98.3998H218.661V102.57Z" fill="white"/>
<path d="M216.419 102.939H213.012V98.0303H216.419V102.939ZM213.363 102.57H216.069V98.3998H213.363V102.57Z" fill="white"/>
<path d="M211.021 102.939H207.613V98.0303H211.021V102.939ZM207.964 102.57H210.67V98.3998H207.964V102.57Z" fill="white"/>
<path d="M205.392 102.939H201.984V98.0303H205.392V102.939ZM202.335 102.57H205.041V98.3998H202.335V102.57Z" fill="white"/>
<path d="M199.677 102.939H196.27V98.0303H199.677V102.939ZM196.621 102.57H199.326V98.3998H196.621V102.57Z" fill="white"/>
<path d="M194.089 102.939H190.682V98.0303H194.089V102.939ZM191.032 102.57H193.738V98.3998H191.032V102.57Z" fill="white"/>
<path d="M188.79 102.939H185.383V98.0303H188.79V102.939ZM185.734 102.57H188.44V98.3998H185.734V102.57Z" fill="white"/>
<path d="M183.39 102.939H179.982V98.0303H183.39V102.939ZM180.333 102.57H183.039V98.3998H180.333V102.57Z" fill="white"/>
<path d="M177.927 102.939H174.52V98.0303H177.927V102.939ZM174.87 102.57H177.576V98.3998H174.87V102.57Z" fill="white"/>
<path d="M172.21 102.939H168.803V98.0303H172.21V102.939ZM169.154 102.57H171.86V98.3998H169.154V102.57Z" fill="white"/>
<path d="M166.622 102.939H163.215V98.0303H166.622V102.939ZM163.566 102.57H166.271V98.3998H163.566V102.57Z" fill="white"/>
<path d="M161.326 102.939H157.918V98.0303H161.326V102.939ZM158.269 102.57H160.975V98.3998H158.269V102.57Z" fill="white"/>
<path d="M155.925 102.939H152.518V98.0303H155.925V102.939ZM152.868 102.57H155.574V98.3998H152.868V102.57Z" fill="white"/>
<path d="M260.49 110.827H257.082V105.917H260.49V110.827ZM257.433 110.458H260.139V106.288H257.433V110.458Z" fill="white"/>
<path d="M254.773 110.827H251.365V105.917H254.773V110.827ZM251.716 110.458H254.422V106.288H251.716V110.458Z" fill="white"/>
<path d="M249.183 110.827H245.775V105.917H249.183V110.827ZM246.126 110.458H248.832V106.288H246.126V110.458Z" fill="white"/>
<path d="M243.884 110.827H240.477V105.917H243.884V110.827ZM240.828 110.458H243.533V106.288H240.828V110.458Z" fill="white"/>
<path d="M238.486 110.827H235.078V105.917H238.486V110.827ZM235.429 110.458H238.134V106.288H235.429V110.458Z" fill="white"/>
<path d="M233.023 110.827H229.615V105.917H233.023V110.827ZM229.966 110.458H232.672V106.288H229.966V110.458Z" fill="white"/>
<path d="M227.308 110.827H223.9V105.917H227.308V110.827ZM224.252 110.458H226.957V106.288H224.252V110.458Z" fill="white"/>
<path d="M221.718 110.827H218.311V105.917H221.718V110.827ZM218.661 110.458H221.367V106.288H218.661V110.458Z" fill="white"/>
<path d="M216.419 110.827H213.012V105.917H216.419V110.827ZM213.363 110.458H216.069V106.288H213.363V110.458Z" fill="white"/>
<path d="M211.021 110.827H207.613V105.917H211.021V110.827ZM207.964 110.458H210.67V106.288H207.964V110.458Z" fill="white"/>
<path d="M205.392 110.827H201.984V105.917H205.392V110.827ZM202.335 110.458H205.041V106.288H202.335V110.458Z" fill="white"/>
<path d="M199.677 110.827H196.27V105.917H199.677V110.827ZM196.621 110.458H199.326V106.288H196.621V110.458Z" fill="white"/>
<path d="M194.089 110.827H190.682V105.917H194.089V110.827ZM191.032 110.458H193.738V106.288H191.032V110.458Z" fill="white"/>
<path d="M188.79 110.827H185.383V105.917H188.79V110.827ZM185.734 110.458H188.44V106.288H185.734V110.458Z" fill="white"/>
<path d="M183.39 110.827H179.982V105.917H183.39V110.827ZM180.333 110.458H183.039V106.288H180.333V110.458Z" fill="white"/>
<path d="M177.927 110.827H174.52V105.917H177.927V110.827ZM174.87 110.458H177.576V106.288H174.87V110.458Z" fill="white"/>
<path d="M172.21 110.827H168.803V105.917H172.21V110.827ZM169.154 110.458H171.86V106.288H169.154V110.458Z" fill="white"/>
<path d="M166.622 110.827H163.215V105.917H166.622V110.827ZM163.566 110.458H166.271V106.288H163.566V110.458Z" fill="white"/>
<path d="M161.326 110.827H157.918V105.917H161.326V110.827ZM158.269 110.458H160.975V106.288H158.269V110.458Z" fill="white"/>
<path d="M155.925 110.827H152.518V105.917H155.925V110.827ZM152.868 110.458H155.574V106.288H152.868V110.458Z" fill="white"/>
<path d="M260.49 119.208H257.082V114.298H260.49V119.208ZM257.433 118.838H260.139V114.668H257.433V118.838Z" fill="white"/>
<path d="M254.773 119.208H251.365V114.298H254.773V119.208ZM251.716 118.838H254.422V114.668H251.716V118.838Z" fill="white"/>
<path d="M249.183 119.208H245.775V114.298H249.183V119.208ZM246.126 118.838H248.832V114.668H246.126V118.838Z" fill="white"/>
<path d="M243.884 119.208H240.477V114.298H243.884V119.208ZM240.828 118.838H243.533V114.668H240.828V118.838Z" fill="white"/>
<path d="M238.486 119.208H235.078V114.298H238.486V119.208ZM235.429 118.838H238.134V114.668H235.429V118.838Z" fill="white"/>
<path d="M233.023 119.208H229.615V114.298H233.023V119.208ZM229.966 118.838H232.672V114.668H229.966V118.838Z" fill="white"/>
<path d="M227.308 119.208H223.9V114.298H227.308V119.208ZM224.252 118.838H226.957V114.668H224.252V118.838Z" fill="white"/>
<path d="M221.718 119.208H218.311V114.298H221.718V119.208ZM218.661 118.838H221.367V114.668H218.661V118.838Z" fill="white"/>
<path d="M216.419 119.208H213.012V114.298H216.419V119.208ZM213.363 118.838H216.069V114.668H213.363V118.838Z" fill="white"/>
<path d="M211.021 119.208H207.613V114.298H211.021V119.208ZM207.964 118.838H210.67V114.668H207.964V118.838Z" fill="white"/>
<path d="M205.392 119.208H201.984V114.298H205.392V119.208ZM202.335 118.838H205.041V114.668H202.335V118.838Z" fill="white"/>
<path d="M199.677 119.208H196.27V114.298H199.677V119.208ZM196.621 118.838H199.326V114.668H196.621V118.838Z" fill="white"/>
<path d="M194.089 119.208H190.682V114.298H194.089V119.208ZM191.032 118.838H193.738V114.668H191.032V118.838Z" fill="white"/>
<path d="M188.79 119.208H185.383V114.298H188.79V119.208ZM185.734 118.838H188.44V114.668H185.734V118.838Z" fill="white"/>
<path d="M183.39 119.208H179.982V114.298H183.39V119.208ZM180.333 118.838H183.039V114.668H180.333V118.838Z" fill="white"/>
<path d="M177.927 119.208H174.52V114.298H177.927V119.208ZM174.87 118.838H177.576V114.668H174.87V118.838Z" fill="white"/>
<path d="M172.21 119.208H168.803V114.298H172.21V119.208ZM169.154 118.838H171.86V114.668H169.154V118.838Z" fill="white"/>
<path d="M166.622 119.208H163.215V114.298H166.622V119.208ZM163.566 118.838H166.271V114.668H163.566V118.838Z" fill="white"/>
<path d="M161.326 119.208H157.918V114.298H161.326V119.208ZM158.269 118.838H160.975V114.668H158.269V118.838Z" fill="white"/>
<path d="M155.925 119.208H152.518V114.298H155.925V119.208ZM152.868 118.838H155.574V114.668H152.868V118.838Z" fill="white"/>
<path d="M260.49 127.219H257.082V122.31H260.49V127.219ZM257.433 126.85H260.139V122.68H257.433V126.85Z" fill="white"/>
<path d="M254.773 127.219H251.365V122.31H254.773V127.219ZM251.716 126.85H254.422V122.68H251.716V126.85Z" fill="white"/>
<path d="M249.183 127.219H245.775V122.31H249.183V127.219ZM246.126 126.85H248.832V122.68H246.126V126.85Z" fill="white"/>
<path d="M243.884 127.219H240.477V122.31H243.884V127.219ZM240.828 126.85H243.533V122.68H240.828V126.85Z" fill="white"/>
<path d="M238.486 127.219H235.078V122.31H238.486V127.219ZM235.429 126.85H238.134V122.68H235.429V126.85Z" fill="white"/>
<path d="M233.023 127.219H229.615V122.31H233.023V127.219ZM229.966 126.85H232.672V122.68H229.966V126.85Z" fill="white"/>
<path d="M227.308 127.219H223.9V122.31H227.308V127.219ZM224.252 126.85H226.957V122.68H224.252V126.85Z" fill="white"/>
<path d="M221.718 127.219H218.311V122.31H221.718V127.219ZM218.661 126.85H221.367V122.68H218.661V126.85Z" fill="white"/>
<path d="M216.419 127.219H213.012V122.31H216.419V127.219ZM213.363 126.85H216.069V122.68H213.363V126.85Z" fill="white"/>
<path d="M211.021 127.219H207.613V122.31H211.021V127.219ZM207.964 126.85H210.67V122.68H207.964V126.85Z" fill="white"/>
<path d="M205.392 127.219H201.984V122.31H205.392V127.219ZM202.335 126.85H205.041V122.68H202.335V126.85Z" fill="white"/>
<path d="M199.677 127.219H196.27V122.31H199.677V127.219ZM196.621 126.85H199.326V122.68H196.621V126.85Z" fill="white"/>
<path d="M194.089 127.219H190.682V122.31H194.089V127.219ZM191.032 126.85H193.738V122.68H191.032V126.85Z" fill="white"/>
<path d="M188.79 127.219H185.383V122.31H188.79V127.219ZM185.734 126.85H188.44V122.68H185.734V126.85Z" fill="white"/>
<path d="M183.39 127.219H179.982V122.31H183.39V127.219ZM180.333 126.85H183.039V122.68H180.333V126.85Z" fill="white"/>
<path d="M177.927 127.219H174.52V122.31H177.927V127.219ZM174.87 126.85H177.576V122.68H174.87V126.85Z" fill="white"/>
<path d="M172.21 127.219H168.803V122.31H172.21V127.219ZM169.154 126.85H171.86V122.68H169.154V126.85Z" fill="white"/>
<path d="M161.326 127.219H158.163C158.028 127.219 157.918 127.104 157.918 126.961V122.31H161.326V127.219ZM158.269 126.85H160.975V122.68H158.269V126.85Z" fill="white"/>
<path d="M166.622 127.219H163.215V122.31H166.622V127.219ZM163.566 126.85H166.272V122.68H163.566V126.85Z" fill="white"/>
<path d="M155.925 126.818L152.518 126.202V122.31H155.925V126.818ZM152.868 125.89L155.574 126.38V122.68H152.868V125.89Z" fill="white"/>
<path d="M260.49 135.108H257.082V130.199H260.49V135.108ZM257.433 134.738H260.139V130.568H257.433V134.738Z" fill="white"/>
<path d="M254.773 135.108H251.365V130.199H254.773V135.108ZM251.716 134.738H254.422V130.568H251.716V134.738Z" fill="white"/>
<path d="M249.183 135.108H245.775V130.199H249.183V135.108ZM246.126 134.738H248.832V130.568H246.126V134.738Z" fill="white"/>
<path d="M243.884 135.108H240.477V130.199H243.884V135.108ZM240.828 134.738H243.533V130.568H240.828V134.738Z" fill="white"/>
<path d="M238.486 135.108H235.078V130.199H238.486V135.108ZM235.429 134.738H238.134V130.568H235.429V134.738Z" fill="white"/>
<path d="M233.023 135.108H229.615V130.199H233.023V135.108ZM229.966 134.738H232.672V130.568H229.966V134.738Z" fill="white"/>
<path d="M227.308 135.108H223.9V130.199H227.308V135.108ZM224.252 134.738H226.957V130.568H224.252V134.738Z" fill="white"/>
<path d="M221.718 135.108H218.311V130.199H221.718V135.108ZM218.661 134.738H221.367V130.568H218.661V134.738Z" fill="white"/>
<path d="M216.419 135.108H213.012V130.199H216.419V135.108ZM213.363 134.738H216.069V130.568H213.363V134.738Z" fill="white"/>
<path d="M211.021 135.108H207.613V130.199H211.021V135.108ZM207.964 134.738H210.67V130.568H207.964V134.738Z" fill="white"/>
<path d="M205.392 135.108H201.984V130.199H205.392V135.108ZM202.335 134.738H205.041V130.568H202.335V134.738Z" fill="white"/>
<path d="M199.677 135.108H196.27V130.199H199.677V135.108ZM196.621 134.738H199.326V130.568H196.621V134.738Z" fill="white"/>
<path d="M194.089 135.108H190.682V130.199H194.089V135.108ZM191.032 134.738H193.738V130.568H191.032V134.738Z" fill="white"/>
<path d="M188.79 135.108H185.383V130.199H188.79V135.108ZM185.734 134.738H188.44V130.568H185.734V134.738Z" fill="white"/>
<path d="M183.39 135.108H179.982V130.199H183.39V135.108ZM180.333 134.738H183.039V130.568H180.333V134.738Z" fill="white"/>
<path d="M177.927 135.108H174.52V130.199H177.927V135.108ZM174.87 134.738H177.576V130.568H174.87V134.738Z" fill="white"/>
<path d="M172.21 135.108H168.803V130.199H172.21V135.108ZM169.154 134.738H171.86V130.568H169.154V134.738Z" fill="white"/>
<path d="M127.245 151.139H120.094V121.224H127.245V151.139ZM120.445 150.77H126.894V121.594H120.445V150.77Z" fill="white"/>
<path d="M292.074 119.594H281.338V107.572H286.381V98.1289H287.1V107.572H292.074V119.594ZM281.689 119.225H291.724V107.942H286.75L286.732 98.499V107.942H281.689V119.225H281.689Z" fill="white"/>
<path d="M297.732 107.973V75.943H300.318V72.79H301.037V75.943H313.549V72.79H314.268V75.943H317.19V83.5572L305.939 83.5777V86.7377L317.19 86.7166V94.3309H303.309V107.962L297.732 107.973ZM298.083 76.3126V107.603L302.958 107.594V93.9618H316.839V87.0873L305.589 87.1083V83.2087L316.839 83.1882V76.3131H313.917L313.9 73.1601V76.3131H300.686L300.669 73.1601V76.3131H298.083V76.3126Z" fill="white"/>
<path d="M166.062 169.513C165.965 169.513 165.886 169.43 165.886 169.328V128.62L127.039 121.591C126.943 121.573 126.879 121.478 126.895 121.377C126.912 121.277 127.002 121.21 127.098 121.226L166.237 128.308V169.328C166.237 169.43 166.159 169.513 166.062 169.513Z" fill="white"/>
<path d="M166.237 185.611H117.24V150.77H166.237V185.611ZM117.592 185.241H165.886V151.14H117.592V185.241Z" fill="white"/>
<path d="M166.237 141.743H117.24V130.169H166.237V141.743ZM117.592 141.373H165.886V130.538H117.592V141.373Z" fill="white"/>
<path d="M162.925 163.996H160.076V159.917H162.925V163.996ZM160.427 163.627H162.574V160.286H160.427V163.627Z" fill="white"/>
<path d="M158.254 163.996H155.404V159.917H158.254V163.996ZM155.755 163.627H157.903V160.286H155.755V163.627Z" fill="white"/>
<path d="M153.685 163.996H150.836V159.917H153.685V163.996ZM151.187 163.627H153.334V160.286H151.187V163.627Z" fill="white"/>
<path d="M149.355 163.996H146.506V159.917H149.355V163.996ZM146.857 163.627H149.004V160.286H146.857V163.627Z" fill="white"/>
<path d="M144.943 163.996H142.094V159.917H144.943V163.996ZM142.444 163.627H144.592V160.286H142.444V163.627Z" fill="white"/>
<path d="M140.478 163.996H137.629V159.917H140.478V163.996ZM137.98 163.627H140.127V160.286H137.98V163.627Z" fill="white"/>
<path d="M135.806 163.996H132.957V159.917H135.806V163.996ZM133.307 163.627H135.455V160.286H133.307V163.627Z" fill="white"/>
<path d="M131.24 163.996H128.391V159.917H131.24V163.996ZM128.741 163.627H130.889V160.286H128.741V163.627Z" fill="white"/>
<path d="M126.908 163.996H124.059V159.917H126.908V163.996ZM124.409 163.627H126.557V160.286H124.409V163.627Z" fill="white"/>
<path d="M122.494 163.996H119.645V159.917H122.494V163.996ZM119.995 163.627H122.143V160.286H119.995V163.627Z" fill="white"/>
<path d="M162.925 170.544H160.076V166.464H162.925V170.544ZM160.427 170.174H162.574V166.833H160.427V170.174Z" fill="white"/>
<path d="M158.254 170.544H155.404V166.464H158.254V170.544ZM155.755 170.174H157.903V166.833H155.755V170.174Z" fill="white"/>
<path d="M153.685 170.544H150.836V166.464H153.685V170.544ZM151.187 170.174H153.334V166.833H151.187V170.174Z" fill="white"/>
<path d="M149.355 170.544H146.506V166.464H149.355V170.544ZM146.857 170.174H149.004V166.833H146.857V170.174Z" fill="white"/>
<path d="M144.943 170.544H142.094V166.464H144.943V170.544ZM142.444 170.174H144.592V166.833H142.444V170.174Z" fill="white"/>
<path d="M140.478 170.544H137.629V166.464H140.478V170.544ZM137.98 170.174H140.127V166.833H137.98V170.174Z" fill="white"/>
<path d="M135.806 170.544H132.957V166.464H135.806V170.544ZM133.307 170.174H135.455V166.833H133.307V170.174Z" fill="white"/>
<path d="M131.24 170.544H128.391V166.464H131.24V170.544ZM128.741 170.174H130.889V166.833H128.741V170.174Z" fill="white"/>
<path d="M126.908 170.544H124.059V166.464H126.908V170.544ZM124.409 170.174H126.557V166.833H124.409V170.174Z" fill="white"/>
<path d="M122.494 170.544H119.645V166.464H122.494V170.544ZM119.995 170.174H122.143V166.833H119.995V170.174Z" fill="white"/>
<path d="M162.925 148.227H160.076V144.147H162.925V148.227ZM160.427 147.857H162.574V144.517H160.427V147.857Z" fill="white"/>
<path d="M158.254 148.227H155.404V144.147H158.254V148.227ZM155.755 147.857H157.903V144.517H155.755V147.857Z" fill="white"/>
<path d="M153.685 148.227H150.836V144.147H153.685V148.227ZM151.187 147.857H153.334V144.517H151.187V147.857Z" fill="white"/>
<path d="M149.355 148.227H146.506V144.147H149.355V148.227ZM146.857 147.857H149.004V144.517H146.857V147.857Z" fill="white"/>
<path d="M144.943 148.227H142.094V144.147H144.943V148.227ZM142.444 147.857H144.592V144.517H142.444V147.857Z" fill="white"/>
<path d="M140.478 148.227H137.629V144.147H140.478V148.227ZM137.98 147.857H140.127V144.517H137.98V147.857Z" fill="white"/>
<path d="M135.806 148.227H132.957V144.147H135.806V148.227ZM133.307 147.857H135.455V144.517H133.307V147.857Z" fill="white"/>
<path d="M131.24 148.227H128.391V144.147H131.24V148.227ZM128.741 147.857H130.889V144.517H128.741V147.857Z" fill="white"/>
<path d="M162.925 157.35H160.076V153.27H162.925V157.35ZM160.427 156.98H162.574V153.64H160.427V156.98Z" fill="white"/>
<path d="M158.254 157.35H155.404V153.27H158.254V157.35ZM155.755 156.98H157.903V153.64H155.755V156.98Z" fill="white"/>
<path d="M153.685 157.35H150.836V153.27H153.685V157.35ZM151.187 156.98H153.334V153.64H151.187V156.98Z" fill="white"/>
<path d="M149.355 157.35H146.506V153.27H149.355V157.35ZM146.857 156.98H149.004V153.64H146.857V156.98Z" fill="white"/>
<path d="M144.943 157.35H142.094V153.27H144.943V157.35ZM142.444 156.98H144.592V153.64H142.444V156.98Z" fill="white"/>
<path d="M140.478 157.35H137.629V153.27H140.478V157.35ZM137.98 156.98H140.127V153.64H137.98V156.98Z" fill="white"/>
<path d="M135.806 157.35H132.957V153.27H135.806V157.35ZM133.307 156.98H135.455V153.64H133.307V156.98Z" fill="white"/>
<path d="M131.24 157.35H128.391V153.27H131.24V157.35ZM128.741 156.98H130.889V153.64H128.741V156.98Z" fill="white"/>
<path d="M126.908 157.35H124.059V153.27H126.908V157.35ZM124.409 156.98H126.557V153.64H124.409V156.98Z" fill="white"/>
<path d="M122.494 157.35H119.645V153.27H122.494V157.35ZM119.995 156.98H122.143V153.64H119.995V156.98Z" fill="white"/>
<path d="M162.925 176.991H160.076V172.911H162.925V176.991ZM160.427 176.621H162.574V173.28H160.427V176.621Z" fill="white"/>
<path d="M158.254 176.991H155.404V172.911H158.254V176.991ZM155.755 176.621H157.903V173.28H155.755V176.621Z" fill="white"/>
<path d="M153.685 176.991H150.836V172.911H153.685V176.991ZM151.187 176.621H153.334V173.28H151.187V176.621Z" fill="white"/>
<path d="M149.355 176.991H146.506V172.911H149.355V176.991ZM146.857 176.621H149.004V173.28H146.857V176.621Z" fill="white"/>
<path d="M144.943 176.991H142.094V172.911H144.943V176.991ZM142.444 176.621H144.592V173.28H142.444V176.621Z" fill="white"/>
<path d="M140.478 176.991H137.629V172.911H140.478V176.991ZM137.98 176.621H140.127V173.28H137.98V176.621Z" fill="white"/>
<path d="M135.806 176.991H132.957V172.911H135.806V176.991ZM133.307 176.621H135.455V173.28H133.307V176.621Z" fill="white"/>
<path d="M131.24 176.991H128.391V172.911H131.24V176.991ZM128.741 176.621H130.889V173.28H128.741V176.621Z" fill="white"/>
<path d="M126.908 176.991H124.059V172.911H126.908V176.991ZM124.409 176.621H126.557V173.28H124.409V176.621Z" fill="white"/>
<path d="M122.494 176.991H119.645V172.911H122.494V176.991ZM119.995 176.621H122.143V173.28H119.995V176.621Z" fill="white"/>
<path d="M130.58 122.232L129.508 122.038V113.529H130.58V122.232ZM129.859 121.726L130.228 121.793V113.899H129.859V121.726Z" fill="white"/>
<path d="M162.526 137.513H160.076V133.316H162.526V137.513ZM160.427 137.143H162.176V133.686H160.427V137.143Z" fill="white"/>
<path d="M141.684 137.513H139.234V133.316H141.684V137.513ZM139.585 137.143H141.334V133.686H139.585V137.143Z" fill="white"/>
<path d="M125.104 137.513H122.654V133.316H125.104V137.513ZM123.005 137.143H124.754V133.686H123.005V137.143Z" fill="white"/>
<path d="M295.785 185.41H225.428V141.893H295.785V185.41ZM225.779 185.041H295.435V142.262H225.779V185.041Z" fill="white"/>
<path d="M232.257 152.69H228.174V146.315H232.257V152.69ZM228.525 152.32H231.907V146.686H228.525V152.32Z" fill="white"/>
<path d="M238.839 152.69H234.756V146.315H238.839V152.69ZM235.107 152.32H238.489V146.686H235.107V152.32Z" fill="white"/>
<path d="M245.464 152.69H241.381V146.315H245.464V152.69ZM241.732 152.32H245.114V146.686H241.732V152.32Z" fill="white"/>
<path d="M252.046 152.69H247.963V146.315H252.046V152.69ZM248.314 152.32H251.696V146.686H248.314V152.32Z" fill="white"/>
<path d="M258.826 152.69H254.742V146.315H258.826V152.69ZM255.093 152.32H258.475V146.686H255.093V152.32Z" fill="white"/>
<path d="M265.406 152.69H261.322V146.315H265.406V152.69ZM261.673 152.32H265.055V146.686H261.673V152.32Z" fill="white"/>
<path d="M272.033 152.69H267.949V146.315H272.033V152.69ZM268.3 152.32H271.682V146.686H268.3V152.32Z" fill="white"/>
<path d="M278.615 152.69H274.531V146.315H278.615V152.69ZM274.882 152.32H278.264V146.686H274.882V152.32Z" fill="white"/>
<path d="M285.519 152.69H281.436V146.315H285.519V152.69ZM281.786 152.32H285.168V146.686H281.786V152.32Z" fill="white"/>
<path d="M292.101 152.69H288.018V146.315H292.101V152.69ZM288.368 152.32H291.75V146.686H288.368V152.32Z" fill="white"/>
<path d="M232.257 161.57H228.174V155.196H232.257V161.57ZM228.525 161.201H231.907V155.565H228.525V161.201Z" fill="white"/>
<path d="M238.839 161.57H234.756V155.196H238.839V161.57ZM235.107 161.201H238.489V155.565H235.107V161.201Z" fill="white"/>
<path d="M245.464 161.57H241.381V155.196H245.464V161.57ZM241.732 161.201H245.114V155.565H241.732V161.201Z" fill="white"/>
<path d="M252.046 161.57H247.963V155.196H252.046V161.57ZM248.314 161.201H251.696V155.565H248.314V161.201Z" fill="white"/>
<path d="M258.826 161.57H254.742V155.196H258.826V161.57ZM255.093 161.201H258.475V155.565H255.093V161.201Z" fill="white"/>
<path d="M265.406 161.57H261.322V155.196H265.406V161.57ZM261.673 161.201H265.055V155.565H261.673V161.201Z" fill="white"/>
<path d="M272.033 161.57H267.949V155.196H272.033V161.57ZM268.3 161.201H271.682V155.565H268.3V161.201Z" fill="white"/>
<path d="M278.615 161.57H274.531V155.196H278.615V161.57ZM274.882 161.201H278.264V155.565H274.882V161.201Z" fill="white"/>
<path d="M285.519 161.57H281.436V155.196H285.519V161.57ZM281.786 161.201H285.168V155.565H281.786V161.201Z" fill="white"/>
<path d="M292.101 161.57H288.018V155.196H292.101V161.57ZM288.368 161.201H291.75V155.565H288.368V161.201Z" fill="white"/>
<path d="M232.257 171.109H228.174V164.735H232.257V171.109ZM228.525 170.739H231.907V165.104H228.525V170.739Z" fill="white"/>
<path d="M238.839 171.109H234.756V164.735H238.839V171.109ZM235.107 170.739H238.489V165.104H235.107V170.739Z" fill="white"/>
<path d="M245.464 171.109H241.381V164.735H245.464V171.109ZM241.732 170.739H245.114V165.104H241.732V170.739Z" fill="white"/>
<path d="M252.046 171.109H247.963V164.735H252.046V171.109ZM248.314 170.739H251.696V165.104H248.314V170.739Z" fill="white"/>
<path d="M258.826 171.109H254.742V164.735H258.826V171.109ZM255.093 170.739H258.475V165.104H255.093V170.739Z" fill="white"/>
<path d="M265.406 171.109H261.322V164.735H265.406V171.109ZM261.673 170.739H265.055V165.104H261.673V170.739Z" fill="white"/>
<path d="M272.033 171.109H267.949V164.735H272.033V171.109ZM268.3 170.739H271.682V165.104H268.3V170.739Z" fill="white"/>
<path d="M278.615 171.109H274.531V164.735H278.615V171.109ZM274.882 170.739H278.264V165.104H274.882V170.739Z" fill="white"/>
<path d="M285.519 171.109H281.436V164.735H285.519V171.109ZM281.786 170.739H285.168V165.104H281.786V170.739Z" fill="white"/>
<path d="M292.101 171.109H288.018V164.735H292.101V171.109ZM288.368 170.739H291.75V165.104H288.368V170.739Z" fill="white"/>
<path d="M232.257 179.989H228.174V173.615H232.257V179.989ZM228.525 179.62H231.907V173.984H228.525V179.62Z" fill="white"/>
<path d="M238.839 179.989H234.756V173.615H238.839V179.989ZM235.107 179.62H238.489V173.984H235.107V179.62Z" fill="white"/>
<path d="M245.464 179.989H241.381V173.615H245.464V179.989ZM241.732 179.62H245.114V173.984H241.732V179.62Z" fill="white"/>
<path d="M252.046 179.989H247.963V173.615H252.046V179.989ZM248.314 179.62H251.696V173.984H248.314V179.62Z" fill="white"/>
<path d="M258.826 179.989H254.742V173.615H258.826V179.989ZM255.093 179.62H258.475V173.984H255.093V179.62Z" fill="white"/>
<path d="M265.406 179.989H261.322V173.615H265.406V179.989ZM261.673 179.62H265.055V173.984H261.673V179.62Z" fill="white"/>
<path d="M272.033 179.989H267.949V173.615H272.033V179.989ZM268.3 179.62H271.682V173.984H268.3V179.62Z" fill="white"/>
<path d="M278.615 179.989H274.531V173.615H278.615V179.989ZM274.882 179.62H278.264V173.984H274.882V179.62Z" fill="white"/>
<path d="M285.519 179.989H281.436V173.615H285.519V179.989ZM281.786 179.62H285.168V173.984H281.786V179.62Z" fill="white"/>
<path d="M292.101 179.989H288.018V173.615H292.101V179.989ZM288.368 179.62H291.75V173.984H288.368V179.62Z" fill="white"/>
<path d="M286.276 142.262H271.316V136.393L286.276 130.359V142.262ZM271.667 141.892H285.925V130.896L271.667 136.648V141.892Z" fill="white"/>
<path d="M199.669 185.61H165.887V146.848L199.669 159.17V185.61ZM166.237 185.241H199.317V159.434L166.237 147.368V185.241Z" fill="white"/>
<path d="M198.785 161.739H166.77V160.186H198.785V161.739ZM167.12 161.369H198.435V160.555H167.12V161.369Z" fill="white"/>
<path d="M198.785 165.545H166.77V163.991H198.785V165.545ZM167.12 165.175H198.435V164.36H167.12V165.175Z" fill="white"/>
<path d="M198.785 169.351H166.77V167.797H198.785V169.351ZM167.12 168.981H198.435V168.166H167.12V168.981Z" fill="white"/>
<path d="M198.785 173.157H166.77V171.603H198.785V173.157ZM167.12 172.787H198.435V171.973H167.12V172.787Z" fill="white"/>
<path d="M198.785 176.962H166.77V175.409H198.785V176.962ZM167.12 176.592H198.435V175.778H167.12V176.592Z" fill="white"/>
<path d="M198.785 180.768H166.77V179.215H198.785V180.768ZM167.12 180.399H198.435V179.584H167.12V180.399Z" fill="white"/>
<path d="M289.084 142.262H285.924V130.443H289.084V142.262ZM286.275 141.893H288.733V130.813H286.275V141.893Z" fill="white"/>
<path d="M283.188 140.49H277.139V136.188H283.188V140.49ZM277.489 140.12H282.838V136.557H277.489V140.12Z" fill="white"/>
<path d="M171.165 75.0722H168.877V57.3862H171.165V75.0722ZM169.228 74.7021H170.814V57.7552H169.228V74.7021Z" fill="white"/>
<path d="M175.019 75.0722H172.73V57.3862H175.019V75.0722ZM173.082 74.7021H174.668V57.7552H173.082V74.7021Z" fill="white"/>
<path d="M178.82 75.0722H176.531V57.3862H178.82V75.0722ZM176.882 74.7021H178.468V57.7552H176.882V74.7021Z" fill="white"/>
<path d="M182.753 75.0722H180.465V57.3862H182.753V75.0722ZM180.816 74.7021H182.402V57.7552H180.816V74.7021Z" fill="white"/>
<path d="M152.862 456.827L160.717 456.715C160.717 456.715 148.906 442.901 145.279 435.871L135.306 416.464L122.25 419.866L138.82 444.608L152.862 456.827Z" fill="#FF7955"/>
<path d="M79.1695 79.1483C76.1582 77.3447 72.5493 77.1477 70.025 77.3053C70.6753 76.5985 71.9533 76.3406 71.9533 76.3406C70.388 76.0957 66.8944 77.7309 66.8944 77.7309C45.1214 68.8909 50.4093 102.278 50.8671 110.126C51.3207 117.973 34.8397 120.929 23.5118 127.111C1.89812 138.91 0 154.707 0 154.707C0.168461 154.812 0.344084 154.931 0.530979 155.067C1.60319 153.152 3.8106 149.558 5.67238 149.015C5.60172 149.189 3.47264 153.964 2.67796 156.7C9.05439 161.811 20.9824 173.136 29.2958 181.164C29.259 179.595 29.3183 177.367 29.8621 176.191L30.8893 182.708C35.3374 187.017 38.4055 190.048 38.4055 190.048C37.8561 183.706 65.6271 150.24 80.1158 140.217C83.6427 134.746 84.8967 125.081 84.9904 124.319C84.3816 131.983 83.1373 136.282 82.0252 138.702C94.2942 126.804 87.1512 83.9273 79.1695 79.1483Z" fill="#131F2D"/>
<path d="M79.257 140.716C79.3297 140.75 72.2615 144.617 66.945 143.085C61.9439 141.648 58.6766 134.816 58.7452 134.801C60.863 134.357 61.4738 131.291 61.4288 118.113L62.3863 118.312L78.4844 121.671C78.4844 121.671 78.1182 127.009 78.1075 132.038C78.0967 136.26 78.3394 140.265 79.257 140.716Z" fill="#FF7955"/>
<path d="M61.0527 84.6801C61.0527 84.6801 68.9939 75.7721 78.9644 84.2247C78.9644 84.2247 73.162 83.1667 61.0527 84.6801Z" fill="#E37970"/>
<path d="M78.4847 121.671C78.4847 121.671 78.1186 127.01 78.1079 132.038C69.0996 131.77 64.3376 123.112 62.3867 118.312L78.4847 121.671Z" fill="#EF6343"/>
<path d="M60.7247 116.466C60.7247 116.466 56.0037 108.606 54.8706 101.886C54.0615 97.0877 56.3811 79.303 73.3424 81.8641C73.3424 81.8641 78.2687 82.3755 82.8996 85.6709C86.5822 88.2914 91.8971 93.9493 85.9544 109.469L84.4107 114.712L60.7247 116.466Z" fill="#131F2D"/>
<path d="M142.649 429.089L134.116 429.364L124.879 429.662C124.879 429.662 103.544 404.633 91.5767 364.51C91.2976 363.578 91.0037 362.635 90.6918 361.679C84.1423 341.557 70.5646 316.298 63.4094 293.436C62.2706 289.795 61.248 286.367 60.3304 283.123C60.037 282.084 59.7503 281.063 59.4784 280.058C54.2054 260.753 52.6786 248.079 51.2715 234.537L96.9608 234.922C96.9598 234.922 111.279 327.445 142.649 429.089Z" fill="#364154"/>
<path d="M95.7049 203.69C96.3106 229.589 99.3117 240.711 99.3117 240.711C99.3117 240.711 77.1895 252.554 50.8973 243.836C50.5875 243.734 52.6019 136.817 60.0582 133.87C61.773 136.121 66.8842 138.309 71.4326 138.201C76.6698 138.08 78.3682 135.717 78.0963 133.138C83.6776 136.41 94.838 166.609 95.7049 203.69Z" fill="#E7F1FD"/>
<path d="M81.4955 126.433C81.4955 126.433 60.1818 126.803 60.167 112.814C60.1526 98.8248 57.3917 89.4518 70.9992 88.6236C84.6066 87.796 87.2564 93.1308 88.3394 97.7987C89.4219 102.467 87.0394 125.976 81.4955 126.433Z" fill="#FF7955"/>
<path d="M87.7035 90.0211C84.4142 85.8204 81.9272 86.7338 80.5309 87.9952C75.9251 80.7435 61.3673 91.2307 61.3673 91.2307C54.2038 98.4203 53.0723 107.018 53.0723 107.018C53.0723 107.018 56.9571 109.546 65.9127 107.12C72.9609 105.21 78.0756 94.6399 79.9348 90.2229C81.2021 91.4098 83.8766 94.1533 84.6779 96.8395C85.7404 100.402 86.2186 107.735 88.2468 107.486C88.2478 107.486 92.6442 96.3313 87.7035 90.0211Z" fill="#131F2D"/>
<path d="M167.26 149.651C167.26 149.651 170.264 138.241 182.169 139.853C183.535 140.304 187.528 141.981 184.976 146.485C183.096 149.804 182.281 148.091 179.322 152.553C176.364 157.014 173.152 158.021 169.483 157.488L167.26 149.651Z" fill="#FF7955"/>
<path d="M65.5265 456.029C64.801 451.826 63.4216 444.557 63.4216 444.557L63.7416 418.765H48.875L54.4378 443.451C54.5525 444.597 54.8562 449.044 53.295 453.76C53.295 453.76 51.8669 460.614 58.274 460.742C64.6802 460.869 66.2516 460.232 65.5265 456.029Z" fill="#FF7955"/>
<path d="M53.2937 453.76C53.2937 453.76 52.0237 460.995 52.7493 464.434C52.7493 464.434 54.6265 464.434 59.2809 464.434C63.6932 464.434 66.2088 464.434 66.2088 464.434C66.2088 464.434 66.2662 456.578 65.0874 453.585C65.0874 453.585 60.5467 460.765 53.2937 453.76Z" fill="#131F2D"/>
<path d="M160.848 456.788C160.805 456.768 160.761 456.746 160.718 456.715C157.574 456.818 154.408 455.603 151.539 452.202C142.813 441.842 137.908 440.686 136.197 440.69C134.724 443.888 133.098 447.483 135.19 451.533L138.315 464.433H141.685L141.718 452.255C143.938 452.871 146.102 453.99 147.067 456.023C149.425 460.99 151.061 464.433 153.25 464.433C154.484 464.433 168.394 464.433 168.394 464.433C168.394 464.433 168.101 460.227 160.848 456.788Z" fill="#131F2D"/>
<path d="M167.26 149.651C167.26 149.651 153.27 157.892 148.273 160.269C145.424 161.624 138.868 164.859 134.248 167.145C131.309 168.6 127.815 167.803 125.704 165.204C118.119 155.869 98.4666 135.622 78.1883 133.138L78.2144 133.191L78.0977 133.138C78.0977 133.138 90.4291 165.237 90.7916 171.733C91.1542 178.228 92.2423 277.962 92.2423 277.962C92.2423 277.962 91.5167 282.547 99.8578 280.637C108.199 278.726 110.375 276.815 110.375 276.815C110.375 276.815 102.396 215.294 104.573 193.896C105.002 189.678 104.611 184.935 103.711 180.039C116.065 187.956 130.684 191.475 130.684 191.475C130.684 191.475 141.613 186.452 156.553 174.917C161.243 171.296 169.483 157.487 169.483 157.487L167.26 149.651Z" fill="#00A3FE"/>
<path d="M134.116 429.363L124.879 429.661C124.879 429.661 103.544 404.632 91.5768 364.51C91.2977 363.578 91.0038 362.634 90.6919 361.679C84.1424 341.556 70.5647 316.298 63.4094 293.436C62.2707 289.794 61.2481 286.367 60.3305 283.123C60.0371 282.083 59.7504 281.063 59.4785 280.058L67.0869 273.975C67.0869 273.975 89.9305 312.951 97.0023 349.631C103.145 381.492 127.748 419.83 134.116 429.363Z" fill="#131F2D"/>
<path d="M67.8796 353.047C68.0101 370.885 67.154 411.894 64.9492 428.871H56.7678C52.2455 428.871 49.9894 428.803 49.9894 428.803C44.4589 399.284 40.5238 374.859 37.659 353.812C35.3092 336.54 33.2202 321.733 31.6139 308.985C29.9964 296.158 28.8719 285.416 28.4695 276.341C28.408 274.912 28.3609 273.521 28.3353 272.172C28.3097 270.816 28.3025 269.497 28.3138 268.217L72.957 263.632C72.3947 294.885 67.8069 342.68 67.8796 353.047Z" fill="#364154"/>
<path d="M56.7691 428.87C52.2467 428.87 49.9907 428.802 49.9907 428.802C44.4601 399.283 40.5251 374.858 37.6602 353.811C35.3105 336.539 33.2214 321.732 31.6151 308.984C29.9976 296.157 28.8732 285.416 28.4707 276.34L44.8518 286.493C44.8518 286.493 34.3965 290.379 38.3858 319.802C42.3751 349.226 51.217 424.705 56.7691 428.87Z" fill="#131F2D"/>
<path d="M58.8748 276.051C58.8748 276.051 55.7304 288.023 44.8505 286.495C33.9712 284.966 18.5 278.088 18.5 278.088C18.5 278.088 23.1493 262.608 28.9302 242.272C35.9298 217.652 44.5935 185.913 48.677 165.894C49.823 160.284 50.6064 155.599 50.8968 152.245L60.0566 133.87C60.0566 133.87 73.3814 165.619 74.1065 173.643C74.8315 181.668 58.8748 276.051 58.8748 276.051Z" fill="#00A3FE"/>
<path d="M58.3939 190.456C57.9079 203.448 55.0067 228.668 29.1385 242.168C29.0693 242.202 29.0008 242.241 28.9316 242.271C35.9312 217.651 44.5949 185.912 48.6784 165.893C53.4291 173.375 58.6586 183.302 58.3939 190.456Z" fill="#0984FF"/>
<path d="M105.205 183.351C105.192 184.908 100.928 195.765 93.4165 202.249C91.9618 203.505 90.7969 204.115 89.8686 204.283C77.637 208.695 67.0229 210.985 58.4062 212.1V197.722C69.05 197.004 82.1639 196.253 87.5623 195.948C88.4507 194.457 89.4927 192.347 89.8419 190.214C90.4876 186.259 92.4979 183.327 97.7335 182.601C102.969 181.874 105.219 181.797 105.205 183.351Z" fill="#FF7955"/>
<path d="M60.0571 133.87C60.0571 133.87 37.8417 135.431 32.5227 147.914C27.2036 160.397 25.5113 201.92 32.281 214.148C32.281 214.148 41.6011 216.945 58.0852 213.697C58.2875 213.657 58.4902 213.616 58.6945 213.575C58.6945 213.575 63.9532 200.01 59.2383 197.335C59.2383 197.335 45.3364 198.099 46.787 193.259C48.2371 188.418 60.0571 133.87 60.0571 133.87Z" fill="#00A3FE"/>
<path d="M528.279 255.96L515.248 255.775C515.1 255.727 514.96 255.697 514.807 255.696C514.663 255.697 514.524 255.715 514.386 255.762C512.679 256.308 511.328 260.216 511.29 264.965C511.285 265.216 511.287 265.457 511.293 265.702C511.335 267.796 511.638 269.692 512.112 271.172C512.625 272.756 513.338 273.855 514.147 274.182C514.165 274.192 514.182 274.198 514.195 274.204C514.348 274.261 514.501 274.291 514.658 274.292C514.807 274.295 514.956 274.267 515.105 274.214L629.05 275.833L629.168 266.651L629.283 257.397L528.279 255.96Z" fill="#F4F4F4"/>
<path d="M578.001 273.38C553.976 275.491 539.492 264.205 528.279 255.96L515.248 255.775C515.1 255.727 514.96 255.697 514.807 255.696C514.663 255.697 514.524 255.715 514.386 255.762C512.679 256.308 511.328 260.216 511.29 264.965C511.285 265.216 511.287 265.457 511.293 265.702C511.335 267.796 511.638 269.692 512.112 271.172C512.961 272.86 513.745 273.974 514.147 274.182C514.165 274.192 514.182 274.198 514.195 274.204C514.348 274.261 514.501 274.291 514.658 274.292C514.807 274.295 514.956 274.267 515.105 274.214L629.05 275.833L629.168 266.651C627.498 267.128 616.187 270.028 578.001 273.38Z" fill="#D5D6DA"/>
<path d="M629.472 257.286C627.57 257.269 625.993 261.418 625.952 266.555C625.911 271.691 627.42 275.868 629.322 275.886C631.226 275.903 632.801 271.753 632.843 266.617C632.884 261.48 631.376 257.302 629.472 257.286Z" fill="#D5D6DA"/>
<path d="M65.0598 72.3167C60.6808 73.4761 57.3956 75.3283 54.9429 77.5581C54.6997 77.7783 54.4631 78.0048 54.2352 78.2347L54.2322 78.2379C45.1563 87.3574 48.7779 101.873 48.7779 101.873C48.7779 101.873 49.9864 105.54 50.8174 106.963C51.6485 108.386 63.6998 106.744 64.323 104.007C64.9461 101.271 67.3358 98.4245 67.3358 98.4245C67.3358 98.4245 80.039 97.5047 80.8936 97.4394C83.7635 97.2203 91.9536 94.2179 91.9536 94.2179C91.8604 93.3703 87.2511 66.4451 65.0598 72.3167Z" fill="#00A3FE"/>
<path d="M99.4809 91.3734C97.9565 90.9807 95.3585 90.5442 91.0763 90.3786C91.0763 90.3786 82.7935 93.784 75.646 96.1757C72.2865 91.716 67.4047 80.7012 54.9442 77.558C54.9069 77.5483 54.8725 77.538 54.8352 77.5283C54.5704 77.8795 54.4204 77.9982 54.2366 78.2345L54.2335 78.2378C54.1777 78.3068 54.1183 78.3888 54.0527 78.4903C64.1962 80.3527 69.5753 92.7557 72.8846 97.2493C70.0448 97.9852 71.0412 98.1676 67.3376 98.4244C67.3376 98.4244 89.5397 98.8609 99.6873 93.231C100.46 92.8021 100.33 91.5919 99.4809 91.3734Z" fill="#0984FF"/>
<path d="M436.579 89.7943C445.263 73.2505 468.643 75.2333 468.643 75.2333C444.815 69.2538 432.957 88.9575 432.957 88.9575L431.931 88.5923L426.514 90.1288L474.781 100.367L436.579 89.7943Z" fill="#0984FF"/>
<path d="M388.789 281.102H379.916V465.178H388.789V281.102Z" fill="#B8C1C9"/>
<path d="M721.912 281.102H713.039V465.178H721.912V281.102Z" fill="#B8C1C9"/>
<path d="M746.766 283.324V273.976L352.46 273.976V283.324L746.766 283.324Z" fill="#B8C1C9"/>
<path d="M388.789 283.324H379.916V290.349H388.789V283.324Z" fill="#35488B"/>
<path d="M721.912 283.324H713.039V290.349H721.912V283.324Z" fill="#35488B"/>
<path d="M736.899 256.941C736.899 256.941 735.679 255.176 733.488 253.192C733.141 252.873 732.767 252.551 732.37 252.231C728.338 248.963 721.875 245.758 714.047 249.147C711.925 250.065 710.159 251.317 708.69 252.771C708.343 253.115 708.013 253.467 707.702 253.831C700.889 261.71 701.399 274.129 701.399 274.129L740.48 273.91C740.665 262.416 736.899 256.941 736.899 256.941Z" fill="#00A3FE"/>
<path d="M729.501 273.972C729.4 272.24 728.725 258.029 733.487 253.197C733.14 252.876 733.223 252.932 732.826 252.61C727.746 258.167 727.35 272.156 727.361 273.984L714.868 274.054C714.549 263.968 709.319 253.896 708.69 252.772C708.342 253.115 708.276 253.183 707.965 253.548C708.873 255.252 712.273 264.993 712.556 274.068L701.398 274.13C701.398 274.13 711.792 277.024 719.632 276.966C727.472 276.908 740.479 273.911 740.479 273.911L729.501 273.972Z" fill="#0984FF"/>
<path d="M605.728 255.689L605.733 264.943L605.736 274.129L491.78 274.175C491.634 274.23 491.485 274.259 491.335 274.259C491.178 274.26 491.024 274.231 490.872 274.178C489.274 273.614 488.005 270.092 487.859 265.716C487.848 265.474 487.845 265.231 487.844 264.982C487.82 260.234 489.121 256.304 490.818 255.735C490.958 255.686 491.097 255.664 491.241 255.662C491.391 255.662 491.535 255.687 491.682 255.736L605.728 255.689Z" fill="#F4F4F4"/>
<path d="M605.732 264.943L605.734 274.129L491.779 274.174C491.632 274.229 491.483 274.259 491.334 274.258C491.176 274.26 491.022 274.23 490.87 274.178C489.272 273.613 488.004 270.092 487.857 265.716C493.094 267.737 522.537 274.822 553.676 265.764C590.612 255.02 604.069 265.444 605.732 264.943Z" fill="#D5D6DA"/>
<path d="M605.915 255.576C604.013 255.586 602.491 259.759 602.518 264.895C602.544 270.032 604.108 274.186 606.011 274.176C607.914 274.165 609.435 269.993 609.408 264.857C609.382 259.72 607.818 255.565 605.915 255.576Z" fill="#D5D6DA"/>
<path d="M469.777 134.188C469.777 134.188 497.658 164.515 498.996 175.95C500.334 187.386 485.732 205.275 485.732 205.275L469.777 134.188Z" fill="#0984FF"/>
<path d="M457.857 448.794C457.857 448.794 456.908 464.917 453.948 465.148C453.554 465.179 438.933 465.179 438.933 465.179L420.27 465.065C420.27 465.065 420.392 460.326 425.847 459.325C431.303 458.323 440.434 454.283 443.739 446.685C447.216 438.692 457.857 448.794 457.857 448.794Z" fill="#131F2D"/>
<path d="M499.427 448.795C499.427 448.795 498.478 464.917 495.518 465.148C495.124 465.179 480.503 465.179 480.503 465.179L461.783 465.109C461.783 465.109 461.962 460.326 467.417 459.324C472.873 458.323 482.004 454.283 485.309 446.685C488.786 438.693 499.427 448.795 499.427 448.795Z" fill="#131F2D"/>
<path d="M437.186 275.905C437.186 275.905 442.067 308.8 460.276 367.195C478.486 425.589 480.968 450.876 480.968 450.876C480.968 450.876 485.893 451.628 491.096 451.628C494.387 451.628 500.503 450.298 500.503 450.298C500.503 450.298 500.67 386.48 492.277 357.116C483.885 327.752 490.466 251.254 490.466 251.254L437.186 275.905Z" fill="#131F2D"/>
<path d="M427.681 253.057C427.681 253.057 426.989 302.628 435.129 363.492C443.269 424.357 440.51 450.193 440.51 450.193C440.51 450.193 447.211 451.458 449.565 451.54C452.085 451.628 460.005 450.876 460.005 450.876C460.005 450.876 471.656 389.989 468.315 359.525C464.975 329.061 484.27 254.989 484.27 254.989L427.681 253.057Z" fill="#364154"/>
<path d="M465.422 137.053L456.227 144.229L442.938 141.281C443.121 140.004 443.998 134.711 444.798 129.918C444.846 129.636 444.894 129.353 444.94 129.077C445.624 124.998 446.215 121.494 446.215 121.494L458.626 114.976L463.254 112.546C463.242 112.632 462.895 117.073 462.847 117.721C461.979 129.233 465.422 137.053 465.422 137.053Z" fill="#FF7955"/>
<path d="M443.866 133.433C444.157 133.304 461.943 127.774 463.875 128.446C465.807 129.118 466.952 133.057 466.952 133.057L437.859 139.987C437.859 139.987 440.149 135.081 443.866 133.433Z" fill="#0984FF"/>
<path d="M491.761 259.177C488.746 273.667 438.571 275.386 425.638 262.232C424.167 260.732 424.095 253.757 424.649 244.351C425.734 225.975 429.22 198.333 429.356 184.21C429.422 177.39 430.311 170.414 431.496 164.08C434.016 150.58 437.86 139.986 437.86 139.986C437.86 139.986 462.367 131.638 466.953 133.058C489.045 139.897 494.776 244.685 491.761 259.177Z" fill="#00A3FE"/>
<path d="M424.648 244.351C425.733 225.975 429.219 198.333 429.355 184.21C429.421 177.39 430.31 170.414 431.495 164.08L446.237 161.339C446.237 161.339 460.65 223.371 424.648 244.351Z" fill="#0984FF"/>
<path d="M432.632 218.737C432.632 218.737 433.637 221.268 431.527 222.967C429.416 224.667 428.048 227.42 428.531 229.431C429.014 231.443 433.643 234.725 435.248 234.196C436.852 233.667 440.118 231.017 439.767 229.955C439.415 228.895 441.964 220.643 438.052 217.466C434.14 214.289 432.632 218.737 432.632 218.737Z" fill="#FF7955"/>
<path d="M449.118 136.267C449.118 136.267 434.74 139.102 423.284 156.891C411.828 174.679 404.29 187.904 406.401 194.316C408.512 200.727 427.748 222.963 431.064 222.963C434.38 222.963 439.732 220.422 440.033 214.704C440.033 214.704 426.49 193.316 429.158 190.113C430.299 188.744 446.741 174.679 449.088 181.033C452.972 191.545 449.118 136.267 449.118 136.267Z" fill="#00A3FE"/>
<path d="M461.915 117.924C459.189 123.419 449.033 128.172 444.797 129.918C444.845 129.636 444.893 129.353 444.939 129.077C445.623 124.998 446.214 121.494 446.214 121.494L458.625 114.977C461.369 114.932 463.039 115.662 461.915 117.924Z" fill="#EF6343"/>
<path d="M442.258 122.85C442.258 122.85 464.178 125.505 465.537 111.097C466.896 96.6886 470.64 87.3274 456.703 85.0231C442.765 82.7183 439.523 87.9317 437.959 92.6244C436.395 97.3171 436.591 121.788 442.258 122.85Z" fill="#FF7955"/>
<path d="M438.535 91.1474C438.535 91.1474 442.72 106.759 445.711 105.446C448.703 104.132 451.437 103.055 451.844 107.932C452.251 112.809 448.928 119.201 458.684 118.123C468.439 117.046 477.535 88.1854 474.005 83.7732C463.82 71.0428 424.394 75.9616 438.535 91.1474Z" fill="#131F2D"/>
<path d="M474.781 100.367L426.514 90.129L431.931 88.5925C431.931 88.5925 436.882 67.0651 461.331 72.2127C481.664 76.4932 474.781 100.367 474.781 100.367Z" fill="#00A3FE"/>
</svg>
