<svg width="24" height="24" viewBox="0 0 24 24" fill="none" xmlns="http://www.w3.org/2000/svg">
<path d="M18.9992 15C19.1992 14.8 19.4369 14.7 19.7122 14.7C19.9876 14.7 20.2249 14.8 20.4242 15L21.9992 16.6C22.1992 16.8 22.2992 17.0333 22.2992 17.3C22.2992 17.5666 22.1992 17.8 21.9992 18C21.7992 18.2 21.5659 18.3 21.2992 18.3C21.0326 18.3 20.7992 18.2 20.5992 18L18.9992 16.425C18.7992 16.225 18.6992 15.9876 18.6992 15.713C18.6992 15.4383 18.7992 15.2006 18.9992 15ZM19.9992 2.99995C20.1992 3.19995 20.2992 3.43762 20.2992 3.71295C20.2992 3.98828 20.1992 4.22562 19.9992 4.42495L18.4242 5.99995C18.2242 6.19995 17.9869 6.29995 17.7122 6.29995C17.4376 6.29995 17.1999 6.19995 16.9992 5.99995C16.7986 5.79995 16.6986 5.56262 16.6992 5.28795C16.6999 5.01328 16.7999 4.77562 16.9992 4.57495L18.5992 2.99995C18.7992 2.79995 19.0326 2.69995 19.2992 2.69995C19.5659 2.69995 19.7992 2.79995 19.9992 2.99995ZM3.99922 2.99995C4.19922 2.79995 4.43689 2.69995 4.71222 2.69995C4.98756 2.69995 5.22489 2.79995 5.42422 2.99995L6.99922 4.59995C7.19922 4.79995 7.29922 5.03328 7.29922 5.29995C7.29922 5.56662 7.19922 5.79995 6.99922 5.99995C6.79922 6.19995 6.56189 6.29995 6.28722 6.29995C6.01256 6.29995 5.77489 6.19995 5.57422 5.99995L3.99922 4.42495C3.79922 4.22495 3.69922 3.98762 3.69922 3.71295C3.69922 3.43828 3.79922 3.20062 3.99922 2.99995ZM4.99922 15C5.19922 15.2 5.29922 15.4376 5.29922 15.713C5.29922 15.9883 5.19922 16.2256 4.99922 16.425L3.42422 18C3.22422 18.2 2.98689 18.3 2.71222 18.3C2.43756 18.3 2.19989 18.2 1.99922 18C1.79856 17.8 1.69856 17.5626 1.69922 17.288C1.69989 17.0133 1.79989 16.7756 1.99922 16.575L3.59922 15C3.79922 14.8 4.03256 14.7 4.29922 14.7C4.56589 14.7 4.79922 14.8 4.99922 15ZM11.9992 17.275L7.84922 19.775C7.66589 19.8916 7.47422 19.9416 7.27422 19.9249C7.07422 19.9083 6.89922 19.8416 6.74922 19.725C6.59922 19.6083 6.48256 19.4626 6.39922 19.288C6.31589 19.1133 6.29922 18.9173 6.34922 18.7L7.44922 13.975L3.77422 10.8C3.60756 10.65 3.50356 10.479 3.46222 10.287C3.42089 10.095 3.43322 9.90762 3.49922 9.72495C3.56522 9.54228 3.66522 9.39228 3.79922 9.27495C3.93322 9.15762 4.11656 9.08262 4.34922 9.04995L9.19922 8.62495L11.0742 4.17495C11.1576 3.97495 11.2869 3.82495 11.4622 3.72495C11.6376 3.62495 11.8166 3.57495 11.9992 3.57495C12.1819 3.57495 12.3609 3.62495 12.5362 3.72495C12.7116 3.82495 12.8409 3.97495 12.9242 4.17495L14.7992 8.62495L19.6492 9.04995C19.8826 9.08328 20.0659 9.15828 20.1992 9.27495C20.3326 9.39162 20.4326 9.54162 20.4992 9.72495C20.5659 9.90829 20.5786 10.096 20.5372 10.288C20.4959 10.48 20.3916 10.6506 20.2242 10.8L16.5492 13.975L17.6492 18.7C17.6992 18.9166 17.6826 19.1126 17.5992 19.288C17.5159 19.4633 17.3992 19.609 17.2492 19.725C17.0992 19.841 16.9242 19.9076 16.7242 19.9249C16.5242 19.9423 16.3326 19.8923 16.1492 19.775L11.9992 17.275Z" fill="#1E77D4"/>
</svg>
