<svg width="247" height="247" viewBox="0 0 247 247" fill="none" xmlns="http://www.w3.org/2000/svg">
<g clip-path="url(#clip0_1_11564)">
<path d="M201.31 111.487C217.434 110.746 228.371 118.656 235.909 132.233C240.081 139.748 242.774 147.826 244.469 156.194C245.263 160.115 245.238 164.204 245.549 168.22C246.234 177.073 244.892 185.625 241.71 193.904C238.872 201.287 234.468 207.427 228.307 212.527C222.333 217.472 215.822 221.19 208.489 223.539C200.193 226.196 191.72 226.981 183.07 225.798C182.045 225.658 180.985 225.782 179.696 225.58C179.606 223.541 179.762 221.704 179.998 219.709C180.834 215.969 181.372 212.323 182.4 208.821C183.824 203.966 185.617 199.22 187.454 194.426C193.583 193.692 199.38 192.516 204.262 188.775C209.796 184.534 213.554 179.291 213.228 171.914C212.916 164.882 212.653 157.847 212.247 150.821C211.842 143.804 211.498 136.773 210.712 129.794C210.303 126.167 209.134 122.572 205.904 120.077C205.821 120.037 205.644 119.982 205.647 119.782C205.625 117.421 205.207 115.412 203.435 113.759C202.703 112.902 202.007 112.194 201.31 111.487Z" fill="#DDE9FE"/>
<path d="M166.467 12.4661C169.608 13.6943 171.257 16.2817 171.258 20.0318C171.264 39.5693 171.265 59.1068 171.27 79.0295C171.285 79.6358 171.296 79.8569 171.213 80.2395C170.225 82.8437 170.114 85.2742 171.226 87.9191C171.419 91.7507 171.615 95.349 171.732 99.0968C169.944 102.325 168.236 105.403 166.511 108.264C166.474 80.3915 166.371 52.7353 166.508 25.0803C166.536 19.4734 164.624 16.5219 158.282 20.2263C139.633 31.1208 120.888 41.8526 102.188 52.6613C75.7021 67.97 49.2331 83.3076 22.7331 98.5913C17.4501 101.638 14.8695 105.986 14.8908 112.173C14.9938 142.079 14.9631 171.987 14.9878 201.893C14.9896 204.133 14.6659 206.687 16.896 208.01C19.3161 209.447 21.5134 207.855 23.6035 206.656C28.757 203.699 33.9018 200.727 39.2086 197.708C46.0148 193.839 52.6798 190.054 59.3028 186.196C62.7381 184.196 66.099 182.067 69.6593 179.958C78.3183 175.043 86.8199 170.181 95.3025 165.285C113.8 154.611 132.32 143.976 150.758 133.199C156.098 130.078 162.208 127.867 165.547 122.192C166.69 125.971 165.572 128.855 162.828 131.254C162.181 131.82 161.634 132.502 160.895 133.137C160.543 133.3 160.338 133.458 160.149 133.618C160.165 133.62 160.153 133.588 160.153 133.588C155.615 136.134 151.062 138.654 146.542 141.233C140.593 144.628 134.666 148.059 128.739 151.492C120.92 156.02 113.113 160.567 105.298 165.101C98.7632 168.891 92.2215 172.669 85.6878 176.461C78.8227 180.446 71.9803 184.469 65.0963 188.421C59.2917 191.753 53.4175 194.963 47.6181 198.304C39.7887 202.814 32.0381 207.461 24.1743 211.909C21.7697 213.27 19.4189 215.225 16.357 214.638C14.7847 214.336 13.2934 213.612 11.7876 212.873C11.7657 212.588 11.7218 212.509 11.6779 212.43C11.6081 212.511 11.5384 212.592 11.4687 212.674C11.4687 212.674 11.3005 212.601 11.3987 212.373C11.174 210.189 10.6179 208.238 10.5696 206.274C10.3821 198.647 10.3017 191.016 10.2799 183.387C10.2134 160.168 10.0586 136.948 10.2247 113.731C10.2855 105.224 14.1725 98.28 21.5869 93.9788C67.2627 67.4818 113.004 41.0976 158.787 14.7857C161.045 13.4878 163.893 13.2158 166.467 12.4661Z" fill="#C0E0FF"/>
<path d="M166.382 12.3108C163.893 13.2158 161.045 13.4878 158.787 14.7857C113.004 41.0976 67.2625 67.4818 21.5866 93.9788C14.1722 98.28 10.2852 105.224 10.2244 113.731C10.0584 136.948 10.2132 160.168 10.2796 183.387C10.3014 191.016 10.3818 198.647 10.5694 206.274C10.6177 208.238 11.1738 210.189 11.3493 212.296C7.86156 210.793 4.08177 209.663 2.89868 205.047C2.89499 194.643 2.88531 184.646 2.8823 174.423C2.88867 163.06 2.8962 151.924 2.87103 140.788C2.8693 140.021 2.62367 139.253 2.49146 138.486C2.46226 136.398 2.44591 134.31 2.40151 132.223C2.24994 125.098 1.93471 117.972 1.98119 110.849C2.01618 105.487 3.16252 100.386 6.47696 95.8798C9.43374 91.8599 13.3837 89.2415 17.6023 86.8382C22.649 83.9631 27.6097 80.9372 32.6464 78.0441C36.9966 75.5454 41.4277 73.1874 45.7749 70.6836C51.6349 67.3086 57.4269 63.8154 63.2886 60.4434C69.1447 57.0746 75.0745 53.8339 80.9281 50.4609C86.451 47.2786 91.9049 43.9768 97.4114 40.7656C101.891 38.1532 106.418 35.6214 110.898 33.0099C116.056 30.0036 121.157 26.9004 126.334 23.93C130.831 21.3505 135.42 18.9342 139.93 16.377C143.621 14.284 147.295 12.1559 150.899 9.91773C153.475 8.31757 156.311 7.73823 159.127 8.30016C160.883 8.65046 162.409 10.1186 164.057 11.0523C164.78 11.4622 165.55 11.7903 166.382 12.3108Z" fill="#178BFF"/>
<path d="M133.119 221.38C133.772 217.241 134.428 213.102 135.076 208.962C136.104 202.392 137.036 195.805 138.178 189.255C139.1 183.964 140.206 178.702 141.378 173.461C141.678 172.119 142.286 170.667 143.2 169.68C144.771 167.984 144.437 166.371 143.739 164.554C141.891 159.745 140.051 154.933 138.282 150.096C138.028 149.401 138.181 148.557 138.485 147.719C139.939 148.098 141.074 148.499 142.167 148.993C149.982 152.524 157.755 156.147 165.613 159.58C168.694 160.926 170.68 162.943 171.792 166.145C173.576 171.278 175.642 176.314 177.56 181.502C177.531 181.613 177.471 181.836 177.321 181.923C176.275 181.915 175.29 182.027 174.496 181.688C171.261 180.308 168.089 178.782 164.887 177.325C158.887 174.596 152.882 171.877 146.878 169.154C146.721 169.33 146.564 169.506 146.407 169.682C147.125 170.361 147.737 171.243 148.581 171.681C151.264 173.073 154.034 174.3 156.623 175.666C152.62 177.673 150.403 180.828 149.504 185C149.338 185.772 149.101 186.583 148.682 187.238C144.427 193.884 142.588 201.2 142.278 209.024C142.188 211.296 141.747 213.653 140.947 215.775C139.806 218.802 139.187 221.719 140.171 224.851C136.993 225.054 134.433 224.438 133.119 221.38ZM159.165 165.515C159.028 165.228 158.966 164.844 158.742 164.673C157.783 163.945 156.795 163.248 155.759 162.641C155.653 162.579 154.827 163.285 154.882 163.485C155.203 164.66 155.679 165.793 156.123 166.933C156.175 167.066 156.33 167.213 156.466 167.251C157.192 167.453 157.973 167.843 158.639 167.705C158.951 167.64 159.046 166.533 159.165 165.515Z" fill="#295394"/>
<path d="M201.226 111.332C202.008 112.194 202.704 112.902 203.255 113.752C202.626 113.858 202.144 113.823 201.518 113.669C197.62 113.102 195.924 114.234 195.364 117.928C194.479 123.767 193.86 129.649 192.91 135.477C192.589 137.443 192.016 139.63 190.824 141.134C188.952 143.493 186.483 145.387 184.216 147.422C182.991 148.521 181.661 149.504 180.381 150.537C179.943 150.165 179.66 149.993 179.464 149.749C172.358 140.904 169.987 130.79 171.886 119.738C172.624 115.442 173.546 111.044 176.777 107.596C177.761 107.936 178.579 108.251 179.417 108.751C179.674 110.906 180.817 111.613 182.741 111.489C187.038 111.213 189.744 108.803 191.565 105.129C194.756 107.145 197.948 109.161 201.226 111.332Z" fill="#61AEFF"/>
<path d="M44.8066 221.898C48.0293 219.903 51.2228 217.859 54.48 215.922C65.1104 209.6 75.7545 203.301 86.4131 197.027C91.2333 194.19 96.1002 191.432 101.241 188.739C105.729 189.243 108.379 191.64 109.84 195.449C95.8036 203.674 81.9083 211.814 68.039 219.998C63.4948 222.679 59.018 225.475 54.3649 228.143C53.7745 227.52 53.3427 226.962 52.8822 226.429C50.7379 223.946 48.5801 221.48 44.8066 221.898Z" fill="#4AA5FF"/>
<path d="M176.612 107.572C173.545 111.044 172.623 115.443 171.885 119.739C169.986 130.79 172.357 140.904 179.463 149.749C179.659 149.993 179.942 150.165 180.38 150.537C181.66 149.504 182.99 148.521 184.215 147.422C186.482 145.387 188.951 143.493 190.823 141.134C192.015 139.63 192.588 137.444 192.908 135.477C193.859 129.649 194.478 123.768 195.363 117.928C195.923 114.235 197.619 113.102 201.439 113.837C201.104 116.28 200.246 118.471 200.407 120.584C200.684 124.221 201.07 127.734 199.37 131.17C198.896 132.127 198.658 133.385 198.807 134.435C199.443 138.929 197.933 142.396 194.334 145.101C193.6 145.652 193.207 146.637 192.587 147.364C191.815 148.27 191.096 149.295 190.137 149.954C186.257 152.62 182.293 155.166 178.232 157.662C177.646 156.735 177.187 155.903 176.711 155.041C176.039 155.137 175.343 155.237 174.579 155.186C173.431 153.661 172.349 152.287 171.344 150.738C170.865 146.053 170.309 141.543 169.769 136.809C169.618 133.333 169.452 130.081 169.285 126.828C169.036 126.809 168.786 126.789 168.537 126.769C168.315 127.721 167.91 128.673 167.907 129.625C167.894 132.645 166.641 135.01 164.367 136.875C161.54 139.194 158.674 141.465 155.692 143.625C155.472 142.61 155.384 141.727 155.297 140.845C157.019 138.512 158.742 136.18 160.309 133.718C160.154 133.588 160.166 133.62 160.266 133.768C160.591 133.655 160.816 133.393 161.041 133.131C161.634 132.502 162.181 131.82 162.828 131.254C165.572 128.855 166.69 125.971 165.574 121.973C165.873 117.202 166.201 112.841 166.529 108.481C168.236 105.403 169.944 102.325 171.9 99.1104C173.123 100.883 174.097 102.791 175.098 104.862C175.62 105.874 176.116 106.723 176.612 107.572ZM169.331 120.429C169.628 114.726 169.926 109.022 170.241 102.982C168.674 105.568 168.184 107.976 168.456 110.714C168.678 112.954 168.22 115.252 168.234 117.524C168.242 118.799 168.596 120.072 168.795 121.346C168.973 121.163 169.152 120.979 169.331 120.429Z" fill="#1E77D4"/>
<path d="M54.5098 228.219C59.0174 225.475 63.4941 222.679 68.0383 219.998C81.9076 211.814 95.8029 203.674 109.973 195.557C112.067 198.808 112.529 202.117 110.985 205.573C107.767 207.561 104.573 209.591 101.325 211.529C92.6431 216.709 83.9512 221.874 75.2365 226.999C69.1367 230.587 62.993 234.1 56.8692 237.647C56.2028 238.033 55.5382 238.422 54.7583 238.677C56.079 236.029 56.3942 233.466 55.1366 230.756C54.7766 229.98 54.7106 229.068 54.5098 228.219Z" fill="#2291FF"/>
<path d="M168.34 223.415C165.595 222.431 162.774 221.616 160.123 220.423C155.526 218.355 151.518 215.431 148.252 211.144C149.966 202.94 153.763 195.482 154.577 187.202C155.489 187.676 156.255 188.101 156.975 188.592C160.525 191.015 164.362 192.656 168.726 193.214C169.131 201.918 169.502 210.4 169.787 219.051C169.247 220.619 168.793 222.017 168.34 223.415Z" fill="#DCE8FE"/>
<path d="M154.409 187.184C153.761 195.482 149.965 202.94 148.089 211.102C147.128 214.893 146.162 218.491 145.035 222.37C143.856 224.367 142.321 225.015 140.381 224.827C139.187 221.719 139.806 218.802 140.947 215.775C141.747 213.653 142.187 211.296 142.277 209.024C142.588 201.2 144.427 193.884 148.682 187.238C149.101 186.583 149.338 185.772 149.504 185C150.403 180.828 152.619 177.673 156.8 175.685C158.932 176.425 160.74 177.222 162.508 178.175C160.621 179.83 158.614 181.173 156.983 182.878C155.856 184.056 155.248 185.731 154.409 187.184Z" fill="#283B67"/>
<path d="M54.365 228.143C54.7113 229.068 54.7773 229.98 55.1373 230.756C56.3949 233.466 56.0797 236.029 54.5853 238.715C53.5311 239.183 52.5497 239.67 51.5386 239.742C48.1843 239.983 44.8192 240.076 41.3493 240.068C42.3541 237.323 40.7569 234.511 37.5879 233.481C39.8962 229.63 40.8484 224.974 44.6349 221.898C48.5801 221.48 50.7379 223.946 52.8823 226.429C53.3428 226.962 53.7745 227.52 54.365 228.143Z" fill="white"/>
<path d="M171.231 87.6857C170.115 85.2741 170.226 82.8435 171.378 80.2194C172.373 79.4334 173.16 78.8809 173.834 78.2141C175.334 76.7305 177.142 76.6965 178.659 77.7313C180.709 79.1295 182.721 79.3281 185.035 78.8112C188.888 77.9509 191.354 79.1748 193.061 82.7418C193.644 83.9603 194.092 85.2661 194.422 86.5773C194.843 88.2492 195.081 89.9671 195.398 91.6652C194.771 93.7389 194.144 95.8126 193.255 97.8078C192.952 97.6336 192.91 97.538 192.907 97.2252C192.775 94.7464 194.08 91.9155 190.471 90.9799C190.07 90.8759 189.831 89.7623 189.7 89.0817C189.458 87.8267 189.458 86.519 189.148 85.2856C188.976 84.6014 188.464 83.5968 187.96 83.5013C187.285 83.3734 186.213 83.7722 185.759 84.3176C183.942 86.5003 181.61 87.6319 178.888 87.7902C176.346 87.9379 173.784 87.7345 171.231 87.6857Z" fill="#373639"/>
<path d="M104.209 186.759C106.847 185.614 109.392 183.996 112.149 183.451C115.129 182.862 117.753 184.523 119.155 187.256C120.497 189.874 121.682 192.643 122.415 195.481C123.072 198.025 121.173 199.797 119.286 201.16C117.901 202.159 116.263 202.807 114.567 203.418C114.557 202.285 114.832 201.349 114.863 200.406C115.082 193.849 111.254 188.974 104.209 186.759Z" fill="#336AAC"/>
<path d="M168.349 223.597C168.791 222.017 169.245 220.619 169.925 219.155C171.827 219.678 173.503 220.268 175.372 220.887C176.218 220.946 176.87 220.974 177.523 221.205C177.366 222.422 177.119 223.433 177.065 224.454C176.615 232.976 171.279 237.37 163.131 235.893C161.983 232.547 164.473 230.63 166.029 228.297C166.964 226.897 167.593 225.292 168.349 223.597Z" fill="#FDFFFE"/>
<path d="M140.171 224.851C142.321 225.015 143.856 224.366 145.006 222.565C145.126 223.672 145.114 224.866 144.761 226.18C143.344 226.806 142.315 227.495 141.184 227.784C137.252 228.788 133.32 229.882 129.32 230.504C125.751 231.059 122.011 231.945 118.621 229.616C120.06 228.273 121.302 226.561 122.98 225.668C126.103 224.004 129.48 222.818 132.935 221.406C134.433 224.438 136.993 225.054 140.171 224.851Z" fill="#FDFFFE"/>
<path d="M177.59 181.391C175.643 176.314 173.577 171.278 171.793 166.145C170.68 162.943 168.694 160.926 165.613 159.58C157.756 156.147 149.982 152.524 142.167 148.993C141.074 148.499 139.939 148.098 138.648 147.625C139.401 145.999 140.635 145.841 142.219 146.66C143.371 147.257 144.624 147.661 146.002 148.127C146.172 148.104 146.138 148.075 146.18 148.25C147.664 148.97 149.106 149.515 150.53 150.048C150.512 150.036 150.482 150.003 150.518 150.179C154.415 152.051 158.276 153.748 162.244 155.562C165.002 157.007 167.653 158.334 170.369 159.801C170.884 160.366 171.334 160.793 171.86 161.365C174.208 167.37 176.486 173.225 178.747 179.087C179.194 180.245 179.002 181.139 177.59 181.391Z" fill="#A6BBF6"/>
<path d="M104.046 186.783C111.255 188.973 115.083 193.849 114.865 200.405C114.833 201.349 114.558 202.285 114.394 203.427C113.372 204.261 112.352 204.893 111.16 205.549C112.531 202.117 112.069 198.808 110.126 195.488C108.38 191.64 105.73 189.243 101.414 188.701C102.154 187.977 103.018 187.392 104.046 186.783Z" fill="#7DA3E5"/>
<path d="M118.463 229.711C122.013 231.946 125.753 231.059 129.321 230.504C133.321 229.882 137.253 228.788 141.185 227.784C142.316 227.495 143.345 226.806 144.598 226.288C144.906 228.534 143.569 229.964 141.662 230.415C135.24 231.93 128.871 233.876 122.138 233.508C119.072 233.341 118.141 232.503 118.463 229.711Z" fill="#1E77D4"/>
<path d="M195.541 91.5253C195.081 89.9672 194.843 88.2493 194.422 86.5774C194.093 85.2662 193.644 83.9604 193.061 82.7419C191.354 79.1749 188.888 77.951 185.036 78.8113C182.721 79.3283 180.709 79.1296 178.659 77.7315C177.142 76.6966 175.334 76.7306 173.835 78.2143C173.161 78.881 172.373 79.4335 171.474 80.0579C171.298 79.8569 171.286 79.6358 171.306 79.2514C172.362 77.9752 173.285 76.7425 174.434 75.7787C175.968 74.4917 177.775 74.183 179.478 75.4834C181.439 76.9804 183.504 77.0325 185.788 76.4657C189.484 75.5487 192.053 76.8563 193.803 80.2681C195.607 83.7846 196.245 87.4785 195.541 91.5253Z" fill="#2A292D"/>
<path d="M163.148 236.063C171.279 237.37 176.615 232.976 177.065 224.454C177.119 223.433 177.366 222.422 177.668 221.127C178.514 220.52 179.215 220.194 179.916 219.868C179.761 221.704 179.605 223.541 179.478 225.587C179.921 231.328 175.172 237.189 171.277 238.044C168.326 238.692 165.477 238.593 163.148 236.063Z" fill="#1E77D4"/>
<path d="M155.099 140.858C155.385 141.727 155.472 142.61 155.705 143.787C156.358 144.607 156.864 145.133 157.321 145.831C155.008 147.336 152.745 148.67 150.483 150.003C150.483 150.003 150.512 150.036 150.515 149.851C150.707 148.69 150.896 147.714 151.14 146.452C149.422 147.009 147.78 147.542 146.139 148.075C146.139 148.075 146.173 148.104 146.188 148.12C146.136 144.571 147.328 142.866 150.815 141.776C152.142 141.362 153.537 141.167 155.099 140.858Z" fill="#F7B1B1"/>
<path d="M191.603 104.967C189.744 108.803 187.037 111.213 182.741 111.489C180.816 111.613 179.673 110.906 179.615 108.743C182.522 107.239 185.275 105.981 187.96 104.591C189.193 103.953 190.292 103.057 191.451 102.278C191.515 103.12 191.578 103.963 191.603 104.967Z" fill="#F7B1B1"/>
<path d="M191.49 102.101C190.292 103.057 189.193 103.954 187.96 104.591C185.275 105.981 182.522 107.239 179.597 108.558C178.579 108.251 177.76 107.936 176.777 107.596C176.116 106.723 175.621 105.874 175.275 104.877C177.386 106.541 179.59 107.237 182.141 106.117C183.155 105.671 184.266 105.284 185.08 104.578C187.739 102.272 190.282 99.8315 192.869 97.4426C192.91 97.5382 192.951 97.6338 193.094 97.8476C192.64 99.285 192.084 100.604 191.49 102.101Z" fill="#EAA6A7"/>
<path d="M37.437 233.559C40.7573 234.512 42.3544 237.324 41.1461 240.038C39.7765 240.191 38.5005 240.26 37.2267 240.233C35.3077 240.192 34.6785 239.265 35.4141 237.449C35.9443 236.141 36.6554 234.905 37.437 233.559Z" fill="#336AAC"/>
<path d="M2.46519 138.708C2.62468 139.253 2.87031 140.02 2.87205 140.788C2.89721 151.924 2.88968 163.06 2.78755 174.42C2.68512 174.644 2.49312 174.644 2.49312 174.644C2.47472 162.739 2.45631 150.835 2.46519 138.708Z" fill="#4778B9"/>
<path d="M2.463 174.868C2.49239 174.644 2.68439 174.644 2.78016 174.647C2.8856 184.646 2.89528 194.643 2.89018 204.871C2.71806 204.456 2.42512 203.812 2.42377 203.166C2.40411 193.808 2.42353 184.45 2.463 174.868Z" fill="#5683C3"/>
<path d="M11.4824 212.718C11.5386 212.592 11.6084 212.511 11.6781 212.429C11.722 212.509 11.766 212.588 11.6988 212.724C11.5878 212.781 11.496 212.763 11.4824 212.718Z" fill="#3269AB"/>
<path d="M205.988 120.117C209.135 122.572 210.304 126.167 210.713 129.794C211.499 136.773 211.843 143.804 212.248 150.821C212.654 157.847 212.917 164.882 213.229 171.914C213.555 179.291 209.797 184.534 204.263 188.775C199.381 192.516 193.584 193.692 187.488 194.268C191.844 188.418 196.355 182.715 200.896 177.036C204.276 172.808 206.102 168.115 205.451 162.614C205.197 160.476 205.042 158.326 204.874 156.024C204.897 155.54 204.888 155.214 204.913 154.662C205.1 149.228 205.297 144.019 205.393 138.809C205.497 133.217 205.505 127.623 205.574 121.889C205.589 121.556 205.585 121.366 205.672 121.064C205.838 120.674 205.913 120.396 205.988 120.117Z" fill="#C7D7EE"/>
<path d="M204.84 156.182C205.04 158.326 205.196 160.476 205.449 162.614C206.1 168.115 204.274 172.808 200.894 177.036C196.353 182.715 191.842 188.418 187.285 194.269C185.616 199.22 183.824 203.966 182.399 208.821C181.371 212.323 180.834 215.969 179.997 219.709C179.215 220.194 178.514 220.52 177.667 220.925C176.87 220.974 176.218 220.945 175.441 220.731C175.735 218.688 176.213 216.841 176.557 214.97C177.161 211.686 177.646 208.38 178.251 205.097C178.768 202.29 179.307 199.482 179.982 196.711C180.413 194.947 180.803 193.054 181.748 191.557C184.221 187.638 187.011 183.919 189.631 180.09C190.959 178.15 192.193 176.146 193.461 174.162C193.452 174.154 193.465 174.172 193.619 174.16C193.97 173.939 194.167 173.73 194.467 173.402C195.838 171.967 197.106 170.651 198.513 169.232C199.005 166.442 199.357 163.754 199.816 160.944C202.185 159.934 203.92 158.49 204.84 156.182Z" fill="#293B67"/>
<path d="M205.579 121.175C205.584 121.366 205.588 121.556 205.437 122.035C204.715 126.906 204.129 131.487 203.59 136.072C202.82 142.616 200.252 148.013 194.212 151.337C191.973 152.57 189.843 154 187.507 155.404C185.351 156.648 183.35 157.828 181.16 158.993C180.475 159.065 179.98 159.153 179.418 159.099C179.021 158.557 178.69 158.157 178.359 157.756C182.293 155.166 186.257 152.62 190.137 149.954C191.096 149.295 191.815 148.27 192.587 147.364C193.207 146.637 193.6 145.652 194.334 145.101C197.932 142.396 199.443 138.929 198.807 134.435C198.658 133.385 198.896 132.127 199.37 131.17C201.07 127.734 200.684 124.221 200.407 120.584C200.246 118.471 201.104 116.28 201.582 113.956C202.143 113.823 202.625 113.858 203.289 113.902C205.207 115.413 205.625 117.422 205.584 119.976C205.539 120.638 205.559 120.907 205.579 121.175Z" fill="#1E77D4"/>
<path d="M205.67 121.064C205.559 120.907 205.539 120.638 205.581 120.176C205.643 119.982 205.82 120.037 205.904 120.077C205.912 120.396 205.837 120.674 205.67 121.064Z" fill="#FB6C86"/>
<path d="M166.51 108.264C166.201 112.841 165.873 117.202 165.518 121.78C162.208 127.867 156.097 130.078 150.758 133.199C132.32 143.976 113.8 154.611 95.3024 165.286C86.8198 170.181 78.3182 175.043 69.5244 179.809C68.8283 176.212 68.117 172.727 68.1168 169.243C68.1166 164.78 68.6416 160.313 69.0346 155.857C69.2352 153.582 69.642 151.325 70.0799 149.161C72.3461 151.17 74.3496 153.271 76.6631 154.943C79.8525 157.248 82.2729 156.977 84.9338 154.003C87.2745 151.387 89.475 148.597 91.3864 145.655C95.0008 140.093 98.3633 134.366 101.967 128.654C102.809 128.056 103.515 127.512 104.398 126.942C106.752 125.801 109.699 125.498 109.938 122.252C110.084 120.274 110.038 118.271 109.917 116.29C109.883 115.729 109.282 115.204 108.962 114.477C109.347 112.386 109.712 110.48 110.243 108.546C116.881 104.819 123.36 101.133 129.824 97.4216C137.542 92.9901 145.278 88.5897 152.944 84.0706C156.783 81.8079 159.116 78.3579 159.154 73.8449C159.259 61.2358 159.216 48.6251 159.157 36.0153C159.136 31.5153 156.56 30.0962 152.685 32.3397C137.212 41.2977 121.759 50.2884 106.275 59.2276C101.892 61.7582 99.858 65.5312 99.8625 70.5155C99.8731 82.3223 99.9506 94.1298 99.8447 105.936C99.8012 110.774 100.908 113.62 106.875 110.972C106.944 110.941 107.034 110.956 107.107 111.145C106.886 112.229 106.672 113.117 106.308 113.931C105.674 114.049 104.902 114.122 104.762 114.458C104.408 115.306 104.338 116.273 104.159 117.209C104.163 117.227 104.167 117.193 104.025 117.273C102.367 120.054 100.851 122.754 99.1712 125.469C96.7262 128.028 94.3818 130.519 92.1803 133.13C89.5202 136.284 86.9812 139.541 84.3955 142.746C81.3441 139.284 78.7178 135.928 75.6913 132.984C73.0806 130.444 70.2793 127.818 66.088 128.319C66.0871 128.328 66.1054 128.326 66.0515 128.229C65.9085 128.007 65.7905 127.922 65.4748 127.884C64.6017 128.181 63.8972 128.472 63.0165 128.793C61.5095 129.311 60.1787 129.798 58.8238 130.123C58.7548 129.745 58.7098 129.53 58.7143 129.139C60.046 126.137 60.9402 123.031 62.7225 120.567C64.4055 118.241 65.2617 116.02 64.9774 113.05C65.051 109.244 65.4134 105.615 65.0682 102.054C64.5922 97.1423 61.9119 95.77 57.2483 97.479C57.0724 97.0519 56.9871 96.752 56.9787 96.2822C57.0572 94.8362 57.1664 93.5489 57.0379 92.2858C56.7612 89.5659 55.5605 88.8165 53.1907 90.27C51.1896 91.4974 49.3172 93.1019 47.7795 94.8784C45.4603 97.5578 45.6397 99.5274 47.9209 102.511C48.1114 103.022 48.2502 103.393 48.252 103.901C47.0073 104.342 45.8995 104.646 45.274 104.818C44.7274 106.308 44.4003 107.57 43.8247 108.705C41.4103 113.468 40.8018 118.446 42.2708 123.547C42.5985 124.684 43.9868 125.517 44.8496 126.665C44.5133 127.742 43.8985 128.684 44.0078 129.534C44.1078 130.312 44.8419 131.252 45.5585 131.656C47.0247 132.483 48.6667 132.998 50.2195 133.833C50.179 134.537 50.1551 135.05 49.9917 135.643C48.3378 136.943 46.8234 138.163 45.1472 139.414C43.9781 140.558 42.971 141.672 41.8409 142.89C32.8238 156.004 27.6333 170.583 23.7819 185.698C22.7376 189.797 24.9291 191.813 29.1461 190.852C32.4908 190.09 35.7714 189.046 39.0827 188.355C39.0732 191.642 39.0616 194.702 39.0501 197.761C33.9017 200.727 28.7569 203.699 23.6034 206.656C21.5133 207.855 19.316 209.447 16.8959 208.01C14.6658 206.687 14.9895 204.133 14.9877 201.893C14.9631 171.987 14.9937 142.08 14.8908 112.173C14.8695 105.986 17.4501 101.638 22.733 98.5914C49.233 83.3077 75.702 67.9701 102.188 52.6614C120.888 41.8527 139.632 31.1209 158.282 20.2264C164.624 16.522 166.535 19.4735 166.508 25.0804C166.371 52.7354 166.474 80.3916 166.51 108.264ZM134.292 123.909C132.281 125.07 130.268 126.229 128.258 127.393C124.169 129.761 120.069 132.11 116.011 134.53C115.587 134.783 115.413 135.456 115.123 135.934C115.69 135.956 116.261 136.031 116.82 135.979C117.116 135.952 117.397 135.713 117.674 135.553C130.089 128.385 142.507 121.223 154.902 114.022C155.497 113.677 155.892 112.989 156.38 112.46C156.149 112.182 155.919 111.903 155.688 111.625C148.66 115.664 141.632 119.703 134.292 123.909ZM146.897 103.719C137.03 109.416 127.157 115.1 117.31 120.831C116.486 121.31 115.84 122.094 115.111 122.737C115.274 122.94 115.438 123.144 115.601 123.347C116.096 123.186 116.638 123.106 117.079 122.852C129.808 115.534 142.531 108.204 155.233 100.841C155.72 100.559 156.001 99.9236 156.378 99.4526C156.181 99.1986 155.983 98.9445 155.786 98.6905C152.919 100.298 150.052 101.906 146.897 103.719Z" fill="white"/>
<path d="M41.9642 142.785C42.9714 141.672 43.9785 140.558 45.1602 139.612C45.1328 144.274 49.6383 146.03 53.4976 144.18C59.828 141.145 62.9093 135.757 63.1931 128.762C63.8976 128.472 64.6021 128.181 65.5263 127.982C65.8416 128.192 65.9615 128.276 66.1058 128.326C66.1058 128.326 66.0875 128.328 66.1601 128.467C67.3199 130.782 69.0535 132.872 69.3581 135.153C69.97 139.733 69.802 144.418 69.9559 149.06C69.6424 151.325 69.2356 153.582 69.035 155.857C68.642 160.313 68.117 164.78 68.1172 169.242C68.1174 172.727 68.8287 176.212 69.3589 179.846C66.0993 182.067 62.7384 184.195 59.3031 186.196C52.6802 190.054 46.0151 193.839 39.2089 197.707C39.062 194.701 39.0736 191.642 39.1966 188.231C41.4775 186.886 43.647 185.891 46.0036 184.868C48.8423 183.587 51.8414 182.75 54.0128 180.926C55.2814 179.861 55.2275 177.221 55.7686 175.289C54.6291 175.071 53.4885 174.858 52.3516 174.627C52.2187 174.6 52.1055 174.476 51.8773 174.329C52.5344 173.239 53.1946 172.144 53.8548 171.05C50.0292 172.702 47.5209 175.46 45.5739 178.962C43.4258 179.129 41.4899 179.292 39.5574 179.237C39.6961 177.512 39.9539 176.003 39.9382 174.498C39.9137 172.139 39.7043 169.782 39.6437 167.251C39.9831 165.928 40.4686 164.781 40.4854 163.627C40.5847 156.831 40.1349 149.996 42.2809 143.38C42.329 143.232 42.0765 142.986 41.9642 142.785Z" fill="#DDE9FE"/>
<path d="M192.906 97.2252C190.281 99.8313 187.739 102.272 185.08 104.578C184.266 105.284 183.154 105.671 182.14 106.116C179.59 107.237 177.385 106.54 175.249 104.713C174.097 102.791 173.123 100.882 171.98 98.9607C171.615 95.3489 171.419 91.7506 171.227 87.919C173.784 87.7345 176.346 87.9379 178.887 87.7902C181.609 87.6319 183.942 86.5003 185.758 84.3176C186.212 83.7722 187.284 83.3734 187.959 83.5013C188.463 83.5968 188.976 84.6014 189.147 85.2856C189.457 86.519 189.457 87.8267 189.699 89.0817C189.83 89.7623 190.069 90.8758 190.47 90.9799C194.079 91.9155 192.775 94.7464 192.906 97.2252Z" fill="#F6B1B1"/>
<path d="M160.896 133.137C160.817 133.393 160.592 133.655 160.25 133.767C160.339 133.458 160.544 133.3 160.896 133.137Z" fill="black"/>
<path d="M179.484 159.241C179.979 159.153 180.474 159.065 181.315 159.087C183.492 160.022 185.324 160.847 187.242 161.821C190.447 163.339 193.622 164.599 196.644 166.155C197.391 166.539 197.642 167.886 197.964 168.829C192.164 172.948 186.553 177.077 180.839 181.057C179.961 181.668 178.605 181.593 177.471 181.836C177.471 181.836 177.531 181.613 177.56 181.502C179.001 181.139 179.193 180.245 178.747 179.087C176.486 173.225 174.208 167.369 172.031 161.334C176.561 163.586 178.074 163.192 179.484 159.241Z" fill="#DCE8FD"/>
<path d="M177.321 181.923C178.605 181.593 179.961 181.668 180.839 181.057C186.553 177.077 192.164 172.948 198.035 168.961C198.3 169.148 198.337 169.242 198.374 169.335C197.106 170.651 195.838 171.967 194.327 173.445C193.878 173.795 193.672 173.984 193.465 174.172C193.465 174.172 193.452 174.154 193.301 174.206C189.957 176.527 186.614 178.616 183.613 181.114C180.231 183.929 176.844 185.241 172.641 182.733C169.214 181.068 165.881 179.543 162.548 178.018C160.74 177.222 158.932 176.425 156.946 175.61C154.033 174.3 151.264 173.073 148.58 171.681C147.737 171.243 147.124 170.361 146.406 169.682C146.564 169.506 146.721 169.33 146.878 169.154C152.881 171.877 158.886 174.596 164.886 177.325C168.089 178.782 171.261 180.308 174.496 181.688C175.289 182.027 176.274 181.915 177.321 181.923Z" fill="#9AB3CD"/>
<path d="M159.202 165.707C159.046 166.533 158.951 167.641 158.639 167.705C157.973 167.844 157.192 167.453 156.466 167.251C156.33 167.213 156.175 167.066 156.123 166.933C155.679 165.793 155.202 164.66 154.882 163.485C154.827 163.285 155.652 162.579 155.759 162.641C156.795 163.248 157.783 163.945 158.742 164.673C158.966 164.844 159.028 165.229 159.202 165.707Z" fill="#B0C4FE"/>
<path d="M150.518 150.179C152.744 148.67 155.007 147.336 157.485 145.835C161.718 142.789 165.735 139.911 169.753 137.033C170.309 141.543 170.864 146.053 171.292 150.898C170.221 151.94 169.278 152.647 168.13 153.38C165.531 152.769 163.949 154.433 162.136 155.444C158.275 153.748 154.414 152.051 150.518 150.179Z" fill="black"/>
<path d="M169.769 136.809C165.736 139.911 161.718 142.789 157.535 145.663C156.864 145.133 156.357 144.607 155.838 143.919C158.674 141.466 161.54 139.194 164.367 136.875C166.641 135.01 167.894 132.645 167.906 129.626C167.91 128.673 168.315 127.721 168.537 126.769C168.786 126.789 169.036 126.809 169.285 126.828C169.452 130.081 169.618 133.333 169.769 136.809Z" fill="#1E77D4"/>
<path d="M179.419 159.099C178.076 163.192 176.562 163.586 171.957 161.188C171.335 160.793 170.885 160.366 170.504 159.726C171.122 158.857 172.268 157.846 172.123 157.602C171.222 156.082 172.725 156.07 173.427 155.466C173.952 155.421 174.3 155.379 174.648 155.336C175.344 155.237 176.04 155.137 176.712 155.041C177.188 155.903 177.647 156.735 178.233 157.662C178.691 158.157 179.022 158.557 179.419 159.099Z" fill="#F5B2B2"/>
<path d="M169.331 120.613C169.153 120.979 168.974 121.163 168.796 121.346C168.597 120.072 168.243 118.799 168.235 117.524C168.221 115.252 168.679 112.954 168.457 110.714C168.185 107.976 168.675 105.568 170.242 102.982C169.927 109.022 169.629 114.726 169.331 120.613Z" fill="#1E77D4"/>
<path d="M174.58 155.186C174.299 155.379 173.951 155.421 173.254 155.4C171.381 154.676 169.859 154.015 168.336 153.355C169.279 152.647 170.223 151.94 171.217 151.073C172.35 152.287 173.431 153.661 174.58 155.186Z" fill="#365B99"/>
<path d="M172.737 182.873C176.844 185.241 180.231 183.928 183.613 181.114C186.615 178.615 189.958 176.527 193.31 174.214C192.193 176.146 190.959 178.15 189.632 180.09C187.011 183.919 184.222 187.638 181.749 191.557C180.804 193.054 180.413 194.947 179.983 196.711C179.307 199.482 178.768 202.29 178.251 205.097C177.647 208.38 177.162 211.686 176.558 214.97C176.214 216.841 175.735 218.687 175.249 220.701C173.504 220.267 171.828 219.678 170.012 218.985C169.501 210.4 169.13 201.918 168.779 193.02C170.113 189.36 171.425 186.116 172.737 182.873Z" fill="#295394"/>
<path d="M172.642 182.733C171.425 186.116 170.113 189.36 168.746 192.798C164.361 192.656 160.524 191.015 156.975 188.592C156.254 188.101 155.488 187.676 154.576 187.202C155.249 185.731 155.857 184.056 156.984 182.878C158.615 181.173 160.622 179.829 162.509 178.175C165.882 179.543 169.215 181.068 172.642 182.733Z" fill="#C6D7EE"/>
<path d="M168.131 153.38C169.858 154.015 171.381 154.676 173.076 155.403C172.724 156.071 171.222 156.082 172.123 157.602C172.268 157.846 171.122 158.857 170.438 159.587C167.653 158.334 165.002 157.007 162.244 155.562C163.949 154.433 165.532 152.769 168.131 153.38Z" fill="#DCE8FD"/>
<path d="M146.18 148.25C147.779 147.542 149.421 147.009 151.139 146.452C150.895 147.714 150.707 148.69 150.533 149.863C149.106 149.515 147.664 148.97 146.18 148.25Z" fill="black"/>
<path d="M187.664 155.34C189.844 154 191.974 152.57 194.213 151.337C200.253 148.013 202.821 142.615 203.591 136.072C204.13 131.487 204.716 126.906 205.418 122.177C205.505 127.623 205.497 133.217 205.393 138.809C205.297 144.019 205.099 149.228 204.747 154.686C203.055 155.487 201.595 156.159 200.064 156.568C195.796 157.708 191.592 157.811 187.664 155.34Z" fill="#57A9FF"/>
<path d="M187.507 155.404C191.592 157.811 195.795 157.708 200.063 156.568C201.594 156.16 203.054 155.487 204.712 154.911C204.887 155.214 204.896 155.54 204.873 156.024C203.921 158.49 202.186 159.934 199.619 160.957C195.261 161.285 191.209 161.479 187.157 161.673C185.325 160.847 183.493 160.022 181.506 159.102C183.35 157.828 185.351 156.648 187.507 155.404Z" fill="#1E77D4"/>
<path d="M187.242 161.822C191.208 161.479 195.261 161.285 199.511 161.079C199.357 163.754 199.005 166.442 198.514 169.232C198.337 169.242 198.3 169.148 198.192 168.923C197.642 167.886 197.391 166.539 196.644 166.155C193.622 164.599 190.447 163.34 187.242 161.822Z" fill="#2D5495"/>
<path d="M193.619 174.16C193.672 173.984 193.878 173.795 194.224 173.564C194.167 173.73 193.97 173.939 193.619 174.16Z" fill="#295394"/>
<path d="M107.114 110.95C107.034 110.956 106.945 110.941 106.875 110.972C100.908 113.62 99.8015 110.773 99.845 105.935C99.9509 94.1296 99.8734 82.3221 99.8628 70.5153C99.8583 65.531 101.892 61.758 106.276 59.2274C121.759 50.2882 137.213 41.2975 152.685 32.3395C156.56 30.096 159.136 31.5151 159.158 36.0152C159.217 48.6249 159.26 61.2357 159.154 73.8447C159.117 78.3578 156.783 81.8077 152.945 84.0705C145.278 88.5895 137.542 92.99 129.824 97.4215C123.36 101.133 116.882 104.819 110.222 108.348C110.923 102.928 111.813 97.6766 112.702 92.4253C112.424 92.3707 112.145 92.3161 111.866 92.2616C110.282 98.491 108.698 104.72 107.114 110.95ZM116.879 86.3664C119.727 90.2478 123.821 91.2309 128.572 88.4482C138.403 82.6896 143.558 73.8601 143.648 62.5049C143.71 54.6441 137.545 51.1742 130.534 54.8349C122.886 58.8285 118.624 65.5739 116.236 73.6214C115.001 77.7811 114.679 81.9745 116.879 86.3664Z" fill="#C7D8EF"/>
<path d="M70.0795 149.16C69.8012 144.418 69.9692 139.734 69.3573 135.153C69.0526 132.872 67.319 130.782 66.1602 128.458C70.2789 127.818 73.0801 130.444 75.6909 132.984C78.7174 135.928 81.3436 139.284 84.3951 142.746C86.9808 139.541 89.5198 136.284 92.1799 133.129C94.3814 130.519 96.7258 128.028 99.2478 125.61C100.269 126.726 101.05 127.717 101.83 128.708C98.3629 134.366 95.0004 140.092 91.3859 145.655C89.4745 148.596 87.2741 151.387 84.9333 154.003C82.2724 156.977 79.852 157.248 76.6627 154.943C74.3492 153.271 72.3456 151.17 70.0795 149.16Z" fill="#C8D8EF"/>
<path d="M41.8405 142.89C42.0758 142.986 42.3283 143.232 42.2802 143.38C40.1342 149.996 40.584 156.831 40.4847 163.627C40.4678 164.781 39.9824 165.928 39.6137 167.422C37.741 171.816 35.9678 175.866 34.0041 180.351C36.17 180.002 37.8616 179.729 39.5532 179.456C41.4891 179.293 43.425 179.129 45.5923 179.187C45.821 181.238 45.8184 183.067 45.8157 184.897C43.6462 185.891 41.4768 186.886 39.1937 188.004C35.7711 189.046 32.4904 190.089 29.1457 190.852C24.9288 191.813 22.7372 189.797 23.7816 185.698C27.6329 170.583 32.8235 156.004 41.8405 142.89Z" fill="#C8D8EF"/>
<path d="M44.8879 126.49C43.9879 125.517 42.5996 124.684 42.2719 123.546C40.803 118.446 41.4115 113.468 43.8258 108.705C44.4014 107.569 44.7286 106.308 45.2752 104.818C45.9006 104.646 47.0084 104.342 48.4174 103.887C51.5924 101.693 54.4663 99.6495 57.3401 97.6059C61.913 95.7698 64.5933 97.1422 65.0693 102.054C65.4145 105.614 65.0522 109.244 64.8213 113.106C63.2864 114.393 62.2348 114.438 60.6503 113.31C59.4976 112.49 57.5047 112.663 55.8971 112.717C54.0012 112.78 52.0872 113.065 50.2402 113.503C49.3237 113.721 48.2371 114.3 47.7482 115.053C45.7079 118.196 44.2373 121.545 45.2949 125.467C45.3714 125.75 45.0333 126.146 44.8879 126.49Z" fill="#38373A"/>
<path d="M44.8508 126.665C45.0333 126.146 45.3715 125.75 45.2949 125.467C44.2373 121.545 45.7079 118.196 47.7482 115.053C48.2372 114.3 49.3237 113.721 50.2402 113.504C52.0872 113.065 54.0013 112.78 55.8971 112.717C57.5047 112.664 59.4976 112.49 60.6503 113.31C62.2348 114.438 63.2864 114.393 64.7945 113.314C65.2629 116.02 64.4066 118.241 62.7237 120.567C60.9413 123.031 60.0471 126.137 58.5687 129.162C57.7094 129.922 56.9687 130.412 56.3983 131.053C54.7441 132.913 52.6779 133.7 50.2374 133.641C48.6678 132.998 47.0258 132.483 45.5596 131.656C44.843 131.252 44.109 130.312 44.0089 129.534C43.8997 128.684 44.5144 127.742 44.8508 126.665Z" fill="#F5B2B2"/>
<path d="M63.0169 128.792C62.9094 135.757 59.828 141.145 53.4976 144.18C49.6383 146.03 45.1328 144.274 45.3222 139.581C46.8238 138.163 48.3382 136.943 50.009 135.841C50.0303 137.949 50.7979 138.885 52.8748 138.264C56.7116 137.115 58.8462 134.259 58.8482 130.286C60.1791 129.798 61.51 129.31 63.0169 128.792Z" fill="#C8D8EF"/>
<path d="M134.448 123.825C141.632 119.703 148.66 115.664 155.688 111.625C155.919 111.903 156.149 112.182 156.38 112.46C155.892 112.989 155.497 113.677 154.902 114.022C142.507 121.223 130.089 128.385 117.674 135.553C117.397 135.713 117.116 135.952 116.82 135.979C116.261 136.031 115.689 135.956 115.123 135.934C115.413 135.456 115.587 134.783 116.011 134.53C120.069 132.11 124.169 129.761 128.258 127.393C130.268 126.229 132.28 125.07 134.448 123.825Z" fill="#CBDBF0"/>
<path d="M147.041 103.616C150.052 101.906 152.919 100.298 155.786 98.6904C155.984 98.9445 156.181 99.1985 156.379 99.4526C156.002 99.9235 155.72 100.559 155.234 100.841C142.531 108.204 129.809 115.534 117.08 122.852C116.638 123.106 116.097 123.186 115.602 123.347C115.438 123.144 115.275 122.94 115.111 122.737C115.84 122.094 116.486 121.31 117.31 120.831C127.157 115.1 137.031 109.416 147.041 103.616Z" fill="#CBDBF0"/>
<path d="M47.8693 102.371C45.6398 99.5272 45.4604 97.5576 47.7796 94.8783C49.3174 93.1017 51.1897 91.4972 53.1908 90.2699C55.5607 88.8164 56.7613 89.5657 57.038 92.2857C57.1665 93.5487 57.0573 94.836 56.7915 96.2751C54.6528 97.4272 52.6986 98.2942 50.9326 99.449C49.7711 100.208 48.8809 101.383 47.8693 102.371Z" fill="#39383B"/>
<path d="M108.942 114.662C109.283 115.204 109.884 115.729 109.918 116.289C110.039 118.271 110.085 120.274 109.939 122.252C109.7 125.498 106.753 125.801 104.393 126.707C104.196 123.396 104.182 120.294 104.168 117.192C104.168 117.192 104.164 117.226 104.328 117.205C105.074 116.86 105.656 116.536 106.358 116.118C107.3 115.569 108.121 115.116 108.942 114.662Z" fill="#EAA9A9"/>
<path d="M108.962 114.477C108.12 115.116 107.299 115.57 106.322 115.955C106.264 115.26 106.361 114.632 106.459 114.005C106.673 113.117 106.887 112.229 107.107 111.145C108.698 104.721 110.282 98.4911 111.866 92.2617C112.145 92.3163 112.423 92.3709 112.702 92.4254C111.813 97.6768 110.923 102.928 110.055 108.377C109.712 110.48 109.347 112.386 108.962 114.477Z" fill="#3D70AF"/>
<path d="M58.8241 130.123C58.8461 134.259 56.7115 137.116 52.8747 138.264C50.7978 138.885 50.0302 137.949 50.1484 135.762C50.1554 135.05 50.1793 134.537 50.2199 133.833C52.6771 133.7 54.7432 132.913 56.3975 131.053C56.9679 130.412 57.7086 129.922 58.5183 129.339C58.7101 129.53 58.7551 129.745 58.8241 130.123Z" fill="#EAA9A9"/>
<path d="M104.025 117.273C104.181 120.294 104.195 123.396 104.215 126.733C103.515 127.512 102.809 128.056 101.967 128.654C101.05 127.717 100.27 126.726 99.4121 125.594C100.851 122.754 102.367 120.054 104.025 117.273Z" fill="#F6B4B4"/>
<path d="M47.9219 102.511C48.8818 101.383 49.772 100.208 50.9334 99.4489C52.6995 98.2942 54.6537 97.4271 56.7153 96.4448C56.988 96.7518 57.0734 97.0517 57.2493 97.4788C54.4661 99.6494 51.5923 101.693 48.5542 103.75C48.2512 103.393 48.1124 103.022 47.9219 102.511Z" fill="#406CA2"/>
<path d="M106.309 113.931C106.362 114.632 106.265 115.26 106.203 116.05C105.656 116.537 105.074 116.86 104.324 117.188C104.34 116.273 104.409 115.306 104.763 114.458C104.904 114.122 105.675 114.049 106.309 113.931Z" fill="#F6B4B4"/>
<path d="M66.0523 128.229C65.962 128.276 65.842 128.192 65.6953 127.976C65.7913 127.922 65.9094 128.007 66.0523 128.229Z" fill="#C8D8EF"/>
<path d="M46.0031 184.868C45.8186 183.067 45.8212 181.237 45.8047 179.183C47.5204 175.46 50.0286 172.702 53.8542 171.05C53.194 172.144 52.5338 173.239 51.8768 174.329C52.105 174.476 52.2182 174.6 52.351 174.627C53.488 174.858 54.6286 175.071 55.768 175.289C55.227 177.221 55.2808 179.861 54.0123 180.926C51.8409 182.75 48.8418 183.587 46.0031 184.868Z" fill="#FDCAAD"/>
<path d="M39.5585 179.237C37.8634 179.728 36.1718 180.001 34.0059 180.351C35.9696 175.865 37.7428 171.815 39.5451 167.595C39.7054 169.782 39.9147 172.139 39.9393 174.498C39.9549 176.003 39.6971 177.512 39.5585 179.237Z" fill="#FBFCFD"/>
<path d="M116.793 86.2053C114.68 81.9744 115.002 77.781 116.237 73.6214C118.625 65.5738 122.887 58.8284 130.535 54.8349C137.546 51.1742 143.711 54.6441 143.649 62.5049C143.559 73.8601 138.404 82.6896 128.573 88.4482C123.822 91.2309 119.728 90.2478 116.793 86.2053ZM125.919 77.3073C125.977 78.0641 126.036 78.821 126.107 79.737C126.754 79.6285 127.297 79.7026 127.471 79.4837C130.296 75.9246 133.145 72.3799 135.819 68.7076C136.571 67.6735 136.002 66.7418 134.57 66.5974C132.902 66.4292 131.239 66.2027 129.576 65.9876C126.869 65.6374 125.956 66.4022 125.919 69.1753C125.884 71.733 125.915 74.2915 125.919 77.3073Z" fill="#2893FF"/>
<path d="M125.918 77.0786C125.915 74.2917 125.884 71.7332 125.919 69.1755C125.956 66.4024 126.868 65.6375 129.576 65.9878C131.239 66.2029 132.902 66.4294 134.57 66.5976C136.002 66.742 136.571 67.6737 135.819 68.7078C133.145 72.3801 130.296 75.9248 127.471 79.4838C127.297 79.7028 126.754 79.6287 126.107 79.7372C126.036 78.8212 125.977 78.0643 125.918 77.0786Z" fill="#FBFCFD"/>
</g>
<defs>
<clipPath id="clip0_1_11564">
<rect width="247" height="247" fill="white"/>
</clipPath>
</defs>
</svg>
