<svg width="32" height="32" viewBox="0 0 32 32" fill="none" xmlns="http://www.w3.org/2000/svg">
<path d="M10 16.0001H18M10 10.6667H14M11.3333 26.6667C12.7333 27.8268 14.42 28.5654 16.352 28.6921C17.8733 28.7921 19.4627 28.7921 20.9827 28.6921C21.5258 28.6545 22.06 28.534 22.5667 28.3347C23.1133 28.1121 23.3853 28.0014 23.5253 28.0188C23.664 28.0348 23.8653 28.1814 24.268 28.4748C24.9787 28.9921 25.8733 29.3628 27.2013 29.3321C27.872 29.3161 28.208 29.3068 28.3573 29.0548C28.508 28.8014 28.3213 28.4521 27.9467 27.7521C27.4267 26.7814 27.0987 25.6707 27.5973 24.7801C28.4547 23.5081 29.184 22.0027 29.2907 20.3761C29.348 19.5027 29.348 18.5974 29.2907 17.7227C29.2211 16.6673 28.9647 15.6325 28.5333 14.6667" stroke="black" stroke-linecap="round" stroke-linejoin="round"/>
<path d="M16.4606 23.3161C21.202 23.0041 24.978 19.2094 25.2873 14.4454C25.3486 13.5134 25.3486 12.5481 25.2873 11.6161C24.978 6.85341 21.202 3.05875 16.4606 2.74675C14.8433 2.64008 13.154 2.64008 11.5406 2.74675C6.7993 3.05875 3.0233 6.85341 2.71397 11.6161C2.65264 12.5494 2.65264 13.5134 2.71397 14.4454C2.82597 16.1814 3.60064 17.7867 4.51264 19.1441C5.04197 20.0934 4.69264 21.2774 4.14064 22.3134C3.7433 23.0601 3.54464 23.4334 3.70464 23.7027C3.86464 23.9721 4.22064 23.9814 4.93397 23.9974C6.3433 24.0321 7.29397 23.6361 8.04863 23.0841C8.47663 22.7721 8.6913 22.6161 8.8393 22.5974C8.98597 22.5801 9.27664 22.6974 9.85663 22.9347C10.3793 23.1481 10.9846 23.2787 11.5406 23.3161C13.154 23.4227 14.8433 23.4227 16.4606 23.3161Z" stroke="black" stroke-linejoin="round"/>
</svg>
