<svg width="162" height="241" viewBox="0 0 162 241" fill="none" xmlns="http://www.w3.org/2000/svg">
<path d="M0 0C0.716876 0.453041 1.47207 0.917722 2.27071 1.39481C2.34338 0.89988 39.6024 12.4807 43.419 14.1967C54.4715 19.1654 61.2579 20.9431 49.1331 24.7121C54.4044 23.0737 66.2994 54.8746 74.6625 53.5566C82.7966 52.2747 85.1957 61.2634 87.3511 67.4391C88.4933 70.7132 92.0493 72.6239 90.719 76.5612C90.2964 77.8114 84.4867 80.3783 84.9307 81.2076C87.3696 85.7632 98.4834 86.2857 98.5493 92.9832C97.4758 94.6631 95.845 95.4706 93.6561 95.4059C88.5048 97.4484 93.3831 101.54 94.3693 104.702C96.7522 112.341 104.197 119.125 109.59 110.433C115.01 101.697 102.604 93.1438 110.127 84.2288C114.539 79.0014 126.329 88.3745 123.533 78.3947C122.732 75.5357 110.472 62.8986 117.264 61.0349C117.593 60.9445 117.82 60.2921 117.962 59.2161C97.8056 36.3806 71.325 18.4075 39.9985 8.19818C26.7425 3.87761 13.3351 1.18342 0 0Z" fill="#1188FF"/>
<path d="M141.863 94.0025C141.004 92.3548 132.249 101.815 130.436 102.798C123.804 106.39 122.351 99.3021 116.787 106.787C115.807 108.105 105.74 121.235 105.684 119.763C105.869 124.635 103.814 129.461 106.204 134.139C108.345 138.33 103.309 142.134 103.615 146.554C104.017 152.361 98.6031 156.317 99.9698 162.098C101.155 167.113 104.227 170.77 104.234 176.116C104.245 184.619 102.676 188.49 109.632 194.582C114.106 198.501 119.924 212.03 127.785 204.405C129.23 203.004 143.584 191.715 142.735 190.83C147.832 196.148 143.343 192.662 150.592 192.329C152.553 192.24 149.127 241.261 146.132 240.137C146.609 240.316 147.165 240.27 147.79 240.028C149.433 236.131 150.948 232.15 152.322 228.084C167.896 181.998 162.75 134.058 141.863 94.0025Z" fill="#1188FF"/>
</svg>
