<svg width="300" height="288" viewBox="0 0 300 288" fill="none" xmlns="http://www.w3.org/2000/svg">
<path d="M300 164.636V287.372H0V187.562L33.402 161.738L33.1452 205.394H46.8594L46.4412 249.435H64.986V221.804H81.402V143.246H111.54V221.636H201.774V117.818L234.762 152.018L234.984 239.504L235.014 251.408L262.128 251.222H262.2L262.092 224.222L273.402 224.072V164.636H300Z" fill="#FFFFF2"/>
<path d="M14.496 198.189H0V200.589H14.496V198.189Z" fill="#FFFFF2"/>
<path d="M14.496 206.325H0V208.731H14.496V206.325Z" fill="#FFFFF2"/>
<path d="M26.4805 206.328H18.4399V208.73H26.4805V206.328Z" fill="#FFFFF2"/>
<path d="M26.4805 198.187H18.4399V200.589H26.4805V198.187Z" fill="#FFFFF2"/>
<path d="M14.496 214.467H0V216.873H14.496V214.467Z" fill="#FFFFF2"/>
<path d="M14.496 222.609H0V225.009H14.496V222.609Z" fill="#FFFFF2"/>
<path d="M14.496 230.751H0V233.151H14.496V230.751Z" fill="#FFFFF2"/>
<path d="M14.496 238.887H0V241.293H14.496V238.887Z" fill="#FFFFF2"/>
<path d="M14.496 247.029H0V249.435H14.496V247.029Z" fill="#FFFFF2"/>
<path d="M18.4399 238.889V241.291H26.4805V238.889H18.4399Z" fill="#FFFFF2"/>
<path d="M18.4399 247.03V249.432H26.4805V247.03H18.4399Z" fill="#FFFFF2"/>
<path d="M18.4399 222.608V225.011H26.4805V222.608H18.4399Z" fill="#FFFFF2"/>
<path d="M26.4805 214.468H18.4399V216.87H26.4805V214.468Z" fill="#FFFFF2"/>
<path d="M18.4399 230.749V233.151H26.4805V230.749H18.4399Z" fill="#FFFFF2"/>
<path d="M14.496 255.171H0V257.571H14.496V255.171Z" fill="#FFFFF2"/>
<path d="M14.496 263.313H0V265.713H14.496V263.313Z" fill="#FFFFF2"/>
<path d="M14.496 271.449H0V273.855H14.496V271.449Z" fill="#FFFFF2"/>
<path d="M26.4805 271.451H18.4399V273.853H26.4805V271.451Z" fill="#FFFFF2"/>
<path d="M18.4399 255.17V257.572H26.4805V255.17H18.4399Z" fill="#FFFFF2"/>
<path d="M26.4805 263.311H18.4399V265.712H26.4805V263.311Z" fill="#FFFFF2"/>
<path d="M105.976 230.75H86.1211V233.152H105.976V230.75Z" fill="#FFFFF2"/>
<path d="M105.976 238.891H86.1211V241.293H105.976V238.891Z" fill="#FFFFF2"/>
<path d="M71.3213 247.031V249.434H81.2483V247.031H71.3213Z" fill="#FFFFF2"/>
<path d="M81.2483 238.891H71.3213V241.293H81.2483V238.891Z" fill="#FFFFF2"/>
<path d="M81.2483 230.75H71.3213V233.152H81.2483V230.75Z" fill="#FFFFF2"/>
<path d="M120.775 238.891H110.848V241.293H120.775V238.891Z" fill="#FFFFF2"/>
<path d="M120.775 230.75H110.848V233.152H120.775V230.75Z" fill="#FFFFF2"/>
<path d="M105.976 247.031H86.1211V249.433H105.976V247.031Z" fill="#FFFFF2"/>
<path d="M86.1211 255.172V257.574H105.976V255.172H86.1211Z" fill="#FFFFF2"/>
<path d="M71.3213 263.312V265.714H81.2483V263.312H71.3213Z" fill="#FFFFF2"/>
<path d="M86.1211 263.312V265.714H105.976V263.312H86.1211Z" fill="#FFFFF2"/>
<path d="M71.3213 255.172V257.574H81.2483V255.172H71.3213Z" fill="#FFFFF2"/>
<path d="M81.2483 271.453H71.3213V273.854H81.2483V271.453Z" fill="#FFFFF2"/>
<path d="M105.976 271.453H86.1211V273.854H105.976V271.453Z" fill="#FFFFF2"/>
<path d="M105.976 190.048H86.1211V192.45H105.976V190.048Z" fill="#FFFFF2"/>
<path d="M105.976 198.189H86.1211V200.591H105.976V198.189Z" fill="#FFFFF2"/>
<path d="M105.976 206.329H86.1211V208.731H105.976V206.329Z" fill="#FFFFF2"/>
<path d="M86.1211 214.47V216.872H105.976V214.47H86.1211Z" fill="#FFFFF2"/>
<path d="M86.1211 222.61V225.012V225.013H105.976V225.012V222.61H86.1211Z" fill="#FFFFF2"/>
<path d="M105.976 230.75H86.1211V233.152H105.976V230.75Z" fill="#FFFFF2"/>
<path d="M105.976 157.487H86.1211V159.889H105.976V157.487Z" fill="#FFFFF2"/>
<path d="M105.976 165.627H86.1211V168.029H105.976V165.627Z" fill="#FFFFF2"/>
<path d="M86.1211 173.768V176.17H105.976V173.768H86.1211Z" fill="#FFFFF2"/>
<path d="M86.1211 181.908V184.31H105.976V181.908H86.1211Z" fill="#FFFFF2"/>
<path d="M105.976 190.048H86.1211V192.45H105.976V190.048Z" fill="#FFFFF2"/>
<path d="M110.848 271.453V273.855H120.775V271.453H110.848Z" fill="#FFFFF2"/>
<path d="M110.848 255.172V257.574H120.775V255.172H110.848Z" fill="#FFFFF2"/>
<path d="M120.775 247.031H110.848V249.433H120.775V247.031Z" fill="#FFFFF2"/>
<path d="M110.848 263.312V265.714H120.775V263.312H110.848Z" fill="#FFFFF2"/>
<path d="M300 230.75H283.392V233.15H300V230.75Z" fill="#FFFFF2"/>
<path d="M300 238.892H283.392V241.292H300V238.892Z" fill="#FFFFF2"/>
<path d="M268.595 247.031V249.434H278.522V247.031H268.595Z" fill="#FFFFF2"/>
<path d="M278.522 238.891H268.595V241.293H278.522V238.891Z" fill="#FFFFF2"/>
<path d="M278.522 230.75H268.595V233.152H278.522V230.75Z" fill="#FFFFF2"/>
<path d="M300 247.034H283.392V249.434H300V247.034Z" fill="#FFFFF2"/>
<path d="M300 255.17H283.392V257.576H300V255.17Z" fill="#FFFFF2"/>
<path d="M268.595 263.312V265.714H278.522V263.312H268.595Z" fill="#FFFFF2"/>
<path d="M300 263.312H283.392V265.712H300V263.312Z" fill="#FFFFF2"/>
<path d="M268.595 255.172V257.574H278.522V255.172H268.595Z" fill="#FFFFF2"/>
<path d="M278.522 271.453H268.595V273.854H278.522V271.453Z" fill="#FFFFF2"/>
<path d="M300 271.454H283.392V273.854H300V271.454Z" fill="#FFFFF2"/>
<path d="M290.072 197.323V197.324V199.726H300V197.324V197.323H290.073H290.072Z" fill="#FFFFF2"/>
<path d="M290.072 213.604V216.007H300V213.604H290.072Z" fill="#FFFFF2"/>
<path d="M300 221.745H290.072V224.147H300V221.745Z" fill="#FFFFF2"/>
<path d="M290.072 189.183V191.585H300V189.183H290.073H290.072Z" fill="#FFFFF2"/>
<path d="M290.072 181.043V183.445H300V181.043H290.073H290.072Z" fill="#FFFFF2"/>
<path d="M300 172.902H290.073V175.304H300V172.902Z" fill="#FFFFF2"/>
<path d="M290.072 205.464V207.866V207.866H300V207.866V205.464H290.072Z" fill="#FFFFF2"/>
<path d="M223.265 156.604H213.096V159.005H223.265V156.604Z" fill="#FFFFF2"/>
<path d="M223.265 164.744H213.096V167.146H223.265V164.744Z" fill="#FFFFF2"/>
<path d="M205.515 172.885V175.286H210.6V172.885H205.515Z" fill="#FFFFF2"/>
<path d="M210.6 164.744H205.515V167.146H210.6V164.744Z" fill="#FFFFF2"/>
<path d="M210.6 156.604H205.515V159.005H210.6V156.604Z" fill="#FFFFF2"/>
<path d="M230.846 164.744H225.761V167.146H230.846V164.744Z" fill="#FFFFF2"/>
<path d="M230.846 156.604H225.761V159.005H230.846V156.604Z" fill="#FFFFF2"/>
<path d="M223.265 172.885H213.096V175.286H223.265V172.885Z" fill="#FFFFF2"/>
<path d="M213.096 181.025V183.427V183.427H223.265V183.427V181.025H213.096Z" fill="#FFFFF2"/>
<path d="M205.515 189.165V191.567H210.6V189.165H205.515Z" fill="#FFFFF2"/>
<path d="M213.096 189.165V191.567H223.265V189.165H213.096Z" fill="#FFFFF2"/>
<path d="M205.515 181.025V183.427V183.427H210.6V183.427V181.025H205.515Z" fill="#FFFFF2"/>
<path d="M225.761 181.025V183.427V183.427H230.846V183.427V181.025H225.761Z" fill="#FFFFF2"/>
<path d="M230.846 172.885H225.761V175.286H230.846V172.885Z" fill="#FFFFF2"/>
<path d="M225.761 189.165V191.567H230.846V189.165H225.761Z" fill="#FFFFF2"/>
<path d="M213.096 197.306V199.655V199.708H223.265V199.655V197.306V197.253H213.096V197.306Z" fill="#FFFFF2"/>
<path d="M223.265 205.394H213.096V207.796H223.265V205.394Z" fill="#FFFFF2"/>
<path d="M205.515 213.534V215.936H210.6V213.534H205.515Z" fill="#FFFFF2"/>
<path d="M210.6 205.394H205.515V207.796H210.6V205.394Z" fill="#FFFFF2"/>
<path d="M205.515 197.306V199.708H210.6V199.655V197.306V197.253H205.515V197.306Z" fill="#FFFFF2"/>
<path d="M230.846 205.394H225.761V207.796H230.846V205.394Z" fill="#FFFFF2"/>
<path d="M225.761 197.306V199.655V199.708H230.846V199.655V197.306V197.253H225.761V197.306Z" fill="#FFFFF2"/>
<path d="M223.265 213.534H213.096V215.936H223.265V213.534Z" fill="#FFFFF2"/>
<path d="M213.096 221.675V224.077H223.265V221.675V221.674H213.096V221.675Z" fill="#FFFFF2"/>
<path d="M205.515 221.675V224.077H210.6V221.675V221.674H205.515V221.675Z" fill="#FFFFF2"/>
<path d="M225.761 221.675V224.077H230.846V221.674H225.761V221.675Z" fill="#FFFFF2"/>
<path d="M230.846 213.534H225.761V215.936H230.846V213.534Z" fill="#FFFFF2"/>
<path d="M213.096 229.815V232.045V232.217H223.265V232.045V229.815V229.642H213.096V229.815Z" fill="#FFFFF2"/>
<path d="M213.096 237.955V240.185V240.358H223.265V240.185V237.955V237.783H213.096V237.955Z" fill="#FFFFF2"/>
<path d="M205.515 245.923V248.325H210.6V245.923H205.515Z" fill="#FFFFF2"/>
<path d="M205.515 237.955V240.185V240.358H210.6V240.185V237.955V237.783H205.515V237.955Z" fill="#FFFFF2"/>
<path d="M205.515 229.815V232.217H210.6V232.045V229.815V229.642H205.515V229.815Z" fill="#FFFFF2"/>
<path d="M225.761 237.955V240.185V240.358H230.846V240.185V237.955V237.783H225.761V237.955Z" fill="#FFFFF2"/>
<path d="M225.761 229.815V232.045V232.217H230.846V232.045V229.815V229.642H225.761V229.815Z" fill="#FFFFF2"/>
<path d="M223.265 245.923H213.096V248.325H223.265V245.923Z" fill="#FFFFF2"/>
<path d="M213.096 254.063V256.466H223.265V254.063H213.096Z" fill="#FFFFF2"/>
<path d="M205.515 262.204V264.606H210.6V262.204H205.515Z" fill="#FFFFF2"/>
<path d="M213.096 262.204V264.606H223.265V262.204H213.096Z" fill="#FFFFF2"/>
<path d="M205.515 254.063V256.466H210.6V254.063H205.515Z" fill="#FFFFF2"/>
<path d="M210.6 270.344H205.515V272.746H210.6V270.344Z" fill="#FFFFF2"/>
<path d="M223.265 270.344H213.096V272.746H223.265V270.344Z" fill="#FFFFF2"/>
<path d="M225.761 270.344V272.747H230.846V270.344H225.761Z" fill="#FFFFF2"/>
<path d="M225.761 254.063V256.466H230.846V254.063H225.761Z" fill="#FFFFF2"/>
<path d="M230.846 245.923H225.761V248.325H230.846V245.923Z" fill="#FFFFF2"/>
<path d="M225.761 262.204V264.606H230.846V262.204H225.761Z" fill="#FFFFF2"/>
<path opacity="0.7" d="M252.328 251.284L262.128 251.222L262.085 224.147L252.328 235.301V251.284Z" fill="#007FFF"/>
<path opacity="0.7" d="M56.5889 249.432L46.7891 249.472L46.8323 205.389L56.5889 216.543V249.432Z" fill="#007FFF"/>
<path opacity="0.7" d="M188.099 221.745H201.774V117.818L188.099 128.972V221.745Z" fill="#007FFF"/>
<path opacity="0.7" d="M125.182 247.187H111.506V143.26L125.182 154.414V247.187Z" fill="#007FFF"/>
<path opacity="0.7" d="M263.6 268.542H273.357V164.615L263.6 175.769V268.542Z" fill="#007FFF"/>
<path opacity="0.7" d="M43.1332 265.655H33.376V161.728L43.1332 172.882V265.655Z" fill="#007FFF"/>
<path opacity="0.4" d="M300 164.636V287.372H0V187.562L33.402 161.738L33.3498 205.394H46.8594L46.7892 249.435H64.986V221.804H81.402V143.246H111.54V221.636H201.774V117.818L234.762 152.018L234.984 239.504L235.014 251.408L262.128 251.222L262.092 224.222L273.402 224.072V164.636H300Z" fill="#007FFF"/>
<path d="M14.496 198.189H0V200.589H14.496V198.189Z" fill="#FFFFF2"/>
<path d="M14.496 206.325H0V208.731H14.496V206.325Z" fill="#FFFFF2"/>
<path d="M26.4805 206.328H18.4399V208.73H26.4805V206.328Z" fill="#FFFFF2"/>
<path d="M26.4805 198.187H18.4399V200.589H26.4805V198.187Z" fill="#FFFFF2"/>
<path d="M14.496 214.467H0V216.873H14.496V214.467Z" fill="#FFFFF2"/>
<path d="M14.496 222.609H0V225.009H14.496V222.609Z" fill="#FFFFF2"/>
<path d="M14.496 230.751H0V233.151H14.496V230.751Z" fill="#FFFFF2"/>
<path d="M14.496 238.887H0V241.293H14.496V238.887Z" fill="#FFFFF2"/>
<path d="M14.496 247.029H0V249.435H14.496V247.029Z" fill="#FFFFF2"/>
<path d="M18.4399 238.889V241.291H26.4805V238.889H18.4399Z" fill="#FFFFF2"/>
<path d="M18.4399 247.03V249.432H26.4805V247.03H18.4399Z" fill="#FFFFF2"/>
<path d="M18.4399 222.608V225.011H26.4805V222.608H18.4399Z" fill="#FFFFF2"/>
<path d="M26.4805 214.468H18.4399V216.87H26.4805V214.468Z" fill="#FFFFF2"/>
<path d="M18.4399 230.749V233.151H26.4805V230.749H18.4399Z" fill="#FFFFF2"/>
<path d="M14.496 255.171H0V257.571H14.496V255.171Z" fill="#FFFFF2"/>
<path d="M14.496 263.313H0V265.713H14.496V263.313Z" fill="#FFFFF2"/>
<path d="M14.496 271.449H0V273.855H14.496V271.449Z" fill="#FFFFF2"/>
<path d="M26.4805 271.451H18.4399V273.853H26.4805V271.451Z" fill="#FFFFF2"/>
<path d="M18.4399 255.17V257.572H26.4805V255.17H18.4399Z" fill="#FFFFF2"/>
<path d="M26.4805 263.311H18.4399V265.712H26.4805V263.311Z" fill="#FFFFF2"/>
<path d="M105.976 230.75H86.1211V233.152H105.976V230.75Z" fill="#FFFFF2"/>
<path d="M105.976 238.891H86.1211V241.293H105.976V238.891Z" fill="#FFFFF2"/>
<path d="M71.3213 247.031V249.434H81.2483V247.031H71.3213Z" fill="#FFFFF2"/>
<path d="M81.2483 238.891H71.3213V241.293H81.2483V238.891Z" fill="#FFFFF2"/>
<path d="M81.2483 230.75H71.3213V233.152H81.2483V230.75Z" fill="#FFFFF2"/>
<path d="M120.775 238.891H110.848V241.293H120.775V238.891Z" fill="#FFFFF2"/>
<path d="M120.775 230.75H110.848V233.152H120.775V230.75Z" fill="#FFFFF2"/>
<path d="M105.976 247.031H86.1211V249.433H105.976V247.031Z" fill="#FFFFF2"/>
<path d="M86.1211 255.172V257.574H105.976V255.172H86.1211Z" fill="#FFFFF2"/>
<path d="M71.3213 263.312V265.714H81.2483V263.312H71.3213Z" fill="#FFFFF2"/>
<path d="M86.1211 263.312V265.714H105.976V263.312H86.1211Z" fill="#FFFFF2"/>
<path d="M71.3213 255.172V257.574H81.2483V255.172H71.3213Z" fill="#FFFFF2"/>
<path d="M81.2483 271.453H71.3213V273.854H81.2483V271.453Z" fill="#FFFFF2"/>
<path d="M105.976 271.453H86.1211V273.854H105.976V271.453Z" fill="#FFFFF2"/>
<path d="M105.976 190.048H86.1211V192.45H105.976V190.048Z" fill="#FFFFF2"/>
<path d="M105.976 198.189H86.1211V200.591H105.976V198.189Z" fill="#FFFFF2"/>
<path d="M105.976 206.329H86.1211V208.731H105.976V206.329Z" fill="#FFFFF2"/>
<path d="M86.1211 214.47V216.872H105.976V214.47H86.1211Z" fill="#FFFFF2"/>
<path d="M86.1211 222.61V225.012V225.013H105.976V225.012V222.61H86.1211Z" fill="#FFFFF2"/>
<path d="M105.976 230.75H86.1211V233.152H105.976V230.75Z" fill="#FFFFF2"/>
<path d="M105.976 157.487H86.1211V159.889H105.976V157.487Z" fill="#FFFFF2"/>
<path d="M105.976 165.627H86.1211V168.029H105.976V165.627Z" fill="#FFFFF2"/>
<path d="M86.1211 173.768V176.17H105.976V173.768H86.1211Z" fill="#FFFFF2"/>
<path d="M86.1211 181.908V184.31H105.976V181.908H86.1211Z" fill="#FFFFF2"/>
<path d="M105.976 190.048H86.1211V192.45H105.976V190.048Z" fill="#FFFFF2"/>
<path d="M110.848 271.453V273.855H120.775V271.453H110.848Z" fill="#FFFFF2"/>
<path d="M110.848 255.172V257.574H120.775V255.172H110.848Z" fill="#FFFFF2"/>
<path d="M120.775 247.031H110.848V249.433H120.775V247.031Z" fill="#FFFFF2"/>
<path d="M110.848 263.312V265.714H120.775V263.312H110.848Z" fill="#FFFFF2"/>
<path d="M300 230.75H283.392V233.15H300V230.75Z" fill="#FFFFF2"/>
<path d="M300 238.892H283.392V241.292H300V238.892Z" fill="#FFFFF2"/>
<path d="M268.595 247.031V249.434H278.522V247.031H268.595Z" fill="#FFFFF2"/>
<path d="M278.522 238.891H268.595V241.293H278.522V238.891Z" fill="#FFFFF2"/>
<path d="M278.522 230.75H268.595V233.152H278.522V230.75Z" fill="#FFFFF2"/>
<path d="M300 247.034H283.392V249.434H300V247.034Z" fill="#FFFFF2"/>
<path d="M300 255.17H283.392V257.576H300V255.17Z" fill="#FFFFF2"/>
<path d="M268.595 263.312V265.714H278.522V263.312H268.595Z" fill="#FFFFF2"/>
<path d="M300 263.312H283.392V265.712H300V263.312Z" fill="#FFFFF2"/>
<path d="M268.595 255.172V257.574H278.522V255.172H268.595Z" fill="#FFFFF2"/>
<path d="M278.522 271.453H268.595V273.854H278.522V271.453Z" fill="#FFFFF2"/>
<path d="M300 271.454H283.392V273.854H300V271.454Z" fill="#FFFFF2"/>
<path d="M290.072 197.323V197.324V199.726H300V197.324V197.323H290.073H290.072Z" fill="#FFFFF2"/>
<path d="M290.072 213.604V216.007H300V213.604H290.072Z" fill="#FFFFF2"/>
<path d="M300 221.745H290.072V224.147H300V221.745Z" fill="#FFFFF2"/>
<path d="M290.072 189.183V191.585H300V189.183H290.073H290.072Z" fill="#FFFFF2"/>
<path d="M290.072 181.043V183.445H300V181.043H290.073H290.072Z" fill="#FFFFF2"/>
<path d="M300 172.902H290.073V175.304H300V172.902Z" fill="#FFFFF2"/>
<path d="M290.072 205.464V207.866V207.866H300V207.866V205.464H290.072Z" fill="#FFFFF2"/>
<path d="M223.265 156.604H213.096V159.005H223.265V156.604Z" fill="#FFFFF2"/>
<path d="M223.265 164.744H213.096V167.146H223.265V164.744Z" fill="#FFFFF2"/>
<path d="M205.515 172.885V175.286H210.6V172.885H205.515Z" fill="#FFFFF2"/>
<path d="M210.6 164.744H205.515V167.146H210.6V164.744Z" fill="#FFFFF2"/>
<path d="M210.6 156.604H205.515V159.005H210.6V156.604Z" fill="#FFFFF2"/>
<path d="M230.846 164.744H225.761V167.146H230.846V164.744Z" fill="#FFFFF2"/>
<path d="M230.846 156.604H225.761V159.005H230.846V156.604Z" fill="#FFFFF2"/>
<path d="M223.265 172.885H213.096V175.286H223.265V172.885Z" fill="#FFFFF2"/>
<path d="M213.096 181.025V183.427V183.427H223.265V183.427V181.025H213.096Z" fill="#FFFFF2"/>
<path d="M205.515 189.165V191.567H210.6V189.165H205.515Z" fill="#FFFFF2"/>
<path d="M213.096 189.165V191.567H223.265V189.165H213.096Z" fill="#FFFFF2"/>
<path d="M205.515 181.025V183.427V183.427H210.6V183.427V181.025H205.515Z" fill="#FFFFF2"/>
<path d="M225.761 181.025V183.427V183.427H230.846V183.427V181.025H225.761Z" fill="#FFFFF2"/>
<path d="M230.846 172.885H225.761V175.286H230.846V172.885Z" fill="#FFFFF2"/>
<path d="M225.761 189.165V191.567H230.846V189.165H225.761Z" fill="#FFFFF2"/>
<path d="M213.096 197.306V199.655V199.708H223.265V199.655V197.306V197.253H213.096V197.306Z" fill="#FFFFF2"/>
<path d="M223.265 205.394H213.096V207.796H223.265V205.394Z" fill="#FFFFF2"/>
<path d="M205.515 213.534V215.936H210.6V213.534H205.515Z" fill="#FFFFF2"/>
<path d="M210.6 205.394H205.515V207.796H210.6V205.394Z" fill="#FFFFF2"/>
<path d="M205.515 197.306V199.708H210.6V199.655V197.306V197.253H205.515V197.306Z" fill="#FFFFF2"/>
<path d="M230.846 205.394H225.761V207.796H230.846V205.394Z" fill="#FFFFF2"/>
<path d="M225.761 197.306V199.655V199.708H230.846V199.655V197.306V197.253H225.761V197.306Z" fill="#FFFFF2"/>
<path d="M223.265 213.534H213.096V215.936H223.265V213.534Z" fill="#FFFFF2"/>
<path d="M213.096 221.675V224.077H223.265V221.675V221.674H213.096V221.675Z" fill="#FFFFF2"/>
<path d="M205.515 221.675V224.077H210.6V221.675V221.674H205.515V221.675Z" fill="#FFFFF2"/>
<path d="M225.761 221.675V224.077H230.846V221.674H225.761V221.675Z" fill="#FFFFF2"/>
<path d="M230.846 213.534H225.761V215.936H230.846V213.534Z" fill="#FFFFF2"/>
<path d="M213.096 229.815V232.045V232.217H223.265V232.045V229.815V229.642H213.096V229.815Z" fill="#FFFFF2"/>
<path d="M213.096 237.955V240.185V240.358H223.265V240.185V237.955V237.783H213.096V237.955Z" fill="#FFFFF2"/>
<path d="M205.515 245.923V248.325H210.6V245.923H205.515Z" fill="#FFFFF2"/>
<path d="M205.515 237.955V240.185V240.358H210.6V240.185V237.955V237.783H205.515V237.955Z" fill="#FFFFF2"/>
<path d="M205.515 229.815V232.217H210.6V232.045V229.815V229.642H205.515V229.815Z" fill="#FFFFF2"/>
<path d="M225.761 237.955V240.185V240.358H230.846V240.185V237.955V237.783H225.761V237.955Z" fill="#FFFFF2"/>
<path d="M225.761 229.815V232.045V232.217H230.846V232.045V229.815V229.642H225.761V229.815Z" fill="#FFFFF2"/>
<path d="M223.265 245.923H213.096V248.325H223.265V245.923Z" fill="#FFFFF2"/>
<path d="M213.096 254.063V256.466H223.265V254.063H213.096Z" fill="#FFFFF2"/>
<path d="M205.515 262.204V264.606H210.6V262.204H205.515Z" fill="#FFFFF2"/>
<path d="M213.096 262.204V264.606H223.265V262.204H213.096Z" fill="#FFFFF2"/>
<path d="M205.515 254.063V256.466H210.6V254.063H205.515Z" fill="#FFFFF2"/>
<path d="M210.6 270.344H205.515V272.746H210.6V270.344Z" fill="#FFFFF2"/>
<path d="M223.265 270.344H213.096V272.746H223.265V270.344Z" fill="#FFFFF2"/>
<path d="M225.761 270.344V272.747H230.846V270.344H225.761Z" fill="#FFFFF2"/>
<path d="M225.761 254.063V256.466H230.846V254.063H225.761Z" fill="#FFFFF2"/>
<path d="M230.846 245.923H225.761V248.325H230.846V245.923Z" fill="#FFFFF2"/>
<path d="M225.761 262.204V264.606H230.846V262.204H225.761Z" fill="#FFFFF2"/>
<path d="M191.322 167.003C188.511 183.007 150.661 179.919 149.622 179.831C148.584 179.919 110.728 183.007 107.922 167.003C104.898 149.781 119.122 150.044 123.649 146.106C128.239 142.113 125.066 136.157 121.251 125.017C119.197 119.011 120.063 113.494 121.371 109.578C122.588 105.953 124.183 103.693 124.183 103.693C124.2 103.665 124.223 103.633 124.241 103.605C124.923 102.541 125.629 101.576 126.358 100.682L126.364 100.676C136.026 88.8132 149.067 91.2864 149.624 91.3962C150.203 91.281 164.111 88.6428 173.841 101.921L173.847 101.927C174.22 102.431 174.582 102.958 174.943 103.517C174.983 103.572 175.017 103.633 175.058 103.693C175.058 103.693 176.199 105.311 177.29 108.004C178.873 111.931 180.342 118.156 177.995 125.017C174.18 136.157 171.001 142.113 175.597 146.106C180.123 150.044 194.346 149.781 191.322 167.003Z" fill="#2E3442"/>
<path d="M193.488 287.372H106.512L113.91 258.374H186.09L186.39 259.562L193.488 287.372Z" fill="#2E3442"/>
<path opacity="0.2" d="M122.364 266.522C122.364 266.522 122.382 277.496 131.316 287.372H106.512L113.91 258.374H186.09L186.39 259.562C181.584 261.284 151.356 271.478 122.364 266.522Z" fill="#606060"/>
<path d="M189.666 256.976C188.076 257.342 186.492 257.69 184.902 258.014C181.416 258.734 177.936 259.346 174.468 259.844C168.588 260.696 162.744 261.248 156.924 261.482C152.082 261.692 147.264 261.686 142.464 261.47C137.754 261.266 133.062 260.852 128.388 260.234C126.996 260.054 125.604 259.85 124.218 259.634C119.73 258.932 115.26 258.044 110.808 256.976L120.744 224.204C120.744 224.204 115.14 197.162 114.456 187.676C113.772 178.196 122.916 162.596 122.916 162.596L137.226 152.384H163.248L177.558 162.596C177.558 162.596 186.696 178.196 186.012 187.676C185.334 197.162 179.73 224.204 179.73 224.204L189.666 256.976Z" fill="#273B7C"/>
<path d="M164.61 151.682C164.61 151.682 162.036 163.37 150.366 163.37C138.702 163.37 135.246 151.772 135.246 151.772C135.246 151.772 137.79 151.376 138.492 145.532C138.504 145.454 138.51 145.37 138.516 145.292C138.672 143.948 138.684 142.418 138.498 140.672H161.25C161.25 140.672 161.226 140.888 161.196 141.26C161.19 141.47 161.178 141.728 161.172 142.04C161.142 143.012 161.208 144.158 161.478 145.394C161.502 145.526 161.538 145.664 161.568 145.796C162.03 147.662 162.936 149.714 164.61 151.682Z" fill="#E5B7AC"/>
<path opacity="0.5" d="M161.478 145.394C161.478 145.394 157.549 155.072 149.988 155.072C142.426 155.072 138.516 145.292 138.516 145.292C138.516 145.292 138.684 142.418 138.498 140.672H161.25C161.25 140.672 161.226 140.888 161.196 141.26C161.19 141.47 161.178 141.728 161.172 142.04C161.142 143.012 161.478 145.394 161.478 145.394Z" fill="#E5B7AC"/>
<path d="M152.026 168.425H148.238L143.276 227.846L150.241 236.444L156.787 228.001L152.026 168.425Z" fill="#2E3442"/>
<path d="M150.098 162.227C146.548 162.227 145.212 165.303 145.212 165.303C145.212 165.303 147.289 171.145 150.046 171.145C152.804 171.145 154.882 165.77 154.882 165.77C154.882 165.77 153.649 162.227 150.098 162.227Z" fill="#2E3442"/>
<path d="M119.544 180.518C119.544 180.518 117.606 187.934 115.116 197.132C114.666 198.806 114.192 200.54 113.712 202.304C113.454 203.252 113.19 204.206 112.926 205.166C111.774 209.372 110.592 213.62 109.5 217.448C107.562 224.168 106.242 228.32 105.438 230.012L91.2964 232.448C91.2844 232.436 91.2784 232.43 91.2784 232.418C89.7064 230.6 88.7164 228.176 88.5424 225.272C88.4584 223.946 88.5544 222.53 88.8424 221.024C88.9564 220.418 89.2204 219.362 89.5864 217.976C90.2764 215.384 91.3384 211.628 92.5444 207.47C93.1744 205.292 93.8464 203 94.5244 200.708C95.1604 198.536 95.8024 196.37 96.4204 194.288C98.8444 186.152 100.902 179.366 100.902 179.366C109.434 170.732 119.544 180.518 119.544 180.518Z" fill="#E5B7AC"/>
<path opacity="0.5" d="M115.116 197.132C114.666 198.806 114.192 200.54 113.712 202.304C113.454 203.252 113.19 204.206 112.926 205.166C105.126 206.408 96.9604 202.124 94.5244 200.708C95.1604 198.536 95.8024 196.37 96.4204 194.288L113.298 195.674C113.298 195.674 114.138 196.256 115.116 197.132Z" fill="#E5B7AC"/>
<path d="M120.024 196.364C120 197.552 119.664 199.532 119.16 201.896C119.112 202.13 119.058 202.364 118.998 202.616C117.978 202.784 116.964 202.916 115.95 203.006C115.536 203.048 115.122 203.078 114.708 203.102C114.42 203.12 114.132 203.132 113.844 203.144C112.866 203.192 111.888 203.192 110.91 203.156C110.334 203.138 109.758 203.102 109.182 203.06C102.87 202.58 96.7623 200.642 90.7983 197.594C90.7983 197.594 100.68 176.378 104.082 168.704C109.2 157.178 124.464 156.476 132.366 154.184C134.46 153.578 120.312 184.136 120.024 196.364Z" fill="#273B7C"/>
<path opacity="0.2" d="M116.118 202.592L115.95 203.006C115.536 203.048 115.122 203.078 114.708 203.102C114.42 203.12 114.132 203.132 113.844 203.144C112.866 203.192 111.888 203.192 110.91 203.156C110.49 200.702 110.22 197.996 110.4 195.572C110.892 189.068 118.829 169.858 119.129 169.138C118.937 169.792 114.294 186.896 114.072 193.1C113.928 197.216 116.118 202.592 116.118 202.592Z" fill="#606060"/>
<path opacity="0.2" d="M143.4 202.592C142.8 207.386 140.994 247.847 145.18 261.569C140.25 261.47 133.062 260.852 128.388 260.234L135.738 165.41C135.738 165.41 144.198 196.214 143.4 202.592Z" fill="#606060"/>
<path d="M140.994 200.066C140.994 200.87 140.976 202.508 140.94 204.776C140.934 205.004 140.934 205.238 140.928 205.478C140.928 205.664 140.922 205.856 140.922 206.054C140.916 206.246 140.916 206.444 140.91 206.642C140.898 207.44 140.886 208.304 140.868 209.21C140.862 209.666 140.856 210.134 140.844 210.608C140.844 210.842 140.838 211.088 140.832 211.334C140.826 211.754 140.82 212.18 140.814 212.612C140.808 212.69 140.808 212.762 140.808 212.84C140.79 213.608 140.778 214.394 140.766 215.21V215.318C140.754 215.72 140.748 216.134 140.742 216.554C140.736 216.932 140.73 217.316 140.718 217.706C140.706 218.558 140.688 219.428 140.67 220.31V220.424C140.658 220.868 140.652 221.324 140.646 221.774C140.64 222.182 140.628 222.596 140.622 223.01C140.616 223.316 140.61 223.622 140.604 223.928C140.604 224.054 140.604 224.18 140.598 224.306C140.586 224.798 140.58 225.29 140.568 225.788V225.902C140.556 226.436 140.544 226.976 140.538 227.522C140.532 227.864 140.526 228.212 140.514 228.566C140.508 228.998 140.502 229.436 140.49 229.868V229.976C140.472 230.798 140.454 231.626 140.442 232.46C140.424 233.288 140.406 234.128 140.394 234.962C140.376 235.796 140.358 236.636 140.346 237.476C140.34 237.752 140.334 238.034 140.328 238.31C140.316 238.868 140.304 239.426 140.298 239.984C140.292 240.26 140.286 240.542 140.28 240.818C140.268 241.328 140.256 241.838 140.25 242.348C140.208 244.676 140.16 246.974 140.118 249.206C140.112 249.458 140.106 249.71 140.1 249.956C140.1 250.172 140.094 250.388 140.088 250.604C140.076 251.126 140.07 251.648 140.058 252.164V252.188C140.046 252.698 140.04 253.202 140.028 253.7C140.022 253.904 140.022 254.108 140.016 254.306C140.01 254.54 140.004 254.774 140.004 255.008C139.992 255.572 139.98 256.13 139.968 256.682C139.956 257.168 139.95 257.642 139.938 258.116C139.932 258.44 139.926 258.752 139.92 259.064C139.914 259.388 139.908 259.712 139.902 260.03C139.902 260.09 139.896 260.144 139.896 260.198C139.878 261.092 139.86 261.962 139.842 262.796C139.836 263.39 139.824 263.96 139.806 264.518C139.8 264.764 139.8 265.004 139.794 265.244C139.788 265.73 139.776 266.204 139.764 266.654C139.758 266.99 139.752 267.32 139.746 267.644C139.74 268.004 139.734 268.346 139.728 268.682C139.722 268.916 139.716 269.138 139.71 269.36V269.504C139.704 269.774 139.698 270.032 139.692 270.284C139.68 270.812 139.674 271.298 139.662 271.742C139.632 273.368 138.306 274.658 136.704 274.688C136.632 274.694 136.554 274.694 136.476 274.688C132.03 274.448 127.758 273.716 123.846 272.744C121.818 272.246 119.88 271.676 118.062 271.082C113.544 269.6 109.758 267.938 107.064 266.624C104.466 265.358 103.164 262.478 103.962 259.76L111.948 232.622L114.48 224.018C114.558 223.742 114.6 223.454 114.6 223.172V207.602C114.6 206.462 114.93 205.346 115.572 204.404C121.122 196.274 119.532 164.084 119.166 157.832C119.13 157.214 119.538 156.65 120.156 156.482L124.122 155.39L130.014 153.77L131.094 153.47H131.1L131.718 153.302C131.784 153.284 131.844 153.272 131.904 153.26C132.066 153.236 132.222 153.242 132.378 153.278C132.438 153.29 132.492 153.302 132.546 153.326C132.972 153.47 133.32 153.824 133.422 154.286C133.62 155.162 133.896 156.422 134.238 157.976C134.274 158.15 134.31 158.324 134.352 158.504C134.37 158.588 134.388 158.672 134.406 158.756C134.448 158.948 134.49 159.146 134.532 159.344C134.718 160.196 134.91 161.114 135.114 162.092C135.198 162.482 135.282 162.878 135.366 163.286C135.612 164.468 135.87 165.722 136.134 167.024C136.182 167.27 136.236 167.522 136.284 167.774C136.878 170.708 137.49 173.876 138.072 177.086C138.18 177.662 138.282 178.244 138.384 178.826C138.486 179.402 138.588 179.984 138.69 180.566C138.744 180.908 138.804 181.244 138.864 181.586C138.918 181.922 138.978 182.252 139.032 182.582C139.104 183.02 139.176 183.452 139.242 183.884C139.254 183.968 139.272 184.052 139.284 184.13C139.5 185.468 139.698 186.788 139.884 188.072C139.926 188.39 139.974 188.714 140.016 189.026C140.112 189.734 140.208 190.43 140.292 191.114C140.304 191.216 140.316 191.312 140.328 191.414C140.394 191.924 140.448 192.434 140.508 192.926C140.55 193.298 140.586 193.658 140.622 194.012C140.664 194.378 140.694 194.738 140.73 195.092C140.796 195.854 140.856 196.586 140.898 197.276C140.922 197.648 140.94 198.014 140.952 198.362C140.964 198.56 140.97 198.758 140.976 198.95C140.982 199.142 140.988 199.334 140.988 199.52C140.994 199.706 140.994 199.886 140.994 200.066Z" fill="#F37121"/>
<path d="M140.995 200.063C140.995 199.561 140.982 199.025 140.958 198.458L132.482 198.381C131.46 180.684 128.32 160.276 127.842 154.343L123.22 155.615C123.97 165.17 127.254 197.057 126.918 214.211C126.66 227.063 120.846 257.285 118.062 271.083C119.881 271.678 121.818 272.245 123.846 272.746C125.817 263.042 129.416 244.576 131.439 229.79L140.49 229.871C140.52 228.493 140.544 227.128 140.568 225.785L131.968 225.709C132.503 221.301 132.853 217.373 132.913 214.322C132.982 210.83 132.891 206.785 132.694 202.468L140.97 202.543C140.988 201.417 140.995 200.571 140.995 200.063Z" fill="#FFBE00"/>
<path opacity="0.2" d="M140.994 200.066C140.994 200.87 140.976 202.508 140.94 204.776C140.934 205.004 140.934 205.238 140.928 205.478C140.928 205.664 140.922 205.856 140.922 206.054C140.916 206.246 140.916 206.444 140.91 206.642C140.898 207.44 140.886 208.304 140.868 209.21C140.862 209.666 140.856 210.134 140.844 210.608C140.844 210.842 140.838 211.088 140.832 211.334C140.826 211.754 140.82 212.18 140.814 212.612C140.808 212.69 140.808 212.762 140.808 212.84C140.796 213.608 140.778 214.4 140.766 215.21V215.318C140.754 215.726 140.748 216.14 140.742 216.554C140.736 216.932 140.73 217.316 140.718 217.706C140.706 218.558 140.688 219.428 140.67 220.31V220.424C140.664 220.868 140.652 221.318 140.646 221.774C140.64 222.182 140.628 222.596 140.622 223.01C140.616 223.316 140.61 223.622 140.604 223.928C140.604 224.054 140.604 224.18 140.598 224.306C140.586 224.798 140.58 225.29 140.568 225.788V225.902C140.556 226.436 140.544 226.976 140.538 227.522C140.532 227.864 140.526 228.212 140.514 228.566C140.508 228.998 140.502 229.436 140.49 229.868V229.976C140.472 230.798 140.454 231.626 140.442 232.46C140.43 233.294 140.412 234.128 140.394 234.962C140.376 235.796 140.358 236.636 140.346 237.476C140.34 237.752 140.334 238.034 140.328 238.31C140.322 238.868 140.31 239.426 140.298 239.984C140.292 240.26 140.286 240.542 140.28 240.818C140.268 241.328 140.256 241.838 140.25 242.348C140.208 244.676 140.16 246.974 140.118 249.206C140.112 249.458 140.106 249.71 140.1 249.956C140.1 250.172 140.094 250.388 140.088 250.604C140.076 251.126 140.07 251.648 140.058 252.164V252.188C140.046 252.698 140.04 253.202 140.028 253.7C140.022 253.904 140.022 254.108 140.016 254.306C140.01 254.54 140.004 254.774 140.004 255.008C139.992 255.572 139.98 256.13 139.968 256.682C139.956 257.168 139.95 257.648 139.938 258.116C139.932 258.44 139.926 258.752 139.92 259.064C139.914 259.388 139.908 259.712 139.902 260.03C139.902 260.09 139.896 260.144 139.896 260.198C139.878 261.098 139.86 261.962 139.842 262.796C139.836 263.39 139.824 263.96 139.806 264.518C139.806 264.764 139.8 265.01 139.794 265.244C139.788 265.73 139.776 266.204 139.764 266.654C139.758 266.99 139.752 267.32 139.746 267.644C139.74 268.004 139.734 268.346 139.728 268.682C139.722 268.916 139.716 269.138 139.71 269.36V269.504C139.704 269.774 139.698 270.038 139.692 270.284C139.68 270.812 139.674 271.298 139.662 271.742C139.632 273.368 138.306 274.658 136.704 274.688C136.65 274.688 136.59 274.682 136.536 274.682C136.698 269.822 138.816 206.882 138.906 200.306C139.056 188.93 133.314 160.958 131.94 154.436C131.844 153.974 131.514 153.632 131.1 153.47L131.718 153.296C131.784 153.278 131.844 153.266 131.904 153.26C132.066 153.236 132.222 153.242 132.378 153.278C132.438 153.29 132.492 153.302 132.546 153.326C132.972 153.47 133.32 153.824 133.422 154.286C133.62 155.162 133.896 156.422 134.238 157.976C134.274 158.144 134.31 158.324 134.352 158.504C134.37 158.588 134.388 158.672 134.406 158.756C134.448 158.948 134.49 159.146 134.532 159.344C134.718 160.196 134.91 161.114 135.114 162.092C135.198 162.482 135.282 162.878 135.366 163.286C135.612 164.468 135.87 165.722 136.134 167.024C136.182 167.27 136.236 167.522 136.284 167.774C136.878 170.708 137.49 173.876 138.072 177.086C138.18 177.662 138.282 178.244 138.384 178.826C138.486 179.402 138.588 179.984 138.69 180.566C138.744 180.908 138.804 181.244 138.864 181.586C138.918 181.922 138.978 182.252 139.032 182.582C139.104 183.02 139.17 183.452 139.242 183.884C139.254 183.968 139.272 184.052 139.284 184.13C139.494 185.468 139.698 186.788 139.884 188.072C139.926 188.39 139.974 188.714 140.016 189.026C140.112 189.734 140.208 190.43 140.292 191.114C140.304 191.216 140.316 191.312 140.328 191.414C140.394 191.924 140.448 192.434 140.508 192.926C140.55 193.298 140.586 193.658 140.622 194.012C140.658 194.378 140.694 194.738 140.73 195.092C140.796 195.854 140.856 196.586 140.898 197.276C140.922 197.648 140.94 198.008 140.952 198.362C140.964 198.56 140.97 198.758 140.976 198.95C140.982 199.148 140.988 199.334 140.988 199.52C140.994 199.706 140.994 199.886 140.994 200.066Z" fill="#606060"/>
<path opacity="0.2" d="M118.062 245.101C117.816 244.838 114.588 239.63 111.948 232.62L114.6 223.603V210.663C114.6 210.663 119.446 221.363 118.6 224.381C117.754 227.393 116.1 228.657 116.1 228.657C116.1 228.657 115.068 239.264 118.062 245.101Z" fill="#606060"/>
<path d="M132.368 153.056L137.535 148.514C137.535 148.514 141.611 158.525 149.622 162.247L142.098 170.947C142.098 170.947 133.167 165.955 132.368 153.056Z" fill="#273B7C"/>
<path opacity="0.5" d="M132.368 153.056L137.535 148.514C137.535 148.514 141.611 158.525 149.622 162.247L142.098 170.947C142.098 170.947 133.167 165.955 132.368 153.056Z" fill="white"/>
<path opacity="0.5" d="M103.592 218.662C103.591 224.621 94.3896 218.458 90.3096 215.467C90.9978 212.877 92.0622 209.123 93.2682 204.961C95.7516 206.598 103.592 212.78 103.592 218.662Z" fill="#E5B7AC"/>
<path d="M89.69 232.646L68.6768 191.228C69.3074 186.518 77.4692 186.108 77.4692 186.108L103.414 218.493C113.44 229.514 96.9512 241.328 89.69 232.646Z" fill="#E5B7AC"/>
<path d="M67.8658 187.41L45.313 180.496C45.3526 180.522 47.0482 181.81 49.0696 183.273C50.959 184.646 53.1322 186.173 54.4924 186.967C59.3506 189.802 67.8658 187.41 67.8658 187.41Z" fill="#E5B7AC"/>
<path d="M61.726 187.125L45.313 180.496C45.3526 180.522 47.0482 181.81 49.0696 183.273C51.3394 184.423 54.2734 186.233 55.7476 186.862C59.0434 188.265 61.726 187.125 61.726 187.125Z" fill="#E5B7AC"/>
<path d="M68.9312 191.729L78.1046 188.987C77.576 184.778 75.0296 180.71 71.1362 179.302C65.441 177.242 62.7452 179.302 56.399 178.817C54.7946 178.695 53.1728 178.33 52.7216 178.197C52.625 178.171 52.5368 178.143 52.4486 178.125C52.4444 178.123 52.4426 178.122 52.4408 178.122C50.279 177.605 50.0636 179.094 50.0636 179.094C50.0636 179.094 50.0636 179.094 50.0618 179.092C50.0342 179.077 49.7366 178.913 49.2974 178.705C48.0866 178.126 45.8024 177.202 45.218 178.133C44.9852 178.143 44.7938 178.177 44.6342 178.231C43.709 178.542 43.9088 179.47 43.9088 179.47C44.3012 179.823 44.9108 180.242 45.6776 180.7C49.493 182.975 56.5826 187.962 60.8012 187.928C67.1384 187.878 68.9312 191.729 68.9312 191.729Z" fill="#E5B7AC"/>
<path d="M60.0656 186.362C59.7014 186.221 51.3848 182.552 47.9942 181.029C44.5394 179.476 45.2312 178.303 45.224 178.156C44.9906 178.165 44.7992 178.199 44.6396 178.253C44.6906 178.477 44.8196 178.776 44.9426 179.211C45.1952 180.103 48.0164 181.501 51.287 183.004C54.4808 184.472 58.1048 186.052 60.0656 186.362Z" fill="#E5B7AC"/>
<path opacity="0.4" d="M45.2067 178.781C45.2067 178.781 46.4115 178.793 46.7175 179.519C47.0229 180.246 46.7415 180.382 46.7415 180.382C46.7415 180.382 45.1707 179.519 45.2067 178.781Z" fill="white"/>
<path opacity="0.4" d="M45.6844 180.723C45.8248 179.321 43.915 179.494 43.915 179.494C44.3068 179.846 44.9164 180.265 45.6844 180.723Z" fill="white"/>
<path d="M61.2832 184.093C59.6944 182.665 52.2118 180.886 51.0418 180.344C50.014 179.869 50.065 179.095 50.065 179.095C50.065 179.095 50.065 179.095 50.0632 179.093C50.035 179.077 49.7374 178.914 49.2988 178.705C49.5004 179.752 50.1538 180.731 51.4894 181.192C52.9264 181.687 61.2832 184.093 61.2832 184.093Z" fill="#E5B7AC"/>
<path opacity="0.4" d="M50.3296 179.481C50.3296 179.481 50.56 178.99 52.2952 179.635C52.2952 179.635 52.057 180.335 51.868 180.639C51.868 180.639 50.0266 180.127 50.3296 179.481Z" fill="white"/>
<path d="M180.504 180.518C180.504 180.518 182.442 187.934 184.932 197.132C185.382 198.806 185.856 200.54 186.336 202.304C186.594 203.252 186.858 204.206 187.122 205.166C188.274 209.372 189.456 213.62 190.548 217.448C192.486 224.168 193.806 228.32 194.61 230.012L208.752 232.448C208.764 232.436 208.77 232.43 208.77 232.418C210.342 230.6 211.332 228.176 211.506 225.272C211.59 223.946 211.494 222.53 211.206 221.024C211.092 220.418 210.828 219.362 210.462 217.976C209.772 215.384 208.71 211.628 207.504 207.47C206.874 205.292 206.202 203 205.524 200.708C204.888 198.536 204.246 196.37 203.628 194.288C201.204 186.152 199.146 179.366 199.146 179.366C190.614 170.732 180.504 180.518 180.504 180.518Z" fill="#E5B7AC"/>
<path opacity="0.5" d="M184.932 197.132C185.382 198.806 185.856 200.54 186.336 202.304C186.594 203.252 186.858 204.206 187.122 205.166C194.922 206.408 203.088 202.124 205.524 200.708C204.888 198.536 204.246 196.37 203.628 194.288L186.75 195.674C186.75 195.674 185.91 196.256 184.932 197.132Z" fill="#E5B7AC"/>
<path d="M180.024 196.364C180.048 197.552 180.384 199.532 180.888 201.896C180.936 202.13 180.99 202.364 181.05 202.616C182.07 202.784 183.084 202.916 184.098 203.006C184.512 203.048 184.926 203.078 185.34 203.102C185.628 203.12 185.916 203.132 186.204 203.144C187.182 203.192 188.16 203.192 189.138 203.156C189.714 203.138 190.29 203.102 190.866 203.06C197.178 202.58 203.286 200.642 209.25 197.594C209.25 197.594 199.368 176.378 195.966 168.704C190.848 157.178 175.584 156.476 167.682 154.184C165.588 153.578 179.736 184.136 180.024 196.364Z" fill="#273B7C"/>
<path opacity="0.2" d="M183.93 202.592L184.098 203.006C184.512 203.048 184.926 203.078 185.34 203.102C185.628 203.12 185.916 203.132 186.204 203.144C187.182 203.192 188.16 203.192 189.138 203.156C189.558 200.702 189.828 197.996 189.648 195.572C189.156 189.068 181.219 169.858 180.919 169.138C181.111 169.792 185.754 186.896 185.976 193.1C186.12 197.216 183.93 202.592 183.93 202.592Z" fill="#606060"/>
<path opacity="0.2" d="M156.648 202.592C157.248 207.386 159.819 243.424 156.376 261.505C161.086 261.301 166.986 260.852 171.66 260.234L164.31 165.41C164.31 165.41 155.85 196.214 156.648 202.592Z" fill="#606060"/>
<path d="M191.97 267.11C189.372 268.334 185.964 269.78 181.986 271.082C180.168 271.676 178.23 272.246 176.202 272.744C172.284 273.716 168.018 274.448 163.572 274.688C163.494 274.694 163.416 274.694 163.344 274.688C161.742 274.658 160.416 273.368 160.386 271.742C160.374 271.298 160.368 270.812 160.356 270.284C160.35 270.032 160.344 269.774 160.338 269.504V269.36C160.332 269.138 160.326 268.916 160.32 268.682C160.314 268.346 160.308 268.004 160.302 267.644C160.296 267.32 160.29 266.99 160.284 266.654C160.272 266.204 160.26 265.73 160.254 265.244C160.248 265.004 160.248 264.764 160.242 264.518C160.224 263.96 160.212 263.39 160.206 262.796C160.188 261.962 160.17 261.092 160.152 260.198C160.152 260.144 160.146 260.09 160.152 260.03C160.14 259.712 160.134 259.388 160.128 259.064C160.122 258.752 160.116 258.44 160.11 258.116C160.098 257.642 160.092 257.168 160.08 256.682C160.068 256.13 160.056 255.572 160.044 255.008C160.044 254.774 160.038 254.54 160.032 254.306C160.026 254.108 160.026 253.904 160.02 253.7C160.008 253.202 160.002 252.698 159.99 252.188V252.164C159.978 251.648 159.972 251.126 159.96 250.604C159.954 250.388 159.948 250.172 159.948 249.956C159.942 249.71 159.936 249.458 159.93 249.206C159.888 246.974 159.84 244.676 159.798 242.348C159.792 241.838 159.78 241.328 159.768 240.818C159.762 240.542 159.756 240.26 159.75 239.984C159.744 239.426 159.732 238.868 159.72 238.31C159.714 238.034 159.708 237.752 159.702 237.476C159.69 236.636 159.672 235.796 159.654 234.962C159.642 234.128 159.624 233.288 159.606 232.46C159.594 231.626 159.576 230.798 159.558 229.976V229.868C159.546 229.436 159.54 228.998 159.534 228.566C159.522 228.212 159.516 227.864 159.51 227.522C159.504 226.976 159.492 226.436 159.48 225.902V225.788C159.468 225.29 159.462 224.798 159.45 224.306C159.444 224.18 159.444 224.054 159.444 223.928C159.438 223.622 159.432 223.316 159.426 223.01C159.42 222.596 159.408 222.182 159.402 221.774C159.396 221.324 159.39 220.868 159.378 220.424V220.31C159.36 219.428 159.342 218.558 159.33 217.706C159.318 217.316 159.312 216.932 159.306 216.554C159.3 216.134 159.294 215.72 159.282 215.318V215.21C159.27 214.394 159.258 213.608 159.24 212.84C159.24 212.762 159.24 212.69 159.234 212.612C159.228 212.18 159.222 211.754 159.216 211.334C159.21 211.088 159.204 210.842 159.204 210.608C159.192 210.134 159.186 209.666 159.18 209.21C159.162 208.304 159.15 207.44 159.138 206.642C159.132 206.444 159.132 206.246 159.126 206.054C159.126 205.856 159.12 205.664 159.12 205.478C159.114 205.238 159.114 205.004 159.108 204.776C159.096 204.02 159.084 203.336 159.078 202.724V202.544C159.078 202.4 159.072 202.268 159.072 202.136C159.06 201.212 159.054 200.51 159.054 200.066C159.054 199.886 159.054 199.706 159.06 199.52C159.06 199.334 159.066 199.148 159.072 198.95C159.078 198.758 159.084 198.56 159.096 198.362C159.108 198.008 159.126 197.648 159.15 197.276C159.192 196.586 159.252 195.854 159.318 195.092C159.354 194.738 159.39 194.378 159.426 194.012C159.462 193.658 159.498 193.298 159.54 192.926C159.6 192.434 159.654 191.924 159.72 191.414C159.732 191.312 159.744 191.216 159.756 191.114C159.84 190.43 159.936 189.734 160.032 189.026C160.074 188.714 160.122 188.39 160.164 188.072C160.35 186.788 160.548 185.468 160.764 184.13C160.776 184.052 160.794 183.968 160.806 183.884C160.878 183.452 160.944 183.02 161.016 182.582C161.07 182.252 161.13 181.922 161.184 181.586C161.238 181.25 161.298 180.908 161.358 180.566C161.46 179.984 161.562 179.402 161.664 178.826C161.766 178.244 161.868 177.662 161.976 177.086C162.558 173.876 163.17 170.708 163.764 167.774C163.812 167.522 163.866 167.27 163.914 167.024C164.178 165.722 164.436 164.468 164.682 163.286C164.766 162.878 164.85 162.482 164.934 162.092C165.138 161.114 165.33 160.196 165.516 159.344C165.558 159.146 165.6 158.948 165.642 158.756C165.66 158.672 165.678 158.588 165.696 158.504C165.738 158.324 165.774 158.15 165.81 157.976C166.152 156.422 166.428 155.162 166.626 154.286C166.728 153.824 167.076 153.47 167.502 153.326C167.556 153.302 167.61 153.29 167.67 153.278C167.82 153.242 167.982 153.236 168.144 153.26C168.204 153.272 168.264 153.284 168.33 153.302L168.948 153.47H168.954L170.034 153.77L175.926 155.39L179.892 156.482C180.51 156.65 180.918 157.214 180.882 157.832C180.522 163.952 178.992 194.93 184.134 203.858C184.338 204.212 184.458 204.602 184.5 205.01C184.572 205.706 184.782 206.384 185.1 207.014C185.322 207.446 185.448 207.92 185.448 208.406V223.172C185.448 223.454 185.49 223.742 185.568 224.018L188.1 232.622L195.792 258.758C196.764 262.076 195.162 265.61 191.97 267.11Z" fill="#F37121"/>
<path d="M159.054 200.063C159.054 199.561 159.066 199.025 159.09 198.458L167.566 198.381C168.588 180.684 171.728 160.276 172.206 154.343L176.828 155.615C176.078 165.17 172.794 197.057 173.13 214.211C173.388 227.063 179.202 257.285 181.986 271.083C180.168 271.678 178.23 272.245 176.202 272.746C174.231 263.042 170.632 244.576 168.609 229.79L159.558 229.871C159.528 228.493 159.504 227.128 159.48 225.785L168.081 225.709C167.546 221.301 167.196 217.373 167.136 214.322C167.067 210.83 167.158 206.785 167.355 202.468L159.078 202.543C159.06 201.417 159.054 200.571 159.054 200.063Z" fill="#FFBE00"/>
<path opacity="0.2" d="M168.948 153.47C168.528 153.632 168.204 153.974 168.108 154.436C166.734 160.958 160.992 188.93 161.142 200.306C161.226 206.882 163.344 269.822 163.512 274.682C163.458 274.682 163.398 274.688 163.344 274.688C161.742 274.658 160.416 273.368 160.386 271.742C160.374 271.298 160.368 270.812 160.356 270.284C160.35 270.032 160.344 269.774 160.338 269.504V269.36C160.332 269.138 160.326 268.916 160.32 268.682C160.314 268.346 160.308 268.004 160.302 267.644C160.296 267.32 160.29 266.99 160.284 266.654C160.272 266.204 160.26 265.73 160.254 265.244C160.248 265.004 160.248 264.764 160.242 264.518C160.224 263.96 160.212 263.39 160.206 262.796C160.188 261.962 160.17 261.098 160.152 260.198C160.152 260.144 160.146 260.09 160.152 260.03C160.14 259.712 160.134 259.388 160.128 259.064C160.122 258.752 160.116 258.44 160.11 258.116C160.098 257.642 160.092 257.168 160.08 256.682C160.068 256.13 160.056 255.572 160.044 255.008C160.044 254.774 160.038 254.54 160.032 254.306C160.026 254.108 160.026 253.904 160.02 253.7C160.008 253.202 160.002 252.698 159.99 252.188V252.164C159.978 251.648 159.972 251.126 159.96 250.604C159.954 250.388 159.948 250.172 159.948 249.956C159.942 249.71 159.936 249.458 159.93 249.206C159.888 246.974 159.84 244.676 159.798 242.348C159.792 241.838 159.78 241.328 159.768 240.818C159.762 240.542 159.756 240.26 159.75 239.984C159.744 239.426 159.732 238.868 159.72 238.31C159.714 238.034 159.708 237.752 159.702 237.476C159.69 236.636 159.672 235.796 159.654 234.962C159.642 234.128 159.624 233.288 159.606 232.46C159.594 231.626 159.576 230.798 159.558 229.976V229.868C159.546 229.436 159.54 228.998 159.534 228.566C159.522 228.212 159.516 227.864 159.51 227.522C159.504 226.976 159.492 226.436 159.48 225.902V225.788C159.468 225.29 159.462 224.798 159.45 224.306C159.444 224.18 159.444 224.054 159.444 223.928C159.438 223.622 159.432 223.316 159.426 223.01C159.42 222.596 159.408 222.182 159.402 221.774C159.396 221.324 159.39 220.868 159.378 220.424V220.31C159.36 219.428 159.342 218.558 159.33 217.706C159.318 217.316 159.312 216.932 159.306 216.554C159.3 216.134 159.294 215.72 159.282 215.318V215.21C159.27 214.4 159.252 213.608 159.24 212.84C159.24 212.762 159.24 212.69 159.234 212.612C159.228 212.18 159.222 211.754 159.216 211.334C159.21 211.088 159.204 210.842 159.204 210.608C159.192 210.134 159.186 209.666 159.18 209.21C159.162 208.304 159.15 207.44 159.138 206.642C159.132 206.444 159.132 206.246 159.126 206.054C159.126 205.856 159.12 205.664 159.12 205.478C159.114 205.238 159.114 205.004 159.108 204.776C159.096 204.02 159.084 203.336 159.078 202.724C159.078 202.52 159.072 202.322 159.072 202.136C159.06 201.212 159.054 200.51 159.054 200.066C159.054 199.886 159.054 199.706 159.06 199.52C159.06 199.334 159.066 199.148 159.072 198.95C159.078 198.758 159.084 198.56 159.096 198.362C159.108 198.008 159.126 197.648 159.15 197.276C159.192 196.586 159.252 195.854 159.318 195.092C159.354 194.738 159.39 194.378 159.426 194.012C159.462 193.658 159.498 193.298 159.54 192.926C159.6 192.434 159.654 191.924 159.72 191.414C159.732 191.312 159.744 191.216 159.756 191.114C159.84 190.43 159.936 189.734 160.032 189.026C160.074 188.714 160.122 188.39 160.164 188.072C160.35 186.788 160.554 185.468 160.764 184.13C160.776 184.052 160.794 183.968 160.806 183.884C160.878 183.452 160.944 183.02 161.016 182.582C161.07 182.252 161.13 181.922 161.184 181.586C161.244 181.244 161.304 180.908 161.358 180.566C161.46 179.984 161.562 179.402 161.664 178.826C161.766 178.244 161.868 177.662 161.976 177.086C162.558 173.876 163.17 170.708 163.764 167.774C163.812 167.522 163.866 167.27 163.914 167.024C164.178 165.722 164.436 164.468 164.682 163.286C164.766 162.878 164.85 162.482 164.934 162.092C165.138 161.114 165.33 160.196 165.516 159.344C165.558 159.146 165.6 158.948 165.642 158.756C165.66 158.672 165.678 158.588 165.696 158.504C165.738 158.324 165.774 158.144 165.81 157.976C166.152 156.422 166.428 155.162 166.626 154.286C166.728 153.824 167.076 153.47 167.502 153.326C167.556 153.302 167.61 153.29 167.67 153.278C167.82 153.242 167.982 153.236 168.144 153.26C168.204 153.266 168.264 153.278 168.324 153.296L168.948 153.47Z" fill="#606060"/>
<path opacity="0.2" d="M181.986 245.101C182.232 244.838 185.46 239.63 188.1 232.62L185.448 223.603V210.663C185.448 210.663 180.602 221.363 181.448 224.381C182.294 227.393 183.948 228.657 183.948 228.657C183.948 228.657 184.98 239.264 181.986 245.101Z" fill="#606060"/>
<path d="M167.68 153.056L162.748 148.247C162.748 148.247 158.437 158.525 150.426 162.247L157.95 170.947C157.95 170.947 166.88 165.955 167.68 153.056Z" fill="#273B7C"/>
<path opacity="0.5" d="M167.68 153.056L162.748 148.247C162.748 148.247 158.437 158.525 150.426 162.247L157.95 170.947C157.95 170.947 166.88 165.955 167.68 153.056Z" fill="white"/>
<path opacity="0.5" d="M196.456 218.662C196.456 224.621 205.658 218.458 209.738 215.467C209.05 212.877 207.985 209.123 206.779 204.961C204.296 206.598 196.456 212.78 196.456 218.662Z" fill="#E5B7AC"/>
<path d="M210.357 232.646L231.371 191.228C230.74 186.518 222.578 186.108 222.578 186.108L196.633 218.493C186.607 229.514 203.096 241.328 210.357 232.646Z" fill="#E5B7AC"/>
<path d="M232.182 187.41L254.734 180.496C254.695 180.522 252.999 181.81 250.978 183.273C249.088 184.646 246.915 186.173 245.555 186.967C240.697 189.802 232.182 187.41 232.182 187.41Z" fill="#E5B7AC"/>
<path d="M238.322 187.125L254.735 180.496C254.696 180.522 253 181.81 250.979 183.273C248.709 184.423 245.775 186.233 244.301 186.862C241.005 188.265 238.322 187.125 238.322 187.125Z" fill="#E5B7AC"/>
<path d="M231.116 191.729L221.943 188.987C222.471 184.778 225.018 180.71 228.911 179.302C234.606 177.242 237.302 179.302 243.648 178.817C245.253 178.695 246.875 178.33 247.326 178.197C247.422 178.171 247.511 178.143 247.599 178.125C247.602 178.123 247.605 178.122 247.607 178.122C249.768 177.605 249.984 179.094 249.984 179.094C249.984 179.094 249.984 179.094 249.986 179.092C250.013 179.077 250.311 178.913 250.75 178.705C251.961 178.126 254.244 177.202 254.829 178.133C255.062 178.143 255.253 178.177 255.413 178.231C256.338 178.542 256.138 179.47 256.138 179.47C255.746 179.823 255.136 180.242 254.369 180.7C250.554 182.975 243.464 187.962 239.246 187.928C232.91 187.878 231.116 191.729 231.116 191.729Z" fill="#E5B7AC"/>
<path d="M239.982 186.362C240.347 186.221 248.663 182.552 252.054 181.029C255.509 179.476 254.817 178.303 254.823 178.156C255.057 178.165 255.248 178.199 255.408 178.253C255.357 178.477 255.228 178.776 255.105 179.211C254.852 180.103 252.031 181.501 248.761 183.004C245.567 184.472 241.943 186.052 239.982 186.362Z" fill="#E5B7AC"/>
<path opacity="0.4" d="M254.841 178.781C254.841 178.781 253.636 178.793 253.33 179.519C253.025 180.246 253.306 180.382 253.306 180.382C253.306 180.382 254.878 179.519 254.841 178.781Z" fill="white"/>
<path opacity="0.4" d="M254.364 180.723C254.223 179.321 256.133 179.494 256.133 179.494C255.741 179.846 255.131 180.265 254.364 180.723Z" fill="white"/>
<path d="M238.765 184.093C240.353 182.665 247.837 180.886 249.007 180.344C250.034 179.869 249.983 179.095 249.983 179.095C249.983 179.095 249.983 179.095 249.985 179.093C250.013 179.077 250.311 178.914 250.75 178.705C250.548 179.752 249.895 180.731 248.559 181.192C247.121 181.687 238.765 184.093 238.765 184.093Z" fill="#E5B7AC"/>
<path opacity="0.4" d="M249.718 179.481C249.718 179.481 249.488 178.99 247.752 179.635C247.752 179.635 247.991 180.335 248.18 180.639C248.18 180.639 250.021 180.127 249.718 179.481Z" fill="white"/>
<path d="M173.316 195.483H172.546V199.023H173.316V195.483Z" fill="#2E3442"/>
<path d="M179.4 198.137H166.462V216.579H179.4V198.137Z" fill="white"/>
<g opacity="0.3">
<path d="M167.492 198.137H166.819V216.579H167.492V198.137Z" fill="#606060"/>
<path d="M179.044 198.137H178.371V216.579H179.044V198.137Z" fill="#606060"/>
</g>
<path d="M179.809 198.137H166.054V199.397H179.809V198.137Z" fill="#C70039"/>
<path d="M179.809 215.948H166.054V217.209H179.809V215.948Z" fill="#C70039"/>
<path d="M175.953 193.255C175.953 194.924 174.6 196.276 172.932 196.276C171.263 196.276 169.911 194.924 169.911 193.255C169.911 191.587 171.263 190.234 172.932 190.234C174.6 190.234 175.953 191.587 175.953 193.255Z" fill="#2E3442"/>
<path d="M170.814 193.488C170.814 192.084 171.953 190.946 173.356 190.946C173.633 190.946 173.894 191.002 174.144 191.084C173.757 190.845 173.305 190.701 172.817 190.701C171.413 190.701 170.275 191.839 170.275 193.243C170.275 194.369 171.013 195.314 172.029 195.647C171.303 195.199 170.814 194.404 170.814 193.488Z" fill="white"/>
<path d="M131.43 123.181C131.43 123.181 127.35 115.24 123.288 117.959C119.226 120.679 126.127 133.842 132.388 129.779L131.43 123.181Z" fill="#E5B7AC"/>
<path d="M125.211 121.6C128.319 121.059 130.612 124.285 130.709 124.424C130.807 124.565 130.799 124.771 130.691 124.886C130.653 124.926 130.607 124.949 130.56 124.957C130.474 124.97 130.381 124.929 130.318 124.838C130.304 124.819 129.447 123.614 128.121 122.838C127.175 123.885 128.057 126.072 128.066 126.095C128.134 126.26 128.085 126.455 127.957 126.531C127.932 126.546 127.906 126.556 127.88 126.56C127.77 126.577 127.655 126.505 127.6 126.373C127.555 126.266 126.628 123.964 127.581 122.565C126.927 122.275 126.189 122.112 125.396 122.236C125.369 122.24 125.342 122.245 125.315 122.25C125.191 122.298 125.033 122.151 125.004 121.972C124.975 121.792 125.067 121.625 125.211 121.6Z" fill="#E5B7AC"/>
<path d="M168.506 123.181C168.506 123.181 172.586 115.24 176.648 117.959C180.71 120.679 173.808 133.842 167.547 129.779L168.506 123.181Z" fill="#E5B7AC"/>
<path d="M174.724 121.6C171.617 121.059 169.324 124.285 169.227 124.424C169.129 124.565 169.137 124.771 169.245 124.886C169.283 124.926 169.329 124.949 169.375 124.957C169.462 124.97 169.555 124.929 169.618 124.838C169.632 124.819 170.489 123.614 171.815 122.838C172.761 123.885 171.879 126.072 171.87 126.095C171.802 126.26 171.85 126.455 171.979 126.531C172.003 126.546 172.03 126.556 172.056 126.56C172.166 126.577 172.281 126.505 172.336 126.373C172.381 126.266 173.308 123.964 172.354 122.565C173.009 122.275 173.747 122.112 174.54 122.236C174.567 122.24 174.594 122.245 174.621 122.25C174.745 122.298 174.903 122.151 174.932 121.972C174.961 121.792 174.868 121.625 174.724 121.6Z" fill="#E5B7AC"/>
<path d="M129.835 119.157C129.845 135.638 141.942 148.991 149.986 148.987C158.36 148.981 170.111 135.613 170.1 119.132C170.09 102.65 161.068 89.295 149.949 89.3022C138.83 89.3088 129.825 102.676 129.835 119.157Z" fill="#E5B7AC"/>
<path d="M164.776 116.608C164.884 116.584 163.864 112.433 161.021 111.745C159.217 111.307 157.332 111.69 155.412 112.884C154.92 113.19 154.77 113.839 155.076 114.331C155.383 114.823 156.032 114.974 156.522 114.667C157.942 113.783 159.291 113.487 160.527 113.786C162.491 114.262 164.347 116.702 164.776 116.608Z" fill="#2E3442"/>
<path d="M135.269 116.608C135.161 116.584 136.181 112.433 139.024 111.745C140.828 111.307 142.713 111.69 144.633 112.884C145.125 113.19 145.275 113.839 144.969 114.331C144.662 114.823 144.013 114.974 143.523 114.667C142.102 113.783 140.754 113.487 139.518 113.786C137.554 114.262 135.699 116.702 135.269 116.608Z" fill="#2E3442"/>
<path d="M144.648 120.512C144.095 119.704 143.084 118.899 141.691 118.781C141.02 118.737 140.33 118.861 139.783 119.126C139.242 119.398 138.801 119.747 138.488 120.147C138.164 120.544 137.935 120.973 137.792 121.413L135.729 120.639L137.607 122.729C138.13 121.958 138.664 121.245 139.335 120.695C140.005 120.151 140.802 119.807 141.579 119.892C142.361 119.929 143.126 120.402 143.759 120.996C144.398 121.602 144.896 122.344 145.401 123.138C145.46 122.254 145.228 121.337 144.648 120.512Z" fill="#2E3442"/>
<path d="M155.287 120.512C155.841 119.704 156.852 118.899 158.244 118.781C158.916 118.737 159.606 118.861 160.152 119.126C160.693 119.398 161.134 119.747 161.448 120.147C161.772 120.545 162 120.973 162.144 121.413L164.206 120.639L162.329 122.729C161.806 121.958 161.272 121.245 160.601 120.695C159.931 120.151 159.134 119.807 158.357 119.892C157.575 119.93 156.811 120.402 156.177 120.996C155.538 121.602 155.04 122.344 154.535 123.138C154.476 122.254 154.707 121.337 155.287 120.512Z" fill="#2E3442"/>
<path d="M164.726 125.564C163.709 125.709 162.923 126.098 162.971 126.433C163.019 126.768 163.883 126.922 164.9 126.776C165.917 126.631 166.702 126.242 166.654 125.906C166.606 125.572 165.743 125.418 164.726 125.564Z" fill="#E5B7AC"/>
<path d="M164.725 128.098C163.708 127.954 162.845 128.108 162.797 128.443C162.75 128.779 163.536 129.167 164.553 129.311C165.57 129.455 166.432 129.3 166.48 128.965C166.528 128.63 165.742 128.242 164.725 128.098Z" fill="#E5B7AC"/>
<path d="M135.047 128.116C134.03 128.262 133.244 128.651 133.292 128.986C133.34 129.321 134.203 129.475 135.221 129.329C136.238 129.184 137.023 128.795 136.975 128.46C136.926 128.124 136.064 127.97 135.047 128.116Z" fill="#E5B7AC"/>
<path d="M135.393 125.582C134.376 125.438 133.513 125.593 133.465 125.927C133.418 126.263 134.204 126.651 135.221 126.796C136.238 126.94 137.101 126.785 137.148 126.45C137.196 126.115 136.41 125.726 135.393 125.582Z" fill="#E5B7AC"/>
<path d="M158.051 133.738C158.019 133.774 154.803 137.432 149.987 137.167C145.186 136.902 143.087 132.984 143.067 132.944C142.98 132.778 142.774 132.714 142.609 132.801C142.443 132.888 142.378 133.093 142.465 133.259C142.557 133.435 144.768 137.559 149.95 137.845C155.107 138.129 158.427 134.342 158.566 134.18C158.688 134.039 158.672 133.825 158.53 133.702C158.389 133.579 158.173 133.595 158.051 133.738Z" fill="#E5B7AC"/>
<path d="M149.527 132.207C149.57 132.21 149.613 132.212 149.655 132.212C150.957 132.213 152.27 130.486 152.812 128.023C152.854 127.835 152.734 127.647 152.545 127.606C152.358 127.565 152.17 127.684 152.128 127.872C151.613 130.212 150.395 131.59 149.59 131.509C149.039 131.461 148.421 130.649 148.334 128.518C148.128 123.47 148.961 120.616 148.97 120.588C149.025 120.403 148.92 120.208 148.735 120.152C148.549 120.095 148.354 120.202 148.3 120.387C148.263 120.506 147.423 123.368 147.634 128.548C147.763 131.711 149 132.16 149.527 132.207Z" fill="#E5B7AC"/>
<path d="M129.835 120.697C131.188 120.134 131.321 118.466 131.608 117.359C131.608 117.359 159.073 117.049 164.639 97.2702C164.639 97.2702 165.414 117.809 170.053 120.955C170.053 120.955 175.242 111.423 174.142 103.981C173.044 96.5382 167.24 88.1934 149.767 88.0158C132.295 87.8382 118.494 98.3376 129.835 120.697Z" fill="#2E3442"/>
<path d="M176.302 105.025H123.235L123.907 101.02L123.913 100.991L124.813 95.5812C125.387 92.1732 126.775 89.0292 128.79 86.3034C128.922 86.1258 129.054 85.9476 129.197 85.7754C129.255 85.695 129.318 85.6146 129.381 85.5342C129.535 85.3446 129.696 85.1556 129.857 84.966C129.926 84.8916 129.989 84.8112 130.058 84.7422C134.682 79.5096 141.797 76.2048 149.766 76.2048H149.772C162.4 76.2048 172.871 84.507 174.718 95.58L175.614 100.933L175.62 100.956L176.302 105.025Z" fill="#FFBE00"/>
<path opacity="0.3" d="M129.995 88.0158C128.655 90.1482 127.716 92.5206 127.29 95.0586L126.476 99.921L125.878 103.507H129.901L130.397 100.025L131.074 95.3028C131.292 93.78 131.674 92.319 132.194 90.9354C131.543 89.9166 130.81 88.9386 129.995 88.0158Z" fill="#007FFF"/>
<path opacity="0.3" d="M172.737 99.867L171.933 95.0586C171.509 92.5182 170.573 90.1428 169.231 88.0116C168.416 88.9344 167.682 89.9118 167.031 90.9312C167.552 92.3154 167.931 93.7788 168.15 95.3028L168.818 99.972L169.323 103.507H173.346L172.737 99.867Z" fill="#007FFF"/>
<path opacity="0.3" d="M168.113 86.217C167.421 87.0246 166.789 87.8688 166.218 88.7436C163.03 82.5852 156.853 78.4734 149.772 78.4734H149.766C143.844 78.4734 138.56 81.3462 135.123 85.8828C135.074 85.9494 135.026 86.0166 134.977 86.0832C134.856 86.247 134.734 86.4048 134.625 86.5752C134.576 86.6478 134.528 86.715 134.485 86.7816C134.382 86.9334 134.279 87.0912 134.181 87.243C133.872 87.729 133.586 88.239 133.325 88.7556C132.755 87.8748 132.117 87.0246 131.418 86.217C131.455 86.1684 131.492 86.1198 131.534 86.0712C131.667 85.9014 131.813 85.731 131.958 85.5612C132.019 85.4946 132.074 85.4274 132.135 85.3608C136.277 80.6844 142.636 77.7264 149.766 77.7264H149.772C157.326 77.7264 164.013 81.0546 168.113 86.217Z" fill="#007FFF"/>
<g opacity="0.5">
<path d="M137.174 101.813L137.095 105.026H135.753L135.832 101.789C135.972 95.9892 133.549 90.1524 129.194 85.7736C129.254 85.6944 129.315 85.6158 129.382 85.5366C129.534 85.3422 129.698 85.1538 129.856 84.9654C129.923 84.8928 129.99 84.8136 130.057 84.741L130.069 84.753C134.727 89.3934 137.314 95.613 137.174 101.813Z" fill="#007FFF"/>
<path d="M162.36 101.813L162.439 105.026H163.781L163.702 101.789C163.562 95.9892 165.986 90.1524 170.34 85.7736C170.28 85.6944 170.219 85.6158 170.152 85.5366C170 85.3422 169.836 85.1538 169.679 84.9654C169.612 84.8928 169.545 84.8136 169.478 84.741L169.466 84.753C164.807 89.3934 162.22 95.613 162.36 101.813Z" fill="#007FFF"/>
</g>
<path d="M158.24 105.909H141.294L144.943 78.2634C145.252 75.9276 147.218 74.1786 149.555 74.1786H149.978C152.316 74.1786 154.282 75.9276 154.591 78.2634L158.24 105.909Z" fill="#FFBE00"/>
<path d="M149.831 75.0318C149.831 75.0318 147.958 75.9162 147.578 77.7264C147.199 79.5366 145.453 97.6806 145.453 97.6806H147.882L149.001 78.069C149.001 78.069 149.021 76.4994 149.831 75.0318Z" fill="white"/>
<path opacity="0.5" d="M149.611 74.1786H149.555C147.218 74.1786 145.252 75.9276 144.943 78.2634L141.294 105.909H143.527L146.215 78.2634C146.442 75.9276 147.89 74.1786 149.611 74.1786Z" fill="#007FFF"/>
<path opacity="0.5" d="M154.59 78.2634C154.282 75.9276 152.316 74.1786 149.978 74.1786H149.922C151.644 74.1786 153.092 75.9276 153.319 78.2634L156.006 105.909H158.24L154.59 78.2634Z" fill="#007FFF"/>
<path d="M179.859 106.005C179.807 106.323 179.755 106.645 179.704 106.968C179.704 106.982 179.698 106.996 179.692 107.006C179.446 108.367 177.225 108.652 176.313 107.466C175.585 106.517 174.351 105.787 172.911 105.683C168.51 105.36 168.034 108.334 167.994 108.329C167.884 108.86 167.598 109.33 167.185 109.685C166.588 110.216 165.745 110.515 164.827 110.453C154.906 109.775 145.027 109.775 135.112 110.453C134.269 110.51 133.483 110.258 132.892 109.803C132.41 109.429 132.06 108.911 131.945 108.328C131.945 108.328 131.934 108.333 131.928 108.333C131.359 106.612 129.363 105.44 127.125 105.673C125.622 105.82 124.365 106.555 123.643 107.565C122.823 108.713 120.676 108.514 120.298 107.242C120.269 107.152 120.252 107.067 120.235 106.967C120.183 106.645 120.132 106.322 120.08 106.004C119.885 104.833 120.837 103.728 122.249 103.424C122.352 103.405 122.461 103.387 122.57 103.372C123.511 103.263 124.452 103.154 125.387 103.059C127.487 102.832 129.581 102.637 131.675 102.476C143.85 101.504 155.944 101.499 168.12 102.461C170.294 102.632 172.468 102.836 174.649 103.069C175.549 103.163 176.456 103.263 177.363 103.372C177.46 103.382 177.552 103.4 177.644 103.42C179.079 103.705 180.054 104.824 179.859 106.005Z" fill="#FFBE00"/>
<path opacity="0.5" d="M179.859 106.005C179.807 106.323 179.755 106.645 179.704 106.968C179.704 106.982 179.698 106.996 179.692 107.006C179.446 108.367 177.225 108.652 176.313 107.466C175.585 106.517 174.351 105.787 172.911 105.683C168.51 105.36 168.034 108.334 167.994 108.329C167.884 108.86 167.598 109.33 167.185 109.685C166.588 110.216 165.745 110.515 164.827 110.453C154.906 109.775 145.027 109.775 135.112 110.453C134.269 110.51 133.483 110.258 132.892 109.803C132.41 109.429 132.06 108.911 131.945 108.328C131.945 108.328 131.934 108.333 131.928 108.333C131.359 106.612 129.363 105.44 127.125 105.673C125.622 105.82 124.365 106.555 123.643 107.565C122.823 108.713 120.676 108.514 120.298 107.242C120.269 107.152 120.252 107.067 120.235 106.967C120.183 106.645 120.132 106.322 120.08 106.004C119.885 104.833 120.837 103.728 122.249 103.424C122.352 103.405 122.461 103.387 122.57 103.372C123.511 103.263 124.452 103.154 125.387 103.059C127.487 102.832 129.581 102.637 131.675 102.476C143.85 101.504 155.944 101.499 168.12 102.461C170.294 102.632 172.468 102.836 174.649 103.069C175.549 103.163 176.456 103.263 177.363 103.372C177.46 103.382 177.552 103.4 177.644 103.42C179.079 103.705 180.054 104.824 179.859 106.005Z" fill="#007FFF"/>
<path d="M168.12 104.04C167.127 104.789 166.812 105.695 166.788 105.695C166.599 106.198 166.255 106.639 165.813 106.97C165.181 107.459 164.367 107.734 163.54 107.677C154.51 107.051 145.427 107.051 136.396 107.677C135.633 107.729 134.876 107.502 134.268 107.08C133.762 106.733 133.356 106.25 133.149 105.695C133.149 105.695 133.143 105.7 133.137 105.7C132.816 105.059 132.3 104.49 131.674 104.054C143.85 103.082 155.945 103.077 168.12 104.04Z" fill="#FFBE00"/>
<g opacity="0.2">
<path d="M132.162 106.91C131.599 105.233 129.629 104.092 127.417 104.314C125.933 104.462 124.689 105.181 123.984 106.161C123.175 107.282 121.055 107.087 120.677 105.848C120.651 105.761 120.631 105.673 120.616 105.583C120.564 105.267 120.512 104.953 120.46 104.641C120.454 104.608 120.46 104.576 120.455 104.543C120.146 104.974 119.993 105.481 120.08 106.005C120.131 106.325 120.183 106.647 120.235 106.971C120.249 107.063 120.27 107.155 120.296 107.243C120.675 108.515 122.821 108.715 123.645 107.564C124.362 106.559 125.625 105.821 127.127 105.67C129.368 105.442 131.362 106.612 131.928 108.333C131.934 108.332 131.939 108.332 131.945 108.332C132.092 109.04 132.568 109.631 133.219 110.013C132.675 108.941 132.326 107.601 132.179 106.909C132.173 106.909 132.167 106.909 132.162 106.91Z" fill="#606060"/>
<path d="M179.481 104.543C179.477 104.576 179.483 104.608 179.477 104.641C179.425 104.953 179.372 105.266 179.321 105.583C179.319 105.594 179.317 105.605 179.315 105.617C179.068 106.942 176.869 107.218 175.972 106.067C175.253 105.14 174.041 104.425 172.621 104.324C168.28 104.014 167.795 106.911 167.757 106.908C167.61 107.6 167.262 108.94 166.717 110.012C167.368 109.631 167.843 109.04 167.99 108.331C168.029 108.334 168.514 105.361 172.911 105.679C174.35 105.783 175.579 106.516 176.311 107.467C177.223 108.649 179.45 108.366 179.696 107.006C179.698 106.994 179.7 106.982 179.702 106.97C179.753 106.646 179.804 106.324 179.857 106.004C179.943 105.481 179.791 104.974 179.481 104.543Z" fill="#606060"/>
</g>
<path opacity="0.2" d="M62.2572 63.9978H0V34.4532C10.3902 35.9826 11.9982 48.2304 11.9982 48.2304C11.9982 48.2304 13.9398 46.3722 16.2444 46.6176C18.5496 46.8672 18.8298 51.057 18.8298 51.057C18.8298 51.057 22.3662 47.481 28.716 48.8394C35.0658 50.1936 36.9456 56.9508 36.9456 56.9508C36.9456 56.9508 43.7028 51.8502 47.6424 59.9304C47.6424 59.9304 49.0926 57.9936 51.0738 58.0986C53.0592 58.2036 54.1542 61.7664 54.1542 61.7664C54.1542 61.7664 58.686 58.7436 62.2572 63.9978Z" fill="#007FFF"/>
<path opacity="0.2" d="M300 0.7104V24.8886H241.757C244.748 20.4858 248.545 23.0178 248.545 23.0178C248.545 23.0178 249.464 20.0328 251.126 19.9446C252.788 19.8564 254.004 21.4794 254.004 21.4794C257.305 14.7072 262.966 18.9828 262.966 18.9828C262.966 18.9828 264.544 13.3188 269.862 12.1848C275.18 11.0472 278.146 14.0424 278.146 14.0424C278.146 14.0424 278.381 10.5324 280.313 10.3242C282.246 10.119 283.872 11.6766 283.872 11.6766C283.872 11.6766 285.404 0 295.764 0C297.373 0 298.778 0.264 300 0.7104Z" fill="#007FFF"/>
</svg>
