<svg width="48" height="48" viewBox="0 0 48 48" fill="none" xmlns="http://www.w3.org/2000/svg">
<path d="M0 16.1C0 10.4051 0 7.55764 1.12587 5.39026C2.07462 3.56382 3.56382 2.07462 5.39026 1.12587C7.55764 0 10.4051 0 16.1 0H31.9C37.5949 0 40.4424 0 42.6097 1.12587C44.4362 2.07462 45.9254 3.56382 46.8741 5.39026C48 7.55764 48 10.4051 48 16.1V31.9C48 37.5949 48 40.4424 46.8741 42.6097C45.9254 44.4362 44.4362 45.9254 42.6097 46.8741C40.4424 48 37.5949 48 31.9 48H16.1C10.4051 48 7.55764 48 5.39026 46.8741C3.56382 45.9254 2.07462 44.4362 1.12587 42.6097C0 40.4424 0 37.5949 0 31.9V16.1Z" fill="#1EA1F2"/>
<path fill-rule="evenodd" clip-rule="evenodd" d="M37.3222 18.1521C37.3339 18.452 37.3377 18.7516 37.3377 19.0514C37.3377 28.1409 30.9437 38.6342 19.2513 38.6342C15.6596 38.6342 12.3198 37.4895 9.50586 35.5407C10.0033 35.5953 10.5084 35.6362 11.0214 35.6362C13.9994 35.6362 16.7423 34.5322 18.918 32.6789C16.1363 32.638 13.7875 30.6347 12.9774 27.9093C13.3663 27.991 13.7668 28.032 14.1764 28.032C14.7539 28.032 15.3146 27.9504 15.8521 27.7868C12.9412 27.16 10.7488 24.38 10.7488 21.0413C10.7488 21.0004 10.7488 20.9867 10.7488 20.9595C11.6066 21.4637 12.5885 21.777 13.6311 21.8178C11.9231 20.5777 10.8004 18.4656 10.8004 16.0808C10.8004 14.827 11.1131 13.6414 11.6634 12.6193C14.7978 16.7893 19.4838 19.5285 24.7668 19.8147C24.6582 19.3104 24.6027 18.7791 24.6027 18.2476C24.6027 14.4456 27.4489 11.3657 30.9605 11.3657C32.7886 11.3657 34.4398 12.1971 35.5987 13.5326C37.0496 13.2328 38.4088 12.6605 39.6387 11.8701C39.162 13.4781 38.1555 14.827 36.8403 15.6719C38.1271 15.5083 39.3545 15.1407 40.4928 14.5956C39.6388 15.9719 38.5638 17.1846 37.3222 18.1521Z" fill="white"/>
</svg>
