<svg width="48" height="48" viewBox="0 0 48 48" fill="none" xmlns="http://www.w3.org/2000/svg">
<path d="M0 16.1C0 10.4051 0 7.55764 1.12587 5.39026C2.07462 3.56382 3.56382 2.07462 5.39026 1.12587C7.55764 0 10.4051 0 16.1 0H31.9C37.5949 0 40.4424 0 42.6097 1.12587C44.4362 2.07462 45.9254 3.56382 46.8741 5.39026C48 7.55764 48 10.4051 48 16.1V31.9C48 37.5949 48 40.4424 46.8741 42.6097C45.9254 44.4362 44.4362 45.9254 42.6097 46.8741C40.4424 48 37.5949 48 31.9 48H16.1C10.4051 48 7.55764 48 5.39026 46.8741C3.56382 45.9254 2.07462 44.4362 1.12587 42.6097C0 40.4424 0 37.5949 0 31.9V16.1Z" fill="url(#paint0_linear_951_433)"/>
<path fill-rule="evenodd" clip-rule="evenodd" d="M25.3932 6.59265C29.6419 6.80146 33.6009 8.55351 36.6247 11.5794C39.8502 14.8068 41.6255 19.0969 41.6238 23.6593C41.6199 33.0742 33.9554 40.7345 24.54 40.7345H24.5329C21.6736 40.7335 18.8642 40.0166 16.3689 38.6562L7.3125 41.0307L9.73621 32.1823C8.24119 29.5927 7.45451 26.6554 7.45575 23.6458C7.45953 14.2311 15.1234 6.57153 24.5398 6.57153L25.3932 6.59265ZM16.7885 35.5649L17.3071 35.8725C19.4872 37.1656 21.9862 37.8498 24.5342 37.8508H24.5399C32.3663 37.8508 38.7361 31.4839 38.7393 23.6583C38.7407 19.8661 37.2652 16.3004 34.5843 13.6178C31.9034 10.935 28.3383 9.45676 24.5456 9.45553C16.7132 9.45553 10.3433 15.8217 10.3402 23.6467C10.3391 26.3285 11.0898 28.9402 12.5112 31.1997L12.8488 31.7368L11.4143 36.974L16.7885 35.5649ZM33.1467 27.7198C33.04 27.5417 32.7555 27.435 32.3286 27.2214C31.9017 27.0078 29.803 25.9757 29.4118 25.8332C29.0205 25.691 28.7359 25.6198 28.4514 26.0468C28.1668 26.4739 27.3488 27.435 27.0997 27.7198C26.8507 28.0045 26.6017 28.0401 26.1749 27.8266C25.748 27.6131 24.3726 27.1624 22.7421 25.7089C21.4731 24.5775 20.6164 23.1804 20.3674 22.7533C20.1185 22.3262 20.3409 22.0952 20.5545 21.8825C20.7466 21.6913 20.9815 21.3842 21.1949 21.135C21.4084 20.886 21.4794 20.7079 21.6218 20.4232C21.7641 20.1385 21.6929 19.8894 21.5862 19.6758C21.4794 19.4622 20.6258 17.3621 20.2701 16.5078C19.9235 15.6759 19.5716 15.7885 19.3096 15.7754C19.0609 15.763 18.7761 15.7603 18.4915 15.7603C18.2069 15.7603 17.7445 15.867 17.3532 16.2943C16.9619 16.7213 15.8592 17.7536 15.8592 19.8536C15.8592 21.9538 17.3888 23.9824 17.6022 24.2672C17.8156 24.5521 20.6122 28.8613 24.8943 30.7096C25.9127 31.1492 26.7079 31.4117 27.3278 31.6083C28.3504 31.933 29.2809 31.8873 30.0165 31.7774C30.8366 31.6549 32.542 30.7452 32.8977 29.7487C33.2534 28.7519 33.2534 27.8977 33.1467 27.7198Z" fill="white"/>
<defs>
<linearGradient id="paint0_linear_951_433" x1="24" y1="48" x2="24" y2="0" gradientUnits="userSpaceOnUse">
<stop stop-color="#25CF43"/>
<stop offset="1" stop-color="#61FD7D"/>
</linearGradient>
</defs>
</svg>
